<svg width="6" height="9" viewBox="0 0 6 9" fill="none" xmlns="http://www.w3.org/2000/svg">
<path d="M-2.30753e-07 0.642857C-2.32176e-07 0.523471 0.0310286 0.406443 0.0896093 0.304887C0.14819 0.203331 0.232008 0.12126 0.331672 0.0678685C0.431335 0.0144774 0.542906 -0.00812359 0.653883 0.00259796C0.76486 0.0133195 0.870858 0.0569399 0.96 0.128572L5.76 3.98571C5.83452 4.04559 5.895 4.12324 5.93666 4.21251C5.97831 4.30177 6 4.4002 6 4.5C6 4.5998 5.97831 4.69823 5.93666 4.78749C5.895 4.87676 5.83452 4.95441 5.76 5.01429L0.96 8.87143C0.870858 8.94306 0.76486 8.98668 0.653883 8.9974C0.542906 9.00812 0.431335 8.98552 0.331672 8.93213C0.232008 8.87874 0.14819 8.79667 0.0896094 8.69511C0.0310287 8.59356 -1.37337e-07 8.47653 -1.38761e-07 8.35714L-2.30753e-07 0.642857Z" fill="#392110"/>
</svg>
