<svg width="7" height="10" viewBox="0 0 7 10" fill="none" xmlns="http://www.w3.org/2000/svg">
<path d="M0.000132296 0.707143C0.000132301 0.575818 0.0343345 0.447087 0.0989065 0.335376C0.163478 0.223664 0.255869 0.133385 0.365725 0.074655C0.475582 0.0159247 0.598563 -0.00893633 0.72089 0.00285738C0.843217 0.0146511 0.960056 0.0626335 1.05831 0.141428L6.34922 4.38428C6.43136 4.45015 6.49803 4.53557 6.54395 4.63376C6.58986 4.73195 6.61377 4.84022 6.61377 4.95C6.61377 5.05978 6.58986 5.16805 6.54395 5.26624C6.49803 5.36443 6.43136 5.44985 6.34922 5.51571L1.05831 9.75857C0.960056 9.83736 0.843217 9.88535 0.72089 9.89714C0.598563 9.90893 0.475581 9.88407 0.365725 9.82534C0.255869 9.76661 0.163478 9.67633 0.0989061 9.56462C0.0343342 9.45291 0.000131973 9.32418 0.000131978 9.19285L0.000132296 0.707143Z" fill="white"/>
</svg>
