<svg width="374" height="36" viewBox="0 0 374 36" fill="none" xmlns="http://www.w3.org/2000/svg">
<path d="M314.616 15.9844L314.616 20.0157L309.91 20.0157L309.91 15.9844L314.616 15.9844Z" fill="url(#paint0_linear_9_2362)"/>
<path d="M319.326 11.9531L319.326 15.9844L314.62 15.9844L314.62 11.9531L319.326 11.9531Z" fill="url(#paint1_linear_9_2362)"/>
<path d="M309.91 11.9531L309.91 15.9844L305.203 15.9844L305.203 11.9531L309.91 11.9531Z" fill="url(#paint2_linear_9_2362)"/>
<path d="M319.326 20.0113L319.326 24.0425L314.62 24.0425L314.62 20.0113L319.326 20.0113Z" fill="url(#paint3_linear_9_2362)"/>
<path d="M309.91 20.0113L309.91 24.0425L305.203 24.0425L305.203 20.0113L309.91 20.0113Z" fill="url(#paint4_linear_9_2362)"/>
<path d="M342.861 20.0113L342.861 24.0425L338.155 24.0425L338.155 20.0113L342.861 20.0113Z" fill="url(#paint5_linear_9_2362)"/>
<path d="M342.861 11.9531L342.861 15.9844L338.155 15.9844L338.155 11.9531L342.861 11.9531Z" fill="url(#paint6_linear_9_2362)"/>
<path d="M347.571 15.9844L347.571 20.0157L342.865 20.0157L342.865 15.9844L347.571 15.9844Z" fill="url(#paint7_linear_9_2362)"/>
<path d="M338.155 15.9844L338.155 20.0157L333.449 20.0157L333.449 15.9844L338.155 15.9844Z" fill="url(#paint8_linear_9_2362)"/>
<path d="M258.126 15.9844L258.126 20.0156L253.419 20.0156L253.42 15.9844L258.126 15.9844Z" fill="url(#paint9_linear_9_2362)"/>
<path d="M262.832 11.9531L262.832 15.9844L258.126 15.9844L258.126 11.9531L262.832 11.9531Z" fill="url(#paint10_linear_9_2362)"/>
<path d="M253.419 11.9531L253.419 15.9844L248.713 15.9844L248.713 11.9531L253.419 11.9531Z" fill="url(#paint11_linear_9_2362)"/>
<path d="M262.832 20.0112L262.832 24.0425L258.126 24.0425L258.126 20.0112L262.832 20.0112Z" fill="url(#paint12_linear_9_2362)"/>
<path d="M253.419 20.0112L253.419 24.0425L248.713 24.0425L248.713 20.0112L253.419 20.0112Z" fill="url(#paint13_linear_9_2362)"/>
<path d="M286.371 20.0113L286.371 24.0425L281.665 24.0425L281.665 20.0112L286.371 20.0113Z" fill="url(#paint14_linear_9_2362)"/>
<path d="M286.371 11.9531L286.371 15.9844L281.665 15.9844L281.665 11.9531L286.371 11.9531Z" fill="url(#paint15_linear_9_2362)"/>
<path d="M291.077 15.9844L291.077 20.0157L286.371 20.0157L286.371 15.9844L291.077 15.9844Z" fill="url(#paint16_linear_9_2362)"/>
<path d="M281.665 15.9844L281.665 20.0157L276.958 20.0157L276.958 15.9844L281.665 15.9844Z" fill="url(#paint17_linear_9_2362)"/>
<path d="M201.635 15.9844L201.635 20.0156L196.929 20.0156L196.929 15.9844L201.635 15.9844Z" fill="url(#paint18_linear_9_2362)"/>
<path d="M206.342 11.9531L206.342 15.9844L201.636 15.9844L201.636 11.9531L206.342 11.9531Z" fill="url(#paint19_linear_9_2362)"/>
<path d="M196.929 11.9531L196.929 15.9844L192.223 15.9844L192.223 11.9531L196.929 11.9531Z" fill="url(#paint20_linear_9_2362)"/>
<path d="M206.342 20.0112L206.342 24.0425L201.636 24.0425L201.636 20.0112L206.342 20.0112Z" fill="url(#paint21_linear_9_2362)"/>
<path d="M196.929 20.0112L196.929 24.0425L192.223 24.0425L192.223 20.0112L196.929 20.0112Z" fill="url(#paint22_linear_9_2362)"/>
<path d="M229.88 20.0112L229.88 24.0425L225.174 24.0425L225.174 20.0112L229.88 20.0112Z" fill="url(#paint23_linear_9_2362)"/>
<path d="M229.88 11.9531L229.88 15.9844L225.174 15.9844L225.174 11.9531L229.88 11.9531Z" fill="url(#paint24_linear_9_2362)"/>
<path d="M234.587 15.9844L234.587 20.0156L229.88 20.0156L229.88 15.9844L234.587 15.9844Z" fill="url(#paint25_linear_9_2362)"/>
<path d="M225.174 15.9844L225.174 20.0156L220.468 20.0156L220.468 15.9844L225.174 15.9844Z" fill="url(#paint26_linear_9_2362)"/>
<path d="M145.145 15.9844L145.145 20.0156L140.439 20.0156L140.439 15.9844L145.145 15.9844Z" fill="url(#paint27_linear_9_2362)"/>
<path d="M149.851 11.9531L149.851 15.9844L145.145 15.9844L145.145 11.9531L149.851 11.9531Z" fill="url(#paint28_linear_9_2362)"/>
<path d="M140.439 11.9531L140.439 15.9844L135.733 15.9844L135.733 11.9531L140.439 11.9531Z" fill="url(#paint29_linear_9_2362)"/>
<path d="M149.851 20.0112L149.851 24.0425L145.145 24.0425L145.145 20.0112L149.851 20.0112Z" fill="url(#paint30_linear_9_2362)"/>
<path d="M140.439 20.0112L140.439 24.0425L135.733 24.0425L135.733 20.0112L140.439 20.0112Z" fill="url(#paint31_linear_9_2362)"/>
<path d="M173.39 20.0112L173.39 24.0425L168.684 24.0425L168.684 20.0112L173.39 20.0112Z" fill="url(#paint32_linear_9_2362)"/>
<path d="M173.39 11.9531L173.39 15.9844L168.684 15.9844L168.684 11.9531L173.39 11.9531Z" fill="url(#paint33_linear_9_2362)"/>
<path d="M178.096 15.9844L178.096 20.0156L173.39 20.0156L173.39 15.9844L178.096 15.9844Z" fill="url(#paint34_linear_9_2362)"/>
<path d="M168.684 15.9844L168.684 20.0156L163.978 20.0156L163.978 15.9844L168.684 15.9844Z" fill="url(#paint35_linear_9_2362)"/>
<path d="M88.6553 15.9843L88.6553 20.0156L83.9493 20.0156L83.9493 15.9843L88.6553 15.9843Z" fill="url(#paint36_linear_9_2362)"/>
<path d="M93.3614 11.9531L93.3614 15.9844L88.6554 15.9843L88.6554 11.9531L93.3614 11.9531Z" fill="url(#paint37_linear_9_2362)"/>
<path d="M83.9449 11.9531L83.9449 15.9843L79.2389 15.9843L79.2389 11.9531L83.9449 11.9531Z" fill="url(#paint38_linear_9_2362)"/>
<path d="M93.3614 20.0112L93.3614 24.0425L88.6553 24.0425L88.6553 20.0112L93.3614 20.0112Z" fill="url(#paint39_linear_9_2362)"/>
<path d="M83.9449 20.0112L83.9449 24.0425L79.2389 24.0425L79.2389 20.0112L83.9449 20.0112Z" fill="url(#paint40_linear_9_2362)"/>
<path d="M116.9 20.0112L116.9 24.0425L112.194 24.0425L112.194 20.0112L116.9 20.0112Z" fill="url(#paint41_linear_9_2362)"/>
<path d="M116.9 11.9531L116.9 15.9844L112.194 15.9843L112.194 11.9531L116.9 11.9531Z" fill="url(#paint42_linear_9_2362)"/>
<path d="M121.606 15.9843L121.606 20.0156L116.9 20.0156L116.9 15.9843L121.606 15.9843Z" fill="url(#paint43_linear_9_2362)"/>
<path d="M112.194 15.9843L112.194 20.0156L107.488 20.0156L107.488 15.9843L112.194 15.9843Z" fill="url(#paint44_linear_9_2362)"/>
<path d="M32.1653 15.9843L32.1653 20.0156L27.4592 20.0156L27.4592 15.9843L32.1653 15.9843Z" fill="url(#paint45_linear_9_2362)"/>
<path d="M36.8714 11.9531L36.8714 15.9843L32.1653 15.9843L32.1653 11.9531L36.8714 11.9531Z" fill="url(#paint46_linear_9_2362)"/>
<path d="M27.4549 11.9531L27.4549 15.9843L22.7488 15.9843L22.7488 11.9531L27.4549 11.9531Z" fill="url(#paint47_linear_9_2362)"/>
<path d="M36.8713 20.0112L36.8713 24.0425L32.1653 24.0425L32.1653 20.0112L36.8713 20.0112Z" fill="url(#paint48_linear_9_2362)"/>
<path d="M27.4549 20.0112L27.4549 24.0425L22.7488 24.0425L22.7488 20.0112L27.4549 20.0112Z" fill="url(#paint49_linear_9_2362)"/>
<path d="M60.4103 20.0112L60.4103 24.0425L55.7043 24.0425L55.7043 20.0112L60.4103 20.0112Z" fill="url(#paint50_linear_9_2362)"/>
<path d="M60.4103 11.9531L60.4103 15.9843L55.7043 15.9843L55.7043 11.9531L60.4103 11.9531Z" fill="url(#paint51_linear_9_2362)"/>
<path d="M65.1164 15.9843L65.1164 20.0156L60.4103 20.0156L60.4103 15.9843L65.1164 15.9843Z" fill="url(#paint52_linear_9_2362)"/>
<path d="M55.6999 15.9843L55.6999 20.0156L50.9939 20.0156L50.9939 15.9843L55.6999 15.9843Z" fill="url(#paint53_linear_9_2362)"/>
<path d="M374 35.3443L374 36L0 36L2.86635e-08 35.3442L374 35.3443Z" fill="url(#paint54_linear_9_2362)"/>
<path d="M374 31.9071L374 32.5628L0 32.5628L2.86635e-08 31.9071L374 31.9071Z" fill="url(#paint55_linear_9_2362)"/>
<path d="M374 1.77026e-05L374 0.655766L0 0.655749L2.86636e-08 1.35452e-06L374 1.77026e-05Z" fill="url(#paint56_linear_9_2362)"/>
<path d="M374 3.43718L374 4.09292L0 4.09291L2.86635e-08 3.43716L374 3.43718Z" fill="url(#paint57_linear_9_2362)"/>
<defs>
<linearGradient id="paint0_linear_9_2362" x1="8.29894" y1="18" x2="363.837" y2="18" gradientUnits="userSpaceOnUse">
<stop offset="0.02" stop-color="#5F3832"/>
<stop offset="0.43" stop-color="#D85219"/>
<stop offset="0.74" stop-color="#EB7C1C"/>
<stop offset="1" stop-color="#F6C31F"/>
</linearGradient>
<linearGradient id="paint1_linear_9_2362" x1="8.29876" y1="13.9687" x2="363.837" y2="13.9687" gradientUnits="userSpaceOnUse">
<stop offset="0.02" stop-color="#5F3832"/>
<stop offset="0.43" stop-color="#D85219"/>
<stop offset="0.74" stop-color="#EB7C1C"/>
<stop offset="1" stop-color="#F6C31F"/>
</linearGradient>
<linearGradient id="paint2_linear_9_2362" x1="8.29893" y1="13.9687" x2="363.837" y2="13.9687" gradientUnits="userSpaceOnUse">
<stop offset="0.02" stop-color="#5F3832"/>
<stop offset="0.43" stop-color="#D85219"/>
<stop offset="0.74" stop-color="#EB7C1C"/>
<stop offset="1" stop-color="#F6C31F"/>
</linearGradient>
<linearGradient id="paint3_linear_9_2362" x1="8.29876" y1="22.0313" x2="363.837" y2="22.0313" gradientUnits="userSpaceOnUse">
<stop offset="0.02" stop-color="#5F3832"/>
<stop offset="0.43" stop-color="#D85219"/>
<stop offset="0.74" stop-color="#EB7C1C"/>
<stop offset="1" stop-color="#F6C31F"/>
</linearGradient>
<linearGradient id="paint4_linear_9_2362" x1="8.29893" y1="22.0313" x2="363.837" y2="22.0313" gradientUnits="userSpaceOnUse">
<stop offset="0.02" stop-color="#5F3832"/>
<stop offset="0.43" stop-color="#D85219"/>
<stop offset="0.74" stop-color="#EB7C1C"/>
<stop offset="1" stop-color="#F6C31F"/>
</linearGradient>
<linearGradient id="paint5_linear_9_2362" x1="8.29894" y1="22.0313" x2="363.837" y2="22.0313" gradientUnits="userSpaceOnUse">
<stop offset="0.02" stop-color="#5F3832"/>
<stop offset="0.43" stop-color="#D85219"/>
<stop offset="0.74" stop-color="#EB7C1C"/>
<stop offset="1" stop-color="#F6C31F"/>
</linearGradient>
<linearGradient id="paint6_linear_9_2362" x1="8.29894" y1="13.9687" x2="363.837" y2="13.9687" gradientUnits="userSpaceOnUse">
<stop offset="0.02" stop-color="#5F3832"/>
<stop offset="0.43" stop-color="#D85219"/>
<stop offset="0.74" stop-color="#EB7C1C"/>
<stop offset="1" stop-color="#F6C31F"/>
</linearGradient>
<linearGradient id="paint7_linear_9_2362" x1="8.29894" y1="36" x2="363.837" y2="35.567" gradientUnits="userSpaceOnUse">
<stop offset="0.02" stop-color="#5F3832"/>
<stop offset="0.43" stop-color="#D85219"/>
<stop offset="0.74" stop-color="#EB7C1C"/>
<stop offset="1" stop-color="#F6C31F"/>
</linearGradient>
<linearGradient id="paint8_linear_9_2362" x1="8.29894" y1="36" x2="363.837" y2="35.567" gradientUnits="userSpaceOnUse">
<stop offset="0.02" stop-color="#5F3832"/>
<stop offset="0.43" stop-color="#D85219"/>
<stop offset="0.74" stop-color="#EB7C1C"/>
<stop offset="1" stop-color="#F6C31F"/>
</linearGradient>
<linearGradient id="paint9_linear_9_2362" x1="8.3033" y1="36" x2="363.837" y2="35.567" gradientUnits="userSpaceOnUse">
<stop offset="0.02" stop-color="#5F3832"/>
<stop offset="0.43" stop-color="#D85219"/>
<stop offset="0.74" stop-color="#EB7C1C"/>
<stop offset="1" stop-color="#F6C31F"/>
</linearGradient>
<linearGradient id="paint10_linear_9_2362" x1="8.29895" y1="13.9687" x2="363.837" y2="13.9687" gradientUnits="userSpaceOnUse">
<stop offset="0.02" stop-color="#5F3832"/>
<stop offset="0.43" stop-color="#D85219"/>
<stop offset="0.74" stop-color="#EB7C1C"/>
<stop offset="1" stop-color="#F6C31F"/>
</linearGradient>
<linearGradient id="paint11_linear_9_2362" x1="8.29893" y1="13.9687" x2="363.837" y2="13.9687" gradientUnits="userSpaceOnUse">
<stop offset="0.02" stop-color="#5F3832"/>
<stop offset="0.43" stop-color="#D85219"/>
<stop offset="0.74" stop-color="#EB7C1C"/>
<stop offset="1" stop-color="#F6C31F"/>
</linearGradient>
<linearGradient id="paint12_linear_9_2362" x1="8.29895" y1="22.0313" x2="363.837" y2="22.0313" gradientUnits="userSpaceOnUse">
<stop offset="0.02" stop-color="#5F3832"/>
<stop offset="0.43" stop-color="#D85219"/>
<stop offset="0.74" stop-color="#EB7C1C"/>
<stop offset="1" stop-color="#F6C31F"/>
</linearGradient>
<linearGradient id="paint13_linear_9_2362" x1="8.29893" y1="22.0313" x2="363.837" y2="22.0313" gradientUnits="userSpaceOnUse">
<stop offset="0.02" stop-color="#5F3832"/>
<stop offset="0.43" stop-color="#D85219"/>
<stop offset="0.74" stop-color="#EB7C1C"/>
<stop offset="1" stop-color="#F6C31F"/>
</linearGradient>
<linearGradient id="paint14_linear_9_2362" x1="8.29894" y1="22.0313" x2="363.837" y2="22.0313" gradientUnits="userSpaceOnUse">
<stop offset="0.02" stop-color="#5F3832"/>
<stop offset="0.43" stop-color="#D85219"/>
<stop offset="0.74" stop-color="#EB7C1C"/>
<stop offset="1" stop-color="#F6C31F"/>
</linearGradient>
<linearGradient id="paint15_linear_9_2362" x1="8.29894" y1="13.9687" x2="363.837" y2="13.9687" gradientUnits="userSpaceOnUse">
<stop offset="0.02" stop-color="#5F3832"/>
<stop offset="0.43" stop-color="#D85219"/>
<stop offset="0.74" stop-color="#EB7C1C"/>
<stop offset="1" stop-color="#F6C31F"/>
</linearGradient>
<linearGradient id="paint16_linear_9_2362" x1="8.29895" y1="36" x2="363.837" y2="35.567" gradientUnits="userSpaceOnUse">
<stop offset="0.02" stop-color="#5F3832"/>
<stop offset="0.43" stop-color="#D85219"/>
<stop offset="0.74" stop-color="#EB7C1C"/>
<stop offset="1" stop-color="#F6C31F"/>
</linearGradient>
<linearGradient id="paint17_linear_9_2362" x1="8.29894" y1="36" x2="363.837" y2="35.567" gradientUnits="userSpaceOnUse">
<stop offset="0.02" stop-color="#5F3832"/>
<stop offset="0.43" stop-color="#D85219"/>
<stop offset="0.74" stop-color="#EB7C1C"/>
<stop offset="1" stop-color="#F6C31F"/>
</linearGradient>
<linearGradient id="paint18_linear_9_2362" x1="8.29895" y1="36" x2="363.837" y2="35.567" gradientUnits="userSpaceOnUse">
<stop offset="0.02" stop-color="#5F3832"/>
<stop offset="0.43" stop-color="#D85219"/>
<stop offset="0.74" stop-color="#EB7C1C"/>
<stop offset="1" stop-color="#F6C31F"/>
</linearGradient>
<linearGradient id="paint19_linear_9_2362" x1="8.29895" y1="13.9687" x2="363.837" y2="13.9687" gradientUnits="userSpaceOnUse">
<stop offset="0.02" stop-color="#5F3832"/>
<stop offset="0.43" stop-color="#D85219"/>
<stop offset="0.74" stop-color="#EB7C1C"/>
<stop offset="1" stop-color="#F6C31F"/>
</linearGradient>
<linearGradient id="paint20_linear_9_2362" x1="8.29845" y1="13.9687" x2="363.838" y2="13.9687" gradientUnits="userSpaceOnUse">
<stop offset="0.02" stop-color="#5F3832"/>
<stop offset="0.43" stop-color="#D85219"/>
<stop offset="0.74" stop-color="#EB7C1C"/>
<stop offset="1" stop-color="#F6C31F"/>
</linearGradient>
<linearGradient id="paint21_linear_9_2362" x1="8.29895" y1="22.0313" x2="363.837" y2="22.0313" gradientUnits="userSpaceOnUse">
<stop offset="0.02" stop-color="#5F3832"/>
<stop offset="0.43" stop-color="#D85219"/>
<stop offset="0.74" stop-color="#EB7C1C"/>
<stop offset="1" stop-color="#F6C31F"/>
</linearGradient>
<linearGradient id="paint22_linear_9_2362" x1="8.29845" y1="22.0313" x2="363.838" y2="22.0313" gradientUnits="userSpaceOnUse">
<stop offset="0.02" stop-color="#5F3832"/>
<stop offset="0.43" stop-color="#D85219"/>
<stop offset="0.74" stop-color="#EB7C1C"/>
<stop offset="1" stop-color="#F6C31F"/>
</linearGradient>
<linearGradient id="paint23_linear_9_2362" x1="8.29891" y1="22.0313" x2="363.837" y2="22.0313" gradientUnits="userSpaceOnUse">
<stop offset="0.02" stop-color="#5F3832"/>
<stop offset="0.43" stop-color="#D85219"/>
<stop offset="0.74" stop-color="#EB7C1C"/>
<stop offset="1" stop-color="#F6C31F"/>
</linearGradient>
<linearGradient id="paint24_linear_9_2362" x1="8.29891" y1="13.9687" x2="363.837" y2="13.9687" gradientUnits="userSpaceOnUse">
<stop offset="0.02" stop-color="#5F3832"/>
<stop offset="0.43" stop-color="#D85219"/>
<stop offset="0.74" stop-color="#EB7C1C"/>
<stop offset="1" stop-color="#F6C31F"/>
</linearGradient>
<linearGradient id="paint25_linear_9_2362" x1="8.29892" y1="36" x2="363.837" y2="35.567" gradientUnits="userSpaceOnUse">
<stop offset="0.02" stop-color="#5F3832"/>
<stop offset="0.43" stop-color="#D85219"/>
<stop offset="0.74" stop-color="#EB7C1C"/>
<stop offset="1" stop-color="#F6C31F"/>
</linearGradient>
<linearGradient id="paint26_linear_9_2362" x1="8.29891" y1="36" x2="363.837" y2="35.567" gradientUnits="userSpaceOnUse">
<stop offset="0.02" stop-color="#5F3832"/>
<stop offset="0.43" stop-color="#D85219"/>
<stop offset="0.74" stop-color="#EB7C1C"/>
<stop offset="1" stop-color="#F6C31F"/>
</linearGradient>
<linearGradient id="paint27_linear_9_2362" x1="8.29854" y1="36" x2="363.838" y2="35.567" gradientUnits="userSpaceOnUse">
<stop offset="0.02" stop-color="#5F3832"/>
<stop offset="0.43" stop-color="#D85219"/>
<stop offset="0.74" stop-color="#EB7C1C"/>
<stop offset="1" stop-color="#F6C31F"/>
</linearGradient>
<linearGradient id="paint28_linear_9_2362" x1="8.29928" y1="13.9687" x2="363.836" y2="13.9687" gradientUnits="userSpaceOnUse">
<stop offset="0.02" stop-color="#5F3832"/>
<stop offset="0.43" stop-color="#D85219"/>
<stop offset="0.74" stop-color="#EB7C1C"/>
<stop offset="1" stop-color="#F6C31F"/>
</linearGradient>
<linearGradient id="paint29_linear_9_2362" x1="8.29928" y1="13.9687" x2="363.836" y2="13.9687" gradientUnits="userSpaceOnUse">
<stop offset="0.02" stop-color="#5F3832"/>
<stop offset="0.43" stop-color="#D85219"/>
<stop offset="0.74" stop-color="#EB7C1C"/>
<stop offset="1" stop-color="#F6C31F"/>
</linearGradient>
<linearGradient id="paint30_linear_9_2362" x1="8.29928" y1="22.0313" x2="363.836" y2="22.0313" gradientUnits="userSpaceOnUse">
<stop offset="0.02" stop-color="#5F3832"/>
<stop offset="0.43" stop-color="#D85219"/>
<stop offset="0.74" stop-color="#EB7C1C"/>
<stop offset="1" stop-color="#F6C31F"/>
</linearGradient>
<linearGradient id="paint31_linear_9_2362" x1="8.29928" y1="22.0313" x2="363.836" y2="22.0313" gradientUnits="userSpaceOnUse">
<stop offset="0.02" stop-color="#5F3832"/>
<stop offset="0.43" stop-color="#D85219"/>
<stop offset="0.74" stop-color="#EB7C1C"/>
<stop offset="1" stop-color="#F6C31F"/>
</linearGradient>
<linearGradient id="paint32_linear_9_2362" x1="8.29894" y1="22.0313" x2="363.837" y2="22.0313" gradientUnits="userSpaceOnUse">
<stop offset="0.02" stop-color="#5F3832"/>
<stop offset="0.43" stop-color="#D85219"/>
<stop offset="0.74" stop-color="#EB7C1C"/>
<stop offset="1" stop-color="#F6C31F"/>
</linearGradient>
<linearGradient id="paint33_linear_9_2362" x1="8.29894" y1="13.9687" x2="363.837" y2="13.9687" gradientUnits="userSpaceOnUse">
<stop offset="0.02" stop-color="#5F3832"/>
<stop offset="0.43" stop-color="#D85219"/>
<stop offset="0.74" stop-color="#EB7C1C"/>
<stop offset="1" stop-color="#F6C31F"/>
</linearGradient>
<linearGradient id="paint34_linear_9_2362" x1="8.29892" y1="36" x2="363.837" y2="35.567" gradientUnits="userSpaceOnUse">
<stop offset="0.02" stop-color="#5F3832"/>
<stop offset="0.43" stop-color="#D85219"/>
<stop offset="0.74" stop-color="#EB7C1C"/>
<stop offset="1" stop-color="#F6C31F"/>
</linearGradient>
<linearGradient id="paint35_linear_9_2362" x1="8.29893" y1="36" x2="363.837" y2="35.567" gradientUnits="userSpaceOnUse">
<stop offset="0.02" stop-color="#5F3832"/>
<stop offset="0.43" stop-color="#D85219"/>
<stop offset="0.74" stop-color="#EB7C1C"/>
<stop offset="1" stop-color="#F6C31F"/>
</linearGradient>
<linearGradient id="paint36_linear_9_2362" x1="8.29913" y1="36" x2="363.832" y2="35.567" gradientUnits="userSpaceOnUse">
<stop offset="0.02" stop-color="#5F3832"/>
<stop offset="0.43" stop-color="#D85219"/>
<stop offset="0.74" stop-color="#EB7C1C"/>
<stop offset="1" stop-color="#F6C31F"/>
</linearGradient>
<linearGradient id="paint37_linear_9_2362" x1="8.29869" y1="13.9687" x2="363.838" y2="13.9687" gradientUnits="userSpaceOnUse">
<stop offset="0.02" stop-color="#5F3832"/>
<stop offset="0.43" stop-color="#D85219"/>
<stop offset="0.74" stop-color="#EB7C1C"/>
<stop offset="1" stop-color="#F6C31F"/>
</linearGradient>
<linearGradient id="paint38_linear_9_2362" x1="8.2987" y1="13.9687" x2="363.838" y2="13.9687" gradientUnits="userSpaceOnUse">
<stop offset="0.02" stop-color="#5F3832"/>
<stop offset="0.43" stop-color="#D85219"/>
<stop offset="0.74" stop-color="#EB7C1C"/>
<stop offset="1" stop-color="#F6C31F"/>
</linearGradient>
<linearGradient id="paint39_linear_9_2362" x1="8.29867" y1="22.0313" x2="363.838" y2="22.0313" gradientUnits="userSpaceOnUse">
<stop offset="0.02" stop-color="#5F3832"/>
<stop offset="0.43" stop-color="#D85219"/>
<stop offset="0.74" stop-color="#EB7C1C"/>
<stop offset="1" stop-color="#F6C31F"/>
</linearGradient>
<linearGradient id="paint40_linear_9_2362" x1="8.2987" y1="22.0313" x2="363.838" y2="22.0313" gradientUnits="userSpaceOnUse">
<stop offset="0.02" stop-color="#5F3832"/>
<stop offset="0.43" stop-color="#D85219"/>
<stop offset="0.74" stop-color="#EB7C1C"/>
<stop offset="1" stop-color="#F6C31F"/>
</linearGradient>
<linearGradient id="paint41_linear_9_2362" x1="8.29862" y1="22.0313" x2="363.838" y2="22.0313" gradientUnits="userSpaceOnUse">
<stop offset="0.02" stop-color="#5F3832"/>
<stop offset="0.43" stop-color="#D85219"/>
<stop offset="0.74" stop-color="#EB7C1C"/>
<stop offset="1" stop-color="#F6C31F"/>
</linearGradient>
<linearGradient id="paint42_linear_9_2362" x1="8.29862" y1="13.9687" x2="363.838" y2="13.9687" gradientUnits="userSpaceOnUse">
<stop offset="0.02" stop-color="#5F3832"/>
<stop offset="0.43" stop-color="#D85219"/>
<stop offset="0.74" stop-color="#EB7C1C"/>
<stop offset="1" stop-color="#F6C31F"/>
</linearGradient>
<linearGradient id="paint43_linear_9_2362" x1="8.29921" y1="36" x2="363.836" y2="35.567" gradientUnits="userSpaceOnUse">
<stop offset="0.02" stop-color="#5F3832"/>
<stop offset="0.43" stop-color="#D85219"/>
<stop offset="0.74" stop-color="#EB7C1C"/>
<stop offset="1" stop-color="#F6C31F"/>
</linearGradient>
<linearGradient id="paint44_linear_9_2362" x1="8.2992" y1="36" x2="363.836" y2="35.567" gradientUnits="userSpaceOnUse">
<stop offset="0.02" stop-color="#5F3832"/>
<stop offset="0.43" stop-color="#D85219"/>
<stop offset="0.74" stop-color="#EB7C1C"/>
<stop offset="1" stop-color="#F6C31F"/>
</linearGradient>
<linearGradient id="paint45_linear_9_2362" x1="8.29896" y1="36" x2="363.836" y2="35.567" gradientUnits="userSpaceOnUse">
<stop offset="0.02" stop-color="#5F3832"/>
<stop offset="0.43" stop-color="#D85219"/>
<stop offset="0.74" stop-color="#EB7C1C"/>
<stop offset="1" stop-color="#F6C31F"/>
</linearGradient>
<linearGradient id="paint46_linear_9_2362" x1="8.29883" y1="13.9687" x2="363.838" y2="13.9687" gradientUnits="userSpaceOnUse">
<stop offset="0.02" stop-color="#5F3832"/>
<stop offset="0.43" stop-color="#D85219"/>
<stop offset="0.74" stop-color="#EB7C1C"/>
<stop offset="1" stop-color="#F6C31F"/>
</linearGradient>
<linearGradient id="paint47_linear_9_2362" x1="8.29896" y1="13.9687" x2="363.836" y2="13.9687" gradientUnits="userSpaceOnUse">
<stop offset="0.02" stop-color="#5F3832"/>
<stop offset="0.43" stop-color="#D85219"/>
<stop offset="0.74" stop-color="#EB7C1C"/>
<stop offset="1" stop-color="#F6C31F"/>
</linearGradient>
<linearGradient id="paint48_linear_9_2362" x1="8.29882" y1="22.0313" x2="363.838" y2="22.0313" gradientUnits="userSpaceOnUse">
<stop offset="0.02" stop-color="#5F3832"/>
<stop offset="0.43" stop-color="#D85219"/>
<stop offset="0.74" stop-color="#EB7C1C"/>
<stop offset="1" stop-color="#F6C31F"/>
</linearGradient>
<linearGradient id="paint49_linear_9_2362" x1="8.29896" y1="22.0313" x2="363.836" y2="22.0313" gradientUnits="userSpaceOnUse">
<stop offset="0.02" stop-color="#5F3832"/>
<stop offset="0.43" stop-color="#D85219"/>
<stop offset="0.74" stop-color="#EB7C1C"/>
<stop offset="1" stop-color="#F6C31F"/>
</linearGradient>
<linearGradient id="paint50_linear_9_2362" x1="8.29905" y1="22.0313" x2="363.836" y2="22.0313" gradientUnits="userSpaceOnUse">
<stop offset="0.02" stop-color="#5F3832"/>
<stop offset="0.43" stop-color="#D85219"/>
<stop offset="0.74" stop-color="#EB7C1C"/>
<stop offset="1" stop-color="#F6C31F"/>
</linearGradient>
<linearGradient id="paint51_linear_9_2362" x1="8.29905" y1="13.9687" x2="363.836" y2="13.9687" gradientUnits="userSpaceOnUse">
<stop offset="0.02" stop-color="#5F3832"/>
<stop offset="0.43" stop-color="#D85219"/>
<stop offset="0.74" stop-color="#EB7C1C"/>
<stop offset="1" stop-color="#F6C31F"/>
</linearGradient>
<linearGradient id="paint52_linear_9_2362" x1="8.29874" y1="36" x2="363.838" y2="35.567" gradientUnits="userSpaceOnUse">
<stop offset="0.02" stop-color="#5F3832"/>
<stop offset="0.43" stop-color="#D85219"/>
<stop offset="0.74" stop-color="#EB7C1C"/>
<stop offset="1" stop-color="#F6C31F"/>
</linearGradient>
<linearGradient id="paint53_linear_9_2362" x1="8.29878" y1="36" x2="363.838" y2="35.567" gradientUnits="userSpaceOnUse">
<stop offset="0.02" stop-color="#5F3832"/>
<stop offset="0.43" stop-color="#D85219"/>
<stop offset="0.74" stop-color="#EB7C1C"/>
<stop offset="1" stop-color="#F6C31F"/>
</linearGradient>
<linearGradient id="paint54_linear_9_2362" x1="8.29889" y1="35.6743" x2="363.837" y2="35.6743" gradientUnits="userSpaceOnUse">
<stop offset="0.02" stop-color="#5F3832"/>
<stop offset="0.43" stop-color="#D85219"/>
<stop offset="0.74" stop-color="#EB7C1C"/>
<stop offset="1" stop-color="#F6C31F"/>
</linearGradient>
<linearGradient id="paint55_linear_9_2362" x1="8.29889" y1="32.2328" x2="363.837" y2="32.2328" gradientUnits="userSpaceOnUse">
<stop offset="0.02" stop-color="#5F3832"/>
<stop offset="0.43" stop-color="#D85219"/>
<stop offset="0.74" stop-color="#EB7C1C"/>
<stop offset="1" stop-color="#F6C31F"/>
</linearGradient>
<linearGradient id="paint56_linear_9_2362" x1="8.29889" y1="0.325678" x2="363.837" y2="0.325694" gradientUnits="userSpaceOnUse">
<stop offset="0.02" stop-color="#5F3832"/>
<stop offset="0.43" stop-color="#D85219"/>
<stop offset="0.74" stop-color="#EB7C1C"/>
<stop offset="1" stop-color="#F6C31F"/>
</linearGradient>
<linearGradient id="paint57_linear_9_2362" x1="8.29889" y1="3.76724" x2="363.837" y2="3.76725" gradientUnits="userSpaceOnUse">
<stop offset="0.02" stop-color="#5F3832"/>
<stop offset="0.43" stop-color="#D85219"/>
<stop offset="0.74" stop-color="#EB7C1C"/>
<stop offset="1" stop-color="#F6C31F"/>
</linearGradient>
</defs>
</svg>
