<svg width="51" height="36" viewBox="0 0 51 36" fill="none" xmlns="http://www.w3.org/2000/svg">
<path d="M44.6305 5.63934C45.1445 6.01093 45.2563 6.71038 44.8763 7.21311C44.4964 7.71585 43.7813 7.82514 43.2672 7.45355C42.7532 7.08197 42.6415 6.38251 43.0214 5.87978C43.4013 5.37705 44.1165 5.26776 44.6305 5.63934ZM39.1327 5.22404C37.8588 4.43716 37.8365 3.19126 38.3728 2.4918C38.9092 1.79235 40.116 1.44262 41.2558 2.42623C42.1721 3.21311 42.6191 4.24044 42.7532 4.93989C42.5968 5.04918 42.4403 5.20219 42.3286 5.35519C42.1945 5.53005 42.1051 5.70492 42.038 5.87978C41.3229 5.96721 40.1831 5.85792 39.155 5.22404H39.1327ZM41.1888 10.6011C40.0267 11.541 38.8198 11.1913 38.3058 10.4699C37.7918 9.74863 37.8365 8.52459 39.1327 7.75956C40.1607 7.14754 41.3005 7.06011 42.0157 7.14754C42.1498 7.51913 42.3956 7.86885 42.7309 8.13115C42.5968 8.8306 42.1274 9.83607 41.1888 10.6011ZM46.1055 13.1148C45.2563 13.377 44.0718 12.9617 43.7366 11.5191C43.446 10.2951 43.7366 9.15847 44.0941 8.54645C44.4517 8.52459 44.7869 8.4153 45.0775 8.21858C45.7256 8.52459 46.6419 9.28962 47.1336 10.4699C47.6923 11.847 46.9771 12.8525 46.1279 13.1148H46.1055ZM44.0271 4.54645C43.7142 3.91257 43.4684 2.79781 43.7813 1.63934C44.1612 0.196721 45.3457 -0.196722 46.1949 0.0874314C47.0442 0.371584 47.737 1.37705 47.1559 2.7541C46.6866 3.86885 45.7926 4.61202 45.1445 4.93989C44.8093 4.69945 44.4294 4.56831 44.0271 4.56831V4.54645ZM50.9999 6.66667C50.9999 7.54098 50.2177 8.50273 48.698 8.39344C47.4018 8.28415 46.3737 7.62842 45.882 7.12568C45.9938 6.79781 45.9938 6.42623 45.9267 6.09836C46.4408 5.59563 47.4688 4.98361 48.7427 4.91803C50.2624 4.8306 51.0223 5.81421 50.9999 6.68852V6.66667Z" fill="#EAE5E3"/>
<path d="M6.30234 28.153C6.90576 27.9563 7.55387 28.2623 7.75501 28.8525C7.95615 29.4426 7.64327 30.0765 7.03985 30.2732C6.43643 30.4699 5.78832 30.1639 5.58718 29.5738C5.38604 28.9836 5.69892 28.3497 6.30234 28.153ZM2.81592 32.3279C1.4303 32.8962 0.379902 32.2186 0.0893676 31.388C-0.201167 30.5574 0.201112 29.3989 1.67613 29.0273C2.86062 28.7213 3.97806 28.9617 4.62618 29.2678C4.62618 29.4645 4.67087 29.6612 4.73792 29.8579C4.80497 30.0546 4.89436 30.2295 5.02846 30.3825C4.69322 31.0164 3.93336 31.8689 2.81592 32.3279ZM8.51487 33.7486C8.64896 35.235 7.66562 35.9781 6.77166 36C5.87771 36 4.87201 35.2787 4.96141 33.7923C5.02846 32.612 5.60953 31.6503 6.07885 31.1257C6.48113 31.235 6.90576 31.2568 7.33038 31.1257C7.82206 31.6284 8.42548 32.5902 8.51487 33.7705V33.7486ZM13.4316 31.235C13.1634 32.0656 12.1354 32.7869 10.7274 32.2404C9.54292 31.7814 8.76071 30.8852 8.42548 30.2732C8.60427 29.9672 8.71601 29.6393 8.71601 29.2896C9.34178 28.9617 10.5263 28.6339 11.7778 28.918C13.2528 29.2459 13.6998 30.4044 13.4316 31.235ZM5.0508 28.0219C4.33564 27.9126 3.2629 27.4754 2.45834 26.5574C1.47499 25.4426 1.81023 24.2404 2.52539 23.7377C3.24055 23.2131 4.49208 23.235 5.31899 24.4809C5.98946 25.5082 6.1012 26.6448 5.98946 27.3443C5.58718 27.4754 5.27429 27.7158 5.02846 28.0219H5.0508ZM10.7945 23.6284C11.532 24.1311 11.8895 25.3115 10.9285 26.4481C10.1016 27.4317 8.96185 27.8689 8.26903 27.9781C8.04555 27.694 7.75501 27.4973 7.41978 27.3661C7.28569 26.6667 7.37508 25.5082 8.0232 24.4372C8.80541 23.1694 10.0569 23.1257 10.7945 23.6284Z" fill="#EAE5E3"/>
</svg>
