<svg width="27" height="50" viewBox="0 0 27 50" fill="none" xmlns="http://www.w3.org/2000/svg">
<path d="M12.4909 33.0808C12.8409 33.0508 13.1609 33.3108 13.1909 33.6608C13.2209 34.0108 12.9609 34.3308 12.6109 34.3608C12.2609 34.3908 11.9409 34.1308 11.9109 33.7808C11.8809 33.4308 12.1409 33.1108 12.4909 33.0808ZM10.0309 34.9508C9.19086 35.0908 8.71086 34.5708 8.67086 34.0808C8.62086 33.5808 9.00086 32.9908 9.85086 32.9708C10.5309 32.9608 11.1109 33.2308 11.4309 33.4808C11.4109 33.5908 11.4009 33.7008 11.4109 33.8208C11.4209 33.9408 11.4509 34.0508 11.4909 34.1508C11.2209 34.4508 10.7009 34.8308 10.0309 34.9408V34.9508ZM12.9509 36.4808C12.8209 37.3208 12.1909 37.6208 11.7009 37.5008C11.2109 37.3908 10.7609 36.8508 11.0109 36.0408C11.2109 35.4008 11.6409 34.9308 11.9709 34.7108C12.1709 34.8308 12.4009 34.8808 12.6509 34.8608C12.8509 35.2108 13.0509 35.8108 12.9509 36.4808ZM15.9609 35.7108C15.7109 36.1408 15.0509 36.4008 14.3609 35.9108C13.7809 35.5008 13.4709 34.9008 13.3709 34.5108C13.5109 34.3708 13.6109 34.1908 13.6609 34.0008C14.0409 33.8908 14.7309 33.8708 15.3809 34.2008C16.1409 34.5808 16.2209 35.2808 15.9709 35.7108H15.9609ZM11.8209 32.8408C11.4509 32.6808 10.9209 32.3008 10.6109 31.6908C10.2209 30.9408 10.5609 30.3208 11.0209 30.1308C11.4809 29.9308 12.1609 30.1108 12.4409 30.9108C12.6709 31.5608 12.5809 32.2108 12.4409 32.5908C12.2109 32.6108 12.0009 32.7108 11.8309 32.8408H11.8209ZM15.5309 31.1408C15.8609 31.5208 15.9109 32.2208 15.2309 32.7308C14.6509 33.1708 13.9709 33.2708 13.5809 33.2408C13.4909 33.0608 13.3609 32.9008 13.2009 32.7908C13.2209 32.3908 13.4209 31.7408 13.9209 31.2408C14.5109 30.6408 15.2109 30.7708 15.5309 31.1508V31.1408Z" fill="#EAE5E3"/>
<path d="M5.27078 44.5808C5.73078 44.6908 6.02078 45.1508 5.91078 45.6108C5.80078 46.0708 5.34078 46.3608 4.88078 46.2508C4.42078 46.1408 4.13078 45.6808 4.24078 45.2208C4.35078 44.7608 4.81078 44.4708 5.27078 44.5808ZM1.38078 45.9108C0.270784 45.7308 -0.119216 44.8808 0.0307838 44.2308C0.180784 43.5808 0.910784 42.9908 1.98078 43.3308C2.85078 43.6008 3.46078 44.2008 3.76078 44.6408C3.68078 44.7708 3.63078 44.9108 3.59078 45.0608C3.55078 45.2108 3.54078 45.3708 3.55078 45.5108C3.09078 45.7808 2.27078 46.0408 1.37078 45.9008L1.38078 45.9108ZM4.42078 49.0608C3.91078 50.0708 2.98078 50.1708 2.41078 49.8208C1.84078 49.4808 1.50078 48.6008 2.16078 47.6808C2.68078 46.9508 3.42078 46.5508 3.94078 46.4008C4.14078 46.6308 4.41078 46.8008 4.73078 46.8808C4.84078 47.4108 4.83078 48.2508 4.42078 49.0508V49.0608ZM8.53078 49.3608C8.03078 49.8008 7.09078 49.8508 6.42078 48.9408C5.85078 48.1808 5.72078 47.2908 5.76078 46.7608C5.99078 46.6408 6.19078 46.4608 6.34078 46.2408C6.87078 46.2708 7.74078 46.5308 8.43078 47.2108C9.23078 48.0108 9.04078 48.9308 8.53078 49.3608ZM4.53078 43.9908C4.13078 43.6408 3.62078 42.9308 3.48078 42.0308C3.30078 40.9208 3.99078 40.2808 4.66078 40.2308C5.32078 40.1708 6.11078 40.6808 6.12078 41.8108C6.12078 42.7308 5.74078 43.5108 5.40078 43.9308C5.10078 43.8608 4.80078 43.8908 4.53078 43.9908ZM9.93078 43.4208C10.1908 44.0308 9.95078 44.9408 8.88078 45.3008C7.97078 45.6108 7.07078 45.4508 6.58078 45.2408C6.55078 44.9708 6.45078 44.7308 6.29078 44.5108C6.49078 44.0108 7.01078 43.2808 7.85078 42.8508C8.86078 42.3408 9.67078 42.8008 9.93078 43.4108V43.4208Z" fill="#EAE5E3"/>
<path d="M15.3608 8.65084C15.4708 8.67084 15.5708 8.62084 15.5908 8.52084C15.6208 8.42084 15.5608 8.31084 15.4608 8.29084C15.3608 8.26084 15.2508 8.32084 15.2308 8.42084C15.2308 8.48084 15.2308 8.53084 15.2608 8.58084C15.2808 8.61084 15.3208 8.65084 15.3608 8.65084ZM17.1208 7.70084C17.2108 7.73084 17.3208 7.68084 17.3608 7.59084C17.4008 7.48084 17.3508 7.37084 17.2508 7.34084C17.1508 7.30084 17.0508 7.35084 17.0008 7.45084C16.9808 7.51084 16.9908 7.57084 17.0308 7.63084C17.0508 7.65084 17.0808 7.68084 17.1208 7.69084V7.70084ZM15.2508 9.13084C15.3008 9.19084 15.3708 9.23084 15.4508 9.22084C15.5508 9.20084 15.6108 9.10084 15.6008 9.00084C15.5808 8.90084 15.4808 8.83084 15.3808 8.85084C15.2808 8.87084 15.2108 8.97084 15.2308 9.07084C15.2308 9.09084 15.2408 9.11084 15.2608 9.13084H15.2508ZM13.6608 9.43084C13.6608 9.43084 13.7408 9.49084 13.7908 9.50084C13.8808 9.52084 13.9808 9.45084 14.0008 9.33084C14.0008 9.23084 13.9408 9.14084 13.8308 9.12084C13.7308 9.12084 13.6308 9.18084 13.6208 9.29084C13.6208 9.35084 13.6208 9.39084 13.6608 9.43084ZM17.1208 6.25084C17.0108 6.23084 16.9308 6.30084 16.9008 6.41084C16.9008 6.47084 16.9008 6.51084 16.9308 6.55084C16.9608 6.59084 16.9908 6.62084 17.0508 6.63084C17.1608 6.65084 17.2508 6.59084 17.2708 6.47084C17.2908 6.38084 17.2208 6.28084 17.1108 6.25084H17.1208ZM15.9908 7.43084C15.9008 7.48084 15.8708 7.60084 15.9208 7.69084C15.9708 7.78084 16.0708 7.80084 16.1608 7.76084C16.2508 7.71084 16.2908 7.60084 16.2408 7.51084C16.1908 7.42084 16.0808 7.38084 15.9908 7.43084ZM17.4608 6.51084C17.4308 6.58084 17.4508 6.65084 17.4808 6.69084C17.5008 6.72084 17.5308 6.74084 17.5608 6.76084C17.6508 6.79084 17.7708 6.76084 17.8108 6.65084C17.8408 6.56084 17.8108 6.46084 17.7108 6.41084C17.6108 6.37084 17.5008 6.41084 17.4708 6.50084L17.4608 6.51084ZM13.1008 9.40084C13.1008 9.40084 13.1808 9.47084 13.2508 9.47084C13.3508 9.47084 13.4408 9.40084 13.4408 9.28084C13.4408 9.18084 13.3608 9.09084 13.2508 9.09084C13.1508 9.09084 13.0508 9.18084 13.0608 9.28084C13.0608 9.33084 13.0808 9.37084 13.1008 9.40084ZM14.4608 9.99084C14.4608 9.99084 14.4608 10.0008 14.4808 10.0108C14.5308 10.0908 14.6508 10.1008 14.7308 10.0608C14.8208 10.0108 14.8508 9.89084 14.8008 9.80084C14.7608 9.72084 14.6408 9.69084 14.5408 9.74084C14.4508 9.77084 14.4208 9.89084 14.4608 9.99084ZM17.4908 10.8308H17.4708C17.3808 10.8608 17.3308 10.9808 17.3608 11.0708C17.3808 11.0908 17.3808 11.1008 17.3908 11.1108C17.4408 11.1808 17.5308 11.2108 17.6108 11.1808C17.7008 11.1508 17.7508 11.0308 17.7208 10.9408C17.6808 10.8408 17.5808 10.7908 17.4908 10.8308ZM16.9708 10.9508C16.8708 10.9508 16.7908 11.0408 16.8008 11.1508C16.8008 11.1808 16.8208 11.2208 16.8308 11.2408C16.8708 11.2908 16.9408 11.3208 17.0108 11.3108C17.1208 11.3008 17.1908 11.2108 17.1808 11.1108C17.1708 11.0008 17.0708 10.9308 16.9708 10.9508ZM15.7308 9.70084C15.8208 9.64084 15.8308 9.53084 15.7808 9.43084C15.7208 9.34084 15.6008 9.33084 15.5208 9.39084C15.4308 9.45084 15.4108 9.57084 15.4608 9.65084C15.5208 9.74084 15.6408 9.77084 15.7308 9.70084ZM18.0208 9.17084C17.9308 9.12084 17.8208 9.17084 17.7708 9.25084C17.7508 9.31084 17.7608 9.39084 17.8008 9.45084C17.8208 9.47084 17.8508 9.50084 17.8808 9.51084C17.9808 9.55084 18.0908 9.51084 18.1208 9.42084C18.1608 9.32084 18.1208 9.21084 18.0308 9.18084L18.0208 9.17084ZM18.9808 9.52084C18.8808 9.48084 18.7708 9.52084 18.7408 9.61084C18.7108 9.68084 18.7308 9.75084 18.7708 9.80084C18.7908 9.82084 18.8108 9.85084 18.8508 9.86084C18.9408 9.89084 19.0608 9.86084 19.0908 9.77084C19.1308 9.67084 19.0908 9.56084 18.9908 9.51084L18.9808 9.52084ZM19.3908 9.98084C19.3208 9.90084 19.1908 9.91084 19.1208 9.98084C19.0608 10.0608 19.0508 10.1608 19.1108 10.2408C19.1108 10.2408 19.1108 10.2508 19.1308 10.2608C19.2108 10.3308 19.3308 10.3308 19.4008 10.2508C19.4808 10.1808 19.4708 10.0508 19.4008 9.99084L19.3908 9.98084ZM17.9108 11.2808C17.9908 11.3408 18.1108 11.3308 18.1708 11.2608C18.2308 11.1708 18.2208 11.0608 18.1408 10.9908C18.0608 10.9308 17.9408 10.9408 17.8908 11.0208C17.8208 11.0908 17.8308 11.1808 17.8708 11.2508C17.8708 11.2608 17.9008 11.2708 17.9108 11.2808ZM16.0708 12.0808C15.9708 12.0408 15.8708 12.0908 15.8208 12.1908C15.8008 12.2508 15.8208 12.3208 15.8508 12.3708C15.8708 12.4008 15.9108 12.4308 15.9408 12.4308C16.0408 12.4608 16.1408 12.4208 16.1808 12.3108C16.2108 12.2208 16.1508 12.1208 16.0708 12.0808ZM18.4608 6.96084C18.5108 7.04084 18.6208 7.06084 18.7008 7.02084C18.7908 6.97084 18.8308 6.86084 18.7808 6.77084C18.7408 6.67084 18.6208 6.64084 18.5308 6.69084C18.4508 6.73084 18.4108 6.84084 18.4508 6.94084C18.4508 6.94084 18.4575 6.94751 18.4708 6.96084H18.4608ZM12.1608 9.58084C12.2608 9.56084 12.3308 9.46084 12.3108 9.36084C12.2908 9.26084 12.1908 9.19084 12.0908 9.21084C11.9908 9.23084 11.9208 9.33084 11.9408 9.43084C11.9408 9.46084 11.9608 9.48084 11.9808 9.50084C12.0208 9.55084 12.0908 9.58084 12.1708 9.58084H12.1608ZM11.6308 9.72084C11.7208 9.69084 11.7808 9.58084 11.7508 9.48084C11.7108 9.38084 11.6008 9.32084 11.5108 9.36084C11.4008 9.39084 11.3408 9.50084 11.3908 9.60084C11.3908 9.62084 11.4008 9.64084 11.4108 9.65084C11.4608 9.71084 11.5508 9.75084 11.6308 9.72084ZM12.7108 9.50084C12.8108 9.50084 12.8808 9.39084 12.8808 9.30084C12.8708 9.19084 12.7808 9.11084 12.6708 9.12084C12.5608 9.13084 12.4908 9.23084 12.5008 9.32084C12.5008 9.37084 12.5208 9.39084 12.5308 9.41084C12.5708 9.46084 12.6308 9.50084 12.7108 9.50084ZM17.4908 9.65084C17.4008 9.71084 17.4008 9.82084 17.4508 9.89084C17.4508 9.89084 17.4575 9.89751 17.4708 9.91084C17.5408 9.99084 17.6708 10.0008 17.7308 9.93084C17.8108 9.86084 17.8208 9.73084 17.7508 9.66084C17.6808 9.58084 17.5708 9.57084 17.4908 9.65084ZM10.3808 10.1008C10.4408 10.2008 10.5508 10.2208 10.6408 10.1508C10.7208 10.1108 10.7508 9.99084 10.7008 9.89084C10.6408 9.80084 10.5208 9.77084 10.4308 9.84084C10.3408 9.89084 10.3208 10.0008 10.3708 10.1008H10.3808ZM9.5908 10.8808C9.5908 10.8808 9.6108 10.9108 9.6308 10.9308C9.7208 10.9808 9.8308 10.9508 9.9008 10.8708C9.9508 10.7808 9.9308 10.6708 9.8408 10.6008C9.7508 10.5508 9.6408 10.5808 9.5808 10.6508C9.5308 10.7208 9.5508 10.8108 9.5908 10.8708V10.8808ZM18.2408 6.73084C18.1608 6.66084 18.0408 6.68084 17.9808 6.75084C17.9308 6.82084 17.9308 6.91084 17.9808 6.98084C17.9808 6.99084 18.0008 7.01084 18.0108 7.02084C18.1008 7.08084 18.2208 7.06084 18.2708 6.98084C18.3408 6.90084 18.3208 6.78084 18.2308 6.73084H18.2408ZM9.9408 10.4408L9.9608 10.4608C10.0308 10.5408 10.1508 10.5408 10.2308 10.4608C10.3108 10.3908 10.3108 10.2708 10.2408 10.2008C10.1708 10.1208 10.0408 10.1108 9.97081 10.1808C9.90081 10.2408 9.8908 10.3508 9.9508 10.4208L9.9408 10.4408ZM20.7708 4.79084C20.6808 4.74084 20.5708 4.76084 20.5208 4.85084C20.4708 4.92084 20.4808 5.00084 20.5208 5.06084C20.5208 5.07084 20.5408 5.09084 20.5708 5.11084C20.6608 5.16084 20.7708 5.14084 20.8308 5.06084C20.8908 4.96084 20.8608 4.86084 20.7708 4.79084ZM10.8808 9.80084C10.8808 9.80084 10.8808 9.83084 10.8908 9.84084C10.9408 9.92084 11.0408 9.94084 11.1208 9.91084H11.1308C11.2208 9.87084 11.2708 9.75084 11.2208 9.66084C11.1808 9.56084 11.0708 9.52084 10.9708 9.56084C10.8908 9.60084 10.8408 9.72084 10.8808 9.80084ZM20.4708 5.27084C20.3808 5.21084 20.2708 5.22084 20.2008 5.30084C20.1508 5.37084 20.1508 5.45084 20.2008 5.52084C20.2208 5.54084 20.2208 5.55084 20.2308 5.56084C20.3108 5.63084 20.4308 5.61084 20.5008 5.53084C20.5608 5.45084 20.5508 5.33084 20.4808 5.27084H20.4708ZM16.8108 7.43084C16.8008 7.32084 16.7108 7.25084 16.6008 7.25084C16.5008 7.25084 16.4208 7.35084 16.4308 7.45084C16.4308 7.49084 16.4508 7.52084 16.4708 7.55084C16.5008 7.59084 16.5608 7.63084 16.6308 7.63084C16.7408 7.62084 16.8208 7.53084 16.8108 7.42084V7.43084ZM15.7808 7.81084C15.6908 7.75084 15.5708 7.77084 15.5108 7.84084C15.4608 7.91084 15.4608 7.99084 15.5108 8.07084C15.5108 8.08084 15.5308 8.09084 15.5508 8.11084C15.6308 8.17084 15.7408 8.15084 15.8008 8.08084C15.8708 8.00084 15.8508 7.88084 15.7808 7.82084V7.81084ZM20.0908 5.70084C20.0208 5.63084 19.9108 5.63084 19.8308 5.70084C19.7608 5.76084 19.7508 5.87084 19.8108 5.94084C19.8108 5.94084 19.8175 5.94751 19.8308 5.96084C19.9108 6.03084 20.0308 6.03084 20.1108 5.96084C20.1908 5.89084 20.1808 5.76084 20.1008 5.69084L20.0908 5.70084ZM17.5008 7.93084C17.5008 7.93084 17.5008 7.94084 17.5208 7.95084C17.6008 8.02084 17.7208 8.02084 17.8008 7.95084C17.8708 7.87084 17.8708 7.75084 17.7908 7.68084C17.7308 7.61084 17.5908 7.61084 17.5308 7.68084C17.4608 7.75084 17.4508 7.85084 17.5108 7.92084L17.5008 7.93084ZM19.2608 6.45084C19.2108 6.37084 19.0908 6.35084 19.0008 6.41084C18.9108 6.46084 18.8908 6.57084 18.9508 6.66084C18.9408 6.66084 18.9508 6.68084 18.9508 6.68084C19.0008 6.76084 19.1308 6.78084 19.2108 6.72084C19.3008 6.66084 19.3308 6.54084 19.2608 6.45084ZM19.6908 6.10084C19.6308 6.01084 19.5108 6.00084 19.4308 6.08084C19.3508 6.13084 19.3408 6.25084 19.4008 6.33084C19.4708 6.42084 19.5808 6.44084 19.6608 6.36084C19.7408 6.29084 19.7608 6.18084 19.6808 6.10084H19.6908ZM21.0208 4.28084C20.9308 4.25084 20.8108 4.28084 20.7608 4.38084C20.7408 4.44084 20.7408 4.51084 20.7808 4.56084C20.8008 4.59084 20.8308 4.61084 20.8608 4.62084C20.9608 4.66084 21.0708 4.62084 21.1108 4.54084C21.1508 4.44084 21.1108 4.32084 21.0208 4.28084ZM13.4508 13.0108C13.3908 12.9208 13.2708 12.9108 13.1808 12.9808C13.1108 13.0508 13.0908 13.1608 13.1608 13.2408C13.2308 13.3208 13.3408 13.3408 13.4308 13.2708C13.5108 13.2008 13.5308 13.0908 13.4508 13.0108ZM12.9608 13.6208C13.0508 13.5608 13.0608 13.4508 13.0208 13.3608C12.9608 13.2708 12.8408 13.2508 12.7608 13.3008C12.6708 13.3508 12.6408 13.4708 12.6908 13.5608C12.7408 13.6508 12.8608 13.6608 12.9508 13.6108L12.9608 13.6208ZM12.4208 13.9008C12.5208 13.8608 12.5808 13.7508 12.5408 13.6508C12.5008 13.5508 12.3808 13.5008 12.2908 13.5508C12.2008 13.5808 12.1408 13.6908 12.1808 13.7908C12.1808 13.8008 12.2008 13.8108 12.2008 13.8208C12.2508 13.9008 12.3408 13.9308 12.4208 13.8908V13.9008ZM16.3308 11.3508C16.3308 11.3508 16.3608 11.3808 16.3808 11.4008C16.4708 11.4508 16.5808 11.4208 16.6508 11.3408C16.7008 11.2508 16.6808 11.1408 16.5908 11.0708C16.5008 11.0208 16.3908 11.0408 16.3208 11.1308C16.2808 11.1908 16.2808 11.2908 16.3308 11.3508ZM22.6108 7.35084C22.6108 7.41084 22.6208 7.46084 22.6408 7.49084C22.6708 7.53084 22.7108 7.56084 22.7608 7.57084C22.8608 7.60084 22.9608 7.53084 22.9808 7.41084C23.0008 7.32084 22.9208 7.21084 22.8208 7.19084C22.7208 7.19084 22.6208 7.25084 22.6008 7.35084H22.6108ZM16.0608 11.8408C16.0608 11.8408 16.1108 11.8908 16.1408 11.9008C16.2408 11.9408 16.3508 11.9008 16.3808 11.8108C16.4208 11.7108 16.4008 11.6008 16.3008 11.5608C16.2008 11.5208 16.0908 11.5608 16.0408 11.6608C16.0108 11.7108 16.0208 11.7908 16.0608 11.8408ZM14.6108 11.9708C14.6108 11.9708 14.6108 11.9708 14.6008 11.9708H14.6108ZM14.2908 11.9908C14.2908 11.9908 14.3208 12.0208 14.3408 12.0408C14.4208 12.0908 14.5308 12.0708 14.6008 11.9908C14.6608 11.9008 14.6308 11.7908 14.5508 11.7108C14.4608 11.6608 14.3508 11.6908 14.2808 11.7708C14.2408 11.8308 14.2408 11.9308 14.2908 11.9908ZM18.2908 11.6108C18.2908 11.6108 18.3208 11.6208 18.3208 11.6308C18.3908 11.7108 18.5108 11.7108 18.5908 11.6308C18.6608 11.5508 18.6608 11.4308 18.5908 11.3508C18.5108 11.2808 18.3908 11.2808 18.3208 11.3608C18.2608 11.4208 18.2508 11.5308 18.2908 11.5908V11.6108ZM24.4808 7.23084C24.5708 7.28084 24.6808 7.26084 24.7408 7.19084C24.8108 7.11084 24.7908 6.99084 24.7008 6.92084C24.6208 6.85084 24.5108 6.88084 24.4408 6.96084C24.3908 7.03084 24.4008 7.11084 24.4408 7.17084C24.4608 7.19084 24.4608 7.20084 24.4808 7.22084V7.23084ZM23.1708 7.46084C23.1508 7.52084 23.1608 7.58084 23.2008 7.64084C23.2208 7.67084 23.2508 7.69084 23.2808 7.71084C23.3808 7.74084 23.4808 7.70084 23.5208 7.59084C23.5508 7.50084 23.5008 7.39084 23.4208 7.35084C23.3108 7.31084 23.2108 7.37084 23.1708 7.46084ZM14.5708 11.4908C14.5708 11.4908 14.6108 11.5308 14.6408 11.5408C14.7308 11.6008 14.8508 11.5508 14.9008 11.4708C14.9408 11.3708 14.9008 11.2708 14.8208 11.2208C14.7208 11.1808 14.6108 11.2108 14.5608 11.2908C14.5308 11.3608 14.5408 11.4408 14.5708 11.4908ZM23.9508 6.89084C23.9508 6.89084 24.0008 6.94084 24.0308 6.95084C24.1208 7.00084 24.2308 6.95084 24.2808 6.87084C24.3208 6.77084 24.2808 6.67084 24.2008 6.62084C24.1008 6.58084 23.9808 6.62084 23.9508 6.70084C23.9108 6.76084 23.9208 6.84084 23.9508 6.89084ZM19.5508 10.5908C19.5508 10.5908 19.5708 10.6208 19.5908 10.6308H19.5808C19.6708 10.6908 19.7808 10.6708 19.8408 10.5908C19.9108 10.5108 19.8908 10.3908 19.8108 10.3208C19.7208 10.2708 19.6108 10.2908 19.5508 10.3608C19.5008 10.4308 19.5008 10.5208 19.5508 10.5908ZM14.6608 13.1308C14.6608 13.1308 14.7408 13.1908 14.7908 13.2008C14.8308 13.2008 14.8908 13.2008 14.9308 13.1708C14.9708 13.1408 14.9908 13.0908 15.0108 13.0508C15.0208 12.9608 14.9508 12.8508 14.8508 12.8308C14.7908 12.8308 14.7508 12.8308 14.7108 12.8608C14.6708 12.8908 14.6308 12.9308 14.6308 12.9808C14.6108 13.0208 14.6308 13.0808 14.6508 13.1308H14.6608ZM14.2308 13.5408C14.3008 13.6308 14.4308 13.6408 14.5008 13.5708C14.5808 13.5008 14.5808 13.3808 14.5208 13.3108C14.4508 13.2308 14.3308 13.2208 14.2508 13.2908C14.1708 13.3408 14.1608 13.4708 14.2208 13.5408H14.2308ZM15.7008 12.9208C15.7008 12.9208 15.7608 12.9808 15.8108 12.9908C15.9108 13.0208 16.0108 12.9508 16.0308 12.8508C16.0608 12.7508 15.9908 12.6508 15.8908 12.6308C15.7908 12.6008 15.6908 12.6708 15.6708 12.7808C15.6708 12.8408 15.6708 12.8908 15.7008 12.9408V12.9208ZM20.7808 6.29084C20.7208 6.29084 20.6808 6.29084 20.6408 6.32084C20.6008 6.35084 20.5708 6.39084 20.5608 6.44084C20.5408 6.48084 20.5608 6.54084 20.5908 6.58084C20.6208 6.62084 20.6608 6.65084 20.7108 6.66084C20.7708 6.66084 20.8108 6.66084 20.8508 6.63084C20.8908 6.60084 20.9108 6.55084 20.9308 6.51084C20.9408 6.42084 20.8708 6.31084 20.7708 6.29084H20.7808ZM19.0308 9.34084C19.1408 9.36084 19.2408 9.29084 19.2508 9.18084C19.2808 9.08084 19.2108 8.98084 19.0908 8.96084C19.0008 8.95084 18.9008 9.01084 18.8708 9.12084C18.8708 9.18084 18.8808 9.23084 18.9108 9.26084C18.9408 9.30084 18.9708 9.33084 19.0308 9.34084ZM21.0708 7.28084C20.9608 7.29084 20.9108 7.40084 20.9308 7.50084C20.9308 7.53084 20.9308 7.56084 20.9508 7.57084C21.0008 7.63084 21.0808 7.66084 21.1508 7.64084C21.2608 7.63084 21.3108 7.52084 21.3008 7.42084C21.2808 7.32084 21.1808 7.26084 21.0708 7.29084V7.28084ZM21.6508 7.17084C21.5508 7.19084 21.4708 7.28084 21.4808 7.39084C21.4808 7.42084 21.4808 7.45084 21.5108 7.48084C21.5508 7.53084 21.6108 7.55084 21.6808 7.56084C21.7908 7.55084 21.8608 7.45084 21.8608 7.35084C21.8508 7.24084 21.7508 7.17084 21.6508 7.17084ZM19.9608 7.63084C19.8608 7.67084 19.8208 7.78084 19.8508 7.87084C19.8508 7.88084 19.8708 7.89084 19.8708 7.90084C19.9208 7.98084 20.0108 8.01084 20.1008 7.97084C20.2008 7.93084 20.2408 7.82084 20.2008 7.72084C20.1608 7.64084 20.0408 7.59084 19.9608 7.63084ZM14.8008 10.9608C14.8008 10.9608 14.8508 11.0208 14.8808 11.0308C14.9808 11.0708 15.0908 11.0308 15.1308 10.9208C15.1608 10.8308 15.1208 10.7208 15.0308 10.6808C14.9208 10.6408 14.8108 10.6908 14.7808 10.7908C14.7508 10.8408 14.7808 10.9108 14.8008 10.9508V10.9608ZM13.5708 12.8608C13.5708 12.8608 13.5708 12.8708 13.5908 12.8808C13.6708 12.9508 13.7908 12.9508 13.8708 12.8808C13.9508 12.8108 13.9408 12.6808 13.8708 12.6108C13.7908 12.5408 13.6708 12.5408 13.5908 12.6108C13.5208 12.6808 13.5208 12.7808 13.5708 12.8508V12.8608ZM16.9708 10.1708C17.0208 10.2308 17.1008 10.2608 17.1808 10.2308C17.2808 10.2108 17.3308 10.1008 17.3108 10.0008C17.2708 9.90084 17.1608 9.84084 17.0608 9.87084C16.9608 9.91084 16.9008 10.0208 16.9408 10.1208C16.9408 10.1408 16.9408 10.1508 16.9608 10.1708H16.9708ZM13.9608 12.2108C13.9108 12.2808 13.9108 12.3708 13.9608 12.4408C13.9608 12.4508 13.9808 12.4608 13.9808 12.4708C14.0608 12.5408 14.1808 12.5208 14.2508 12.4408C14.3108 12.3608 14.3008 12.2408 14.2308 12.1808C14.1508 12.1108 14.0308 12.1308 13.9608 12.2108ZM20.5008 7.43084C20.4008 7.45084 20.3508 7.57084 20.3908 7.66084C20.3908 7.68084 20.4008 7.70084 20.4108 7.71084C20.4608 7.77084 20.5508 7.81084 20.6308 7.78084C20.7208 7.75084 20.7808 7.64084 20.7408 7.55084C20.7108 7.44084 20.6008 7.39084 20.5008 7.43084ZM17.8908 8.11084C17.8008 8.14084 17.7508 8.26084 17.7908 8.36084C17.7908 8.37084 17.7908 8.39084 17.8008 8.40084C17.8508 8.46084 17.9508 8.49084 18.0308 8.47084C18.1308 8.43084 18.1808 8.31084 18.1408 8.23084C18.1008 8.13084 17.9908 8.07084 17.8908 8.11084ZM14.8008 10.4708C14.8708 10.5608 15.0008 10.5708 15.0608 10.5008C15.1408 10.4308 15.1508 10.3108 15.0808 10.2408C15.0108 10.1608 14.8808 10.1508 14.8208 10.2208C14.7308 10.2808 14.7308 10.4008 14.7908 10.4708H14.8008ZM15.9308 10.1008C16.0308 10.1408 16.1408 10.1108 16.1908 10.0308C16.2408 9.94084 16.2208 9.83084 16.1408 9.77084H16.1308C16.0408 9.72084 15.9308 9.74084 15.8708 9.83084C15.8308 9.89084 15.8308 9.99084 15.8708 10.0408C15.8908 10.0608 15.9108 10.0708 15.9308 10.1008ZM18.9108 8.49084C18.9108 8.49084 18.8908 8.56084 18.8908 8.61084C18.8908 8.64084 18.8908 8.67084 18.9208 8.70084C18.9608 8.75084 19.0208 8.77084 19.0908 8.77084C19.2008 8.76084 19.2708 8.67084 19.2708 8.56084C19.2608 8.52084 19.2408 8.48084 19.2108 8.45084C19.2508 8.39084 19.2508 8.30084 19.2108 8.24084C19.1408 8.16084 19.0308 8.14084 18.9408 8.21084C18.8508 8.27084 18.8408 8.39084 18.9108 8.48084V8.49084ZM19.4308 7.90084C19.3508 7.94084 19.3208 8.06084 19.3608 8.15084C19.3608 8.15084 19.3675 8.15751 19.3808 8.17084C19.4308 8.25084 19.5308 8.27084 19.6308 8.22084C19.7108 8.18084 19.7408 8.06084 19.6908 7.96084C19.6408 7.87084 19.5208 7.84084 19.4308 7.90084ZM18.0708 8.65084C17.9708 8.65084 17.8808 8.72084 17.8708 8.83084C17.8708 8.88084 17.8808 8.92084 17.9108 8.95084C17.9408 8.99084 17.9908 9.02084 18.0508 9.03084C18.1508 9.03084 18.2408 8.96084 18.2508 8.85084C18.2508 8.74084 18.1808 8.66084 18.0708 8.65084ZM16.5808 9.93084C16.4908 9.92084 16.3908 9.99084 16.3708 10.1008C16.3708 10.1508 16.3808 10.1908 16.4208 10.2308C16.4408 10.2608 16.4808 10.3008 16.5408 10.3108C16.6408 10.3108 16.7408 10.2508 16.7508 10.1408C16.7708 10.0308 16.6908 9.94084 16.5808 9.93084ZM11.6608 13.9808C11.7108 14.0408 11.7808 14.0808 11.8508 14.0608C11.9508 14.0408 12.0208 13.9508 12.0008 13.8408C11.9808 13.7408 11.8808 13.6808 11.7808 13.6908C11.6808 13.7108 11.6108 13.8108 11.6308 13.9108C11.6308 13.9408 11.6508 13.9608 11.6708 13.9808H11.6608ZM21.0508 12.2208C21.0508 12.2808 21.0508 12.3308 21.0808 12.3808C21.1008 12.4108 21.1408 12.4408 21.1908 12.4508C21.2908 12.4808 21.3908 12.4108 21.4108 12.3008C21.4408 12.2008 21.3708 12.1008 21.2708 12.0808C21.1708 12.0508 21.0708 12.1208 21.0508 12.2208ZM22.3108 11.3208C22.2108 11.3208 22.1108 11.3808 22.1108 11.5008C22.1108 11.5408 22.1108 11.5808 22.1508 11.6208C22.1808 11.6608 22.2308 11.6908 22.2808 11.6908C22.3808 11.6908 22.4808 11.6308 22.4908 11.5208C22.4908 11.4208 22.4208 11.3308 22.3108 11.3208ZM22.8408 11.3008C22.7408 11.3208 22.6608 11.4108 22.6808 11.5108C22.6808 11.5508 22.6808 11.5708 22.7108 11.6008C22.7508 11.6508 22.8108 11.6908 22.8808 11.6808C22.9908 11.6708 23.0608 11.5708 23.0508 11.4808C23.0408 11.3708 22.9508 11.2908 22.8408 11.3008ZM19.5008 13.4608C19.5008 13.4608 19.5008 13.4908 19.5108 13.5008C19.5608 13.5608 19.6608 13.5908 19.7408 13.5608C19.8408 13.5208 19.8808 13.4108 19.8508 13.3208C19.8108 13.2208 19.7008 13.1608 19.6108 13.2108C19.5208 13.2408 19.4608 13.3508 19.5008 13.4508V13.4608ZM21.8208 12.1908C21.7208 12.1608 21.6208 12.2308 21.6008 12.3508C21.6008 12.4008 21.6008 12.4508 21.6308 12.4908C21.6608 12.5308 21.7108 12.5508 21.7508 12.5708C21.8608 12.5908 21.9608 12.5208 21.9708 12.4108C21.9908 12.3008 21.9208 12.2008 21.8108 12.1908H21.8208ZM20.6808 13.1408C20.7908 13.1108 20.8408 12.9908 20.8008 12.9008C20.7608 12.8008 20.6508 12.7408 20.5508 12.7808C20.4608 12.8108 20.4008 12.9208 20.4408 13.0208C20.4408 13.0408 20.4408 13.0508 20.4608 13.0708C20.5108 13.1308 20.6008 13.1708 20.6708 13.1308L20.6808 13.1408ZM24.0708 11.0108C24.0108 10.9208 23.9008 10.9108 23.8108 10.9708C23.7208 11.0208 23.7008 11.1308 23.7608 11.2208C23.8108 11.3108 23.9308 11.3408 24.0208 11.2708C24.1108 11.2108 24.1208 11.1008 24.0608 11.0108H24.0708ZM23.2408 11.4308C23.2408 11.4308 23.2508 11.4708 23.2608 11.4808C23.3108 11.5408 23.4008 11.5808 23.4808 11.5508C23.5808 11.5108 23.6308 11.3908 23.6008 11.3008C23.5708 11.2108 23.4608 11.1508 23.3608 11.1908C23.2508 11.2208 23.2108 11.3308 23.2508 11.4208L23.2408 11.4308ZM19.7508 15.0308C19.7508 15.0308 19.7508 15.1308 19.7808 15.1608C19.8108 15.2008 19.8508 15.2408 19.9008 15.2408C20.0108 15.2608 20.1108 15.1908 20.1208 15.0808C20.1208 14.9808 20.0708 14.8908 19.9608 14.8608C19.8608 14.8608 19.7608 14.9208 19.7408 15.0208L19.7508 15.0308ZM19.8508 15.4308C19.7508 15.3908 19.6408 15.4308 19.5908 15.5308C19.5708 15.5908 19.5908 15.6508 19.6208 15.7108C19.6408 15.7408 19.6608 15.7608 19.7008 15.7808C19.7908 15.8108 19.9008 15.7708 19.9508 15.6708C19.9808 15.5808 19.9408 15.4708 19.8508 15.4308ZM19.3408 15.9708C19.2908 16.0408 19.2908 16.1308 19.3408 16.2008C19.3408 16.2108 19.3708 16.2208 19.3808 16.2308C19.4608 16.2908 19.5808 16.2808 19.6308 16.1908C19.7008 16.1108 19.6808 15.9908 19.6108 15.9308C19.5308 15.8608 19.4108 15.8808 19.3408 15.9608V15.9708ZM17.6208 16.9708C17.6208 16.9708 17.7008 17.0408 17.7608 17.0508C17.8608 17.0508 17.9508 16.9808 17.9608 16.8708C17.9608 16.7708 17.8908 16.6908 17.7808 16.6708C17.6908 16.6508 17.5908 16.7408 17.5808 16.8508C17.5808 16.8908 17.5908 16.9408 17.6208 16.9708ZM19.6908 14.0508C19.7308 14.1008 19.8208 14.1408 19.8908 14.1208C20.0008 14.0908 20.0508 13.9908 20.0308 13.8908C20.0108 13.7908 19.8908 13.7308 19.8008 13.7508C19.7008 13.7708 19.6408 13.8908 19.6608 13.9808C19.6808 14.0008 19.6808 14.0308 19.7008 14.0508H19.6908ZM22.3608 12.2408C22.2608 12.2408 22.1708 12.3108 22.1708 12.4308C22.1708 12.4708 22.1708 12.5108 22.2008 12.5408C22.2308 12.5808 22.2908 12.6208 22.3408 12.6208C22.4408 12.6208 22.5308 12.5508 22.5408 12.4408C22.5408 12.3408 22.4708 12.2508 22.3608 12.2408ZM20.8308 13.6908C20.9408 13.6608 21.0008 13.5708 20.9708 13.4608C20.9508 13.3608 20.8408 13.3108 20.7408 13.3308C20.6308 13.3608 20.5808 13.4608 20.6008 13.5608C20.6208 13.5808 20.6108 13.6008 20.6308 13.6208C20.6808 13.6908 20.7608 13.7108 20.8308 13.6908ZM20.9208 14.2408C21.0308 14.2308 21.1008 14.1308 21.0908 14.0408C21.0708 13.9208 20.9808 13.8608 20.8708 13.8708C20.7708 13.8708 20.7008 13.9708 20.7108 14.0808C20.7108 14.1108 20.7308 14.1308 20.7508 14.1608C20.7908 14.2108 20.8508 14.2508 20.9208 14.2408ZM19.7808 14.6008C19.7808 14.6008 19.8808 14.6708 19.9508 14.6808C20.0608 14.6708 20.1408 14.5808 20.1308 14.4708C20.1208 14.3608 20.0308 14.2908 19.9308 14.3008C19.8208 14.3108 19.7508 14.4008 19.7608 14.4908C19.7608 14.5408 19.7608 14.5708 19.7908 14.6008H19.7808ZM19.2808 12.9708C19.3308 13.0608 19.4408 13.0908 19.5308 13.0508C19.6208 13.0008 19.6508 12.8808 19.6108 12.8008C19.5608 12.7108 19.4508 12.6708 19.3608 12.7208C19.2708 12.7508 19.2308 12.8808 19.2808 12.9708ZM20.5908 15.6808C20.5708 15.7408 20.5808 15.8008 20.6208 15.8608C20.6408 15.8908 20.6708 15.9108 20.7108 15.9208C20.8008 15.9508 20.9108 15.9108 20.9508 15.8008C20.9808 15.7008 20.9208 15.6008 20.8308 15.5608C20.7308 15.5308 20.6208 15.5908 20.5908 15.6808ZM18.7808 16.6908C18.7408 16.5908 18.6308 16.5308 18.5308 16.5708C18.4908 16.5808 18.4608 16.6208 18.4308 16.6608C18.3908 16.6408 18.3408 16.6308 18.2908 16.6508C18.1908 16.6708 18.1308 16.7708 18.1508 16.8708C18.1508 16.9008 18.1708 16.9208 18.1908 16.9408C18.2308 16.9908 18.3008 17.0308 18.3808 17.0208C18.4308 17.0008 18.4908 16.9608 18.5008 16.9208C18.5508 16.9508 18.6108 16.9608 18.6808 16.9408C18.7708 16.9108 18.8208 16.7908 18.7908 16.7008L18.7808 16.6908ZM20.7508 15.3008C20.7508 15.3008 20.8308 15.3608 20.8708 15.3808C20.9708 15.3808 21.0708 15.3208 21.1008 15.2208C21.1008 15.1208 21.0408 15.0208 20.9308 15.0108C20.8308 14.9808 20.7308 15.0508 20.7108 15.1708C20.7108 15.2208 20.7108 15.2708 20.7408 15.3108L20.7508 15.3008ZM20.5108 11.1708C20.5108 11.1708 20.5508 11.2108 20.5908 11.2308C20.6808 11.2608 20.8008 11.2308 20.8408 11.1308C20.8708 11.0408 20.8408 10.9308 20.7508 10.8908C20.6508 10.8508 20.5308 10.8908 20.5008 10.9708C20.4708 11.0408 20.4808 11.1208 20.5108 11.1708ZM22.9008 12.2308C22.8008 12.2308 22.7308 12.3408 22.7308 12.4308C22.7408 12.4708 22.7508 12.5008 22.7708 12.5308C22.8008 12.5708 22.8708 12.6008 22.9408 12.6108C23.0508 12.6008 23.1108 12.5008 23.1108 12.4108C23.1008 12.3008 23.0108 12.2208 22.9008 12.2308ZM18.9708 11.8108C18.9108 11.7208 18.7908 11.7108 18.7108 11.7908C18.6308 11.8408 18.6208 11.9608 18.6808 12.0408C18.7308 12.1308 18.8608 12.1408 18.9408 12.0708C19.0208 12.0008 19.0408 11.8908 18.9608 11.8108H18.9708ZM19.7108 16.9908C19.6408 17.0508 19.6208 17.1708 19.6908 17.2508C19.7608 17.3308 19.8708 17.3508 19.9508 17.2808C20.0308 17.2108 20.0408 17.0808 19.9708 17.0208C19.9108 16.9308 19.7908 16.9208 19.7008 16.9908H19.7108ZM20.0908 16.6208C20.0308 16.6808 20.0408 16.7708 20.0908 16.8508C20.0908 16.8608 20.1108 16.8708 20.1108 16.8808C20.1908 16.9508 20.3108 16.9308 20.3808 16.8508C20.4408 16.7708 20.4308 16.6508 20.3608 16.5908C20.2808 16.5208 20.1608 16.5408 20.0908 16.6208ZM20.3908 16.1708C20.3508 16.2308 20.3608 16.3108 20.4008 16.3708C20.4208 16.3908 20.4308 16.4108 20.4608 16.4308C20.5608 16.4708 20.6708 16.4408 20.7108 16.3508C20.7608 16.2608 20.7208 16.1408 20.6408 16.0908C20.5408 16.0508 20.4308 16.0708 20.3908 16.1708ZM23.4408 12.1308H23.4308C23.3308 12.1608 23.2808 12.2708 23.3008 12.3608C23.3008 12.3908 23.3208 12.4108 23.3308 12.4208C23.3808 12.4908 23.4508 12.5208 23.5408 12.5008C23.6408 12.4808 23.6908 12.3708 23.6708 12.2708C23.6508 12.1708 23.5508 12.1008 23.4508 12.1208L23.4408 12.1308ZM19.0008 12.4908C19.0608 12.5808 19.1708 12.5908 19.2708 12.5408C19.3608 12.4808 19.3708 12.3708 19.3208 12.2708C19.2608 12.1808 19.1408 12.1508 19.0508 12.2208C18.9608 12.2808 18.9508 12.3908 19.0008 12.4908ZM20.4908 12.6008C20.5908 12.5608 20.6308 12.4508 20.5908 12.3508C20.5508 12.2708 20.4408 12.2108 20.3508 12.2608C20.2508 12.3008 20.2108 12.4108 20.2508 12.5108C20.2508 12.5108 20.2508 12.5208 20.2708 12.5308C20.3208 12.6008 20.4108 12.6408 20.5008 12.6008H20.4908ZM23.8608 12.2608C23.9108 12.3308 24.0108 12.3608 24.1008 12.3208C24.1908 12.2908 24.2408 12.1708 24.2008 12.0708C24.1608 11.9908 24.0408 11.9408 23.9608 11.9808C23.8608 12.0208 23.8208 12.1308 23.8508 12.2208C23.8508 12.2308 23.8508 12.2508 23.8608 12.2608ZM20.1308 12.0908C20.1308 12.0908 20.2408 12.0808 20.2708 12.0608C20.3108 12.0308 20.3408 11.9808 20.3508 11.9408C20.3808 11.8408 20.3008 11.7308 20.1908 11.7208C20.1408 11.7008 20.0908 11.7208 20.0408 11.7408C20.0108 11.7608 19.9808 11.8208 19.9708 11.8708C19.9708 11.9108 19.9708 11.9708 20.0008 12.0108C20.0208 12.0408 20.0808 12.0708 20.1208 12.0908H20.1308ZM20.8608 12.1608C20.9008 12.0608 20.8508 11.9608 20.7608 11.9208C20.6508 11.8808 20.5508 11.9408 20.5208 12.0408C20.4908 12.0908 20.5208 12.1608 20.5408 12.2108C20.5608 12.2408 20.6008 12.2708 20.6408 12.2808C20.7408 12.3108 20.8408 12.2508 20.8708 12.1508L20.8608 12.1608ZM19.2108 16.6308C19.3008 16.5708 19.3108 16.4608 19.2508 16.3708C19.1908 16.2808 19.0708 16.2708 18.9808 16.3408C18.8908 16.4008 18.8808 16.5208 18.9408 16.6108C19.0108 16.6808 19.1208 16.7008 19.2008 16.6308H19.2108ZM24.8208 11.4008C24.7508 11.4608 24.7508 11.5708 24.8008 11.6408C24.8008 11.6408 24.8008 11.6508 24.8208 11.6608C24.9008 11.7208 25.0208 11.7308 25.0908 11.6608C25.1608 11.5808 25.1708 11.4508 25.1108 11.3908C25.0308 11.3208 24.9008 11.3108 24.8308 11.3908L24.8208 11.4008ZM11.6108 8.62084C11.7108 8.58084 11.7708 8.47084 11.7308 8.37084C11.7008 8.28084 11.5908 8.22084 11.5008 8.26084C11.3908 8.29084 11.3408 8.40084 11.3808 8.50084C11.3808 8.52084 11.3908 8.54084 11.4008 8.55084C11.4508 8.61084 11.5408 8.65084 11.6208 8.62084H11.6108ZM11.0908 8.80084C11.1908 8.76084 11.2408 8.64084 11.2008 8.56084C11.1608 8.46084 11.0408 8.41084 10.9608 8.45084C10.8608 8.49084 10.8108 8.59084 10.8508 8.69084C10.8508 8.70084 10.8508 8.72084 10.8608 8.73084C10.9108 8.81084 11.0108 8.83084 11.0908 8.80084ZM12.9208 7.74084H12.9308C13.0308 7.78084 13.1308 7.72084 13.1608 7.62084C13.2008 7.52084 13.1508 7.42084 13.0408 7.38084C12.9508 7.35084 12.8508 7.41084 12.8008 7.50084C12.8008 7.56084 12.8008 7.62084 12.8408 7.67084C12.8608 7.70084 12.9008 7.73084 12.9208 7.74084ZM24.1408 8.00084C24.0708 8.06084 24.0508 8.18084 24.1208 8.26084H24.1308C24.1908 8.35084 24.3108 8.35084 24.3908 8.28084C24.4708 8.21084 24.4708 8.09084 24.4108 8.01084C24.3408 7.93084 24.2208 7.93084 24.1408 7.99084V8.00084ZM10.4208 8.69084C10.3308 8.74084 10.2908 8.85084 10.3408 8.94084C10.3408 8.94084 10.3475 8.94751 10.3608 8.96084C10.4108 9.04084 10.5108 9.06084 10.6008 9.02084C10.6808 8.98084 10.7308 8.86084 10.6808 8.77084C10.6408 8.69084 10.5208 8.64084 10.4308 8.69084H10.4208ZM24.8608 7.56084C24.8608 7.56084 24.8608 7.57084 24.8808 7.58084C24.9508 7.65084 25.0808 7.65084 25.1508 7.58084C25.2308 7.51084 25.2408 7.38084 25.1508 7.31084C25.0808 7.23084 24.9608 7.23084 24.8808 7.31084C24.8108 7.37084 24.8108 7.48084 24.8608 7.55084V7.56084ZM20.0108 10.7008C19.9708 10.7608 19.9808 10.8408 20.0208 10.9008C20.0208 10.9108 20.0408 10.9308 20.0708 10.9508C20.1608 11.0008 20.2708 10.9808 20.3308 10.9008C20.3908 10.7908 20.3608 10.6908 20.2708 10.6308C20.1808 10.5808 20.0508 10.6008 20.0108 10.7008ZM23.6908 7.67084C23.6408 7.74084 23.6508 7.83084 23.6908 7.88084C23.7108 7.90084 23.7208 7.92084 23.7308 7.93084C23.8208 7.99084 23.9308 7.96084 24.0108 7.88084C24.0608 7.79084 24.0408 7.68084 23.9508 7.61084C23.8608 7.56084 23.7508 7.58084 23.6908 7.66084V7.67084ZM16.7908 4.10084C16.6808 4.08084 16.5908 4.16084 16.5808 4.27084C16.5808 4.32084 16.5908 4.36084 16.6208 4.39084C16.6508 4.43084 16.6908 4.47084 16.7508 4.48084C16.8508 4.48084 16.9408 4.41084 16.9608 4.31084H16.9708C16.9708 4.20084 16.9008 4.11084 16.7908 4.10084ZM14.5108 7.89084C14.6108 7.93084 14.7108 7.89084 14.7608 7.81084C14.8008 7.71084 14.7708 7.60084 14.6808 7.56084C14.5808 7.52084 14.4708 7.55084 14.4308 7.64084C14.3908 7.70084 14.4008 7.78084 14.4308 7.83084C14.4508 7.85084 14.4808 7.88084 14.5108 7.89084ZM16.8408 5.78084C16.7408 5.80084 16.6708 5.90084 16.6908 6.00084C16.6908 6.03084 16.7108 6.05084 16.7308 6.07084C16.7708 6.12084 16.8408 6.15084 16.9308 6.14084C17.0308 6.12084 17.0908 6.02084 17.0608 5.91084C17.0408 5.81084 16.9408 5.75084 16.8408 5.77084V5.78084ZM15.2108 6.71084C15.1208 6.77084 15.1108 6.88084 15.1708 6.97084C15.2308 7.06084 15.3408 7.07084 15.4308 7.01084C15.5208 6.95084 15.5308 6.84084 15.4708 6.75084C15.4108 6.66084 15.3008 6.65084 15.2108 6.71084ZM15.4508 6.23084C15.3408 6.24084 15.2808 6.34084 15.2908 6.44084C15.2908 6.47084 15.3108 6.49084 15.3308 6.51084C15.3708 6.56084 15.4508 6.61084 15.5208 6.59084C15.6208 6.57084 15.6908 6.48084 15.6808 6.38084C15.6608 6.28084 15.5608 6.21084 15.4608 6.23084H15.4508ZM13.3808 7.82084C13.3808 7.82084 13.4408 7.88084 13.4908 7.89084C13.5908 7.91084 13.6908 7.84084 13.7108 7.74084C13.7208 7.65084 13.6708 7.54084 13.5508 7.52084C13.4508 7.49084 13.3508 7.56084 13.3308 7.67084C13.3308 7.73084 13.3408 7.78084 13.3708 7.82084H13.3808ZM12.0608 8.47084C12.0608 8.47084 12.1708 8.46084 12.2008 8.43084C12.2408 8.40084 12.2708 8.35084 12.2908 8.30084C12.3108 8.21084 12.2308 8.10084 12.1308 8.08084C12.0808 8.08084 12.0208 8.08084 11.9708 8.11084C11.9408 8.13084 11.9108 8.19084 11.9008 8.24084C11.9008 8.29084 11.9008 8.34084 11.9308 8.38084C11.9608 8.42084 12.0108 8.44084 12.0508 8.46084L12.0608 8.47084ZM14.7808 7.40084C14.8608 7.46084 14.9808 7.45084 15.0408 7.38084C15.1108 7.30084 15.1008 7.17084 15.0308 7.11084C14.9508 7.04084 14.8208 7.05084 14.7708 7.13084C14.7008 7.20084 14.7108 7.29084 14.7508 7.36084C14.7508 7.37084 14.7708 7.38084 14.7808 7.40084ZM13.9008 7.77084C13.9008 7.83084 13.9008 7.87084 13.9308 7.90084C13.9608 7.94084 14.0108 7.97084 14.0708 7.98084C14.1708 7.98084 14.2608 7.91084 14.2808 7.81084C14.2808 7.71084 14.2108 7.62084 14.1108 7.60084C14.0008 7.58084 13.9108 7.66084 13.9008 7.77084ZM24.5108 8.44084C24.4208 8.49084 24.3808 8.60084 24.4108 8.69084C24.4108 8.70084 24.4308 8.71084 24.4308 8.72084C24.4808 8.78084 24.5908 8.82084 24.6708 8.78084C24.7508 8.74084 24.8008 8.62084 24.7508 8.53084C24.7208 8.44084 24.5908 8.40084 24.5108 8.44084ZM25.6308 10.1608C25.6308 10.1608 25.6908 10.2308 25.7408 10.2408C25.8508 10.2608 25.9408 10.2008 25.9608 10.0908C25.9908 9.99084 25.9308 9.88084 25.8108 9.87084C25.7108 9.84084 25.6108 9.91084 25.5908 10.0208C25.5908 10.0808 25.6008 10.1308 25.6308 10.1608ZM24.1908 10.6108C24.1308 10.6908 24.1308 10.7808 24.1908 10.8508C24.1908 10.8608 24.2108 10.8708 24.2208 10.8808C24.2908 10.9608 24.4108 10.9408 24.4908 10.8708C24.5508 10.7908 24.5408 10.6708 24.4608 10.6008C24.3808 10.5408 24.2608 10.5508 24.2008 10.6208L24.1908 10.6108ZM25.6908 9.61084C25.6908 9.61084 25.7808 9.69084 25.8508 9.69084C25.9508 9.69084 26.0408 9.61084 26.0408 9.50084C26.0308 9.39084 25.9508 9.30084 25.8508 9.31084C25.7408 9.31084 25.6508 9.39084 25.6608 9.50084C25.6608 9.54084 25.6608 9.58084 25.6908 9.61084ZM24.4508 10.1708C24.4208 10.2308 24.4308 10.3108 24.4708 10.3608C24.4908 10.3808 24.5208 10.4108 24.5508 10.4208C24.6508 10.4608 24.7608 10.4208 24.7908 10.3308H24.8008C24.8308 10.2308 24.8008 10.1108 24.7008 10.0708C24.6108 10.0408 24.4908 10.0708 24.4508 10.1708ZM25.4208 10.5208C25.4008 10.5808 25.4108 10.6608 25.4508 10.7108C25.4708 10.7308 25.5008 10.7608 25.5308 10.7708C25.6308 10.8108 25.7408 10.7708 25.7908 10.6708C25.8208 10.5808 25.7908 10.4608 25.6808 10.4208C25.6008 10.3808 25.4908 10.4208 25.4408 10.5108L25.4208 10.5208ZM25.1708 10.9908C25.1208 11.0608 25.1408 11.1508 25.1808 11.2108C25.1808 11.2208 25.2008 11.2408 25.2108 11.2508C25.3008 11.3008 25.4108 11.2808 25.4708 11.2108C25.5308 11.1108 25.5108 11.0008 25.4308 10.9508C25.3508 10.8808 25.2308 10.9008 25.1708 10.9908ZM24.6708 11.7708C24.6208 11.6908 24.5008 11.6708 24.4208 11.7208C24.3308 11.7708 24.3008 11.8908 24.3608 11.9808C24.4108 12.0708 24.5308 12.0908 24.6108 12.0408C24.7008 11.9808 24.7308 11.8608 24.6608 11.7708H24.6708ZM16.7608 5.22084C16.6508 5.23084 16.5808 5.33084 16.5908 5.44084H16.6008C16.6008 5.44084 16.6008 5.49084 16.6308 5.52084C16.6708 5.57084 16.7208 5.60084 16.8008 5.59084C16.9108 5.58084 16.9708 5.48084 16.9608 5.38084C16.9608 5.28084 16.8608 5.20084 16.7608 5.21084V5.22084ZM25.6408 9.04084C25.6908 9.11084 25.7608 9.14084 25.8308 9.12084C25.9408 9.11084 26.0108 9.01084 25.9908 8.91084C25.9608 8.80084 25.8708 8.74084 25.7708 8.76084C25.6608 8.77084 25.5908 8.87084 25.6208 8.98084C25.6208 9.00084 25.6408 9.03084 25.6508 9.04084H25.6408ZM25.4508 8.47084C25.4508 8.47084 25.4708 8.49084 25.4708 8.50084C25.5208 8.57084 25.6108 8.60084 25.7008 8.56084C25.7908 8.53084 25.8408 8.41084 25.8108 8.32084C25.7708 8.22084 25.6608 8.18084 25.5708 8.21084C25.4708 8.25084 25.4108 8.36084 25.4508 8.46084V8.47084ZM21.0108 11.2108C20.9908 11.2708 21.0008 11.3308 21.0408 11.3908C21.0608 11.4108 21.0908 11.4408 21.1308 11.4508C21.2208 11.4808 21.3208 11.4208 21.3608 11.3308C21.4008 11.2208 21.3608 11.1208 21.2508 11.0808C21.1508 11.0508 21.0508 11.0908 21.0108 11.2008V11.2108ZM20.9508 14.4408C20.8408 14.4408 20.7608 14.5108 20.7608 14.6308C20.7608 14.6708 20.7608 14.7108 20.7908 14.7408C20.8308 14.7908 20.8908 14.8108 20.9508 14.8208C21.0608 14.8108 21.1508 14.7308 21.1308 14.6208C21.1308 14.5208 21.0508 14.4408 20.9508 14.4408ZM21.7808 11.2308C21.6808 11.2308 21.5708 11.2808 21.5408 11.3808C21.5408 11.4408 21.5508 11.4908 21.5808 11.5308C21.6008 11.5608 21.6408 11.5908 21.6808 11.6008C21.7808 11.6308 21.8908 11.5708 21.9008 11.4508C21.9308 11.3508 21.8708 11.2408 21.7708 11.2208L21.7808 11.2308ZM25.2008 7.99084C25.2608 8.09084 25.3708 8.11084 25.4708 8.05084C25.5508 8.00084 25.5708 7.88084 25.5108 7.79084C25.4608 7.70084 25.3508 7.68084 25.2508 7.73084C25.1608 7.79084 25.1408 7.91084 25.1908 7.99084H25.2008ZM24.7308 8.95084C24.6208 8.98084 24.5608 9.07084 24.5708 9.18084C24.5708 9.21084 24.5908 9.23084 24.6108 9.25084C24.6508 9.30084 24.7208 9.33084 24.8008 9.33084C24.9008 9.31084 24.9708 9.21084 24.9508 9.11084C24.9308 9.01084 24.8408 8.94084 24.7408 8.95084H24.7308ZM24.8008 9.53084C24.7008 9.53084 24.6008 9.59084 24.5908 9.70084C24.5708 9.74084 24.5908 9.80084 24.6208 9.83084C24.6508 9.87084 24.7008 9.90084 24.7608 9.91084C24.8608 9.91084 24.9608 9.85084 24.9708 9.74084C24.9708 9.64084 24.9108 9.54084 24.8008 9.53084ZM17.2308 17.5008C17.1408 17.4708 17.0408 17.5308 16.9908 17.6208C16.9908 17.6808 16.9908 17.7308 17.0308 17.7908C17.0508 17.8208 17.0908 17.8508 17.1208 17.8508C17.2308 17.8908 17.3208 17.8408 17.3608 17.7308C17.3908 17.6308 17.3308 17.5208 17.2308 17.5008ZM8.9908 10.4408C9.0408 10.3508 9.0208 10.2408 8.9408 10.1808C8.8508 10.1208 8.7308 10.1508 8.6708 10.2408C8.6408 10.3108 8.65081 10.3908 8.68081 10.4408C8.70081 10.4608 8.7108 10.4808 8.7408 10.5008C8.8308 10.5508 8.9408 10.5208 8.9908 10.4308V10.4408ZM9.4208 9.61084C9.4808 9.70084 9.60081 9.70084 9.68081 9.63084C9.76081 9.56084 9.7708 9.43084 9.7008 9.36084C9.6308 9.29084 9.5108 9.28084 9.4508 9.35084C9.3608 9.41084 9.3608 9.53084 9.4208 9.60084V9.61084ZM8.4608 11.2108C8.3708 11.1908 8.2708 11.2708 8.2408 11.3708C8.2408 11.4208 8.25081 11.4808 8.27081 11.5108C8.30081 11.5508 8.35081 11.5708 8.39081 11.5908C8.50081 11.6108 8.6008 11.5408 8.6108 11.4308C8.6408 11.3308 8.5708 11.2308 8.4508 11.2108H8.4608ZM8.76081 10.9208C8.81081 10.8208 8.7508 10.7208 8.6608 10.6808C8.5608 10.6408 8.4508 10.6808 8.4108 10.7908C8.3808 10.8408 8.41081 10.9108 8.43081 10.9608C8.45081 10.9908 8.49081 11.0208 8.52081 11.0208C8.62081 11.0608 8.73081 11.0208 8.76081 10.9208ZM9.0408 10.0308C9.1208 10.1008 9.2408 10.0808 9.3008 10.0108C9.3808 9.94084 9.3708 9.81084 9.2908 9.74084C9.2108 9.68084 9.0908 9.69084 9.0308 9.76084C8.9608 9.83084 8.9708 9.92084 9.0308 10.0008C9.0308 10.0108 9.05081 10.0208 9.05081 10.0308H9.0408ZM12.2908 7.47084C12.2908 7.47084 12.3408 7.52084 12.3708 7.54084C12.4608 7.57084 12.5808 7.54084 12.6208 7.44084C12.6508 7.35084 12.6208 7.23084 12.5208 7.19084H12.5108C12.4308 7.16084 12.3108 7.19084 12.2708 7.29084C12.2508 7.35084 12.2608 7.43084 12.2908 7.47084ZM9.85081 9.25084C9.90081 9.34084 10.0208 9.37084 10.1108 9.30084C10.2008 9.24084 10.2108 9.13084 10.1608 9.03084C10.1008 8.94084 9.9908 8.93084 9.9008 8.99084C9.8108 9.04084 9.7908 9.15084 9.8408 9.25084H9.85081ZM11.4308 8.11084C11.4308 8.11084 11.4508 8.14084 11.4808 8.16084C11.5708 8.21084 11.7008 8.19084 11.7508 8.10084C11.7908 8.00084 11.7608 7.89084 11.6808 7.84084C11.5908 7.79084 11.4708 7.83084 11.4208 7.91084C11.3808 7.97084 11.3908 8.05084 11.4308 8.11084ZM8.39081 11.7708C8.28081 11.7808 8.2008 11.8508 8.2108 11.9708C8.2108 12.0108 8.2308 12.0408 8.2508 12.0708C8.2808 12.1108 8.3408 12.1508 8.4108 12.1508C8.5108 12.1508 8.5908 12.0508 8.5908 11.9508C8.5908 11.8508 8.49081 11.7708 8.39081 11.7708ZM8.81081 12.9908C8.77081 12.9108 8.66081 12.8508 8.56081 12.8908C8.47081 12.9408 8.4308 13.0508 8.4608 13.1408C8.4608 13.1508 8.4808 13.1608 8.4808 13.1708C8.5308 13.2508 8.6208 13.2808 8.7108 13.2408C8.8108 13.2008 8.85081 13.0908 8.81081 12.9908ZM14.3208 9.60084C14.4208 9.63084 14.5308 9.57084 14.5508 9.47084C14.5808 9.37084 14.5208 9.26084 14.4208 9.24084C14.3208 9.21084 14.2208 9.28084 14.1808 9.38084C14.1808 9.44084 14.1908 9.49084 14.2208 9.53084C14.2508 9.57084 14.2808 9.60084 14.3208 9.60084ZM9.0708 13.4508C9.0108 13.3608 8.88081 13.3408 8.80081 13.4008C8.71081 13.4608 8.6908 13.5908 8.7508 13.6808C8.8008 13.7608 8.93081 13.7808 9.02081 13.7108C9.09081 13.6608 9.12081 13.5408 9.06081 13.4508H9.0708ZM9.93081 13.0308C9.93081 13.0308 9.8508 12.9708 9.8008 12.9608C9.8208 12.9108 9.8208 12.8708 9.7808 12.8208C9.7308 12.7308 9.61081 12.7008 9.52081 12.7608C9.44081 12.8008 9.4008 12.9108 9.4508 13.0108C9.4908 13.0608 9.5308 13.1008 9.5908 13.1108C9.5908 13.1708 9.5908 13.2108 9.6208 13.2708C9.6908 13.3508 9.80081 13.3708 9.89081 13.3008C9.97081 13.2308 9.9908 13.1208 9.9208 13.0308H9.93081ZM23.4208 6.68084C23.4208 6.68084 23.4808 6.74084 23.5208 6.75084C23.6208 6.78084 23.7308 6.72084 23.7608 6.63084C23.7908 6.53084 23.7408 6.42084 23.6408 6.39084C23.5408 6.36084 23.4308 6.41084 23.4008 6.51084C23.3708 6.56084 23.3908 6.63084 23.4208 6.67084V6.68084ZM9.6708 11.3308C9.7008 11.2308 9.6408 11.1208 9.5508 11.0908C9.4508 11.0608 9.34081 11.1108 9.31081 11.2108C9.28081 11.2608 9.3108 11.3308 9.3308 11.3708C9.3508 11.4008 9.39081 11.4308 9.43081 11.4408C9.52081 11.4708 9.6208 11.4108 9.6608 11.3208H9.6708V11.3308ZM9.2108 11.9408C9.2108 11.9408 9.2908 12.0108 9.3608 12.0108C9.4608 12.0108 9.5508 11.9408 9.5508 11.8408C9.5508 11.7408 9.4908 11.6408 9.3708 11.6408C9.2708 11.6408 9.1808 11.7108 9.1708 11.8208C9.1708 11.8708 9.1808 11.9108 9.2108 11.9408ZM15.0308 5.43084C15.0808 5.49084 15.1708 5.53084 15.2508 5.48084C15.3408 5.45084 15.4008 5.34084 15.3608 5.24084C15.3208 5.14084 15.2108 5.10084 15.1108 5.14084C15.0208 5.17084 14.9708 5.29084 15.0008 5.38084C15.0008 5.39084 15.0208 5.40084 15.0308 5.42084V5.43084ZM9.27081 12.5108C9.31081 12.5608 9.39081 12.5908 9.47081 12.5808C9.57081 12.5608 9.6408 12.4608 9.6108 12.3508C9.5908 12.2508 9.4908 12.1908 9.3808 12.2208C9.2708 12.2308 9.2208 12.3408 9.2408 12.4408C9.2408 12.4708 9.25081 12.5008 9.27081 12.5208V12.5108ZM10.4008 5.96084C10.4508 6.04084 10.5708 6.06084 10.6508 6.01084C10.7408 5.96084 10.7708 5.84084 10.7108 5.75084C10.6708 5.67084 10.5608 5.63084 10.4608 5.68084C10.3708 5.73084 10.3408 5.85084 10.3908 5.95084L10.4008 5.96084ZM10.3808 5.52084C10.4908 5.49084 10.5408 5.38084 10.5008 5.28084H10.5108C10.4808 5.18084 10.3708 5.13084 10.2708 5.15084C10.1708 5.19084 10.1108 5.30084 10.1508 5.39084C10.1508 5.42084 10.1608 5.43084 10.1708 5.44084C10.2208 5.50084 10.3108 5.54084 10.3808 5.52084ZM9.7308 5.97084C9.6808 5.88084 9.5708 5.84084 9.4808 5.89084C9.3908 5.94084 9.3508 6.05084 9.4008 6.14084C9.4608 6.24084 9.5608 6.26084 9.6508 6.22084C9.7408 6.17084 9.7708 6.05084 9.7308 5.97084ZM16.6108 2.14084C16.6508 2.04084 16.6208 1.93084 16.5408 1.88084C16.4308 1.82084 16.3308 1.86084 16.2808 1.95084H16.2708C16.2308 2.02084 16.2508 2.09084 16.3008 2.15084C16.3208 2.17084 16.3308 2.19084 16.3608 2.21084C16.4608 2.25084 16.5708 2.22084 16.6208 2.14084H16.6108ZM10.0108 6.42084C9.95081 6.33084 9.8408 6.32084 9.7508 6.38084C9.6608 6.44084 9.6408 6.55084 9.7108 6.64084C9.7708 6.73084 9.8808 6.74084 9.9808 6.67084C10.0508 6.62084 10.0808 6.50084 10.0108 6.42084ZM17.0308 3.76084C17.0608 3.66084 16.9908 3.56084 16.8908 3.54084C16.7908 3.51084 16.6808 3.59084 16.6708 3.68084C16.6708 3.74084 16.6708 3.79084 16.7008 3.84084C16.7208 3.87084 16.7808 3.90084 16.8108 3.91084C16.9108 3.94084 17.0108 3.87084 17.0308 3.77084V3.76084ZM12.4408 2.55084C12.3308 2.53084 12.2408 2.61084 12.2308 2.72084C12.2308 2.76084 12.2308 2.82084 12.2608 2.85084C12.2908 2.89084 12.3408 2.92084 12.4008 2.93084C12.5008 2.93084 12.5908 2.86084 12.6008 2.75084C12.6108 2.66084 12.5408 2.56084 12.4408 2.55084ZM10.2508 4.97084C10.3508 4.97084 10.4308 4.88084 10.4308 4.77084C10.4208 4.66084 10.3308 4.58084 10.2308 4.58084C10.1208 4.59084 10.0408 4.67084 10.0508 4.78084C10.0508 4.81084 10.0708 4.85084 10.0908 4.88084C10.1208 4.92084 10.1808 4.96084 10.2508 4.96084V4.97084ZM9.5308 5.48084C9.5008 5.37084 9.3808 5.32084 9.2908 5.36084C9.1808 5.39084 9.1208 5.50084 9.1608 5.60084C9.1608 5.61084 9.17081 5.64084 9.18081 5.65084C9.23081 5.71084 9.3208 5.75084 9.4008 5.72084C9.5008 5.68084 9.56081 5.57084 9.52081 5.48084H9.5308ZM14.7908 4.92084C14.8408 5.00084 14.9508 5.02084 15.0308 4.98084C15.1208 4.93084 15.1608 4.82084 15.1108 4.73084C15.0608 4.64084 14.9508 4.60084 14.8608 4.65084C14.7708 4.70084 14.7308 4.81084 14.7808 4.90084C14.7808 4.90084 14.7875 4.90751 14.8008 4.92084H14.7908ZM10.3408 4.03084C10.2408 4.00084 10.1308 4.06084 10.1108 4.16084C10.1108 4.22084 10.1108 4.27084 10.1408 4.32084C10.1608 4.35084 10.2008 4.39084 10.2408 4.39084C10.3408 4.42084 10.4508 4.36084 10.4708 4.26084C10.5008 4.16084 10.4408 4.05084 10.3408 4.03084ZM16.0508 3.69084C16.0808 3.59084 16.0208 3.48084 15.9208 3.46084C15.8208 3.43084 15.7208 3.50084 15.7008 3.61084C15.6808 3.67084 15.7008 3.71084 15.7208 3.76084C15.7508 3.80084 15.7808 3.83084 15.8308 3.84084C15.9408 3.86084 16.0408 3.79084 16.0708 3.69084H16.0608H16.0508ZM12.0308 6.95084C11.9408 6.90084 11.8308 6.93084 11.7808 7.01084C11.7308 7.08084 11.7408 7.17084 11.7808 7.22084C11.8008 7.24084 11.8208 7.25084 11.8508 7.27084C11.9408 7.32084 12.0508 7.29084 12.1008 7.21084C12.1608 7.12084 12.1308 6.99084 12.0308 6.95084ZM11.5808 6.66084C11.5808 6.66084 11.5208 6.62084 11.4908 6.63084C11.4808 6.59084 11.4608 6.57084 11.4308 6.54084C11.3508 6.48084 11.2408 6.50084 11.1808 6.58084C11.1108 6.65084 11.1208 6.74084 11.1608 6.81084C11.1808 6.83084 11.1808 6.84084 11.2008 6.85084C11.2308 6.88084 11.2608 6.89084 11.3008 6.89084C11.3208 6.91084 11.3408 6.94084 11.3608 6.98084C11.4508 7.03084 11.5608 7.01084 11.6208 6.94084C11.6808 6.84084 11.6608 6.73084 11.5808 6.68084V6.66084ZM10.3708 6.84084C10.3008 6.76084 10.1808 6.75084 10.1108 6.84084C10.0408 6.91084 10.0308 7.00084 10.0808 7.07084C10.0808 7.08084 10.1008 7.09084 10.1008 7.10084C10.1808 7.16084 10.3008 7.17084 10.3708 7.10084C10.4508 7.03084 10.4408 6.90084 10.3708 6.83084V6.84084ZM10.7608 6.43084C10.8308 6.51084 10.9608 6.52084 11.0308 6.45084C11.1108 6.38084 11.1108 6.26084 11.0308 6.18084C10.9608 6.10084 10.8408 6.10084 10.7608 6.18084C10.6808 6.23084 10.6808 6.35084 10.7408 6.42084L10.7608 6.43084ZM10.7708 7.20084H10.7608C10.6908 7.13084 10.5708 7.15084 10.5008 7.23084C10.4408 7.29084 10.4508 7.38084 10.5008 7.45084C10.5208 7.47084 10.5208 7.48084 10.5308 7.49084C10.6108 7.55084 10.7308 7.54084 10.7908 7.47084C10.8608 7.39084 10.8408 7.27084 10.7808 7.20084H10.7708ZM11.2108 7.53084C11.1208 7.48084 11.0108 7.50084 10.9508 7.58084C10.9008 7.65084 10.9008 7.73084 10.9508 7.80084C10.9708 7.82084 10.9708 7.83084 11.0008 7.85084C11.0808 7.91084 11.2008 7.88084 11.2608 7.80084C11.3308 7.72084 11.3008 7.61084 11.2208 7.54084L11.2108 7.53084ZM15.3508 15.7308C15.3108 15.6308 15.1908 15.5808 15.1108 15.6208C15.0108 15.6608 14.9708 15.7708 15.0008 15.8608C15.0008 15.8808 15.0008 15.8908 15.0108 15.9008C15.0608 15.9708 15.1608 16.0008 15.2408 15.9608C15.3408 15.9208 15.3908 15.8008 15.3508 15.7208V15.7308ZM16.1108 15.7408C16.2008 15.7108 16.2508 15.5908 16.2008 15.5008C16.1508 15.4108 16.0408 15.3708 15.9608 15.4108C15.8608 15.4508 15.8208 15.5608 15.8608 15.6608C15.8608 15.6708 15.8808 15.6808 15.8808 15.6908C15.9308 15.7508 16.0308 15.7808 16.1108 15.7408ZM14.8408 14.5308C14.7408 14.5508 14.6708 14.6408 14.6808 14.7408C14.6808 14.7408 14.7008 14.8008 14.7208 14.8208C14.7608 14.8708 14.8208 14.9108 14.8908 14.8908C15.0008 14.8808 15.0708 14.7808 15.0508 14.6808C15.0408 14.5708 14.9508 14.5108 14.8408 14.5208V14.5308ZM15.9208 16.6408C15.8508 16.5608 15.7208 16.5508 15.6508 16.6208C15.5808 16.6908 15.5608 16.8008 15.6208 16.8708C15.6908 16.9608 15.8208 16.9708 15.8908 16.9008C15.9808 16.8408 15.9908 16.7208 15.9108 16.6408H15.9208ZM16.4508 16.2108C16.5208 16.1608 16.5508 16.0308 16.4708 15.9508C16.4108 15.8608 16.2808 15.8508 16.2108 15.9308C16.1408 15.9808 16.1208 16.1108 16.1808 16.1808C16.2308 16.2708 16.3608 16.2808 16.4408 16.2108H16.4508ZM15.6008 14.6008C15.6408 14.6508 15.6908 14.6808 15.7708 14.6708C15.8808 14.6608 15.9508 14.5708 15.9408 14.4708C15.9308 14.3608 15.8408 14.2908 15.7408 14.3008C15.6308 14.3108 15.5608 14.3908 15.5708 14.5008H15.5608C15.5608 14.5008 15.5808 14.5608 15.6008 14.5908V14.6008ZM16.0208 15.0008C16.0008 14.9008 15.9008 14.8408 15.7908 14.8708C15.6908 14.8908 15.6308 14.9908 15.6608 15.1008C15.6608 15.1208 15.6708 15.1408 15.6908 15.1608C15.7408 15.2208 15.8108 15.2508 15.8908 15.2308C15.9908 15.2108 16.0408 15.1008 16.0208 15.0008ZM15.1808 15.2208C15.1508 15.1108 15.0408 15.0608 14.9508 15.0808C14.8508 15.1208 14.7808 15.2208 14.8108 15.3308C14.8108 15.3408 14.8208 15.3708 14.8308 15.3808C14.8808 15.4408 14.9708 15.4808 15.0508 15.4508C15.1508 15.4308 15.2008 15.3208 15.1808 15.2208ZM15.6008 16.2108C15.5508 16.1208 15.4308 16.0908 15.3408 16.1408C15.2508 16.2008 15.2408 16.3108 15.2908 16.4108C15.3308 16.4908 15.4508 16.5208 15.5508 16.4708C15.6408 16.4108 15.6608 16.2908 15.6108 16.2108H15.6008ZM18.2908 17.6008H18.2808C18.1808 17.6108 18.1008 17.7008 18.1108 17.8108C18.1108 17.8408 18.1308 17.8808 18.1408 17.9008C18.1808 17.9508 18.2508 17.9808 18.3108 17.9808C18.4208 17.9708 18.5008 17.8808 18.4908 17.7708C18.4808 17.6608 18.4008 17.5908 18.2908 17.6008ZM9.4108 13.8508C9.3408 13.7708 9.2208 13.7908 9.1508 13.8508C9.0808 13.9208 9.0708 14.0208 9.1308 14.0908C9.1308 14.1008 9.1508 14.1108 9.1508 14.1208C9.2308 14.1808 9.3508 14.1708 9.4208 14.1108C9.4908 14.0308 9.4908 13.9108 9.4108 13.8408V13.8508ZM19.0408 17.6208C19.0008 17.5208 18.8908 17.4608 18.8008 17.5008C18.7008 17.5408 18.6408 17.6508 18.6708 17.7408C18.6708 17.7608 18.6808 17.7808 18.7008 17.8008C18.7408 17.8508 18.8308 17.8908 18.9108 17.8608C19.0008 17.8308 19.0608 17.7208 19.0308 17.6208H19.0408ZM16.8808 16.5708C16.9408 16.4908 16.9208 16.3808 16.8408 16.3108C16.7508 16.2608 16.6308 16.2808 16.5708 16.3508C16.5208 16.4208 16.5208 16.5108 16.5708 16.5808C16.5708 16.5908 16.5908 16.6008 16.6108 16.6208C16.6908 16.6808 16.8108 16.6708 16.8708 16.5808L16.8808 16.5708ZM19.5408 17.3608C19.5008 17.2808 19.3808 17.2508 19.2808 17.3008C19.2008 17.3408 19.1608 17.4508 19.2108 17.5508C19.2108 17.5508 19.2108 17.5608 19.2108 17.5808C19.2608 17.6608 19.3808 17.6708 19.4608 17.6308C19.5508 17.5808 19.5808 17.4608 19.5308 17.3708L19.5408 17.3608ZM16.7408 17.2908C16.6508 17.2408 16.5308 17.2808 16.4908 17.3708C16.4508 17.4308 16.4708 17.5008 16.5208 17.5608C16.5408 17.5808 16.5508 17.6008 16.5808 17.6208C16.6808 17.6608 16.7908 17.6408 16.8308 17.5408C16.8808 17.4508 16.8508 17.3308 16.7508 17.2908H16.7408ZM16.3008 17.0008C16.2208 16.9408 16.1008 16.9508 16.0408 17.0208C15.9808 17.1008 15.9808 17.1908 16.0408 17.2608C16.0408 17.2708 16.0708 17.2708 16.0808 17.3008C16.1608 17.3608 16.2808 17.3508 16.3408 17.2808C16.4108 17.2008 16.3908 17.0808 16.3108 17.0108L16.3008 17.0008ZM17.4008 16.8008C17.4408 16.7008 17.4008 16.5908 17.2908 16.5508C17.2008 16.5208 17.0908 16.5608 17.0408 16.6608C17.0208 16.7208 17.0308 16.7808 17.0708 16.8408C17.0908 16.8708 17.1208 16.8908 17.1508 16.9108C17.2508 16.9408 17.3508 16.9008 17.4008 16.8008ZM17.7408 17.6008C17.6508 17.5808 17.5608 17.6708 17.5408 17.7808C17.5408 17.8208 17.5508 17.8708 17.5808 17.9008C17.6108 17.9408 17.6608 17.9708 17.7108 17.9708C17.8008 18.0008 17.9008 17.9108 17.9108 17.8008C17.9108 17.7008 17.8408 17.6208 17.7308 17.6008H17.7408ZM10.8208 14.5508C10.7208 14.5208 10.6208 14.5908 10.6008 14.7008C10.6008 14.7608 10.6108 14.8108 10.6408 14.8508C10.6608 14.8808 10.7008 14.9208 10.7508 14.9208C10.8508 14.9508 10.9508 14.8808 10.9708 14.7808C10.9708 14.6808 10.9208 14.5708 10.8108 14.5608L10.8208 14.5508ZM11.8908 14.5508C11.7808 14.5608 11.7108 14.6608 11.7308 14.7608C11.7308 14.7908 11.7408 14.8208 11.7608 14.8408C11.8008 14.8908 11.8808 14.9408 11.9508 14.9208C12.0608 14.9108 12.1308 14.8108 12.1108 14.7108C12.1008 14.6008 12.0008 14.5308 11.9008 14.5508H11.8908ZM11.3508 14.6008C11.2508 14.6008 11.1708 14.6808 11.1708 14.7808C11.1708 14.8308 11.1808 14.8708 11.2108 14.9008C11.2408 14.9408 11.2908 14.9708 11.3608 14.9708C11.4608 14.9708 11.5508 14.8908 11.5408 14.7908C11.5408 14.6908 11.4708 14.6008 11.3508 14.6008ZM10.3108 14.4108C10.2108 14.3708 10.1008 14.4108 10.0708 14.5008C10.0408 14.5708 10.0608 14.6408 10.0908 14.6808C10.1108 14.7108 10.1508 14.7408 10.1708 14.7508H10.1808C10.2808 14.7908 10.3808 14.7308 10.4208 14.6408C10.4708 14.5408 10.4208 14.4308 10.3208 14.4008L10.3108 14.4108ZM11.2508 13.7208C11.1508 13.7208 11.0608 13.7908 11.0508 13.9008C11.0508 13.9508 11.0708 13.9908 11.0908 14.0208C11.1208 14.0608 11.1808 14.1008 11.2308 14.1008C11.3308 14.1008 11.4208 14.0308 11.4308 13.9208C11.4308 13.8208 11.3608 13.7408 11.2508 13.7208ZM10.7508 13.6208C10.6508 13.5808 10.5508 13.6408 10.5008 13.7308C10.4808 13.7908 10.5008 13.8608 10.5308 13.9108C10.5508 13.9408 10.5908 13.9708 10.6208 13.9708C10.7108 14.0008 10.8208 13.9608 10.8708 13.8608C10.9008 13.7608 10.8508 13.6508 10.7508 13.6208ZM10.3108 13.3808C10.2208 13.3208 10.1008 13.3408 10.0508 13.4208C10.0008 13.4908 10.0008 13.5808 10.0508 13.6408C10.0708 13.6608 10.0808 13.6608 10.1008 13.6908C10.1908 13.7408 10.3108 13.7208 10.3708 13.6508C10.4308 13.5608 10.4108 13.4408 10.3308 13.3908L10.3108 13.3808ZM9.8408 14.1608C9.7508 14.1108 9.6408 14.1408 9.5808 14.2308C9.5408 14.2908 9.5508 14.3708 9.5908 14.4308C9.5908 14.4408 9.61081 14.4608 9.64081 14.4808H9.6308C9.7208 14.5408 9.8508 14.5108 9.9008 14.4308C9.9508 14.3408 9.9308 14.2308 9.8408 14.1608ZM13.1608 14.3108C13.1208 14.2108 13.0008 14.1808 12.9108 14.2108C12.8208 14.2608 12.7808 14.3708 12.8208 14.4708C12.8208 14.4708 12.8275 14.4775 12.8408 14.4908C12.8908 14.5708 12.9908 14.5908 13.0808 14.5508C13.1708 14.5008 13.2108 14.3908 13.1708 14.3108H13.1608ZM15.7308 13.5608C15.8308 13.5608 15.9308 13.5008 15.9408 13.3908C15.9608 13.2808 15.8908 13.1808 15.7808 13.1708C15.6808 13.1708 15.5808 13.2308 15.5708 13.3408C15.5708 13.4008 15.5708 13.4408 15.6008 13.4708C15.6308 13.5108 15.6708 13.5508 15.7308 13.5608ZM14.7908 13.4008C14.6808 13.4008 14.6108 13.4808 14.6008 13.5908C14.6008 13.6308 14.6008 13.6708 14.6308 13.7008C14.6708 13.7508 14.7208 13.7808 14.7908 13.7808C14.8908 13.7808 14.9808 13.7008 14.9808 13.5908C14.9808 13.4808 14.8908 13.3908 14.7908 13.4008ZM14.8008 13.9708C14.7008 13.9708 14.6208 14.0608 14.6308 14.1608C14.6308 14.2008 14.6508 14.2308 14.6708 14.2608C14.7008 14.3008 14.7608 14.3408 14.8308 14.3408C14.9408 14.3308 15.0208 14.2408 15.0108 14.1308C15.0008 14.0208 14.9108 13.9508 14.8108 13.9608L14.8008 13.9708ZM15.7308 14.1208C15.8308 14.1208 15.9208 14.0408 15.9108 13.9408C15.9108 13.8308 15.8308 13.7408 15.7208 13.7508C15.6208 13.7508 15.5308 13.8208 15.5408 13.9308C15.5408 13.9708 15.5408 14.0108 15.5708 14.0408C15.6108 14.0908 15.6608 14.1208 15.7308 14.1208ZM14.0908 13.6708C14.0308 13.5808 13.9208 13.5708 13.8308 13.6308C13.7508 13.7008 13.7308 13.8208 13.7908 13.9008C13.8508 13.9908 13.9808 14.0008 14.0608 13.9308C14.1408 13.8808 14.1608 13.7508 14.0808 13.6708H14.0908ZM12.6408 14.5408C12.6208 14.4408 12.5108 14.3908 12.4108 14.4308C12.3108 14.4508 12.2608 14.5608 12.3008 14.6608C12.3008 14.6808 12.3108 14.7008 12.3208 14.7108C12.3708 14.7708 12.4608 14.8108 12.5408 14.7808C12.6308 14.7508 12.6908 14.6408 12.6508 14.5408H12.6408ZM13.6508 14.0108C13.5908 13.9208 13.4708 13.9008 13.3808 13.9608C13.3008 14.0108 13.2708 14.1308 13.3208 14.2208C13.3808 14.3208 13.4908 14.3408 13.5808 14.2708C13.6708 14.2208 13.6908 14.1108 13.6408 14.0108H13.6508ZM8.4208 12.3408C8.3208 12.3608 8.25081 12.4608 8.27081 12.5608C8.27081 12.5908 8.29081 12.6108 8.31081 12.6308C8.35081 12.6808 8.4308 12.7308 8.5008 12.7108C8.6008 12.6908 8.6708 12.5908 8.6508 12.4908C8.6208 12.3808 8.53081 12.3208 8.43081 12.3408H8.4208ZM20.4808 1.93084C20.4808 1.93084 20.4808 1.94084 20.5008 1.95084C20.5708 2.03084 20.7008 2.02084 20.7708 1.95084C20.8508 1.88084 20.8508 1.76084 20.7708 1.68084C20.7008 1.60084 20.5808 1.60084 20.5008 1.68084C20.4308 1.74084 20.4308 1.85084 20.4808 1.92084V1.93084ZM21.7008 1.88084C21.7008 1.88084 21.7008 1.89084 21.7208 1.90084C21.7708 1.98084 21.8708 2.00084 21.9608 1.96084C22.0508 1.91084 22.0908 1.80084 22.0508 1.72084C22.0108 1.62084 21.8908 1.59084 21.8008 1.62084C21.7108 1.67084 21.6708 1.78084 21.7108 1.88084H21.7008ZM21.4308 1.43084C21.4908 1.52084 21.6108 1.53084 21.7008 1.46084C21.7908 1.40084 21.8008 1.28084 21.7308 1.19084C21.6608 1.12084 21.5508 1.09084 21.4708 1.17084C21.3908 1.22084 21.3708 1.34084 21.4308 1.43084ZM20.0308 1.58084C20.0308 1.58084 20.0608 1.62084 20.0908 1.64084C20.1808 1.70084 20.3008 1.65084 20.3508 1.57084C20.4008 1.48084 20.3608 1.36084 20.2808 1.31084C20.1808 1.27084 20.0708 1.30084 20.0308 1.39084C19.9908 1.45084 20.0008 1.53084 20.0308 1.58084ZM16.7508 4.65084C16.6408 4.65084 16.5608 4.73084 16.5608 4.84084C16.5608 4.89084 16.5708 4.93084 16.6008 4.96084C16.6308 5.00084 16.6908 5.02084 16.7508 5.03084C16.8608 5.03084 16.9508 4.94084 16.9408 4.84084C16.9408 4.73084 16.8508 4.64084 16.7508 4.65084ZM20.5808 0.670844C20.5808 0.670844 20.6108 0.710844 20.6408 0.730844C20.7308 0.780844 20.8508 0.740844 20.9008 0.660844C20.9508 0.570844 20.9108 0.450844 20.8308 0.400844C20.7408 0.350844 20.6308 0.380844 20.5708 0.470844C20.5308 0.530844 20.5508 0.620844 20.5808 0.670844ZM20.7908 2.36084L20.8108 2.38084C20.8608 2.46084 20.9608 2.48084 21.0608 2.43084C21.1408 2.39084 21.1808 2.28084 21.1408 2.18084C21.0908 2.09084 20.9708 2.06084 20.8708 2.11084C20.7908 2.15084 20.7508 2.28084 20.7908 2.36084ZM15.5408 5.80084C15.5208 5.70084 15.4108 5.65084 15.3008 5.68084C15.2008 5.70084 15.1508 5.81084 15.1808 5.92084C15.1808 5.92084 15.2008 5.96084 15.2108 5.97084C15.2608 6.03084 15.3508 6.07084 15.4308 6.04084C15.5208 6.01084 15.5808 5.90084 15.5508 5.80084H15.5408ZM21.0408 1.00084C21.0408 1.00084 21.0608 1.03084 21.0808 1.04084H21.0708C21.1508 1.11084 21.2708 1.10084 21.3308 1.02084C21.4108 0.950844 21.4008 0.820844 21.3208 0.750844C21.2508 0.680844 21.1308 0.690844 21.0608 0.770844C21.0008 0.830844 21.0008 0.930844 21.0408 1.00084ZM16.2008 3.14084C16.2308 3.05084 16.1708 2.95084 16.0708 2.92084C15.9608 2.88084 15.8608 2.94084 15.8308 3.04084C15.8308 3.10084 15.8308 3.15084 15.8608 3.20084C15.8808 3.23084 15.9208 3.26084 15.9608 3.27084C16.0508 3.30084 16.1608 3.24084 16.1908 3.14084H16.2008ZM14.8008 4.21084C14.7408 4.12084 14.6308 4.11084 14.5408 4.15084C14.4508 4.21084 14.4208 4.33084 14.4908 4.42084C14.5408 4.51084 14.6608 4.52084 14.7408 4.48084C14.8308 4.42084 14.8608 4.30084 14.7908 4.21084H14.8008ZM15.2508 3.19084C15.1908 3.12084 15.0708 3.10084 14.9908 3.17084C14.9108 3.24084 14.9008 3.37084 14.9708 3.43084C15.0308 3.52084 15.1508 3.53084 15.2408 3.46084C15.3208 3.39084 15.3308 3.26084 15.2608 3.19084H15.2508ZM19.5008 1.39084C19.5008 1.39084 19.5808 1.45084 19.6108 1.46084C19.7108 1.49084 19.8208 1.43084 19.8408 1.33084C19.8608 1.22084 19.7908 1.12084 19.7008 1.11084C19.6008 1.08084 19.4908 1.14084 19.4808 1.25084C19.4608 1.30084 19.4808 1.35084 19.5008 1.40084V1.39084ZM14.4508 3.75084C14.3908 3.66084 14.2708 3.65084 14.1908 3.73084C14.1108 3.78084 14.1008 3.91084 14.1608 3.98084C14.2308 4.07084 14.3408 4.09084 14.4208 4.01084C14.5108 3.95084 14.5208 3.83084 14.4408 3.75084H14.4508ZM17.1708 3.23084H17.1808C17.1808 3.23084 17.1808 3.16084 17.1808 3.13084C17.2108 3.11084 17.2408 3.07084 17.2408 3.04084C17.2708 2.95084 17.2208 2.84084 17.1308 2.80084C17.0208 2.76084 16.9108 2.81084 16.8808 2.91084C16.8708 2.94084 16.8708 2.98084 16.8808 3.01084C16.8508 3.03084 16.8208 3.07084 16.8208 3.10084C16.8008 3.16084 16.8108 3.22084 16.8508 3.28084C16.8708 3.30084 16.9008 3.33084 16.9408 3.34084C17.0408 3.37084 17.1408 3.32084 17.1708 3.22084V3.23084ZM15.6608 4.08084C15.6608 4.08084 15.5908 4.16084 15.5908 4.21084C15.5708 4.26084 15.5908 4.31084 15.6208 4.34084C15.6508 4.38084 15.6908 4.42084 15.7508 4.43084C15.7908 4.43084 15.8508 4.43084 15.8908 4.40084C15.9308 4.37084 15.9508 4.32084 15.9708 4.28084C15.9708 4.18084 15.9108 4.08084 15.8108 4.06084C15.7508 4.06084 15.7108 4.06084 15.6608 4.08084ZM15.6108 3.65084C15.5508 3.56084 15.4308 3.55084 15.3408 3.62084C15.2608 3.67084 15.2408 3.79084 15.3008 3.88084C15.3608 3.97084 15.4808 3.98084 15.5608 3.92084C15.6508 3.86084 15.6808 3.74084 15.6108 3.65084ZM22.0208 3.55084C22.0208 3.55084 22.1008 3.62084 22.1608 3.63084C22.2608 3.63084 22.3508 3.56084 22.3608 3.45084C22.3608 3.35084 22.2908 3.27084 22.1908 3.24084C22.0908 3.24084 21.9908 3.32084 21.9808 3.42084C21.9808 3.47084 21.9908 3.51084 22.0208 3.54084V3.55084ZM21.1808 6.51084C21.2208 6.56084 21.2808 6.58084 21.3508 6.59084C21.4608 6.58084 21.5408 6.49084 21.5308 6.38084C21.5208 6.27084 21.4208 6.20084 21.3308 6.21084C21.2208 6.22084 21.1408 6.31084 21.1508 6.42084C21.1508 6.45084 21.1508 6.48084 21.1808 6.51084ZM21.5308 4.98084C21.5008 5.05084 21.5208 5.12084 21.5608 5.17084C21.5808 5.19084 21.5908 5.21084 21.6208 5.23084C21.7208 5.27084 21.8308 5.24084 21.8708 5.15084C21.9208 5.06084 21.8808 4.94084 21.7908 4.90084C21.7008 4.85084 21.5908 4.90084 21.5408 4.98084H21.5308ZM21.2608 5.45084C21.2208 5.53084 21.2308 5.61084 21.2608 5.66084C21.2808 5.68084 21.2908 5.70084 21.3208 5.72084C21.4108 5.77084 21.5208 5.75084 21.5808 5.67084C21.6408 5.58084 21.6108 5.45084 21.5208 5.40084C21.4308 5.35084 21.3208 5.37084 21.2608 5.45084ZM21.7408 6.46084C21.7808 6.51084 21.8308 6.54084 21.9008 6.54084C22.0108 6.54084 22.1008 6.45084 22.0908 6.35084C22.0908 6.24084 22.0008 6.15084 21.9008 6.16084C21.7908 6.17084 21.7008 6.25084 21.7208 6.36084C21.7208 6.40084 21.7208 6.44084 21.7408 6.46084ZM20.9508 5.92084C20.9008 5.99084 20.9008 6.07084 20.9508 6.14084C20.9708 6.16084 20.9708 6.17084 20.9808 6.18084C21.0708 6.24084 21.1908 6.22084 21.2508 6.15084C21.3108 6.06084 21.2908 5.94084 21.2108 5.89084C21.1308 5.82084 21.0108 5.84084 20.9608 5.92084H20.9508ZM21.0008 2.91084C21.0508 2.97084 21.1208 3.01084 21.2008 2.98084C21.3008 2.96084 21.3608 2.86084 21.3408 2.76084C21.3208 2.66084 21.2208 2.59084 21.1208 2.61084C21.0208 2.63084 20.9608 2.75084 20.9808 2.84084C20.9808 2.87084 20.9908 2.88084 21.0108 2.90084L21.0008 2.91084ZM9.2008 4.79084C9.0908 4.80084 9.0208 4.88084 9.0308 4.99084C9.0408 5.03084 9.05081 5.06084 9.06081 5.08084C9.10081 5.13084 9.1708 5.16084 9.2508 5.16084C9.3508 5.14084 9.4208 5.05084 9.4108 4.95084C9.3908 4.85084 9.3008 4.77084 9.2008 4.79084ZM22.8808 6.54084C22.8808 6.54084 22.9408 6.61084 23.0008 6.62084C23.0908 6.64084 23.1908 6.57084 23.2208 6.46084C23.2508 6.36084 23.1708 6.25084 23.0608 6.24084C22.9608 6.21084 22.8608 6.28084 22.8408 6.40084C22.8208 6.45084 22.8408 6.50084 22.8808 6.54084ZM22.3108 6.48084C22.3108 6.48084 22.3908 6.55084 22.4608 6.55084C22.5608 6.55084 22.6508 6.48084 22.6608 6.37084C22.6608 6.27084 22.5908 6.18084 22.4708 6.18084C22.3808 6.16084 22.2908 6.25084 22.2808 6.35084C22.2808 6.41084 22.2808 6.45084 22.3108 6.48084ZM22.0308 2.99084C22.0708 3.04084 22.1208 3.07084 22.2008 3.07084C22.3008 3.07084 22.3808 2.97084 22.3708 2.87084C22.3608 2.76084 22.2708 2.68084 22.1608 2.69084C22.0508 2.70084 21.9908 2.80084 21.9908 2.89084C21.9908 2.94084 22.0108 2.96084 22.0308 2.99084ZM21.0208 3.36084C21.0208 3.36084 21.0508 3.44084 21.0708 3.47084C21.1008 3.51084 21.1508 3.54084 21.2108 3.55084C21.3108 3.55084 21.4008 3.48084 21.4108 3.37084C21.4108 3.25084 21.3408 3.17084 21.2308 3.18084C21.1308 3.18084 21.0408 3.25084 21.0308 3.36084H21.0208ZM21.8908 2.37084C21.8908 2.37084 21.9108 2.42084 21.9208 2.43084C21.9708 2.49084 22.0508 2.52084 22.1308 2.51084C22.2308 2.47084 22.2908 2.36084 22.2708 2.27084C22.2408 2.18084 22.1408 2.12084 22.0308 2.15084C21.9308 2.17084 21.8808 2.28084 21.9008 2.38084L21.8908 2.37084ZM20.9408 3.87084C20.9408 3.93084 20.9408 3.98084 20.9708 4.03084C21.0008 4.08084 21.0308 4.10084 21.0708 4.10084C21.1808 4.12084 21.2808 4.07084 21.3008 3.97084C21.3408 3.86084 21.2708 3.76084 21.1708 3.74084C21.0708 3.71084 20.9608 3.77084 20.9408 3.87084ZM21.9408 4.12084C21.9408 4.12084 22.0008 4.18084 22.0508 4.19084C22.1508 4.22084 22.2508 4.15084 22.2708 4.04084C22.3008 3.94084 22.2308 3.84084 22.1308 3.82084C22.0308 3.79084 21.9308 3.86084 21.9108 3.96084C21.9108 4.02084 21.9108 4.08084 21.9408 4.12084ZM21.7608 4.48084C21.7308 4.53084 21.7408 4.61084 21.7708 4.65084C21.7908 4.68084 21.8308 4.71084 21.8608 4.71084C21.9608 4.75084 22.0708 4.71084 22.1008 4.60084C22.1508 4.50084 22.1008 4.39084 21.9908 4.35084C21.9008 4.32084 21.7908 4.36084 21.7608 4.47084V4.48084ZM18.4708 1.18084C18.3708 1.22084 18.3208 1.32084 18.3608 1.42084C18.3608 1.44084 18.3708 1.46084 18.3808 1.47084C18.4308 1.53084 18.5208 1.57084 18.6008 1.54084C18.7008 1.50084 18.7508 1.38084 18.7208 1.29084C18.6808 1.19084 18.5708 1.13084 18.4708 1.17084V1.18084ZM22.2208 7.15084C22.1208 7.15084 22.0308 7.23084 22.0408 7.33084C22.0408 7.38084 22.0508 7.42084 22.0808 7.45084C22.1108 7.49084 22.1608 7.52084 22.2308 7.52084C22.3308 7.52084 22.4208 7.44084 22.4208 7.33084C22.4208 7.23084 22.3408 7.15084 22.2308 7.14084H22.2208V7.15084ZM11.5008 2.86084C11.4508 2.77084 11.3308 2.72084 11.2408 2.77084C11.1608 2.81084 11.1108 2.93084 11.1608 3.02084C11.1608 3.02084 11.1675 3.02751 11.1808 3.04084C11.2308 3.12084 11.3408 3.14084 11.4208 3.10084C11.5008 3.06084 11.5508 2.94084 11.5108 2.86084H11.5008ZM11.5108 1.83084C11.5508 1.88084 11.6208 1.91084 11.6908 1.90084C11.8008 1.89084 11.8608 1.79084 11.8508 1.69084C11.8508 1.59084 11.7408 1.52084 11.6408 1.53084C11.5408 1.55084 11.4708 1.64084 11.4808 1.74084C11.4808 1.77084 11.5008 1.81084 11.5108 1.83084ZM12.6408 1.87084C12.6408 1.87084 12.7008 1.94084 12.7508 1.95084C12.8608 1.97084 12.9508 1.91084 12.9708 1.81084C13.0008 1.71084 12.9408 1.60084 12.8408 1.58084C12.7408 1.55084 12.6308 1.63084 12.6208 1.73084C12.5908 1.78084 12.6208 1.83084 12.6408 1.88084V1.87084ZM12.0808 1.80084C12.0808 1.80084 12.1608 1.87084 12.2208 1.88084C12.3208 1.88084 12.4108 1.81084 12.4208 1.70084C12.4208 1.60084 12.3508 1.51084 12.2408 1.50084C12.1408 1.50084 12.0508 1.57084 12.0408 1.68084C12.0408 1.73084 12.0508 1.77084 12.0808 1.80084ZM11.0008 3.12084C10.9308 3.05084 10.8108 3.04084 10.7308 3.12084C10.6608 3.18084 10.6508 3.29084 10.7108 3.36084C10.7108 3.36084 10.7175 3.36751 10.7308 3.38084C10.8008 3.46084 10.9208 3.46084 10.9908 3.39084C11.0708 3.32084 11.0808 3.19084 11.0108 3.12084H11.0008ZM13.6808 2.30084C13.6808 2.30084 13.7108 2.34084 13.7408 2.36084C13.8308 2.41084 13.9408 2.38084 14.0008 2.29084C14.0508 2.20084 14.0208 2.09084 13.9408 2.04084C13.8508 1.99084 13.7208 2.01084 13.6708 2.10084C13.6308 2.16084 13.6508 2.25084 13.6808 2.30084ZM11.6708 2.80084C11.6708 2.80084 11.6908 2.85084 11.7108 2.87084C11.7508 2.92084 11.8208 2.95084 11.9008 2.95084C12.0008 2.93084 12.0708 2.83084 12.0508 2.73084C12.0408 2.62084 11.9408 2.56084 11.8308 2.58084C11.7308 2.60084 11.6708 2.70084 11.6808 2.80084H11.6708ZM13.1808 2.05084C13.1808 2.05084 13.2308 2.10084 13.2608 2.11084C13.3608 2.15084 13.4708 2.11084 13.5108 2.01084C13.5408 1.92084 13.5108 1.80084 13.4008 1.76084C13.3008 1.72084 13.1908 1.76084 13.1608 1.86084C13.1208 1.92084 13.1408 1.99084 13.1808 2.04084V2.05084ZM9.64081 3.40084C9.69081 3.31084 9.66081 3.19084 9.56081 3.15084C9.46081 3.11084 9.3508 3.15084 9.3208 3.24084H9.31081C9.28081 3.30084 9.2908 3.38084 9.3308 3.43084C9.3508 3.45084 9.3808 3.48084 9.4108 3.49084C9.5108 3.53084 9.6108 3.49084 9.6508 3.40084H9.64081ZM9.22081 4.22084C9.11081 4.22084 9.03081 4.29084 9.02081 4.40084C9.02081 4.44084 9.02081 4.49084 9.05081 4.53084C9.08081 4.57084 9.1308 4.60084 9.2008 4.60084C9.3008 4.60084 9.3908 4.52084 9.4008 4.42084C9.4008 4.32084 9.32081 4.22084 9.22081 4.22084ZM10.9408 1.91084C10.9408 1.91084 10.9408 1.94084 10.9608 1.96084C11.0108 2.02084 11.0908 2.05084 11.1708 2.02084C11.2808 1.99084 11.3308 1.87084 11.2908 1.78084C11.2508 1.68084 11.1408 1.62084 11.0408 1.66084C10.9508 1.69084 10.8908 1.80084 10.9308 1.90084L10.9408 1.91084ZM9.3208 3.67084C9.2208 3.64084 9.1108 3.70084 9.0908 3.80084C9.0908 3.86084 9.0908 3.91084 9.1208 3.96084C9.1408 3.99084 9.18081 4.03084 9.22081 4.03084C9.33081 4.05084 9.4308 4.00084 9.4508 3.90084C9.4908 3.79084 9.4208 3.69084 9.3208 3.67084ZM18.9408 1.35084C18.9808 1.40084 19.0308 1.43084 19.1108 1.43084C19.2108 1.43084 19.2908 1.33084 19.2808 1.23084C19.2808 1.13084 19.1808 1.05084 19.0808 1.06084C18.9808 1.06084 18.9008 1.16084 18.9108 1.25084C18.9208 1.29084 18.9308 1.32084 18.9508 1.35084H18.9408ZM13.0408 2.68084C12.9308 2.64084 12.8308 2.70084 12.7908 2.79084C12.7708 2.85084 12.7808 2.91084 12.8208 2.97084C12.8408 3.00084 12.8608 3.02084 12.9008 3.04084C13.0008 3.07084 13.1008 3.03084 13.1408 2.92084C13.1708 2.83084 13.1308 2.72084 13.0408 2.68084ZM9.9208 2.95084C9.9708 2.86084 9.9508 2.75084 9.8808 2.69084C9.7908 2.63084 9.6708 2.65084 9.6208 2.73084C9.5708 2.80084 9.5708 2.88084 9.6208 2.95084C9.6408 2.97084 9.6408 2.98084 9.6608 2.99084C9.7408 3.06084 9.86081 3.04084 9.93081 2.96084L9.9208 2.95084ZM10.4308 2.18084C10.4808 2.27084 10.6008 2.30084 10.6908 2.25084C10.7808 2.19084 10.8108 2.08084 10.7608 1.99084C10.7008 1.90084 10.5908 1.87084 10.5008 1.92084C10.4108 1.97084 10.3808 2.09084 10.4308 2.18084ZM10.0008 2.54084C10.0708 2.62084 10.1908 2.62084 10.2608 2.56084C10.3408 2.49084 10.3508 2.36084 10.2808 2.29084C10.2108 2.21084 10.0908 2.20084 10.0108 2.27084C9.94081 2.34084 9.9308 2.44084 9.9908 2.51084C9.9908 2.51084 9.99747 2.51751 10.0108 2.53084L10.0008 2.54084ZM10.6708 3.78084C10.7208 3.69084 10.6908 3.58084 10.6108 3.53084C10.5208 3.48084 10.3908 3.50084 10.3508 3.60084C10.3108 3.66084 10.3208 3.74084 10.3508 3.79084C10.3708 3.81084 10.3808 3.83084 10.4108 3.85084C10.5008 3.90084 10.6108 3.88084 10.6708 3.78084ZM19.5208 0.310844C19.5208 0.310844 19.5908 0.390844 19.6508 0.400844C19.7508 0.400844 19.8508 0.340844 19.8608 0.230844C19.8808 0.120844 19.8108 0.0208439 19.7008 0.0108439C19.6008 0.0108439 19.5008 0.0708439 19.4908 0.180844C19.4708 0.230844 19.4908 0.280844 19.5208 0.310844ZM20.0708 0.430844C20.0708 0.430844 20.1308 0.490844 20.1608 0.490844C20.2608 0.530844 20.3608 0.480844 20.4008 0.390844C20.4408 0.280844 20.3808 0.180844 20.2908 0.140844C20.1908 0.110844 20.0808 0.160844 20.0508 0.260844C20.0208 0.310844 20.0408 0.380844 20.0708 0.430844ZM17.2008 2.62084C17.2908 2.67084 17.4208 2.65084 17.4608 2.55084C17.5108 2.46084 17.4808 2.35084 17.3908 2.29084C17.3008 2.24084 17.1808 2.28084 17.1408 2.37084C17.1008 2.43084 17.1108 2.51084 17.1408 2.56084C17.1608 2.58084 17.1708 2.60084 17.2008 2.62084ZM18.9508 0.290844C18.9908 0.340844 19.0608 0.370844 19.1208 0.370844C19.2208 0.370844 19.3008 0.270844 19.2908 0.180844C19.2908 0.0708439 19.1908 -0.00915608 19.0908 0.000843918C18.9808 0.0108439 18.9008 0.100844 18.9108 0.210844C18.9108 0.240844 18.9308 0.280844 18.9408 0.300844L18.9508 0.290844ZM16.2708 2.38084C16.1608 2.34084 16.0708 2.39084 16.0208 2.49084C15.9908 2.54084 16.0108 2.61084 16.0508 2.67084C16.0708 2.69084 16.0908 2.72084 16.1308 2.73084C16.2308 2.77084 16.3408 2.73084 16.3708 2.64084C16.4108 2.53084 16.3708 2.43084 16.2708 2.39084V2.38084ZM17.7408 1.85084C17.6608 1.79084 17.5408 1.80084 17.4808 1.87084C17.4108 1.93084 17.4208 2.03084 17.4808 2.11084C17.4808 2.12084 17.5008 2.13084 17.5008 2.14084C17.5808 2.20084 17.7008 2.19084 17.7608 2.12084C17.8308 2.04084 17.8308 1.92084 17.7508 1.85084H17.7408ZM18.3908 0.380844C18.4408 0.440844 18.5208 0.490844 18.6008 0.460844C18.7008 0.420844 18.7608 0.330844 18.7308 0.230844C18.7008 0.120844 18.6108 0.0608439 18.5008 0.0908439C18.4108 0.120844 18.3508 0.220844 18.3708 0.320844C18.3708 0.350844 18.3908 0.370844 18.4008 0.380844H18.3908ZM17.9308 1.47084C17.8508 1.52084 17.8308 1.64084 17.8908 1.73084C17.9408 1.81084 18.0608 1.83084 18.1508 1.77084C18.2408 1.71084 18.2508 1.60084 18.1908 1.51084C18.1408 1.42084 18.0208 1.41084 17.9308 1.47084ZM16.8908 1.67084C16.9408 1.58084 16.9208 1.46084 16.8508 1.41084C16.7608 1.36084 16.6508 1.38084 16.5908 1.45084C16.5408 1.52084 16.5408 1.61084 16.5908 1.68084C16.5908 1.69084 16.6108 1.71084 16.6308 1.72084C16.7108 1.78084 16.8208 1.76084 16.8908 1.68084V1.67084ZM17.8508 0.560844C17.8508 0.560844 17.8508 0.570844 17.8708 0.580844C17.9208 0.660844 18.0208 0.680844 18.1108 0.640844C18.2008 0.610844 18.2408 0.480844 18.2008 0.400844C18.1608 0.300844 18.0408 0.270844 17.9508 0.300844C17.8608 0.350844 17.8208 0.460844 17.8608 0.560844H17.8508ZM17.3908 0.880844C17.4408 0.960844 17.5608 0.980844 17.6508 0.920844C17.7408 0.860844 17.7508 0.740844 17.6808 0.650844C17.6308 0.570844 17.5108 0.550844 17.4208 0.610844C17.3308 0.670844 17.3208 0.800844 17.3908 0.880844ZM14.1608 2.63084C14.1608 2.63084 14.1808 2.65084 14.1808 2.66084C14.2608 2.73084 14.3808 2.71084 14.4508 2.63084C14.5108 2.55084 14.5008 2.43084 14.4308 2.37084C14.3508 2.30084 14.2308 2.32084 14.1608 2.40084C14.1108 2.47084 14.1108 2.55084 14.1608 2.63084ZM14.0608 3.31084C13.9808 3.24084 13.8608 3.24084 13.7908 3.32084C13.7208 3.39084 13.7208 3.49084 13.7708 3.56084C13.7708 3.57084 13.8008 3.57084 13.8008 3.58084C13.8708 3.65084 14.0008 3.65084 14.0608 3.58084C14.1308 3.50084 14.1308 3.38084 14.0608 3.30084V3.31084ZM14.8608 2.76084C14.7908 2.68084 14.6708 2.68084 14.5908 2.76084C14.5208 2.82084 14.5108 2.93084 14.5708 3.00084C14.5708 3.01084 14.5908 3.02084 14.5908 3.02084C14.6608 3.10084 14.7808 3.10084 14.8608 3.02084C14.9408 2.95084 14.9408 2.83084 14.8608 2.75084V2.76084ZM13.3208 3.22084C13.3208 3.22084 13.3608 3.26084 13.3808 3.28084H13.3908C13.4808 3.32084 13.5908 3.29084 13.6408 3.21084C13.6908 3.12084 13.6708 3.01084 13.5908 2.95084C13.5008 2.90084 13.3908 2.92084 13.3208 3.01084C13.2808 3.07084 13.2908 3.17084 13.3208 3.22084ZM16.9508 1.24084C16.9508 1.24084 16.9708 1.26084 16.9708 1.27084C17.0508 1.33084 17.1708 1.34084 17.2408 1.26084C17.3108 1.19084 17.3108 1.06084 17.2408 1.00084C17.1708 0.920844 17.0508 0.920844 16.9708 1.00084C16.9008 1.07084 16.9008 1.17084 16.9508 1.24084Z" fill="#EAE5E3"/>
</svg>
