<svg width="374" height="36" viewBox="0 0 374 36" fill="none" xmlns="http://www.w3.org/2000/svg">
<path d="M59.3844 15.9844L59.3844 20.0157L64.0904 20.0157L64.0904 15.9844L59.3844 15.9844Z" fill="url(#paint0_linear_9_2361)"/>
<path d="M54.674 11.9531L54.674 15.9844L59.38 15.9844L59.38 11.9531L54.674 11.9531Z" fill="url(#paint1_linear_9_2361)"/>
<path d="M64.0905 11.9531L64.0905 15.9844L68.7965 15.9844L68.7965 11.9531L64.0905 11.9531Z" fill="url(#paint2_linear_9_2361)"/>
<path d="M54.674 20.0113L54.674 24.0425L59.38 24.0425L59.38 20.0113L54.674 20.0113Z" fill="url(#paint3_linear_9_2361)"/>
<path d="M64.0905 20.0113L64.0905 24.0425L68.7965 24.0425L68.7965 20.0113L64.0905 20.0113Z" fill="url(#paint4_linear_9_2361)"/>
<path d="M31.1394 20.0113L31.1394 24.0425L35.8454 24.0425L35.8454 20.0113L31.1394 20.0113Z" fill="url(#paint5_linear_9_2361)"/>
<path d="M31.1394 11.9531L31.1394 15.9844L35.8454 15.9844L35.8454 11.9531L31.1394 11.9531Z" fill="url(#paint6_linear_9_2361)"/>
<path d="M26.429 15.9844L26.429 20.0157L31.135 20.0157L31.135 15.9844L26.429 15.9844Z" fill="url(#paint7_linear_9_2361)"/>
<path d="M35.8454 15.9844L35.8454 20.0157L40.5515 20.0157L40.5515 15.9844L35.8454 15.9844Z" fill="url(#paint8_linear_9_2361)"/>
<path d="M115.874 15.9844L115.874 20.0156L120.581 20.0156L120.58 15.9844L115.874 15.9844Z" fill="url(#paint9_linear_9_2361)"/>
<path d="M111.168 11.9531L111.168 15.9844L115.874 15.9844L115.874 11.9531L111.168 11.9531Z" fill="url(#paint10_linear_9_2361)"/>
<path d="M120.581 11.9531L120.581 15.9844L125.287 15.9844L125.287 11.9531L120.581 11.9531Z" fill="url(#paint11_linear_9_2361)"/>
<path d="M111.168 20.0112L111.168 24.0425L115.874 24.0425L115.874 20.0112L111.168 20.0112Z" fill="url(#paint12_linear_9_2361)"/>
<path d="M120.581 20.0112L120.581 24.0425L125.287 24.0425L125.287 20.0112L120.581 20.0112Z" fill="url(#paint13_linear_9_2361)"/>
<path d="M87.6294 20.0113L87.6294 24.0425L92.3355 24.0425L92.3355 20.0112L87.6294 20.0113Z" fill="url(#paint14_linear_9_2361)"/>
<path d="M87.6294 11.9531L87.6294 15.9844L92.3355 15.9844L92.3355 11.9531L87.6294 11.9531Z" fill="url(#paint15_linear_9_2361)"/>
<path d="M82.9234 15.9844L82.9234 20.0157L87.6294 20.0157L87.6294 15.9844L82.9234 15.9844Z" fill="url(#paint16_linear_9_2361)"/>
<path d="M92.3355 15.9844L92.3355 20.0157L97.0415 20.0157L97.0415 15.9844L92.3355 15.9844Z" fill="url(#paint17_linear_9_2361)"/>
<path d="M172.365 15.9844L172.365 20.0156L177.071 20.0156L177.071 15.9844L172.365 15.9844Z" fill="url(#paint18_linear_9_2361)"/>
<path d="M167.658 11.9531L167.658 15.9844L172.364 15.9844L172.364 11.9531L167.658 11.9531Z" fill="url(#paint19_linear_9_2361)"/>
<path d="M177.071 11.9531L177.071 15.9844L181.777 15.9844L181.777 11.9531L177.071 11.9531Z" fill="url(#paint20_linear_9_2361)"/>
<path d="M167.658 20.0112L167.658 24.0425L172.364 24.0425L172.364 20.0112L167.658 20.0112Z" fill="url(#paint21_linear_9_2361)"/>
<path d="M177.071 20.0112L177.071 24.0425L181.777 24.0425L181.777 20.0112L177.071 20.0112Z" fill="url(#paint22_linear_9_2361)"/>
<path d="M144.12 20.0112L144.12 24.0425L148.826 24.0425L148.826 20.0112L144.12 20.0112Z" fill="url(#paint23_linear_9_2361)"/>
<path d="M144.12 11.9531L144.12 15.9844L148.826 15.9844L148.826 11.9531L144.12 11.9531Z" fill="url(#paint24_linear_9_2361)"/>
<path d="M139.413 15.9844L139.413 20.0156L144.12 20.0156L144.12 15.9844L139.413 15.9844Z" fill="url(#paint25_linear_9_2361)"/>
<path d="M148.826 15.9844L148.826 20.0156L153.532 20.0156L153.532 15.9844L148.826 15.9844Z" fill="url(#paint26_linear_9_2361)"/>
<path d="M228.855 15.9844L228.855 20.0156L233.561 20.0156L233.561 15.9844L228.855 15.9844Z" fill="url(#paint27_linear_9_2361)"/>
<path d="M224.149 11.9531L224.149 15.9844L228.855 15.9844L228.855 11.9531L224.149 11.9531Z" fill="url(#paint28_linear_9_2361)"/>
<path d="M233.561 11.9531L233.561 15.9844L238.267 15.9844L238.267 11.9531L233.561 11.9531Z" fill="url(#paint29_linear_9_2361)"/>
<path d="M224.149 20.0112L224.149 24.0425L228.855 24.0425L228.855 20.0112L224.149 20.0112Z" fill="url(#paint30_linear_9_2361)"/>
<path d="M233.561 20.0112L233.561 24.0425L238.267 24.0425L238.267 20.0112L233.561 20.0112Z" fill="url(#paint31_linear_9_2361)"/>
<path d="M200.61 20.0112L200.61 24.0425L205.316 24.0425L205.316 20.0112L200.61 20.0112Z" fill="url(#paint32_linear_9_2361)"/>
<path d="M200.61 11.9531L200.61 15.9844L205.316 15.9844L205.316 11.9531L200.61 11.9531Z" fill="url(#paint33_linear_9_2361)"/>
<path d="M195.904 15.9844L195.904 20.0156L200.61 20.0156L200.61 15.9844L195.904 15.9844Z" fill="url(#paint34_linear_9_2361)"/>
<path d="M205.316 15.9844L205.316 20.0156L210.022 20.0156L210.022 15.9844L205.316 15.9844Z" fill="url(#paint35_linear_9_2361)"/>
<path d="M285.345 15.9843L285.345 20.0156L290.051 20.0156L290.051 15.9843L285.345 15.9843Z" fill="url(#paint36_linear_9_2361)"/>
<path d="M280.639 11.9531L280.639 15.9844L285.345 15.9843L285.345 11.9531L280.639 11.9531Z" fill="url(#paint37_linear_9_2361)"/>
<path d="M290.055 11.9531L290.055 15.9843L294.761 15.9843L294.761 11.9531L290.055 11.9531Z" fill="url(#paint38_linear_9_2361)"/>
<path d="M280.639 20.0112L280.639 24.0425L285.345 24.0425L285.345 20.0112L280.639 20.0112Z" fill="url(#paint39_linear_9_2361)"/>
<path d="M290.055 20.0112L290.055 24.0425L294.761 24.0425L294.761 20.0112L290.055 20.0112Z" fill="url(#paint40_linear_9_2361)"/>
<path d="M257.1 20.0112L257.1 24.0425L261.806 24.0425L261.806 20.0112L257.1 20.0112Z" fill="url(#paint41_linear_9_2361)"/>
<path d="M257.1 11.9531L257.1 15.9844L261.806 15.9843L261.806 11.9531L257.1 11.9531Z" fill="url(#paint42_linear_9_2361)"/>
<path d="M252.394 15.9843L252.394 20.0156L257.1 20.0156L257.1 15.9843L252.394 15.9843Z" fill="url(#paint43_linear_9_2361)"/>
<path d="M261.806 15.9843L261.806 20.0156L266.512 20.0156L266.512 15.9843L261.806 15.9843Z" fill="url(#paint44_linear_9_2361)"/>
<path d="M341.835 15.9843L341.835 20.0156L346.541 20.0156L346.541 15.9843L341.835 15.9843Z" fill="url(#paint45_linear_9_2361)"/>
<path d="M337.129 11.9531L337.129 15.9843L341.835 15.9843L341.835 11.9531L337.129 11.9531Z" fill="url(#paint46_linear_9_2361)"/>
<path d="M346.545 11.9531L346.545 15.9843L351.251 15.9843L351.251 11.9531L346.545 11.9531Z" fill="url(#paint47_linear_9_2361)"/>
<path d="M337.129 20.0112L337.129 24.0425L341.835 24.0425L341.835 20.0112L337.129 20.0112Z" fill="url(#paint48_linear_9_2361)"/>
<path d="M346.545 20.0112L346.545 24.0425L351.251 24.0425L351.251 20.0112L346.545 20.0112Z" fill="url(#paint49_linear_9_2361)"/>
<path d="M313.59 20.0112L313.59 24.0425L318.296 24.0425L318.296 20.0112L313.59 20.0112Z" fill="url(#paint50_linear_9_2361)"/>
<path d="M313.59 11.9531L313.59 15.9843L318.296 15.9843L318.296 11.9531L313.59 11.9531Z" fill="url(#paint51_linear_9_2361)"/>
<path d="M308.884 15.9843L308.884 20.0156L313.59 20.0156L313.59 15.9843L308.884 15.9843Z" fill="url(#paint52_linear_9_2361)"/>
<path d="M318.3 15.9843L318.3 20.0156L323.006 20.0156L323.006 15.9843L318.3 15.9843Z" fill="url(#paint53_linear_9_2361)"/>
<path d="M-2.86635e-08 35.3443L0 36L374 36L374 35.3442L-2.86635e-08 35.3443Z" fill="url(#paint54_linear_9_2361)"/>
<path d="M-2.86635e-08 31.9071L0 32.5628L374 32.5628L374 31.9071L-2.86635e-08 31.9071Z" fill="url(#paint55_linear_9_2361)"/>
<path d="M-2.86636e-08 1.77026e-05L0 0.655766L374 0.655749L374 1.35452e-06L-2.86636e-08 1.77026e-05Z" fill="url(#paint56_linear_9_2361)"/>
<path d="M-2.86635e-08 3.43718L0 4.09292L374 4.09291L374 3.43716L-2.86635e-08 3.43718Z" fill="url(#paint57_linear_9_2361)"/>
<defs>
<linearGradient id="paint0_linear_9_2361" x1="365.701" y1="18" x2="10.163" y2="18" gradientUnits="userSpaceOnUse">
<stop offset="0.02" stop-color="#5F3832"/>
<stop offset="0.43" stop-color="#D85219"/>
<stop offset="0.74" stop-color="#EB7C1C"/>
<stop offset="1" stop-color="#F6C31F"/>
</linearGradient>
<linearGradient id="paint1_linear_9_2361" x1="365.701" y1="13.9687" x2="10.1629" y2="13.9687" gradientUnits="userSpaceOnUse">
<stop offset="0.02" stop-color="#5F3832"/>
<stop offset="0.43" stop-color="#D85219"/>
<stop offset="0.74" stop-color="#EB7C1C"/>
<stop offset="1" stop-color="#F6C31F"/>
</linearGradient>
<linearGradient id="paint2_linear_9_2361" x1="365.701" y1="13.9687" x2="10.163" y2="13.9687" gradientUnits="userSpaceOnUse">
<stop offset="0.02" stop-color="#5F3832"/>
<stop offset="0.43" stop-color="#D85219"/>
<stop offset="0.74" stop-color="#EB7C1C"/>
<stop offset="1" stop-color="#F6C31F"/>
</linearGradient>
<linearGradient id="paint3_linear_9_2361" x1="365.701" y1="22.0313" x2="10.1629" y2="22.0313" gradientUnits="userSpaceOnUse">
<stop offset="0.02" stop-color="#5F3832"/>
<stop offset="0.43" stop-color="#D85219"/>
<stop offset="0.74" stop-color="#EB7C1C"/>
<stop offset="1" stop-color="#F6C31F"/>
</linearGradient>
<linearGradient id="paint4_linear_9_2361" x1="365.701" y1="22.0313" x2="10.163" y2="22.0313" gradientUnits="userSpaceOnUse">
<stop offset="0.02" stop-color="#5F3832"/>
<stop offset="0.43" stop-color="#D85219"/>
<stop offset="0.74" stop-color="#EB7C1C"/>
<stop offset="1" stop-color="#F6C31F"/>
</linearGradient>
<linearGradient id="paint5_linear_9_2361" x1="365.701" y1="22.0313" x2="10.163" y2="22.0313" gradientUnits="userSpaceOnUse">
<stop offset="0.02" stop-color="#5F3832"/>
<stop offset="0.43" stop-color="#D85219"/>
<stop offset="0.74" stop-color="#EB7C1C"/>
<stop offset="1" stop-color="#F6C31F"/>
</linearGradient>
<linearGradient id="paint6_linear_9_2361" x1="365.701" y1="13.9687" x2="10.163" y2="13.9687" gradientUnits="userSpaceOnUse">
<stop offset="0.02" stop-color="#5F3832"/>
<stop offset="0.43" stop-color="#D85219"/>
<stop offset="0.74" stop-color="#EB7C1C"/>
<stop offset="1" stop-color="#F6C31F"/>
</linearGradient>
<linearGradient id="paint7_linear_9_2361" x1="365.701" y1="36" x2="10.163" y2="35.567" gradientUnits="userSpaceOnUse">
<stop offset="0.02" stop-color="#5F3832"/>
<stop offset="0.43" stop-color="#D85219"/>
<stop offset="0.74" stop-color="#EB7C1C"/>
<stop offset="1" stop-color="#F6C31F"/>
</linearGradient>
<linearGradient id="paint8_linear_9_2361" x1="365.701" y1="36" x2="10.163" y2="35.567" gradientUnits="userSpaceOnUse">
<stop offset="0.02" stop-color="#5F3832"/>
<stop offset="0.43" stop-color="#D85219"/>
<stop offset="0.74" stop-color="#EB7C1C"/>
<stop offset="1" stop-color="#F6C31F"/>
</linearGradient>
<linearGradient id="paint9_linear_9_2361" x1="365.697" y1="36" x2="10.163" y2="35.567" gradientUnits="userSpaceOnUse">
<stop offset="0.02" stop-color="#5F3832"/>
<stop offset="0.43" stop-color="#D85219"/>
<stop offset="0.74" stop-color="#EB7C1C"/>
<stop offset="1" stop-color="#F6C31F"/>
</linearGradient>
<linearGradient id="paint10_linear_9_2361" x1="365.701" y1="13.9687" x2="10.1629" y2="13.9687" gradientUnits="userSpaceOnUse">
<stop offset="0.02" stop-color="#5F3832"/>
<stop offset="0.43" stop-color="#D85219"/>
<stop offset="0.74" stop-color="#EB7C1C"/>
<stop offset="1" stop-color="#F6C31F"/>
</linearGradient>
<linearGradient id="paint11_linear_9_2361" x1="365.701" y1="13.9687" x2="10.163" y2="13.9687" gradientUnits="userSpaceOnUse">
<stop offset="0.02" stop-color="#5F3832"/>
<stop offset="0.43" stop-color="#D85219"/>
<stop offset="0.74" stop-color="#EB7C1C"/>
<stop offset="1" stop-color="#F6C31F"/>
</linearGradient>
<linearGradient id="paint12_linear_9_2361" x1="365.701" y1="22.0313" x2="10.1629" y2="22.0313" gradientUnits="userSpaceOnUse">
<stop offset="0.02" stop-color="#5F3832"/>
<stop offset="0.43" stop-color="#D85219"/>
<stop offset="0.74" stop-color="#EB7C1C"/>
<stop offset="1" stop-color="#F6C31F"/>
</linearGradient>
<linearGradient id="paint13_linear_9_2361" x1="365.701" y1="22.0313" x2="10.163" y2="22.0313" gradientUnits="userSpaceOnUse">
<stop offset="0.02" stop-color="#5F3832"/>
<stop offset="0.43" stop-color="#D85219"/>
<stop offset="0.74" stop-color="#EB7C1C"/>
<stop offset="1" stop-color="#F6C31F"/>
</linearGradient>
<linearGradient id="paint14_linear_9_2361" x1="365.701" y1="22.0313" x2="10.163" y2="22.0313" gradientUnits="userSpaceOnUse">
<stop offset="0.02" stop-color="#5F3832"/>
<stop offset="0.43" stop-color="#D85219"/>
<stop offset="0.74" stop-color="#EB7C1C"/>
<stop offset="1" stop-color="#F6C31F"/>
</linearGradient>
<linearGradient id="paint15_linear_9_2361" x1="365.701" y1="13.9687" x2="10.163" y2="13.9687" gradientUnits="userSpaceOnUse">
<stop offset="0.02" stop-color="#5F3832"/>
<stop offset="0.43" stop-color="#D85219"/>
<stop offset="0.74" stop-color="#EB7C1C"/>
<stop offset="1" stop-color="#F6C31F"/>
</linearGradient>
<linearGradient id="paint16_linear_9_2361" x1="365.701" y1="36" x2="10.163" y2="35.567" gradientUnits="userSpaceOnUse">
<stop offset="0.02" stop-color="#5F3832"/>
<stop offset="0.43" stop-color="#D85219"/>
<stop offset="0.74" stop-color="#EB7C1C"/>
<stop offset="1" stop-color="#F6C31F"/>
</linearGradient>
<linearGradient id="paint17_linear_9_2361" x1="365.701" y1="36" x2="10.163" y2="35.567" gradientUnits="userSpaceOnUse">
<stop offset="0.02" stop-color="#5F3832"/>
<stop offset="0.43" stop-color="#D85219"/>
<stop offset="0.74" stop-color="#EB7C1C"/>
<stop offset="1" stop-color="#F6C31F"/>
</linearGradient>
<linearGradient id="paint18_linear_9_2361" x1="365.701" y1="36" x2="10.163" y2="35.567" gradientUnits="userSpaceOnUse">
<stop offset="0.02" stop-color="#5F3832"/>
<stop offset="0.43" stop-color="#D85219"/>
<stop offset="0.74" stop-color="#EB7C1C"/>
<stop offset="1" stop-color="#F6C31F"/>
</linearGradient>
<linearGradient id="paint19_linear_9_2361" x1="365.701" y1="13.9687" x2="10.1629" y2="13.9687" gradientUnits="userSpaceOnUse">
<stop offset="0.02" stop-color="#5F3832"/>
<stop offset="0.43" stop-color="#D85219"/>
<stop offset="0.74" stop-color="#EB7C1C"/>
<stop offset="1" stop-color="#F6C31F"/>
</linearGradient>
<linearGradient id="paint20_linear_9_2361" x1="365.702" y1="13.9687" x2="10.1625" y2="13.9687" gradientUnits="userSpaceOnUse">
<stop offset="0.02" stop-color="#5F3832"/>
<stop offset="0.43" stop-color="#D85219"/>
<stop offset="0.74" stop-color="#EB7C1C"/>
<stop offset="1" stop-color="#F6C31F"/>
</linearGradient>
<linearGradient id="paint21_linear_9_2361" x1="365.701" y1="22.0313" x2="10.1629" y2="22.0313" gradientUnits="userSpaceOnUse">
<stop offset="0.02" stop-color="#5F3832"/>
<stop offset="0.43" stop-color="#D85219"/>
<stop offset="0.74" stop-color="#EB7C1C"/>
<stop offset="1" stop-color="#F6C31F"/>
</linearGradient>
<linearGradient id="paint22_linear_9_2361" x1="365.702" y1="22.0313" x2="10.1625" y2="22.0313" gradientUnits="userSpaceOnUse">
<stop offset="0.02" stop-color="#5F3832"/>
<stop offset="0.43" stop-color="#D85219"/>
<stop offset="0.74" stop-color="#EB7C1C"/>
<stop offset="1" stop-color="#F6C31F"/>
</linearGradient>
<linearGradient id="paint23_linear_9_2361" x1="365.701" y1="22.0313" x2="10.163" y2="22.0313" gradientUnits="userSpaceOnUse">
<stop offset="0.02" stop-color="#5F3832"/>
<stop offset="0.43" stop-color="#D85219"/>
<stop offset="0.74" stop-color="#EB7C1C"/>
<stop offset="1" stop-color="#F6C31F"/>
</linearGradient>
<linearGradient id="paint24_linear_9_2361" x1="365.701" y1="13.9687" x2="10.163" y2="13.9687" gradientUnits="userSpaceOnUse">
<stop offset="0.02" stop-color="#5F3832"/>
<stop offset="0.43" stop-color="#D85219"/>
<stop offset="0.74" stop-color="#EB7C1C"/>
<stop offset="1" stop-color="#F6C31F"/>
</linearGradient>
<linearGradient id="paint25_linear_9_2361" x1="365.701" y1="36" x2="10.163" y2="35.567" gradientUnits="userSpaceOnUse">
<stop offset="0.02" stop-color="#5F3832"/>
<stop offset="0.43" stop-color="#D85219"/>
<stop offset="0.74" stop-color="#EB7C1C"/>
<stop offset="1" stop-color="#F6C31F"/>
</linearGradient>
<linearGradient id="paint26_linear_9_2361" x1="365.701" y1="36" x2="10.163" y2="35.567" gradientUnits="userSpaceOnUse">
<stop offset="0.02" stop-color="#5F3832"/>
<stop offset="0.43" stop-color="#D85219"/>
<stop offset="0.74" stop-color="#EB7C1C"/>
<stop offset="1" stop-color="#F6C31F"/>
</linearGradient>
<linearGradient id="paint27_linear_9_2361" x1="365.701" y1="36" x2="10.1624" y2="35.567" gradientUnits="userSpaceOnUse">
<stop offset="0.02" stop-color="#5F3832"/>
<stop offset="0.43" stop-color="#D85219"/>
<stop offset="0.74" stop-color="#EB7C1C"/>
<stop offset="1" stop-color="#F6C31F"/>
</linearGradient>
<linearGradient id="paint28_linear_9_2361" x1="365.701" y1="13.9687" x2="10.1636" y2="13.9687" gradientUnits="userSpaceOnUse">
<stop offset="0.02" stop-color="#5F3832"/>
<stop offset="0.43" stop-color="#D85219"/>
<stop offset="0.74" stop-color="#EB7C1C"/>
<stop offset="1" stop-color="#F6C31F"/>
</linearGradient>
<linearGradient id="paint29_linear_9_2361" x1="365.701" y1="13.9687" x2="10.1636" y2="13.9687" gradientUnits="userSpaceOnUse">
<stop offset="0.02" stop-color="#5F3832"/>
<stop offset="0.43" stop-color="#D85219"/>
<stop offset="0.74" stop-color="#EB7C1C"/>
<stop offset="1" stop-color="#F6C31F"/>
</linearGradient>
<linearGradient id="paint30_linear_9_2361" x1="365.701" y1="22.0313" x2="10.1636" y2="22.0313" gradientUnits="userSpaceOnUse">
<stop offset="0.02" stop-color="#5F3832"/>
<stop offset="0.43" stop-color="#D85219"/>
<stop offset="0.74" stop-color="#EB7C1C"/>
<stop offset="1" stop-color="#F6C31F"/>
</linearGradient>
<linearGradient id="paint31_linear_9_2361" x1="365.701" y1="22.0313" x2="10.1636" y2="22.0313" gradientUnits="userSpaceOnUse">
<stop offset="0.02" stop-color="#5F3832"/>
<stop offset="0.43" stop-color="#D85219"/>
<stop offset="0.74" stop-color="#EB7C1C"/>
<stop offset="1" stop-color="#F6C31F"/>
</linearGradient>
<linearGradient id="paint32_linear_9_2361" x1="365.701" y1="22.0313" x2="10.163" y2="22.0313" gradientUnits="userSpaceOnUse">
<stop offset="0.02" stop-color="#5F3832"/>
<stop offset="0.43" stop-color="#D85219"/>
<stop offset="0.74" stop-color="#EB7C1C"/>
<stop offset="1" stop-color="#F6C31F"/>
</linearGradient>
<linearGradient id="paint33_linear_9_2361" x1="365.701" y1="13.9687" x2="10.163" y2="13.9687" gradientUnits="userSpaceOnUse">
<stop offset="0.02" stop-color="#5F3832"/>
<stop offset="0.43" stop-color="#D85219"/>
<stop offset="0.74" stop-color="#EB7C1C"/>
<stop offset="1" stop-color="#F6C31F"/>
</linearGradient>
<linearGradient id="paint34_linear_9_2361" x1="365.701" y1="36" x2="10.163" y2="35.567" gradientUnits="userSpaceOnUse">
<stop offset="0.02" stop-color="#5F3832"/>
<stop offset="0.43" stop-color="#D85219"/>
<stop offset="0.74" stop-color="#EB7C1C"/>
<stop offset="1" stop-color="#F6C31F"/>
</linearGradient>
<linearGradient id="paint35_linear_9_2361" x1="365.701" y1="36" x2="10.163" y2="35.567" gradientUnits="userSpaceOnUse">
<stop offset="0.02" stop-color="#5F3832"/>
<stop offset="0.43" stop-color="#D85219"/>
<stop offset="0.74" stop-color="#EB7C1C"/>
<stop offset="1" stop-color="#F6C31F"/>
</linearGradient>
<linearGradient id="paint36_linear_9_2361" x1="365.701" y1="36" x2="10.1681" y2="35.567" gradientUnits="userSpaceOnUse">
<stop offset="0.02" stop-color="#5F3832"/>
<stop offset="0.43" stop-color="#D85219"/>
<stop offset="0.74" stop-color="#EB7C1C"/>
<stop offset="1" stop-color="#F6C31F"/>
</linearGradient>
<linearGradient id="paint37_linear_9_2361" x1="365.701" y1="13.9687" x2="10.1622" y2="13.9687" gradientUnits="userSpaceOnUse">
<stop offset="0.02" stop-color="#5F3832"/>
<stop offset="0.43" stop-color="#D85219"/>
<stop offset="0.74" stop-color="#EB7C1C"/>
<stop offset="1" stop-color="#F6C31F"/>
</linearGradient>
<linearGradient id="paint38_linear_9_2361" x1="365.701" y1="13.9687" x2="10.1622" y2="13.9687" gradientUnits="userSpaceOnUse">
<stop offset="0.02" stop-color="#5F3832"/>
<stop offset="0.43" stop-color="#D85219"/>
<stop offset="0.74" stop-color="#EB7C1C"/>
<stop offset="1" stop-color="#F6C31F"/>
</linearGradient>
<linearGradient id="paint39_linear_9_2361" x1="365.701" y1="22.0313" x2="10.1622" y2="22.0313" gradientUnits="userSpaceOnUse">
<stop offset="0.02" stop-color="#5F3832"/>
<stop offset="0.43" stop-color="#D85219"/>
<stop offset="0.74" stop-color="#EB7C1C"/>
<stop offset="1" stop-color="#F6C31F"/>
</linearGradient>
<linearGradient id="paint40_linear_9_2361" x1="365.701" y1="22.0313" x2="10.1622" y2="22.0313" gradientUnits="userSpaceOnUse">
<stop offset="0.02" stop-color="#5F3832"/>
<stop offset="0.43" stop-color="#D85219"/>
<stop offset="0.74" stop-color="#EB7C1C"/>
<stop offset="1" stop-color="#F6C31F"/>
</linearGradient>
<linearGradient id="paint41_linear_9_2361" x1="365.701" y1="22.0313" x2="10.1623" y2="22.0313" gradientUnits="userSpaceOnUse">
<stop offset="0.02" stop-color="#5F3832"/>
<stop offset="0.43" stop-color="#D85219"/>
<stop offset="0.74" stop-color="#EB7C1C"/>
<stop offset="1" stop-color="#F6C31F"/>
</linearGradient>
<linearGradient id="paint42_linear_9_2361" x1="365.701" y1="13.9687" x2="10.1623" y2="13.9687" gradientUnits="userSpaceOnUse">
<stop offset="0.02" stop-color="#5F3832"/>
<stop offset="0.43" stop-color="#D85219"/>
<stop offset="0.74" stop-color="#EB7C1C"/>
<stop offset="1" stop-color="#F6C31F"/>
</linearGradient>
<linearGradient id="paint43_linear_9_2361" x1="365.701" y1="36" x2="10.1637" y2="35.567" gradientUnits="userSpaceOnUse">
<stop offset="0.02" stop-color="#5F3832"/>
<stop offset="0.43" stop-color="#D85219"/>
<stop offset="0.74" stop-color="#EB7C1C"/>
<stop offset="1" stop-color="#F6C31F"/>
</linearGradient>
<linearGradient id="paint44_linear_9_2361" x1="365.701" y1="36" x2="10.1637" y2="35.567" gradientUnits="userSpaceOnUse">
<stop offset="0.02" stop-color="#5F3832"/>
<stop offset="0.43" stop-color="#D85219"/>
<stop offset="0.74" stop-color="#EB7C1C"/>
<stop offset="1" stop-color="#F6C31F"/>
</linearGradient>
<linearGradient id="paint45_linear_9_2361" x1="365.701" y1="36" x2="10.1639" y2="35.567" gradientUnits="userSpaceOnUse">
<stop offset="0.02" stop-color="#5F3832"/>
<stop offset="0.43" stop-color="#D85219"/>
<stop offset="0.74" stop-color="#EB7C1C"/>
<stop offset="1" stop-color="#F6C31F"/>
</linearGradient>
<linearGradient id="paint46_linear_9_2361" x1="365.701" y1="13.9687" x2="10.1621" y2="13.9687" gradientUnits="userSpaceOnUse">
<stop offset="0.02" stop-color="#5F3832"/>
<stop offset="0.43" stop-color="#D85219"/>
<stop offset="0.74" stop-color="#EB7C1C"/>
<stop offset="1" stop-color="#F6C31F"/>
</linearGradient>
<linearGradient id="paint47_linear_9_2361" x1="365.701" y1="13.9687" x2="10.1639" y2="13.9687" gradientUnits="userSpaceOnUse">
<stop offset="0.02" stop-color="#5F3832"/>
<stop offset="0.43" stop-color="#D85219"/>
<stop offset="0.74" stop-color="#EB7C1C"/>
<stop offset="1" stop-color="#F6C31F"/>
</linearGradient>
<linearGradient id="paint48_linear_9_2361" x1="365.701" y1="22.0313" x2="10.1621" y2="22.0313" gradientUnits="userSpaceOnUse">
<stop offset="0.02" stop-color="#5F3832"/>
<stop offset="0.43" stop-color="#D85219"/>
<stop offset="0.74" stop-color="#EB7C1C"/>
<stop offset="1" stop-color="#F6C31F"/>
</linearGradient>
<linearGradient id="paint49_linear_9_2361" x1="365.701" y1="22.0313" x2="10.1639" y2="22.0313" gradientUnits="userSpaceOnUse">
<stop offset="0.02" stop-color="#5F3832"/>
<stop offset="0.43" stop-color="#D85219"/>
<stop offset="0.74" stop-color="#EB7C1C"/>
<stop offset="1" stop-color="#F6C31F"/>
</linearGradient>
<linearGradient id="paint50_linear_9_2361" x1="365.701" y1="22.0313" x2="10.1639" y2="22.0313" gradientUnits="userSpaceOnUse">
<stop offset="0.02" stop-color="#5F3832"/>
<stop offset="0.43" stop-color="#D85219"/>
<stop offset="0.74" stop-color="#EB7C1C"/>
<stop offset="1" stop-color="#F6C31F"/>
</linearGradient>
<linearGradient id="paint51_linear_9_2361" x1="365.701" y1="13.9687" x2="10.1639" y2="13.9687" gradientUnits="userSpaceOnUse">
<stop offset="0.02" stop-color="#5F3832"/>
<stop offset="0.43" stop-color="#D85219"/>
<stop offset="0.74" stop-color="#EB7C1C"/>
<stop offset="1" stop-color="#F6C31F"/>
</linearGradient>
<linearGradient id="paint52_linear_9_2361" x1="365.701" y1="36" x2="10.1622" y2="35.567" gradientUnits="userSpaceOnUse">
<stop offset="0.02" stop-color="#5F3832"/>
<stop offset="0.43" stop-color="#D85219"/>
<stop offset="0.74" stop-color="#EB7C1C"/>
<stop offset="1" stop-color="#F6C31F"/>
</linearGradient>
<linearGradient id="paint53_linear_9_2361" x1="365.701" y1="36" x2="10.1621" y2="35.567" gradientUnits="userSpaceOnUse">
<stop offset="0.02" stop-color="#5F3832"/>
<stop offset="0.43" stop-color="#D85219"/>
<stop offset="0.74" stop-color="#EB7C1C"/>
<stop offset="1" stop-color="#F6C31F"/>
</linearGradient>
<linearGradient id="paint54_linear_9_2361" x1="365.701" y1="35.6743" x2="10.163" y2="35.6743" gradientUnits="userSpaceOnUse">
<stop offset="0.02" stop-color="#5F3832"/>
<stop offset="0.43" stop-color="#D85219"/>
<stop offset="0.74" stop-color="#EB7C1C"/>
<stop offset="1" stop-color="#F6C31F"/>
</linearGradient>
<linearGradient id="paint55_linear_9_2361" x1="365.701" y1="32.2328" x2="10.163" y2="32.2328" gradientUnits="userSpaceOnUse">
<stop offset="0.02" stop-color="#5F3832"/>
<stop offset="0.43" stop-color="#D85219"/>
<stop offset="0.74" stop-color="#EB7C1C"/>
<stop offset="1" stop-color="#F6C31F"/>
</linearGradient>
<linearGradient id="paint56_linear_9_2361" x1="365.701" y1="0.325678" x2="10.163" y2="0.325694" gradientUnits="userSpaceOnUse">
<stop offset="0.02" stop-color="#5F3832"/>
<stop offset="0.43" stop-color="#D85219"/>
<stop offset="0.74" stop-color="#EB7C1C"/>
<stop offset="1" stop-color="#F6C31F"/>
</linearGradient>
<linearGradient id="paint57_linear_9_2361" x1="365.701" y1="3.76724" x2="10.163" y2="3.76725" gradientUnits="userSpaceOnUse">
<stop offset="0.02" stop-color="#5F3832"/>
<stop offset="0.43" stop-color="#D85219"/>
<stop offset="0.74" stop-color="#EB7C1C"/>
<stop offset="1" stop-color="#F6C31F"/>
</linearGradient>
</defs>
</svg>
