<svg width="90" height="90" viewBox="0 0 90 90" fill="none" xmlns="http://www.w3.org/2000/svg">
<circle cx="45" cy="45" r="45" fill="url(#paint0_linear_18_2654)"/>
<circle cx="45" cy="45" r="36.5" fill="url(#paint1_linear_18_2654)" stroke="url(#paint2_linear_18_2654)"/>
<path d="M40.7071 25.6136C40.5758 25.6136 40.4471 25.5794 40.3354 25.5149C40.2237 25.4503 40.1334 25.3579 40.0747 25.248C40.0159 25.1382 39.9911 25.0152 40.0029 24.8929C40.0147 24.7706 40.0626 24.6537 40.1414 24.5555L44.3843 19.2645C44.4502 19.1824 44.5356 19.1157 44.6338 19.0698C44.7319 19.0239 44.8402 19 44.95 19C45.0598 19 45.1681 19.0239 45.2662 19.0698C45.3644 19.1157 45.4498 19.1824 45.5157 19.2645L49.7586 24.5555C49.8374 24.6537 49.8853 24.7706 49.8971 24.8929C49.9089 25.0152 49.8841 25.1382 49.8253 25.248C49.7666 25.3579 49.6763 25.4503 49.5646 25.5149C49.4529 25.5794 49.3242 25.6136 49.1929 25.6136H40.7071Z" fill="white"/>
<path d="M24.0979 46C23.9579 46 23.8879 45.93 23.8879 45.79C23.8879 45.65 23.9579 45.58 24.0979 45.58C24.4619 45.58 24.7372 45.5613 24.9239 45.524C25.1199 45.4773 25.2552 45.3933 25.3299 45.272C25.4046 45.1507 25.4419 44.9687 25.4419 44.726V37.082C25.4419 36.858 25.4092 36.6853 25.3439 36.564C25.2786 36.4427 25.1479 36.3633 24.9519 36.326C24.7652 36.2793 24.4759 36.256 24.0839 36.256C23.9532 36.256 23.8879 36.186 23.8879 36.046C23.8879 35.906 23.9532 35.836 24.0839 35.836C24.1586 35.836 24.3779 35.8453 24.7419 35.864C25.1059 35.8733 25.6006 35.878 26.2259 35.878C27.0006 35.878 27.6446 35.8733 28.1579 35.864C28.6712 35.8453 29.0959 35.836 29.4319 35.836C30.1132 35.836 30.7152 35.9433 31.2379 36.158C31.7606 36.3727 32.1666 36.69 32.4559 37.11C32.7546 37.5207 32.9039 38.0247 32.9039 38.622C32.9039 39.49 32.6286 40.1667 32.0779 40.652C31.5366 41.128 30.7246 41.366 29.6419 41.366H27.1779C27.0659 41.366 27.0099 41.4267 27.0099 41.548V44.726C27.0099 45.0807 27.1219 45.314 27.3459 45.426C27.5792 45.5287 27.9806 45.58 28.5499 45.58C28.6806 45.58 28.7459 45.65 28.7459 45.79C28.7459 45.93 28.6806 46 28.5499 46C28.4566 46 28.2092 45.9953 27.8079 45.986C27.4066 45.9673 26.8792 45.958 26.2259 45.958C25.6006 45.958 25.1106 45.9673 24.7559 45.986C24.4106 45.9953 24.1912 46 24.0979 46ZM27.1779 40.89H29.1519C29.7679 40.89 30.2486 40.6847 30.5939 40.274C30.9392 39.854 31.1119 39.3033 31.1119 38.622C31.1119 38.1927 31.0419 37.8007 30.9019 37.446C30.7712 37.0913 30.5472 36.8113 30.2299 36.606C29.9126 36.3913 29.4739 36.284 28.9139 36.284H27.3039C27.2199 36.284 27.1499 36.3027 27.0939 36.34C27.0379 36.3773 27.0099 36.4567 27.0099 36.578V40.708C27.0099 40.7453 27.0239 40.7873 27.0519 40.834C27.0892 40.8713 27.1312 40.89 27.1779 40.89ZM33.8451 46C33.7144 46 33.6491 45.9347 33.6491 45.804C33.6491 45.6547 33.7144 45.58 33.8451 45.58C34.1531 45.58 34.4004 45.5193 34.5871 45.398C34.7737 45.2673 34.9417 45.0433 35.0911 44.726C35.1564 44.586 35.2591 44.3387 35.3991 43.984C35.5484 43.6293 35.7164 43.2047 35.9031 42.71C36.0991 42.2153 36.2997 41.688 36.5051 41.128C36.7197 40.5587 36.9297 39.9987 37.1351 39.448C37.3497 38.888 37.5457 38.3653 37.7231 37.88C37.9097 37.3947 38.0637 36.984 38.1851 36.648C38.3157 36.3027 38.3997 36.074 38.4371 35.962C38.4837 35.8407 38.5397 35.7613 38.6051 35.724C38.6704 35.6867 38.7777 35.668 38.9271 35.668C39.0764 35.668 39.1837 35.6913 39.2491 35.738C39.3237 35.7753 39.3797 35.8453 39.4171 35.948C39.4824 36.116 39.5897 36.4053 39.7391 36.816C39.8977 37.2267 40.0797 37.712 40.2851 38.272C40.4997 38.8227 40.7191 39.4013 40.9431 40.008C41.1764 40.6147 41.4004 41.212 41.6151 41.8C41.8297 42.3787 42.0257 42.8967 42.2031 43.354C42.3804 43.8113 42.5157 44.166 42.6091 44.418C42.9171 45.1927 43.2904 45.58 43.7291 45.58C43.8504 45.58 43.9111 45.6547 43.9111 45.804C43.9111 45.9347 43.8504 46 43.7291 46C43.6357 46 43.4491 45.9953 43.1691 45.986C42.8984 45.9767 42.5204 45.972 42.0351 45.972C41.6337 45.972 41.2651 45.9767 40.9291 45.986C40.5931 45.9953 40.3737 46 40.2711 46C40.1497 46 40.0891 45.9347 40.0891 45.804C40.0891 45.6547 40.1497 45.58 40.2711 45.58C40.5604 45.58 40.7611 45.538 40.8731 45.454C40.9944 45.37 41.0597 45.2627 41.0691 45.132C41.0784 45.0013 41.0551 44.8707 40.9991 44.74C40.9897 44.6933 40.9197 44.4787 40.7891 44.096C40.6677 43.704 40.5137 43.2513 40.3271 42.738C40.2897 42.6447 40.2524 42.5887 40.2151 42.57C40.1871 42.5513 40.1404 42.542 40.0751 42.542H36.6031C36.5097 42.542 36.4537 42.584 36.4351 42.668C36.3791 42.864 36.3091 43.0973 36.2251 43.368C36.1411 43.6293 36.0664 43.8813 36.0011 44.124C35.9357 44.3667 35.9031 44.5673 35.9031 44.726C35.9031 45.0433 35.9871 45.2673 36.1551 45.398C36.3231 45.5193 36.5517 45.58 36.8411 45.58C36.9624 45.58 37.0231 45.6547 37.0231 45.804C37.0231 45.9347 36.9624 46 36.8411 46C36.7477 46 36.5751 45.9953 36.3231 45.986C36.0804 45.9767 35.7537 45.972 35.3431 45.972C34.9791 45.972 34.6617 45.9767 34.3911 45.986C34.1204 45.9953 33.9384 46 33.8451 46ZM36.8271 42.066H39.8791C39.9257 42.066 39.9677 42.0567 40.0051 42.038C40.0424 42.0193 40.0471 41.968 40.0191 41.884C39.9071 41.5573 39.7764 41.1747 39.6271 40.736C39.4777 40.2973 39.3237 39.8587 39.1651 39.42C39.0064 38.9813 38.8664 38.5987 38.7451 38.272C38.6331 37.936 38.5584 37.7167 38.5211 37.614C38.4931 37.5487 38.4604 37.516 38.4231 37.516C38.3857 37.516 38.3577 37.5393 38.3391 37.586C38.3111 37.6513 38.2457 37.8147 38.1431 38.076C38.0497 38.328 37.9331 38.636 37.7931 39C37.6531 39.3547 37.5084 39.7233 37.3591 40.106C37.2097 40.4793 37.0744 40.8247 36.9531 41.142C36.8411 41.4593 36.7617 41.6973 36.7151 41.856C36.6777 41.996 36.7151 42.066 36.8271 42.066ZM50.0561 46.168C49.1694 46.168 48.3761 45.972 47.6761 45.58C46.9761 45.1787 46.4208 44.586 46.0101 43.802C45.6088 43.018 45.4081 42.038 45.4081 40.862C45.4081 40.0593 45.5388 39.3407 45.8001 38.706C46.0614 38.062 46.4161 37.516 46.8641 37.068C47.3214 36.62 47.8301 36.2747 48.3901 36.032C48.9594 35.7893 49.5428 35.668 50.1401 35.668C50.4108 35.668 50.6721 35.696 50.9241 35.752C51.1761 35.808 51.4001 35.8733 51.5961 35.948C51.8014 36.0227 51.9461 36.088 52.0301 36.144C52.1328 36.2093 52.2214 36.242 52.2961 36.242C52.3801 36.2327 52.4548 36.214 52.5201 36.186C52.5761 36.1673 52.6648 36.13 52.7861 36.074C52.9168 36.0087 53.0054 35.9667 53.0521 35.948C53.1454 35.9107 53.2388 35.9153 53.3321 35.962C53.4348 36.0087 53.4861 36.088 53.4861 36.2V38.622C53.4861 38.706 53.4254 38.762 53.3041 38.79C53.1828 38.818 53.1034 38.7853 53.0661 38.692C52.8514 38.2627 52.6088 37.8567 52.3381 37.474C52.0674 37.082 51.7548 36.7647 51.4001 36.522C51.0454 36.2793 50.6254 36.158 50.1401 36.158C49.7948 36.158 49.4494 36.242 49.1041 36.41C48.7681 36.5687 48.4554 36.8347 48.1661 37.208C47.8861 37.572 47.6621 38.0573 47.4941 38.664C47.3261 39.2613 47.2421 39.994 47.2421 40.862C47.2421 42.0753 47.3681 43.032 47.6201 43.732C47.8721 44.432 48.2081 44.9313 48.6281 45.23C49.0574 45.5193 49.5381 45.664 50.0701 45.664C50.8261 45.664 51.3674 45.4447 51.6941 45.006C52.0301 44.5673 52.1981 44.0213 52.1981 43.368V42.766C52.1981 42.4953 52.1328 42.304 52.0021 42.192C51.8714 42.0707 51.6008 42.01 51.1901 42.01C51.1248 42.01 51.0734 41.9867 51.0361 41.94C51.0081 41.8933 50.9941 41.8467 50.9941 41.8C50.9941 41.6507 51.0594 41.576 51.1901 41.576C51.2648 41.576 51.3954 41.5807 51.5821 41.59C51.7688 41.5993 51.9834 41.6087 52.2261 41.618C52.4781 41.6273 52.7208 41.632 52.9541 41.632C53.3088 41.632 53.6541 41.6227 53.9901 41.604C54.3261 41.5853 54.5548 41.576 54.6761 41.576C54.7414 41.576 54.7974 41.5993 54.8441 41.646C54.8908 41.6833 54.9141 41.7347 54.9141 41.8C54.9141 41.856 54.8908 41.9073 54.8441 41.954C54.7974 41.9913 54.7414 42.01 54.6761 42.01C54.4148 42.01 54.2001 42.0613 54.0321 42.164C53.8641 42.2573 53.7801 42.472 53.7801 42.808C53.7801 43.6013 53.7941 44.264 53.8221 44.796C53.8501 45.3187 53.8641 45.6127 53.8641 45.678C53.8641 45.7713 53.8128 45.832 53.7101 45.86C53.6074 45.8787 53.5328 45.8553 53.4861 45.79C53.4488 45.7433 53.3881 45.6687 53.3041 45.566C53.2294 45.454 53.1548 45.3467 53.0801 45.244C53.0054 45.1413 52.9588 45.0807 52.9401 45.062C52.8841 44.9873 52.8234 44.9547 52.7581 44.964C52.7021 44.964 52.6508 44.9873 52.6041 45.034C52.3614 45.3233 52.0254 45.5847 51.5961 45.818C51.1761 46.0513 50.6628 46.168 50.0561 46.168ZM56.5765 46C56.4458 46 56.3805 45.9253 56.3805 45.776C56.3805 45.6453 56.4458 45.58 56.5765 45.58C57.0618 45.58 57.4025 45.5193 57.5985 45.398C57.8038 45.2767 57.9065 45.0527 57.9065 44.726V37.082C57.9065 36.7833 57.8131 36.5687 57.6265 36.438C57.4398 36.3073 57.1085 36.242 56.6325 36.242C56.5111 36.242 56.4505 36.172 56.4505 36.032C56.4505 35.9853 56.4645 35.9433 56.4925 35.906C56.5205 35.8593 56.5671 35.836 56.6325 35.836C56.7071 35.836 57.0665 35.8407 57.7105 35.85C58.3638 35.8593 59.3111 35.864 60.5525 35.864C61.7378 35.864 62.6385 35.8593 63.2545 35.85C63.8798 35.8407 64.2298 35.836 64.3045 35.836C64.5285 35.836 64.6451 35.9433 64.6545 36.158C64.6638 36.242 64.6731 36.382 64.6825 36.578C64.7011 36.7647 64.7151 36.9653 64.7245 37.18C64.7338 37.3853 64.7385 37.572 64.7385 37.74C64.7478 37.8987 64.7525 38.0013 64.7525 38.048C64.7525 38.0853 64.7431 38.1227 64.7245 38.16C64.7058 38.1973 64.6591 38.2207 64.5845 38.23C64.5285 38.23 64.4818 38.2253 64.4445 38.216C64.4071 38.1973 64.3745 38.1553 64.3465 38.09C64.2345 37.8473 64.0898 37.586 63.9125 37.306C63.7351 37.026 63.5018 36.788 63.2125 36.592C62.9325 36.3867 62.5638 36.284 62.1065 36.284H59.7545C59.6705 36.284 59.6005 36.3073 59.5445 36.354C59.4885 36.3913 59.4605 36.466 59.4605 36.578V40.386C59.4605 40.5073 59.5211 40.568 59.6425 40.568H60.4685C60.8605 40.568 61.1591 40.4887 61.3645 40.33C61.5698 40.1713 61.7238 39.9847 61.8265 39.77C61.9291 39.546 62.0131 39.3547 62.0785 39.196C62.0971 39.1307 62.1205 39.084 62.1485 39.056C62.1765 39.0187 62.2278 39 62.3025 39C62.3678 39 62.4098 39.0233 62.4285 39.07C62.4565 39.1073 62.4705 39.1493 62.4705 39.196C62.4705 39.2707 62.4705 39.4013 62.4705 39.588C62.4705 39.7747 62.4658 39.98 62.4565 40.204C62.4565 40.4187 62.4565 40.6193 62.4565 40.806C62.4565 40.9833 62.4565 41.1933 62.4565 41.436C62.4658 41.6693 62.4705 41.8887 62.4705 42.094C62.4705 42.29 62.4705 42.4207 62.4705 42.486C62.4705 42.626 62.4145 42.696 62.3025 42.696C62.1905 42.696 62.1158 42.6353 62.0785 42.514C62.0131 42.346 61.9291 42.1453 61.8265 41.912C61.7238 41.6787 61.5698 41.4733 61.3645 41.296C61.1591 41.1187 60.8605 41.03 60.4685 41.03H59.6425C59.5211 41.03 59.4605 41.1 59.4605 41.24V45.258C59.4605 45.4353 59.5585 45.524 59.7545 45.524H61.8405C62.2885 45.524 62.6665 45.4447 62.9745 45.286C63.2918 45.1273 63.5485 44.9267 63.7445 44.684C63.9405 44.4413 64.0945 44.1987 64.2065 43.956C64.3278 43.7133 64.4165 43.508 64.4725 43.34C64.5005 43.2653 64.5331 43.2233 64.5705 43.214C64.6078 43.1953 64.6591 43.1907 64.7245 43.2C64.7991 43.2093 64.8411 43.2327 64.8505 43.27C64.8691 43.3073 64.8785 43.3493 64.8785 43.396C64.8785 43.4333 64.8738 43.55 64.8645 43.746C64.8645 43.942 64.8645 44.166 64.8645 44.418C64.8645 44.6607 64.8598 44.894 64.8505 45.118C64.8505 45.3327 64.8505 45.482 64.8505 45.566C64.8411 45.6873 64.7991 45.79 64.7245 45.874C64.6591 45.958 64.5611 46 64.4305 46C64.3651 46 64.2111 45.9953 63.9685 45.986C63.7351 45.9767 63.3571 45.972 62.8345 45.972C62.3118 45.9627 61.5885 45.958 60.6645 45.958C59.5165 45.958 58.5691 45.9673 57.8225 45.986C57.0851 45.9953 56.6698 46 56.5765 46ZM31.5007 66C31.3701 66 31.3047 65.93 31.3047 65.79C31.3047 65.65 31.3701 65.58 31.5007 65.58C31.9954 65.58 32.3314 65.51 32.5087 65.37C32.6861 65.23 32.7747 65.0153 32.7747 64.726V56.578C32.7747 56.382 32.6767 56.284 32.4807 56.284H31.5987C31.2441 56.284 30.9407 56.3633 30.6887 56.522C30.4461 56.6807 30.2407 56.8767 30.0727 57.11C29.9047 57.3433 29.7694 57.5813 29.6667 57.824C29.5641 58.0573 29.4801 58.258 29.4147 58.426C29.3961 58.482 29.3634 58.5147 29.3167 58.524C29.2794 58.5333 29.2281 58.5333 29.1627 58.524C29.1534 58.524 29.1487 58.524 29.1487 58.524C29.0927 58.5147 29.0554 58.496 29.0367 58.468C29.0274 58.4307 29.0227 58.3933 29.0227 58.356C29.0227 58.3187 29.0274 58.202 29.0367 58.006C29.0461 57.81 29.0554 57.586 29.0647 57.334C29.0741 57.0727 29.0834 56.8347 29.0927 56.62C29.1114 56.396 29.1207 56.242 29.1207 56.158C29.1207 55.9433 29.2421 55.836 29.4847 55.836C29.5594 55.836 29.9654 55.8453 30.7027 55.864C31.4494 55.8733 32.4154 55.878 33.6007 55.878C34.3847 55.878 35.0754 55.878 35.6727 55.878C36.2794 55.8687 36.7601 55.8593 37.1147 55.85C37.4787 55.8407 37.6841 55.836 37.7307 55.836C37.9641 55.836 38.0854 55.948 38.0947 56.172C38.0947 56.2373 38.0994 56.3773 38.1087 56.592C38.1274 56.8067 38.1414 57.0447 38.1507 57.306C38.1601 57.5673 38.1694 57.8007 38.1787 58.006C38.1881 58.202 38.1927 58.3187 38.1927 58.356C38.1927 58.412 38.1834 58.454 38.1647 58.482C38.1554 58.5007 38.1134 58.5147 38.0387 58.524C38.0294 58.524 38.0201 58.524 38.0107 58.524C37.9734 58.5333 37.9314 58.538 37.8847 58.538C37.8474 58.5287 37.8147 58.4867 37.7867 58.412C37.7121 58.2533 37.6187 58.0573 37.5067 57.824C37.4041 57.5907 37.2687 57.3573 37.1007 57.124C36.9421 56.8813 36.7414 56.6807 36.4987 56.522C36.2561 56.3633 35.9574 56.284 35.6027 56.284H34.6367C34.5434 56.284 34.4687 56.3027 34.4127 56.34C34.3567 56.3773 34.3287 56.4567 34.3287 56.578V64.726C34.3287 64.9033 34.3567 65.0573 34.4127 65.188C34.4687 65.3093 34.5807 65.4073 34.7487 65.482C34.9261 65.5473 35.1967 65.58 35.5607 65.58C35.7007 65.58 35.7707 65.65 35.7707 65.79C35.7707 65.93 35.7007 66 35.5607 66C35.4674 66 35.2527 65.9953 34.9167 65.986C34.5901 65.9673 34.1374 65.958 33.5587 65.958C32.9707 65.958 32.5041 65.9673 32.1587 65.986C31.8134 65.9953 31.5941 66 31.5007 66ZM44.5908 66.168C43.7135 66.168 42.9295 65.9533 42.2388 65.524C41.5575 65.0853 41.0162 64.474 40.6148 63.69C40.2228 62.8967 40.0268 61.9727 40.0268 60.918C40.0268 60.1247 40.1435 59.406 40.3768 58.762C40.6195 58.118 40.9462 57.5673 41.3568 57.11C41.7768 56.6433 42.2622 56.2887 42.8128 56.046C43.3728 55.794 43.9655 55.668 44.5908 55.668C45.2255 55.668 45.8182 55.794 46.3688 56.046C46.9195 56.2887 47.4002 56.6433 47.8108 57.11C48.2308 57.5673 48.5575 58.118 48.7908 58.762C49.0335 59.406 49.1548 60.1247 49.1548 60.918C49.1548 61.9727 48.9542 62.8967 48.5528 63.69C48.1608 64.474 47.6195 65.0853 46.9288 65.524C46.2475 65.9533 45.4682 66.168 44.5908 66.168ZM44.5908 65.664C45.0948 65.664 45.5522 65.5193 45.9628 65.23C46.3828 64.9313 46.7142 64.4367 46.9568 63.746C47.2088 63.046 47.3348 62.1033 47.3348 60.918C47.3348 59.7233 47.2088 58.7807 46.9568 58.09C46.7142 57.3993 46.3828 56.9047 45.9628 56.606C45.5522 56.3073 45.0948 56.158 44.5908 56.158C44.0868 56.158 43.6295 56.3073 43.2188 56.606C42.8082 56.9047 42.4768 57.3993 42.2248 58.09C41.9822 58.7807 41.8608 59.7233 41.8608 60.918C41.8608 62.1033 41.9822 63.046 42.2248 63.746C42.4768 64.4367 42.8082 64.9313 43.2188 65.23C43.6295 65.5193 44.0868 65.664 44.5908 65.664ZM51.1819 66C51.0419 66 50.9719 65.93 50.9719 65.79C50.9719 65.65 51.0419 65.58 51.1819 65.58C51.5459 65.58 51.8212 65.5613 52.0079 65.524C52.2039 65.4773 52.3392 65.3933 52.4139 65.272C52.4886 65.1507 52.5259 64.9687 52.5259 64.726V57.082C52.5259 56.858 52.4932 56.6853 52.4279 56.564C52.3626 56.4427 52.2319 56.3633 52.0359 56.326C51.8492 56.2793 51.5599 56.256 51.1679 56.256C51.0372 56.256 50.9719 56.186 50.9719 56.046C50.9719 55.906 51.0372 55.836 51.1679 55.836C51.2426 55.836 51.4619 55.8453 51.8259 55.864C52.1899 55.8733 52.6846 55.878 53.3099 55.878C54.0846 55.878 54.7286 55.8733 55.2419 55.864C55.7552 55.8453 56.1799 55.836 56.5159 55.836C57.1972 55.836 57.7992 55.9433 58.3219 56.158C58.8446 56.3727 59.2506 56.69 59.5399 57.11C59.8386 57.5207 59.9879 58.0247 59.9879 58.622C59.9879 59.49 59.7126 60.1667 59.1619 60.652C58.6206 61.128 57.8086 61.366 56.7259 61.366H54.2619C54.1499 61.366 54.0939 61.4267 54.0939 61.548V64.726C54.0939 65.0807 54.2059 65.314 54.4299 65.426C54.6632 65.5287 55.0646 65.58 55.6339 65.58C55.7646 65.58 55.8299 65.65 55.8299 65.79C55.8299 65.93 55.7646 66 55.6339 66C55.5406 66 55.2932 65.9953 54.8919 65.986C54.4906 65.9673 53.9632 65.958 53.3099 65.958C52.6846 65.958 52.1946 65.9673 51.8399 65.986C51.4946 65.9953 51.2752 66 51.1819 66ZM54.2619 60.89H56.2359C56.8519 60.89 57.3326 60.6847 57.6779 60.274C58.0232 59.854 58.1959 59.3033 58.1959 58.622C58.1959 58.1927 58.1259 57.8007 57.9859 57.446C57.8552 57.0913 57.6312 56.8113 57.3139 56.606C56.9966 56.3913 56.5579 56.284 55.9979 56.284H54.3879C54.3039 56.284 54.2339 56.3027 54.1779 56.34C54.1219 56.3773 54.0939 56.4567 54.0939 56.578V60.708C54.0939 60.7453 54.1079 60.7873 54.1359 60.834C54.1732 60.8713 54.2152 60.89 54.2619 60.89Z" fill="white"/>
<defs>
<linearGradient id="paint0_linear_18_2654" x1="45" y1="0" x2="45" y2="90" gradientUnits="userSpaceOnUse">
<stop stop-color="#303030"/>
<stop offset="1" stop-color="#0A0A0A"/>
</linearGradient>
<linearGradient id="paint1_linear_18_2654" x1="45" y1="8" x2="45" y2="82" gradientUnits="userSpaceOnUse">
<stop stop-color="#474747"/>
<stop offset="1" stop-color="#303030"/>
</linearGradient>
<linearGradient id="paint2_linear_18_2654" x1="45" y1="8" x2="45" y2="82" gradientUnits="userSpaceOnUse">
<stop stop-color="#646464"/>
<stop offset="1" stop-color="#646464" stop-opacity="0"/>
</linearGradient>
</defs>
</svg>
