<svg width="32" height="25" viewBox="0 0 32 25" fill="none" xmlns="http://www.w3.org/2000/svg">
<path d="M6.43192 19.7277C6.43192 20.5113 6.7432 21.2628 7.2973 21.8169C7.8514 22.371 8.60291 22.6823 9.38652 22.6823C10.1701 22.6823 10.9216 22.371 11.4757 21.8169C12.0298 21.2628 12.3411 20.5113 12.3411 19.7277C12.3411 18.9441 12.0298 18.1926 11.4757 17.6385C10.9216 17.0844 10.1701 16.7731 9.38652 16.7731C8.60291 16.7731 7.8514 17.0844 7.2973 17.6385C6.7432 18.1926 6.43192 18.9441 6.43192 19.7277ZM21.2049 19.7277C21.2049 20.5113 21.5162 21.2628 22.0703 21.8169C22.6244 22.371 23.3759 22.6823 24.1596 22.6823C24.9432 22.6823 25.6947 22.371 26.2488 21.8169C26.8029 21.2628 27.1142 20.5113 27.1142 19.7277C27.1142 18.9441 26.8029 18.1926 26.2488 17.6385C25.6947 17.0844 24.9432 16.7731 24.1596 16.7731C23.3759 16.7731 22.6244 17.0844 22.0703 17.6385C21.5162 18.1926 21.2049 18.9441 21.2049 19.7277Z" stroke="white" stroke-width="3" stroke-linecap="round" stroke-linejoin="round"/>
<path d="M6.43191 19.7276H3.4773V13.8184M2 2H18.2503V19.7276M12.3411 19.7276H21.2049M27.1142 19.7276H30.0688V10.8638M30.0688 10.8638H18.2503M30.0688 10.8638L25.6369 3.4773H18.2503M3.4773 7.90921H9.38652" stroke="white" stroke-width="3" stroke-linecap="round" stroke-linejoin="round"/>
</svg>
