<svg width="26" height="21" viewBox="0 0 26 21" fill="none" xmlns="http://www.w3.org/2000/svg">
<path d="M2.6 21C1.885 21 1.27313 20.7432 0.7644 20.2296C0.255667 19.7159 0.000866667 19.0977 0 18.375V2.625C0 1.90312 0.2548 1.28537 0.7644 0.77175C1.274 0.258125 1.88587 0.000875 2.6 0H23.4C24.115 0 24.7273 0.25725 25.2369 0.77175C25.7465 1.28625 26.0009 1.904 26 2.625V18.375C26 19.0969 25.7456 19.7151 25.2369 20.2296C24.7282 20.7441 24.1159 21.0009 23.4 21H2.6ZM13 11.8125L23.4 5.25V2.625L13 9.1875L2.6 2.625V5.25L13 11.8125Z" fill="white"/>
</svg>
