<svg width="32" height="24" viewBox="0 0 32 24" fill="none" xmlns="http://www.w3.org/2000/svg">
<path d="M17.8749 9.26672C17.8749 10.4956 17.4041 11.6741 16.566 12.543C15.728 13.4119 14.5913 13.9001 13.4062 13.9001C12.221 13.9001 11.0844 13.4119 10.2463 12.543C9.40826 11.6741 8.93745 10.4956 8.93745 9.26672C8.93745 8.03788 9.40826 6.85936 10.2463 5.99044C11.0844 5.12152 12.221 4.63336 13.4062 4.63336C14.5913 4.63336 15.728 5.12152 16.566 5.99044C17.4041 6.85936 17.8749 8.03788 17.8749 9.26672ZM15.6405 9.26672C15.6405 8.6523 15.4051 8.06304 14.9861 7.62858C14.5671 7.19412 13.9988 6.95004 13.4062 6.95004C12.8136 6.95004 12.2453 7.19412 11.8262 7.62858C11.4072 8.06304 11.1718 8.6523 11.1718 9.26672C11.1718 9.88114 11.4072 10.4704 11.8262 10.9049C12.2453 11.3393 12.8136 11.5834 13.4062 11.5834C13.9988 11.5834 14.5671 11.3393 14.9861 10.9049C15.4051 10.4704 15.6405 9.88114 15.6405 9.26672ZM0 2.89585C0 1.29734 1.25124 0 2.79295 0H24.0194C25.5611 0 26.8123 1.29734 26.8123 2.89585V15.6376C26.8123 17.2361 25.5611 18.5334 24.0194 18.5334H2.79295C1.25124 18.5334 0 17.2361 0 15.6376V2.89585ZM2.79295 2.31668C2.6448 2.31668 2.50272 2.3777 2.39797 2.48631C2.29321 2.59493 2.23436 2.74224 2.23436 2.89585V4.63336H3.35154C3.64784 4.63336 3.932 4.51132 4.14151 4.29409C4.35102 4.07686 4.46872 3.78223 4.46872 3.47502V2.31668H2.79295ZM2.23436 15.6376C2.23436 15.9573 2.48461 16.2168 2.79295 16.2168H4.46872V15.0584C4.46872 14.7512 4.35102 14.4566 4.14151 14.2393C3.932 14.0221 3.64784 13.9001 3.35154 13.9001H2.23436V15.6376ZM6.70308 15.0584V16.2168H20.1093V15.0584C20.1093 14.1368 20.4624 13.2529 21.0909 12.6012C21.7194 11.9495 22.5719 11.5834 23.4608 11.5834H24.578V6.95004H23.4608C22.5719 6.95004 21.7194 6.58392 21.0909 5.93223C20.4624 5.28054 20.1093 4.39665 20.1093 3.47502V2.31668H6.70308V3.47502C6.70308 4.39665 6.34998 5.28054 5.72144 5.93223C5.0929 6.58392 4.24043 6.95004 3.35154 6.95004H2.23436V11.5834H3.35154C4.24043 11.5834 5.0929 11.9495 5.72144 12.6012C6.34998 13.2529 6.70308 14.1368 6.70308 15.0584ZM22.3436 16.2168H24.0194C24.1675 16.2168 24.3096 16.1557 24.4144 16.0471C24.5191 15.9385 24.578 15.7912 24.578 15.6376V13.9001H23.4608C23.1645 13.9001 22.8803 14.0221 22.6708 14.2393C22.4613 14.4566 22.3436 14.7512 22.3436 15.0584V16.2168ZM24.578 4.63336V2.89585C24.578 2.74224 24.5191 2.59493 24.4144 2.48631C24.3096 2.3777 24.1675 2.31668 24.0194 2.31668H22.3436V3.47502C22.3436 3.78223 22.4613 4.07686 22.6708 4.29409C22.8803 4.51132 23.1645 4.63336 23.4608 4.63336H24.578ZM7.82026 23.1668C7.11246 23.1671 6.42274 22.935 5.84997 22.5039C5.2772 22.0727 4.85078 21.4646 4.63183 20.7667C4.94241 20.8223 5.25969 20.8501 5.5859 20.8501H24.0194C25.3527 20.8501 26.6314 20.3009 27.5742 19.3234C28.517 18.3459 29.0467 17.02 29.0467 15.6376V4.83028C29.7004 5.06992 30.2664 5.51389 30.6665 6.101C31.0667 6.68811 31.2814 7.38945 31.2811 8.10838V15.6376C31.2811 16.6263 31.0932 17.6054 30.7283 18.5189C30.3634 19.4324 29.8285 20.2624 29.1542 20.9615C28.4799 21.6607 27.6793 22.2153 26.7983 22.5937C25.9173 22.9721 24.973 23.1668 24.0194 23.1668H7.82026Z" fill="white"/>
</svg>
