<svg width="26" height="26" viewBox="0 0 26 26" fill="none" xmlns="http://www.w3.org/2000/svg">
<path d="M7.16882 1.81305L1.81305 7.93392V23.5697H23.5697V7.93392L18.2139 1.81305H7.16882ZM6.75725 2.44338e-07H18.6255C18.7545 -9.44768e-05 18.8821 0.0273518 18.9996 0.0805046C19.1172 0.133657 19.2221 0.211292 19.3072 0.308219L25.1579 6.99658C25.3026 7.16163 25.3825 7.37358 25.3828 7.59307V24.4762C25.3828 24.7167 25.2872 24.9472 25.1172 25.1172C24.9472 25.2872 24.7167 25.3828 24.4762 25.3828H0.906527C0.666101 25.3828 0.435523 25.2872 0.265516 25.1172C0.0955091 24.9472 3.17485e-07 24.7167 3.17485e-07 24.4762V7.59307C-0.000183809 7.37295 0.0797263 7.16029 0.224819 6.99476L6.07373 0.311846C6.15875 0.214027 6.26376 0.135575 6.38167 0.0817804C6.49958 0.0279857 6.62765 9.88899e-05 6.75725 2.44338e-07Z" fill="white"/>
<path d="M0 7.2522H25.3828V9.06525H0V7.2522Z" fill="white"/>
<path d="M10.8783 7.47522V16.3175H14.5044V7.47522L13.0903 1.81305H12.2925L10.8783 7.47522ZM10.8783 0H14.5044L16.3175 7.25222V17.224C16.3175 17.4644 16.222 17.695 16.052 17.865C15.882 18.035 15.6514 18.1305 15.411 18.1305H9.9718C9.73138 18.1305 9.5008 18.035 9.33079 17.865C9.16079 17.695 9.06528 17.4644 9.06528 17.224V7.25222L10.8783 0Z" fill="white"/>
</svg>
