<svg width="73" height="84" viewBox="0 0 73 84" fill="none" xmlns="http://www.w3.org/2000/svg">
<path d="M37.5866 2.76855C28.6323 2.76855 20.5916 6.66096 15.0454 12.8376C13.4373 13.4316 11.9022 13.4133 11.0799 11.8782C10.8971 11.2569 10.02 9.08229 8.40272 11.4397C7.58952 12.8102 6.84941 13.9889 8.15602 19.7727C8.68597 21.1067 8.7682 22.5595 8.63115 24.2225C7.79053 27.0093 7.33368 29.9606 7.33368 33.0124C7.33368 49.7241 20.884 63.2745 37.5958 63.2745C54.3075 63.2745 67.8578 49.7241 67.8578 33.0124C67.8578 16.3006 54.2984 2.76855 37.5866 2.76855Z" fill="white"/>
<path d="M37.5866 66.0521C19.3764 66.0521 4.56512 51.2409 4.56512 33.0306C4.56512 29.8783 5.01284 26.7534 5.89914 23.7382C5.98138 22.459 5.89 21.5453 5.58848 20.8052C5.53366 20.6681 5.49711 20.5311 5.46056 20.394C4.03517 14.0803 4.78442 12.1432 5.99965 10.0782C6.02706 10.0234 6.09102 9.93203 6.12757 9.87721C7.60778 7.72085 9.22505 7.46501 10.3306 7.63862C11.7195 7.85791 12.8433 8.85385 13.4921 10.4072C13.5012 10.4072 13.5195 10.4072 13.5286 10.4072C19.7601 3.78276 28.4861 0 37.5866 0C55.7969 0 70.6172 14.8112 70.6172 33.0306C70.6172 51.25 55.806 66.0521 37.5866 66.0521Z" fill="white"/>
<path d="M37.5866 2.76855C28.6323 2.76855 20.5916 6.66096 15.0454 12.8376C13.4373 13.4316 11.9022 13.4133 11.0799 11.8782C10.8971 11.2569 10.02 9.08229 8.40272 11.4397C7.58952 12.8102 6.84941 13.9889 8.15602 19.7727C8.68597 21.1067 8.7682 22.5595 8.63115 24.2225C7.79053 27.0093 7.33368 29.9606 7.33368 33.0124C7.33368 49.7241 20.884 63.2745 37.5958 63.2745C54.3075 63.2745 67.8578 49.7241 67.8578 33.0124C67.8578 16.3006 54.2984 2.76855 37.5866 2.76855Z" fill="#E60012"/>
<path d="M9.53569 17.7535C9.76411 21.3443 12.3865 22.5413 12.8433 24.5332C12.8433 24.5332 11.4728 22.7697 10.7326 22.7149C10.5042 25.054 13.757 27.1647 13.6931 27.5667L12.3773 27.1098V27.85L11.6372 27.3383C11.5824 30.3627 14.2047 31.2124 14.7712 32.8114C14.086 32.1261 12.2677 31.2764 11.9205 30.9292C11.6281 31.6693 12.9438 33.8987 14.424 34.8672C14.1408 35.1505 12.825 34.9221 12.825 34.9221C14.1956 37.316 18.2433 38.0561 18.4718 38.5678C19.2119 40.1668 19.2758 45.8683 26.5124 48.8287C24.5114 47.3485 21.7794 45.4663 19.3215 38.7322C18.8647 37.0236 22.0627 35.9363 21.2038 32.5738C21.2038 32.5738 19.55 33.7708 19.1479 34.2277C18.5814 34.2825 21.9987 31.3769 19.7236 25.6753C19.1022 25.785 18.8098 27.5576 17.7865 27.8408C18.7002 25.9586 19.2119 22.9982 16.7083 20.8875C16.7083 20.8875 15.9042 22.2032 15.3926 22.4316C15.9042 20.4946 14.424 17.8722 13.0535 17.2418C13.0535 17.2418 12.6514 18.8956 12.5966 19.2337C12.3682 19.5169 12.423 16.8397 11.9113 16.0996C11.3997 15.3595 10.3123 14.6103 9.97427 14.2722C9.97427 14.2722 9.12452 16.2732 11.1712 18.2651C12.0301 18.9504 12.1398 19.8002 12.2037 20.257C11.6281 19.1697 10.6047 18.2651 9.52655 17.7443L9.53569 17.7535Z" fill="white"/>
<path d="M24.155 21.2803C24.2281 20.3118 26.9053 20.2935 27.618 18.5483L26.5398 18.658C28.0749 17.2143 28.1297 16.0722 28.1297 16.0722C27.7916 16.2001 26.3662 17.2965 26.3662 17.2965C26.4028 16.9493 28.4312 15.3047 28.084 13.8427L27.6363 14.1534L27.6089 13.6965C27.5175 13.9889 26.8962 14.1351 26.8962 14.1351C26.9875 13.7331 28.8606 12.1615 28.6231 10.9097C28.285 11.0376 27.2525 12.1158 27.2525 12.1158C27.2525 11.1473 29.4728 9.7767 29.153 7.85791C29.153 7.85791 28.1023 8.65284 27.682 9.30158C27.4901 8.79903 29.5825 7.27314 28.815 5.71069C28.7145 6.0579 28.0474 6.3777 27.7368 6.78887C27.1429 7.72999 27.8007 8.21426 27.3804 8.91782C27.1886 8.69853 27.0332 7.62035 27.0332 7.62035L25.6535 10.9463L24.8586 9.95945C23.6616 10.9919 23.4149 13.0569 24.3378 14.3818C23.689 14.1808 23.1134 12.8925 23.1134 12.8925C22.1357 16.1361 23.4149 18.0184 23.7804 18.3382C23.3236 18.2468 22.483 17.3696 22.483 17.3696C21.9347 19.1057 23.689 20.1108 23.7347 20.7961C22.6657 25.7575 20.2626 26.79 20.2626 26.79C21.9347 27.1098 24.0363 23.3544 24.155 21.2895V21.2803Z" fill="white"/>
<path d="M20.884 47.6865C15.8677 42.6702 18.2068 43.5291 15.5296 40.2763C13.5286 37.9921 10.2849 37.3707 10.2849 37.3707C12.1672 39.6002 12.222 41.8205 13.2545 45.1281C15.2464 51.6246 20.0433 53.5069 22.3824 53.5069C24.0911 53.5069 26.2566 52.5383 27.1063 49.8611C24.3104 50.1444 23.0586 49.6327 20.8931 47.6957L20.884 47.6865Z" fill="white"/>
<path d="M23.4515 24.3595C28.4678 20.8234 37.8242 24.4143 45.2344 24.4143C50.3603 24.4143 55.7786 25.0996 60.8588 24.1311C47.1166 24.1311 39.7612 19.6265 31.0353 19.6265C24.6485 19.6265 23.4515 24.3595 23.4515 24.3595Z" fill="white"/>
<path d="M30.7429 29.522C32.7439 29.4946 35.5125 29.3302 35.7044 30.2713C35.9419 32.3728 31.0262 30.5454 31.4008 33.387C31.5653 34.5748 31.8028 35.5617 33.4658 35.5617C35.0191 35.5617 37.2577 33.5606 37.2577 30.1068C37.2577 28.2063 37.2577 26.1413 33.0546 25.8763C30.3135 25.6753 26.284 25.9768 25.4708 26.1139C24.3835 26.2144 22.9307 26.8266 23.1683 28.4164C23.1683 28.4164 23.3693 30.2073 25.2332 30.2073C26.5216 30.2073 27.0058 29.6956 29.1622 29.5677C29.6008 30.3992 29.281 31.6967 28.9246 32.6835C28.3764 34.0358 26.7866 34.1363 26.0739 34.1363C25.9094 34.1363 23.2322 33.7982 23.2322 36.2013C23.2322 36.5759 23.1683 39.116 25.9094 39.116C29.8018 39.116 30.8891 35.7627 30.8891 33.0855C30.8891 32.0256 30.7886 30.253 30.7429 29.522Z" fill="white"/>
<path d="M49.8943 34.7118C50.9816 32.2722 50.7075 29.193 50.744 29.0194C50.6709 27.5301 49.6202 26.3148 46.9795 26.3148C45.1156 26.2783 41.7988 26.3148 41.7988 26.3148C40.346 26.3148 38.3815 26.8905 38.3815 28.7818V32.0712C38.3815 32.9484 39.5968 33.8347 39.9348 32.0347C39.9988 31.4864 39.8617 29.9331 41.1592 29.7595C41.9724 29.659 46.5775 29.5585 48.1308 29.659C49.0171 29.6225 49.5197 29.86 49.4557 31.0478C49.3552 32.8479 48.478 34.5017 43.7998 34.5017C41.6983 34.5017 39.3318 33.9991 39.3318 36.6672C39.3318 38.056 39.8709 38.7322 40.9947 38.7322C43.1602 38.7322 48.0394 39.6824 49.9034 34.7027L49.8943 34.7118Z" fill="white"/>
<path d="M62.1654 35.4063H55.2395C54.9837 35.4063 54.2161 35.2601 54.2161 34.2915V31.0844C56.939 30.8194 61.4893 30.2073 61.4893 31.4133C61.4893 32.3819 60.0365 32.3271 59.4974 32.3271C58.6659 32.3271 57.1309 31.9342 57.1309 33.6702C57.1309 34.8946 58.2456 34.8123 58.7847 34.8123C61.0415 34.8123 63.207 34.4743 63.4903 32.391C63.6639 30.993 63.4629 29.2296 62.4395 28.7179C61.2152 27.9138 56.939 27.722 54.2253 28.0509V27.4661C54.2253 27.4661 54.3715 26.3879 53.3664 26.3879C52.4801 26.3879 52.5075 27.4113 52.5075 27.4113C52.5075 27.4661 52.5075 27.8499 52.5075 28.4072C52.4801 28.4164 52.4435 28.4255 52.4161 28.4347C52.4161 28.4347 51.5664 28.9555 51.5664 30.1798C51.5664 31.0113 52.0689 31.2032 52.4801 31.2306C52.4618 33.2499 52.4344 35.4885 52.4527 36.3657C52.5349 37.9647 53.1928 38.6773 54.7918 38.6773H62.0923C62.0923 38.6773 63.6913 38.2753 63.6913 37.1332C63.6913 36.1098 63.2345 35.4245 62.1837 35.4245L62.1654 35.4063Z" fill="white"/>
<path d="M41.013 44.4977H39.4871L40.3917 43.7302C41.1957 43.0997 41.3328 42.8165 41.3328 42.2226C41.3328 41.5099 40.9034 40.2855 35.7226 40.1941C33.2465 40.1119 32.0952 40.0845 31.8759 41.7657C31.8759 41.7657 31.7937 43.2459 33.1825 43.2459C34.4069 43.3282 37.7419 42.9901 37.7967 43.5292C37.8242 43.7119 37.5592 44.0591 37.148 44.4977H31.6383C30.35 44.4977 29.4728 44.781 29.4728 45.8957C29.4728 45.8957 29.4728 47.7231 30.9805 47.7231H34.0414C33.9226 47.8693 33.813 48.0155 33.7216 48.1526C32.8353 49.3221 32.2688 51.4602 34.5165 52.6023C36.0881 53.2602 38.3084 53.4338 38.7379 53.4338C40.0445 53.4338 41.8445 53.2602 41.8445 51.378C41.8445 50.0074 40.4191 50.0714 39.9896 50.0714C37.3125 50.1536 34.6536 50.2998 34.6262 49.3861C34.6079 48.9018 35.3754 48.0795 35.7318 47.7323H40.5287C41.7531 47.7323 42.411 46.9373 42.411 46.1059C42.411 45.2744 41.8993 44.5069 41.013 44.5069V44.4977Z" fill="white"/>
<path d="M43.4983 41.2448V52.4195C43.4983 53.3058 45.1795 53.6165 45.1795 52.2733V41.1535C45.1795 40.2124 43.4983 39.8926 43.4983 41.2357V41.2448Z" fill="white"/>
<path d="M56.3268 45.2926C57.1217 45.2926 57.2953 44.0957 57.2953 43.7302C57.2953 43.2185 57.14 42.7525 56.3908 42.5058C56.3908 42.3779 56.3725 42.2317 56.2903 42.0215C56.0892 41.455 55.7512 40.7332 55.0659 41.0256C54.6364 41.254 54.81 41.7109 54.8923 41.8571L55.1938 42.3505C55.1298 42.3505 55.075 42.3505 55.0019 42.3505H54.2618V41.6378C54.2618 40.2946 52.7268 40.121 52.7268 41.6104V42.3505H47.7927C47.1714 42.3505 46.2303 42.6063 46.2303 43.8855C46.2303 43.8855 46.1663 45.3109 47.3998 45.3109H52.7359V46.983C52.5715 46.9464 52.407 46.9007 52.2242 46.8825C49.8029 46.6266 45.8374 46.0875 45.8374 49.7332C45.8374 51.78 46.9521 53.0957 49.9126 53.0957C52.3796 53.0957 53.9055 52.3373 54.207 50.519C54.5816 50.8663 54.9288 51.2774 55.2121 51.8074C55.6415 52.8673 56.409 53.2876 56.7837 52.4652C56.9847 51.8256 56.5187 49.0023 54.2801 47.6043V45.3109H56.3359L56.3268 45.2926ZM49.7389 50.6561C47.6831 50.6561 47.3724 50.2815 47.3724 49.7972C47.3724 49.2307 48.9166 49.0845 49.9948 49.0845C50.7623 49.0845 51.7217 49.1759 52.6354 49.5322C52.4253 50.2267 51.7491 50.6561 49.7298 50.6561H49.7389Z" fill="white"/>
<path d="M57.2039 40.2216C56.9755 39.9657 55.9522 39.7099 56.2902 41.0165L56.6283 41.5282C56.6283 41.5282 56.8841 41.985 57.4507 41.7292C57.9349 41.5556 57.6243 40.9891 57.5968 40.9069L57.1948 40.2216H57.2039Z" fill="white"/>
<path d="M5.77124 77.4005L4.88494 79.9132H3.65143L7.16921 69.9446H8.60374L12.1124 79.9132H10.8606L9.98344 77.4005H5.77124ZM7.88191 71.37L6.13672 76.3497H9.61796L7.88191 71.37Z" fill="white"/>
<path d="M16.2789 74.3395L14.8626 79.9131H13.9124L11.9296 73.0603H13.0169L14.3875 78.0309L14.3966 78.6796L14.4058 78.0309L15.6302 73.0603H16.9459L18.1703 78.0309L18.1794 78.6796L18.2068 78.0309L19.5682 73.0603H20.6556L18.6545 79.9131H17.7134L16.3063 74.3395L16.288 73.7913L16.2789 74.3395Z" fill="white"/>
<path d="M21.8251 75.3355C21.8616 73.6634 22.8485 72.9507 24.42 72.9507C26.9145 72.9507 26.9145 74.3487 26.9145 75.436V78.6705C26.9145 79.1456 26.9693 79.3832 27.3165 79.9132H26.3206C26.0921 79.6299 25.9825 79.438 25.9277 79.1274C25.4617 79.6299 24.8312 80.0228 23.7896 80.0228C22.1632 80.0228 21.6698 79.1731 21.6698 78.1862C21.6698 76.6055 22.8667 76.2766 24.1916 75.9385C25.2698 75.6735 25.882 75.5182 25.882 74.9791C25.882 73.8827 24.6759 73.8827 24.4474 73.8827C23.5703 73.8827 22.8667 74.038 22.8119 75.3446H21.816L21.8251 75.3355ZM25.9094 76.24C25.5348 76.5142 25.1693 76.5964 23.8718 76.9345C23.1043 77.1263 22.6931 77.3913 22.6931 78.1131C22.6931 78.6157 22.8576 79.0908 23.753 79.0908C25.4434 79.0908 25.9185 77.8939 25.9185 77.2999V76.24H25.9094Z" fill="white"/>
<path d="M29.9023 77.4644C29.9388 78.3142 30.1033 79.1 31.5378 79.1C31.8302 79.1 32.9632 79.1 32.9632 77.9852C32.9632 77.4005 32.7074 77.1629 31.218 76.8065C30.0211 76.505 28.952 76.2492 28.952 74.97C28.952 74.1568 29.4911 72.9507 31.3368 72.9507C32.3327 72.9507 33.7581 73.1883 33.8221 75.1527H32.817C32.7896 74.7324 32.7348 73.8827 31.3825 73.8827C31.0627 73.8827 29.9571 73.9192 29.9571 74.8786C29.9571 75.4177 30.1855 75.5456 31.6749 75.8837C33.1368 76.2218 33.9866 76.5873 33.9866 77.8208C33.9866 78.369 33.9317 80.0319 31.5195 80.0319C29.2627 80.0319 28.9703 78.5152 28.8881 77.4736H29.9114L29.9023 77.4644Z" fill="white"/>
<path d="M41.3146 77.5832C40.9491 79.5385 39.6333 80.0228 38.4181 80.0228C36.1886 80.0228 35.412 78.2411 35.412 76.569C35.412 74.0563 36.9562 72.9507 38.3907 72.9507C39.6516 72.9507 40.6019 73.6908 40.9948 74.8238C41.2323 75.5273 41.2323 76.2766 41.2506 76.7152H36.4262C36.4628 77.3091 36.6181 79.1 38.409 79.1C39.8892 79.1 40.1816 77.9304 40.2729 77.5832H41.3054H41.3146ZM40.0902 75.7741C39.9805 74.5314 39.1765 73.8735 38.3176 73.8735C37.4587 73.8735 36.682 74.4674 36.481 75.7741H40.0902Z" fill="white"/>
<path d="M43.7633 77.4644C43.7999 78.3142 43.9643 79.1 45.3988 79.1C45.6912 79.1 46.8242 79.1 46.8242 77.9852C46.8242 77.4005 46.5684 77.1629 45.079 76.8065C43.8821 76.505 42.813 76.2492 42.813 74.97C42.813 74.1568 43.3521 72.9507 45.1978 72.9507C46.1938 72.9507 47.6192 73.1883 47.6831 75.1527H46.678C46.6506 74.7324 46.5958 73.8827 45.2435 73.8827C44.9237 73.8827 43.8181 73.9192 43.8181 74.8786C43.8181 75.4177 44.0466 75.5456 45.5359 75.8837C46.9978 76.2218 47.8476 76.5873 47.8476 77.8208C47.8476 78.369 47.7928 80.0319 45.3806 80.0319C43.1237 80.0319 42.8313 78.5152 42.7491 77.4736H43.7724L43.7633 77.4644Z" fill="white"/>
<path d="M52.2242 80.0319C50.5339 80.0319 49.3369 78.6431 49.3369 76.5415C49.3369 74.44 50.4242 72.9415 52.2242 72.9415C53.3938 72.9415 55.1116 73.709 55.1116 76.4867C55.1116 78.9355 53.677 80.0228 52.2242 80.0228M52.2242 73.8735C51.1004 73.8735 50.3877 74.9151 50.3877 76.4867C50.3877 78.0583 51.1552 79.0908 52.2242 79.0908C53.2933 79.0908 54.0608 78.1497 54.0608 76.4867C54.0608 74.8238 53.3116 73.8735 52.2242 73.8735Z" fill="white"/>
<path d="M57.6791 79.9132H56.674V69.9446H57.6791V73.7182C57.8527 73.5263 58.4192 72.9415 59.4882 72.9415C60.9228 72.9415 62.3116 74.0289 62.3116 76.4776C62.3116 78.6065 61.2152 80.0137 59.4882 80.0137C58.4649 80.0137 57.9623 79.5385 57.6791 79.237V79.904V79.9132ZM57.6791 77.4096C57.6791 77.8756 58.2456 79.0908 59.3969 79.0908C60.4476 79.0908 61.2608 78.1314 61.2608 76.4867C61.2608 74.2847 60.1096 73.8735 59.4517 73.8735C58.0446 73.8735 57.6791 75.3537 57.6791 75.4908V77.4096Z" fill="white"/>
<path d="M63.8192 75.3355C63.8558 73.6634 64.8426 72.9507 66.4142 72.9507C68.9086 72.9507 68.9086 74.3487 68.9086 75.436V78.6705C68.9086 79.1456 68.9634 79.3832 69.3106 79.9132H68.3147C68.0863 79.6299 67.9766 79.438 67.9218 79.1274C67.4558 79.6299 66.8162 80.0228 65.7837 80.0228C64.1573 80.0228 63.6639 79.1731 63.6639 78.1862C63.6639 76.6055 64.8609 76.2766 66.1858 75.9385C67.2639 75.6735 67.8761 75.5182 67.8761 74.9791C67.8761 73.8827 66.67 73.8827 66.4416 73.8827C65.5644 73.8827 64.8609 74.038 64.806 75.3446H63.8101L63.8192 75.3355ZM67.9035 76.24C67.5289 76.5142 67.1634 76.5964 65.8659 76.9345C65.0984 77.1263 64.6873 77.3913 64.6873 78.1131C64.6873 78.6157 64.8426 79.0908 65.7472 79.0908C67.4375 79.0908 67.9127 77.8939 67.9127 77.2999V76.24H67.9035Z" fill="white"/>
<path d="M72.5634 78.2593V75.4268C72.5634 73.9831 72.1157 69.2866 66.4142 69.2866C65.0345 69.2866 63.8101 69.6338 62.8233 70.2552C62.3482 69.9536 61.8456 69.7161 61.3157 69.5516C61.1238 67.7151 59.5705 66.2897 57.6791 66.2897H56.674C54.8557 66.2897 53.3664 67.6146 53.0831 69.3506C52.7999 69.3141 52.5166 69.2866 52.2334 69.2866C50.9542 69.2866 49.8029 69.643 48.8252 70.2643C47.8476 69.6339 46.6232 69.2866 45.2069 69.2866C43.7907 69.2866 42.676 69.6521 41.7531 70.246C40.7755 69.643 39.6242 69.2866 38.3907 69.2866C37.2211 69.2866 36.0333 69.6247 34.9825 70.2826C33.9957 69.643 32.7622 69.2866 31.3368 69.2866C30.0119 69.2866 28.8972 69.6247 27.9926 70.1729C27.1246 69.643 25.9733 69.2866 24.42 69.2866C23.5429 69.2866 22.7297 69.4237 22.0078 69.6887C21.5784 69.5151 21.1307 69.4054 20.6556 69.4054H19.5682C19.1114 69.4054 18.6637 69.4877 18.2616 69.6521C17.8505 69.4968 17.4119 69.4054 16.955 69.4054H15.6393C15.1824 69.4054 14.7438 69.4877 14.3327 69.643C13.9215 69.4877 13.4829 69.4054 13.0261 69.4054H12.3042L12.0667 68.7293C11.555 67.2673 10.1662 66.2897 8.62199 66.2897H7.18746C5.63415 66.2897 4.25445 67.2673 3.74277 68.7293L0.206715 78.6887C-0.186181 79.8034 -0.0125758 81.0461 0.672707 82.0146C1.35799 82.9832 2.47272 83.5588 3.66054 83.5588H4.89405C6.10015 83.5588 7.20574 82.9649 7.88188 82.0146C8.55803 82.9649 9.66362 83.5588 10.8697 83.5588H12.1215C12.4322 83.5588 12.7428 83.5131 13.0443 83.44C13.3276 83.5131 13.62 83.5588 13.9306 83.5588H14.8809C15.3834 83.5588 15.8677 83.4583 16.3063 83.2664C16.7449 83.4491 17.2291 83.5588 17.7317 83.5588H18.6728C19.4312 83.5588 20.1439 83.3212 20.7378 82.9101C21.6058 83.3943 22.6566 83.6684 23.8261 83.6684C24.4109 83.6684 24.9774 83.5953 25.5165 83.4674C25.7906 83.5314 26.0647 83.5679 26.3571 83.5679H27.3531C27.9104 83.5679 28.4495 83.4309 28.9338 83.1842C29.7744 83.5222 30.6698 83.6684 31.547 83.6684C32.8901 83.6684 34.0688 83.3486 35.0282 82.773C36.0059 83.3486 37.1663 83.6684 38.4546 83.6684C39.743 83.6684 40.9582 83.3395 41.9541 82.7547C43.014 83.3943 44.2384 83.6684 45.4171 83.6684C46.7877 83.6684 47.9846 83.3395 48.944 82.7456C49.9034 83.3395 51.0364 83.6776 52.2608 83.6776C53.1745 83.6776 54.0974 83.4766 54.9471 83.0837C55.4679 83.3761 56.071 83.5588 56.7106 83.5588H57.7156C57.871 83.5588 58.0263 83.5497 58.1816 83.5314C58.6111 83.6228 59.0588 83.6684 59.5339 83.6684C60.6852 83.6684 61.7451 83.3761 62.6588 82.8644C63.5451 83.3761 64.6233 83.6684 65.8385 83.6684C66.4233 83.6684 66.9898 83.5953 67.5289 83.4674C67.803 83.5314 68.0771 83.5679 68.3695 83.5679H69.3654C70.7086 83.5679 71.933 82.8004 72.5726 81.6126C73.1299 80.571 73.1391 79.31 72.6183 78.2593H72.5634ZM31.3916 76.5872C31.3277 76.5689 31.2637 76.5506 31.1906 76.5232C31.3003 76.4501 31.4099 76.4044 31.5196 76.377C31.5835 76.3953 31.6566 76.4227 31.7206 76.4593C31.5927 76.5324 31.4739 76.5781 31.3825 76.5963L31.3916 76.5872ZM45.2526 76.5872C45.1887 76.5689 45.1247 76.5506 45.0516 76.5232C45.1613 76.4501 45.2709 76.4044 45.3806 76.377C45.4445 76.3953 45.5176 76.4227 45.5816 76.4593C45.4536 76.5324 45.3349 76.5781 45.2435 76.5963L45.2526 76.5872Z" fill="white"/>
<path d="M5.77124 77.4005L4.88494 79.9132H3.65143L7.16921 69.9446H8.60374L12.1124 79.9132H10.8606L9.98344 77.4005H5.77124ZM7.88191 71.37L6.13672 76.3497H9.61796L7.88191 71.37Z" fill="#E60012"/>
<path d="M16.2789 74.3395L14.8626 79.9131H13.9124L11.9296 73.0603H13.0169L14.3875 78.0309L14.3966 78.6796L14.4058 78.0309L15.6302 73.0603H16.9459L18.1703 78.0309L18.1794 78.6796L18.2068 78.0309L19.5682 73.0603H20.6556L18.6545 79.9131H17.7134L16.3063 74.3395L16.288 73.7913L16.2789 74.3395Z" fill="#E60012"/>
<path d="M21.8251 75.3355C21.8616 73.6634 22.8485 72.9507 24.42 72.9507C26.9145 72.9507 26.9145 74.3487 26.9145 75.436V78.6705C26.9145 79.1456 26.9693 79.3832 27.3165 79.9132H26.3206C26.0921 79.6299 25.9825 79.438 25.9277 79.1274C25.4617 79.6299 24.8312 80.0228 23.7896 80.0228C22.1632 80.0228 21.6698 79.1731 21.6698 78.1862C21.6698 76.6055 22.8667 76.2766 24.1916 75.9385C25.2698 75.6735 25.882 75.5182 25.882 74.9791C25.882 73.8827 24.6759 73.8827 24.4474 73.8827C23.5703 73.8827 22.8667 74.038 22.8119 75.3446H21.816L21.8251 75.3355ZM25.9094 76.24C25.5348 76.5142 25.1693 76.5964 23.8718 76.9345C23.1043 77.1263 22.6931 77.3913 22.6931 78.1131C22.6931 78.6157 22.8576 79.0908 23.753 79.0908C25.4434 79.0908 25.9185 77.8939 25.9185 77.2999V76.24H25.9094Z" fill="#E60012"/>
<path d="M29.9023 77.4644C29.9388 78.3142 30.1033 79.1 31.5378 79.1C31.8302 79.1 32.9632 79.1 32.9632 77.9852C32.9632 77.4005 32.7074 77.1629 31.218 76.8065C30.0211 76.505 28.952 76.2492 28.952 74.97C28.952 74.1568 29.4911 72.9507 31.3368 72.9507C32.3327 72.9507 33.7581 73.1883 33.8221 75.1527H32.817C32.7896 74.7324 32.7348 73.8827 31.3825 73.8827C31.0627 73.8827 29.9571 73.9192 29.9571 74.8786C29.9571 75.4177 30.1855 75.5456 31.6749 75.8837C33.1368 76.2218 33.9866 76.5873 33.9866 77.8208C33.9866 78.369 33.9317 80.0319 31.5195 80.0319C29.2627 80.0319 28.9703 78.5152 28.8881 77.4736H29.9114L29.9023 77.4644Z" fill="#E60012"/>
<path d="M41.3146 77.5832C40.9491 79.5385 39.6333 80.0228 38.4181 80.0228C36.1886 80.0228 35.412 78.2411 35.412 76.569C35.412 74.0563 36.9562 72.9507 38.3907 72.9507C39.6516 72.9507 40.6019 73.6908 40.9948 74.8238C41.2323 75.5273 41.2323 76.2766 41.2506 76.7152H36.4262C36.4628 77.3091 36.6181 79.1 38.409 79.1C39.8892 79.1 40.1816 77.9304 40.2729 77.5832H41.3054H41.3146ZM40.0902 75.7741C39.9805 74.5314 39.1765 73.8735 38.3176 73.8735C37.4587 73.8735 36.682 74.4674 36.481 75.7741H40.0902Z" fill="#E60012"/>
<path d="M43.7633 77.4644C43.7999 78.3142 43.9643 79.1 45.3988 79.1C45.6912 79.1 46.8242 79.1 46.8242 77.9852C46.8242 77.4005 46.5684 77.1629 45.079 76.8065C43.8821 76.505 42.813 76.2492 42.813 74.97C42.813 74.1568 43.3521 72.9507 45.1978 72.9507C46.1938 72.9507 47.6192 73.1883 47.6831 75.1527H46.678C46.6506 74.7324 46.5958 73.8827 45.2435 73.8827C44.9237 73.8827 43.8181 73.9192 43.8181 74.8786C43.8181 75.4177 44.0466 75.5456 45.5359 75.8837C46.9978 76.2218 47.8476 76.5873 47.8476 77.8208C47.8476 78.369 47.7928 80.0319 45.3806 80.0319C43.1237 80.0319 42.8313 78.5152 42.7491 77.4736H43.7724L43.7633 77.4644Z" fill="#E60012"/>
<path d="M52.2242 80.0319C50.5339 80.0319 49.3369 78.6431 49.3369 76.5415C49.3369 74.44 50.4242 72.9415 52.2242 72.9415C53.3938 72.9415 55.1116 73.709 55.1116 76.4867C55.1116 78.9355 53.677 80.0228 52.2242 80.0228M52.2242 73.8735C51.1004 73.8735 50.3877 74.9151 50.3877 76.4867C50.3877 78.0583 51.1552 79.0908 52.2242 79.0908C53.2933 79.0908 54.0608 78.1497 54.0608 76.4867C54.0608 74.8238 53.3116 73.8735 52.2242 73.8735Z" fill="#E60012"/>
<path d="M57.6791 79.9132H56.674V69.9446H57.6791V73.7182C57.8527 73.5263 58.4192 72.9415 59.4882 72.9415C60.9228 72.9415 62.3116 74.0289 62.3116 76.4776C62.3116 78.6065 61.2152 80.0137 59.4882 80.0137C58.4649 80.0137 57.9623 79.5385 57.6791 79.237V79.904V79.9132ZM57.6791 77.4096C57.6791 77.8756 58.2456 79.0908 59.3969 79.0908C60.4476 79.0908 61.2608 78.1314 61.2608 76.4867C61.2608 74.2847 60.1096 73.8735 59.4517 73.8735C58.0446 73.8735 57.6791 75.3537 57.6791 75.4908V77.4096Z" fill="#E60012"/>
<path d="M63.8192 75.3355C63.8558 73.6634 64.8426 72.9507 66.4142 72.9507C68.9086 72.9507 68.9086 74.3487 68.9086 75.436V78.6705C68.9086 79.1456 68.9634 79.3832 69.3106 79.9132H68.3147C68.0863 79.6299 67.9766 79.438 67.9218 79.1274C67.4558 79.6299 66.8162 80.0228 65.7837 80.0228C64.1573 80.0228 63.6639 79.1731 63.6639 78.1862C63.6639 76.6055 64.8609 76.2766 66.1858 75.9385C67.2639 75.6735 67.8761 75.5182 67.8761 74.9791C67.8761 73.8827 66.67 73.8827 66.4416 73.8827C65.5644 73.8827 64.8609 74.038 64.806 75.3446H63.8101L63.8192 75.3355ZM67.9035 76.24C67.5289 76.5142 67.1634 76.5964 65.8659 76.9345C65.0984 77.1263 64.6873 77.3913 64.6873 78.1131C64.6873 78.6157 64.8426 79.0908 65.7472 79.0908C67.4375 79.0908 67.9127 77.8939 67.9127 77.2999V76.24H67.9035Z" fill="#E60012"/>
</svg>
