<svg width="290" height="84" viewBox="0 0 290 84" fill="none" xmlns="http://www.w3.org/2000/svg">
<path d="M267.785 50.0001C267.505 50.0001 267.365 49.8601 267.365 49.5801C267.365 49.2601 267.505 49.1001 267.785 49.1001C268.445 49.1001 268.975 48.9701 269.375 48.7101C269.775 48.4301 270.135 47.9501 270.455 47.2701C270.595 46.9701 270.815 46.4401 271.115 45.6801C271.435 44.9201 271.795 44.0101 272.195 42.9501C272.615 41.8901 273.045 40.7601 273.485 39.5601C273.945 38.3401 274.395 37.1401 274.835 35.9601C275.295 34.7601 275.715 33.6401 276.095 32.6001C276.495 31.5601 276.825 30.6801 277.085 29.9601C277.365 29.2201 277.545 28.7301 277.625 28.4901C277.725 28.2301 277.845 28.0601 277.985 27.9801C278.125 27.9001 278.355 27.8601 278.675 27.8601C278.995 27.8601 279.225 27.9101 279.365 28.0101C279.525 28.0901 279.645 28.2401 279.725 28.4601C279.865 28.8201 280.095 29.4401 280.415 30.3201C280.755 31.2001 281.145 32.2401 281.585 33.4401C282.045 34.6201 282.515 35.8601 282.995 37.1601C283.495 38.4601 283.975 39.7401 284.435 41.0001C284.895 42.2401 285.315 43.3501 285.695 44.3301C286.075 45.3101 286.365 46.0701 286.565 46.6101C287.225 48.2701 288.025 49.1001 288.965 49.1001C289.225 49.1001 289.355 49.2601 289.355 49.5801C289.355 49.8601 289.225 50.0001 288.965 50.0001C288.765 50.0001 288.365 49.9901 287.765 49.9701C287.185 49.9501 286.375 49.9401 285.335 49.9401C284.475 49.9401 283.685 49.9501 282.965 49.9701C282.245 49.9901 281.775 50.0001 281.555 50.0001C281.295 50.0001 281.165 49.8601 281.165 49.5801C281.165 49.2601 281.295 49.1001 281.555 49.1001C282.175 49.1001 282.605 49.0101 282.845 48.8301C283.105 48.6501 283.245 48.4201 283.265 48.1401C283.285 47.8601 283.235 47.5801 283.115 47.3001C283.095 47.2001 282.945 46.7401 282.665 45.9201C282.405 45.0801 282.075 44.1101 281.675 43.0101C281.595 42.8101 281.515 42.6901 281.435 42.6501C281.375 42.6101 281.275 42.5901 281.135 42.5901H273.695C273.495 42.5901 273.375 42.6801 273.335 42.8601C273.215 43.2801 273.065 43.7801 272.885 44.3601C272.705 44.9201 272.545 45.4601 272.405 45.9801C272.265 46.5001 272.195 46.9301 272.195 47.2701C272.195 47.9501 272.375 48.4301 272.735 48.7101C273.095 48.9701 273.585 49.1001 274.205 49.1001C274.465 49.1001 274.595 49.2601 274.595 49.5801C274.595 49.8601 274.465 50.0001 274.205 50.0001C274.005 50.0001 273.635 49.9901 273.095 49.9701C272.575 49.9501 271.875 49.9401 270.995 49.9401C270.215 49.9401 269.535 49.9501 268.955 49.9701C268.375 49.9901 267.985 50.0001 267.785 50.0001ZM274.175 41.5701H280.715C280.815 41.5701 280.905 41.5501 280.985 41.5101C281.065 41.4701 281.075 41.3601 281.015 41.1801C280.775 40.4801 280.495 39.6601 280.175 38.7201C279.855 37.7801 279.525 36.8401 279.185 35.9001C278.845 34.9601 278.545 34.1401 278.285 33.4401C278.045 32.7201 277.885 32.2501 277.805 32.0301C277.745 31.8901 277.675 31.8201 277.595 31.8201C277.515 31.8201 277.455 31.8701 277.415 31.9701C277.355 32.1101 277.215 32.4601 276.995 33.0201C276.795 33.5601 276.545 34.2201 276.245 35.0001C275.945 35.7601 275.635 36.5501 275.315 37.3701C274.995 38.1701 274.705 38.9101 274.445 39.5901C274.205 40.2701 274.035 40.7801 273.935 41.1201C273.855 41.4201 273.935 41.5701 274.175 41.5701Z" fill="#3E0014"/>
<path d="M247.064 50C246.784 50 246.644 49.85 246.644 49.55C246.644 49.27 246.784 49.13 247.064 49.13C248.064 49.13 248.754 48.98 249.134 48.68C249.534 48.38 249.734 47.92 249.734 47.3V30.89C249.734 30.25 249.534 29.79 249.134 29.51C248.754 29.23 248.054 29.09 247.034 29.09C246.754 29.09 246.614 28.95 246.614 28.67C246.614 28.37 246.754 28.22 247.034 28.22C247.194 28.22 247.674 28.24 248.474 28.28C249.294 28.3 250.274 28.31 251.414 28.31C253.534 28.31 255.254 28.3 256.574 28.28C257.894 28.24 258.764 28.22 259.184 28.22C260.344 28.22 261.354 28.43 262.214 28.85C263.094 29.27 263.784 29.85 264.284 30.59C264.784 31.31 265.034 32.14 265.034 33.08C265.034 34.12 264.804 34.99 264.344 35.69C263.884 36.37 263.324 36.92 262.664 37.34C262.004 37.74 261.364 38.05 260.744 38.27C260.544 38.35 260.444 38.44 260.444 38.54C260.464 38.64 260.564 38.71 260.744 38.75C261.244 38.83 261.784 38.98 262.364 39.2C262.964 39.42 263.534 39.74 264.074 40.16C264.614 40.56 265.054 41.08 265.394 41.72C265.754 42.34 265.934 43.1 265.934 44C265.934 45.34 265.584 46.46 264.884 47.36C264.184 48.24 263.234 48.9 262.034 49.34C260.854 49.78 259.534 50 258.074 50C257.854 50 257.604 50 257.324 50C257.064 49.98 256.704 49.97 256.244 49.97C255.804 49.97 255.194 49.97 254.414 49.97C253.634 49.95 252.614 49.94 251.354 49.94C250.194 49.94 249.234 49.95 248.474 49.97C247.734 49.99 247.264 50 247.064 50ZM253.754 49.04H257.384C258.984 49.04 260.154 48.57 260.894 47.63C261.654 46.69 262.034 45.48 262.034 44C262.034 42.62 261.614 41.47 260.774 40.55C259.954 39.61 258.714 39.14 257.054 39.14H253.484C253.224 39.14 253.094 39.27 253.094 39.53V48.44C253.094 48.62 253.134 48.77 253.214 48.89C253.314 48.99 253.494 49.04 253.754 49.04ZM253.484 38.06H257.114C258.414 38.06 259.434 37.66 260.174 36.86C260.914 36.04 261.284 34.81 261.284 33.17C261.284 32.01 261.004 31.06 260.444 30.32C259.884 29.56 258.894 29.18 257.474 29.18H253.724C253.544 29.18 253.394 29.22 253.274 29.3C253.154 29.38 253.094 29.55 253.094 29.81V37.67C253.094 37.75 253.134 37.84 253.214 37.94C253.294 38.02 253.384 38.06 253.484 38.06Z" fill="#3E0014"/>
<path d="M234.47 50.3601C232.59 50.3601 230.91 49.9001 229.43 48.9801C227.97 48.0401 226.81 46.7301 225.95 45.0501C225.11 43.3501 224.69 41.3701 224.69 39.1101C224.69 37.4101 224.94 35.8701 225.44 34.4901C225.96 33.1101 226.66 31.9301 227.54 30.9501C228.44 29.9501 229.48 29.1901 230.66 28.6701C231.86 28.1301 233.13 27.8601 234.47 27.8601C235.83 27.8601 237.1 28.1301 238.28 28.6701C239.46 29.1901 240.49 29.9501 241.37 30.9501C242.27 31.9301 242.97 33.1101 243.47 34.4901C243.99 35.8701 244.25 37.4101 244.25 39.1101C244.25 41.3701 243.82 43.3501 242.96 45.0501C242.12 46.7301 240.96 48.0401 239.48 48.9801C238.02 49.9001 236.35 50.3601 234.47 50.3601ZM234.47 49.2801C235.55 49.2801 236.53 48.9701 237.41 48.3501C238.31 47.7101 239.02 46.6501 239.54 45.1701C240.08 43.6701 240.35 41.6501 240.35 39.1101C240.35 36.5501 240.08 34.5301 239.54 33.0501C239.02 31.5701 238.31 30.5101 237.41 29.8701C236.53 29.2301 235.55 28.9101 234.47 28.9101C233.39 28.9101 232.41 29.2301 231.53 29.8701C230.65 30.5101 229.94 31.5701 229.4 33.0501C228.88 34.5301 228.62 36.5501 228.62 39.1101C228.62 41.6501 228.88 43.6701 229.4 45.1701C229.94 46.6501 230.65 47.7101 231.53 48.3501C232.41 48.9701 233.39 49.2801 234.47 49.2801Z" fill="#3E0014"/>
<path d="M213.998 50.3601C213.118 50.3601 212.268 50.2501 211.448 50.0301C210.628 49.8101 209.918 49.5701 209.318 49.3101C208.718 49.0301 208.288 48.8401 208.028 48.7401C207.828 48.6401 207.618 48.6001 207.398 48.6201C207.178 48.6401 206.988 48.7401 206.828 48.9201C206.748 48.9801 206.678 49.0401 206.618 49.1001C206.558 49.1401 206.348 49.3301 205.988 49.6701C205.788 49.8501 205.598 49.9001 205.418 49.8201C205.238 49.7401 205.148 49.5801 205.148 49.3401V43.6101C205.148 43.3701 205.278 43.2301 205.538 43.1901C205.818 43.1501 205.988 43.2301 206.048 43.4301C206.408 44.5301 206.988 45.5101 207.788 46.3701C208.588 47.2301 209.538 47.9001 210.638 48.3801C211.738 48.8601 212.908 49.1001 214.148 49.1001C215.188 49.1001 216.048 48.8901 216.728 48.4701C217.408 48.0301 217.918 47.4901 218.258 46.8501C218.618 46.1901 218.798 45.5401 218.798 44.9001C218.798 44.0001 218.558 43.2801 218.078 42.7401C217.598 42.2001 216.958 41.7701 216.158 41.4501C215.358 41.1101 214.478 40.8301 213.518 40.6101C212.578 40.3701 211.628 40.1201 210.668 39.8601C209.728 39.5801 208.858 39.2201 208.058 38.7801C207.258 38.3201 206.618 37.7201 206.138 36.9801C205.658 36.2401 205.418 35.2701 205.418 34.0701C205.418 32.7501 205.738 31.6301 206.378 30.7101C207.018 29.7901 207.878 29.0901 208.958 28.6101C210.038 28.1101 211.248 27.8601 212.588 27.8601C213.228 27.8601 213.888 27.9401 214.568 28.1001C215.268 28.2601 215.898 28.4501 216.458 28.6701C217.038 28.8701 217.478 29.0601 217.778 29.2401C218.258 29.5001 218.638 29.5001 218.918 29.2401C219.078 29.0801 219.218 28.9601 219.338 28.8801C219.458 28.8001 219.528 28.7501 219.548 28.7301C219.708 28.5701 219.878 28.5401 220.058 28.6401C220.238 28.7201 220.328 28.8901 220.328 29.1501V34.1901C220.328 34.4501 220.198 34.6101 219.938 34.6701C219.698 34.7101 219.528 34.6101 219.428 34.3701C219.008 33.3901 218.458 32.4901 217.778 31.6701C217.118 30.8301 216.348 30.1601 215.468 29.6601C214.608 29.1601 213.648 28.9101 212.588 28.9101C211.728 28.9101 210.958 29.0901 210.278 29.4501C209.598 29.8101 209.058 30.2901 208.658 30.8901C208.278 31.4901 208.088 32.1701 208.088 32.9301C208.088 33.8101 208.328 34.5101 208.808 35.0301C209.308 35.5301 209.958 35.9301 210.758 36.2301C211.578 36.5101 212.468 36.7601 213.428 36.9801C214.408 37.2001 215.378 37.4501 216.338 37.7301C217.318 37.9901 218.208 38.3501 219.008 38.8101C219.828 39.2701 220.478 39.9001 220.958 40.7001C221.458 41.4801 221.708 42.5001 221.708 43.7601C221.708 45.1401 221.358 46.3301 220.658 47.3301C219.958 48.3101 219.018 49.0601 217.838 49.5801C216.678 50.1001 215.398 50.3601 213.998 50.3601Z" fill="#3E0014"/>
<path d="M176.019 50C175.739 50 175.599 49.84 175.599 49.52C175.599 49.24 175.739 49.1 176.019 49.1C177.059 49.1 177.789 48.97 178.209 48.71C178.649 48.45 178.869 47.97 178.869 47.27V30.89C178.869 30.25 178.669 29.79 178.269 29.51C177.869 29.23 177.159 29.09 176.139 29.09C175.879 29.09 175.749 28.94 175.749 28.64C175.749 28.54 175.779 28.45 175.839 28.37C175.899 28.27 175.999 28.22 176.139 28.22C176.299 28.22 177.069 28.23 178.449 28.25C179.849 28.27 181.879 28.28 184.539 28.28C187.079 28.28 189.009 28.27 190.329 28.25C191.669 28.23 192.419 28.22 192.579 28.22C193.059 28.22 193.309 28.45 193.329 28.91C193.349 29.09 193.369 29.39 193.389 29.81C193.429 30.21 193.459 30.64 193.479 31.1C193.499 31.54 193.509 31.94 193.509 32.3C193.529 32.64 193.539 32.86 193.539 32.96C193.539 33.04 193.519 33.12 193.479 33.2C193.439 33.28 193.339 33.33 193.179 33.35C193.059 33.35 192.959 33.34 192.879 33.32C192.799 33.28 192.729 33.19 192.669 33.05C192.429 32.53 192.119 31.97 191.739 31.37C191.359 30.77 190.859 30.26 190.239 29.84C189.639 29.4 188.849 29.18 187.869 29.18H182.829C182.649 29.18 182.499 29.23 182.379 29.33C182.259 29.41 182.199 29.57 182.199 29.81V37.97C182.199 38.23 182.329 38.36 182.589 38.36H184.359C185.199 38.36 185.839 38.19 186.279 37.85C186.719 37.51 187.049 37.11 187.269 36.65C187.489 36.17 187.669 35.76 187.809 35.42C187.849 35.28 187.899 35.18 187.959 35.12C188.019 35.04 188.129 35 188.289 35C188.429 35 188.519 35.05 188.559 35.15C188.619 35.23 188.649 35.32 188.649 35.42C188.649 35.58 188.649 35.86 188.649 36.26C188.649 36.66 188.639 37.1 188.619 37.58C188.619 38.04 188.619 38.47 188.619 38.87C188.619 39.25 188.619 39.7 188.619 40.22C188.639 40.72 188.649 41.19 188.649 41.63C188.649 42.05 188.649 42.33 188.649 42.47C188.649 42.77 188.529 42.92 188.289 42.92C188.049 42.92 187.889 42.79 187.809 42.53C187.669 42.17 187.489 41.74 187.269 41.24C187.049 40.74 186.719 40.3 186.279 39.92C185.839 39.54 185.199 39.35 184.359 39.35H182.589C182.329 39.35 182.199 39.5 182.199 39.8V48.41C182.199 48.79 182.409 48.98 182.829 48.98H187.299C188.259 48.98 189.069 48.81 189.729 48.47C190.409 48.13 190.959 47.7 191.379 47.18C191.799 46.66 192.129 46.14 192.369 45.62C192.629 45.1 192.819 44.66 192.939 44.3C192.999 44.14 193.069 44.05 193.149 44.03C193.229 43.99 193.339 43.98 193.479 44C193.639 44.02 193.729 44.07 193.749 44.15C193.789 44.23 193.809 44.32 193.809 44.42C193.809 44.5 193.799 44.75 193.779 45.17C193.779 45.59 193.779 46.07 193.779 46.61C193.779 47.13 193.769 47.63 193.749 48.11C193.749 48.57 193.749 48.89 193.749 49.07C193.729 49.33 193.639 49.55 193.479 49.73C193.339 49.91 193.129 50 192.849 50C192.709 50 192.379 49.99 191.859 49.97C191.359 49.95 190.549 49.94 189.429 49.94C188.309 49.92 186.759 49.91 184.779 49.91C182.319 49.91 180.289 49.93 178.689 49.97C177.109 49.99 176.219 50 176.019 50Z" fill="#3E0014"/>
<path d="M165.117 50.3601C164.237 50.3601 163.387 50.2501 162.567 50.0301C161.747 49.8101 161.037 49.5701 160.437 49.3101C159.837 49.0301 159.407 48.8401 159.147 48.7401C158.947 48.6401 158.737 48.6001 158.517 48.6201C158.297 48.6401 158.107 48.7401 157.947 48.9201C157.867 48.9801 157.797 49.0401 157.737 49.1001C157.677 49.1401 157.467 49.3301 157.107 49.6701C156.907 49.8501 156.717 49.9001 156.537 49.8201C156.357 49.7401 156.267 49.5801 156.267 49.3401V43.6101C156.267 43.3701 156.397 43.2301 156.657 43.1901C156.937 43.1501 157.107 43.2301 157.167 43.4301C157.527 44.5301 158.107 45.5101 158.907 46.3701C159.707 47.2301 160.657 47.9001 161.757 48.3801C162.857 48.8601 164.027 49.1001 165.267 49.1001C166.307 49.1001 167.167 48.8901 167.847 48.4701C168.527 48.0301 169.037 47.4901 169.377 46.8501C169.737 46.1901 169.917 45.5401 169.917 44.9001C169.917 44.0001 169.677 43.2801 169.197 42.7401C168.717 42.2001 168.077 41.7701 167.277 41.4501C166.477 41.1101 165.597 40.8301 164.637 40.6101C163.697 40.3701 162.747 40.1201 161.787 39.8601C160.847 39.5801 159.977 39.2201 159.177 38.7801C158.377 38.3201 157.737 37.7201 157.257 36.9801C156.777 36.2401 156.537 35.2701 156.537 34.0701C156.537 32.7501 156.857 31.6301 157.497 30.7101C158.137 29.7901 158.997 29.0901 160.077 28.6101C161.157 28.1101 162.367 27.8601 163.707 27.8601C164.347 27.8601 165.007 27.9401 165.687 28.1001C166.387 28.2601 167.017 28.4501 167.577 28.6701C168.157 28.8701 168.597 29.0601 168.897 29.2401C169.377 29.5001 169.757 29.5001 170.037 29.2401C170.197 29.0801 170.337 28.9601 170.457 28.8801C170.577 28.8001 170.647 28.7501 170.667 28.7301C170.827 28.5701 170.997 28.5401 171.177 28.6401C171.357 28.7201 171.447 28.8901 171.447 29.1501V34.1901C171.447 34.4501 171.317 34.6101 171.057 34.6701C170.817 34.7101 170.647 34.6101 170.547 34.3701C170.127 33.3901 169.577 32.4901 168.897 31.6701C168.237 30.8301 167.467 30.1601 166.587 29.6601C165.727 29.1601 164.767 28.9101 163.707 28.9101C162.847 28.9101 162.077 29.0901 161.397 29.4501C160.717 29.8101 160.177 30.2901 159.777 30.8901C159.397 31.4901 159.207 32.1701 159.207 32.9301C159.207 33.8101 159.447 34.5101 159.927 35.0301C160.427 35.5301 161.077 35.9301 161.877 36.2301C162.697 36.5101 163.587 36.7601 164.547 36.9801C165.527 37.2001 166.497 37.4501 167.457 37.7301C168.437 37.9901 169.327 38.3501 170.127 38.8101C170.947 39.2701 171.597 39.9001 172.077 40.7001C172.577 41.4801 172.827 42.5001 172.827 43.7601C172.827 45.1401 172.477 46.3301 171.777 47.3301C171.077 48.3101 170.137 49.0601 168.957 49.5801C167.797 50.1001 166.517 50.3601 165.117 50.3601Z" fill="#3E0014"/>
<path d="M132.609 50.0001C132.329 50.0001 132.189 49.8601 132.189 49.5801C132.189 49.2601 132.329 49.1001 132.609 49.1001C133.269 49.1001 133.799 48.9701 134.199 48.7101C134.599 48.4301 134.959 47.9501 135.279 47.2701C135.419 46.9701 135.639 46.4401 135.939 45.6801C136.259 44.9201 136.619 44.0101 137.019 42.9501C137.439 41.8901 137.869 40.7601 138.309 39.5601C138.769 38.3401 139.219 37.1401 139.659 35.9601C140.119 34.7601 140.539 33.6401 140.919 32.6001C141.319 31.5601 141.649 30.6801 141.909 29.9601C142.189 29.2201 142.369 28.7301 142.449 28.4901C142.549 28.2301 142.669 28.0601 142.809 27.9801C142.949 27.9001 143.179 27.8601 143.499 27.8601C143.819 27.8601 144.049 27.9101 144.189 28.0101C144.349 28.0901 144.469 28.2401 144.549 28.4601C144.689 28.8201 144.919 29.4401 145.239 30.3201C145.579 31.2001 145.969 32.2401 146.409 33.4401C146.869 34.6201 147.339 35.8601 147.819 37.1601C148.319 38.4601 148.799 39.7401 149.259 41.0001C149.719 42.2401 150.139 43.3501 150.519 44.3301C150.899 45.3101 151.189 46.0701 151.389 46.6101C152.049 48.2701 152.849 49.1001 153.789 49.1001C154.049 49.1001 154.179 49.2601 154.179 49.5801C154.179 49.8601 154.049 50.0001 153.789 50.0001C153.589 50.0001 153.189 49.9901 152.589 49.9701C152.009 49.9501 151.199 49.9401 150.159 49.9401C149.299 49.9401 148.509 49.9501 147.789 49.9701C147.069 49.9901 146.599 50.0001 146.379 50.0001C146.119 50.0001 145.989 49.8601 145.989 49.5801C145.989 49.2601 146.119 49.1001 146.379 49.1001C146.999 49.1001 147.429 49.0101 147.669 48.8301C147.929 48.6501 148.069 48.4201 148.089 48.1401C148.109 47.8601 148.059 47.5801 147.939 47.3001C147.919 47.2001 147.769 46.7401 147.489 45.9201C147.229 45.0801 146.899 44.1101 146.499 43.0101C146.419 42.8101 146.339 42.6901 146.259 42.6501C146.199 42.6101 146.099 42.5901 145.959 42.5901H138.519C138.319 42.5901 138.199 42.6801 138.159 42.8601C138.039 43.2801 137.889 43.7801 137.709 44.3601C137.529 44.9201 137.369 45.4601 137.229 45.9801C137.089 46.5001 137.019 46.9301 137.019 47.2701C137.019 47.9501 137.199 48.4301 137.559 48.7101C137.919 48.9701 138.409 49.1001 139.029 49.1001C139.289 49.1001 139.419 49.2601 139.419 49.5801C139.419 49.8601 139.289 50.0001 139.029 50.0001C138.829 50.0001 138.459 49.9901 137.919 49.9701C137.399 49.9501 136.699 49.9401 135.819 49.9401C135.039 49.9401 134.359 49.9501 133.779 49.9701C133.199 49.9901 132.809 50.0001 132.609 50.0001ZM138.999 41.5701H145.539C145.639 41.5701 145.729 41.5501 145.809 41.5101C145.889 41.4701 145.899 41.3601 145.839 41.1801C145.599 40.4801 145.319 39.6601 144.999 38.7201C144.679 37.7801 144.349 36.8401 144.009 35.9001C143.669 34.9601 143.369 34.1401 143.109 33.4401C142.869 32.7201 142.709 32.2501 142.629 32.0301C142.569 31.8901 142.499 31.8201 142.419 31.8201C142.339 31.8201 142.279 31.8701 142.239 31.9701C142.179 32.1101 142.039 32.4601 141.819 33.0201C141.619 33.5601 141.369 34.2201 141.069 35.0001C140.769 35.7601 140.459 36.5501 140.139 37.3701C139.819 38.1701 139.529 38.9101 139.269 39.5901C139.029 40.2701 138.859 40.7801 138.759 41.1201C138.679 41.4201 138.759 41.5701 138.999 41.5701Z" fill="#3E0014"/>
<path d="M115.196 50.36C114.996 50.36 114.846 50.31 114.746 50.21C114.646 50.11 114.566 49.94 114.506 49.7C114.466 49.54 114.346 49.13 114.146 48.47C113.966 47.79 113.736 46.95 113.456 45.95C113.196 44.93 112.896 43.83 112.556 42.65C112.236 41.47 111.906 40.28 111.566 39.08C111.226 37.88 110.906 36.75 110.606 35.69C110.326 34.61 110.076 33.69 109.856 32.93C109.636 32.15 109.486 31.6 109.406 31.28C109.166 30.4 108.836 29.83 108.416 29.57C108.016 29.29 107.566 29.15 107.066 29.15C106.806 29.15 106.676 29 106.676 28.7C106.676 28.38 106.806 28.22 107.066 28.22C107.286 28.22 107.656 28.24 108.176 28.28C108.696 28.3 109.336 28.31 110.096 28.31C110.976 28.31 111.806 28.3 112.586 28.28C113.366 28.24 113.856 28.22 114.056 28.22C114.216 28.22 114.326 28.27 114.386 28.37C114.466 28.47 114.506 28.58 114.506 28.7C114.506 29 114.356 29.15 114.056 29.15C113.576 29.15 113.206 29.33 112.946 29.69C112.706 30.05 112.686 30.64 112.886 31.46C112.946 31.74 113.056 32.22 113.216 32.9C113.396 33.58 113.596 34.38 113.816 35.3C114.036 36.2 114.266 37.14 114.506 38.12C114.766 39.08 115.006 40 115.226 40.88C115.446 41.76 115.636 42.51 115.796 43.13C115.976 43.73 116.096 44.12 116.156 44.3C116.216 44.44 116.276 44.52 116.336 44.54C116.416 44.54 116.466 44.48 116.486 44.36C116.526 44.2 116.616 43.84 116.756 43.28C116.916 42.72 117.096 42.04 117.296 41.24C117.516 40.42 117.736 39.56 117.956 38.66C118.196 37.76 118.426 36.88 118.646 36.02C118.866 35.14 119.066 34.37 119.246 33.71C119.426 33.03 119.556 32.53 119.636 32.21C119.856 31.31 119.746 30.58 119.306 30.02C118.886 29.44 118.286 29.15 117.506 29.15C117.226 29.15 117.086 29 117.086 28.7C117.086 28.38 117.226 28.22 117.506 28.22C117.646 28.22 117.906 28.23 118.286 28.25C118.686 28.27 119.146 28.29 119.666 28.31C120.206 28.31 120.736 28.31 121.256 28.31C122.136 28.31 122.956 28.3 123.716 28.28C124.496 28.24 124.956 28.22 125.096 28.22C125.376 28.22 125.516 28.38 125.516 28.7C125.516 29 125.376 29.15 125.096 29.15C124.296 29.15 123.756 29.31 123.476 29.63C123.216 29.95 123.186 30.55 123.386 31.43C123.446 31.67 123.556 32.15 123.716 32.87C123.896 33.57 124.106 34.39 124.346 35.33C124.586 36.27 124.836 37.25 125.096 38.27C125.356 39.29 125.596 40.24 125.816 41.12C126.056 42 126.256 42.73 126.416 43.31C126.576 43.89 126.666 44.22 126.686 44.3C126.706 44.42 126.756 44.49 126.836 44.51C126.916 44.53 126.966 44.48 126.986 44.36C127.026 44.16 127.116 43.77 127.256 43.19C127.396 42.59 127.566 41.89 127.766 41.09C127.966 40.27 128.176 39.41 128.396 38.51C128.636 37.61 128.856 36.74 129.056 35.9C129.276 35.04 129.466 34.29 129.626 33.65C129.806 33.01 129.926 32.54 129.986 32.24C130.286 31 130.266 30.18 129.926 29.78C129.586 29.36 129.086 29.15 128.426 29.15C128.126 29.15 127.976 29 127.976 28.7C127.976 28.38 128.126 28.22 128.426 28.22C128.626 28.22 129.016 28.24 129.596 28.28C130.176 28.3 130.746 28.31 131.306 28.31C132.306 28.31 133.026 28.3 133.466 28.28C133.906 28.24 134.226 28.22 134.426 28.22C134.566 28.22 134.666 28.27 134.726 28.37C134.806 28.47 134.846 28.58 134.846 28.7C134.846 29 134.706 29.15 134.426 29.15C133.566 29.15 132.896 29.38 132.416 29.84C131.956 30.28 131.586 30.96 131.306 31.88C131.246 32.08 131.116 32.54 130.916 33.26C130.716 33.96 130.476 34.83 130.196 35.87C129.916 36.89 129.616 38 129.296 39.2C128.976 40.38 128.656 41.56 128.336 42.74C128.036 43.92 127.746 45.01 127.466 46.01C127.206 47.01 126.986 47.84 126.806 48.5C126.646 49.16 126.546 49.56 126.506 49.7C126.446 49.9 126.366 50.06 126.266 50.18C126.166 50.3 125.976 50.36 125.696 50.36C125.496 50.36 125.356 50.31 125.276 50.21C125.196 50.11 125.106 49.93 125.006 49.67C124.966 49.53 124.866 49.17 124.706 48.59C124.546 47.99 124.336 47.25 124.076 46.37C123.836 45.47 123.576 44.5 123.296 43.46C123.016 42.42 122.726 41.37 122.426 40.31C122.146 39.25 121.876 38.26 121.616 37.34C121.356 36.42 121.126 35.64 120.926 35C120.746 34.34 120.626 33.91 120.566 33.71C120.546 33.67 120.506 33.65 120.446 33.65C120.386 33.65 120.336 33.69 120.296 33.77C120.276 33.87 120.186 34.22 120.026 34.82C119.866 35.4 119.656 36.15 119.396 37.07C119.156 37.97 118.886 38.96 118.586 40.04C118.306 41.12 118.016 42.2 117.716 43.28C117.436 44.36 117.166 45.36 116.906 46.28C116.666 47.2 116.456 47.98 116.276 48.62C116.116 49.24 116.016 49.62 115.976 49.76C115.916 49.94 115.836 50.08 115.736 50.18C115.656 50.3 115.476 50.36 115.196 50.36Z" fill="#3E0014"/>
<path d="M86.96 50.0001C86.68 50.0001 86.54 49.8601 86.54 49.5801C86.54 49.2601 86.68 49.1001 86.96 49.1001C87.62 49.1001 88.15 48.9701 88.55 48.7101C88.95 48.4301 89.31 47.9501 89.63 47.2701C89.77 46.9701 89.99 46.4401 90.29 45.6801C90.61 44.9201 90.97 44.0101 91.37 42.9501C91.79 41.8901 92.22 40.7601 92.66 39.5601C93.12 38.3401 93.57 37.1401 94.01 35.9601C94.47 34.7601 94.89 33.6401 95.27 32.6001C95.67 31.5601 96 30.6801 96.26 29.9601C96.54 29.2201 96.72 28.7301 96.8 28.4901C96.9 28.2301 97.02 28.0601 97.16 27.9801C97.3 27.9001 97.53 27.8601 97.85 27.8601C98.17 27.8601 98.4 27.9101 98.54 28.0101C98.7 28.0901 98.82 28.2401 98.9 28.4601C99.04 28.8201 99.27 29.4401 99.59 30.3201C99.93 31.2001 100.32 32.2401 100.76 33.4401C101.22 34.6201 101.69 35.8601 102.17 37.1601C102.67 38.4601 103.15 39.7401 103.61 41.0001C104.07 42.2401 104.49 43.3501 104.87 44.3301C105.25 45.3101 105.54 46.0701 105.74 46.6101C106.4 48.2701 107.2 49.1001 108.14 49.1001C108.4 49.1001 108.53 49.2601 108.53 49.5801C108.53 49.8601 108.4 50.0001 108.14 50.0001C107.94 50.0001 107.54 49.9901 106.94 49.9701C106.36 49.9501 105.55 49.9401 104.51 49.9401C103.65 49.9401 102.86 49.9501 102.14 49.9701C101.42 49.9901 100.95 50.0001 100.73 50.0001C100.47 50.0001 100.34 49.8601 100.34 49.5801C100.34 49.2601 100.47 49.1001 100.73 49.1001C101.35 49.1001 101.78 49.0101 102.02 48.8301C102.28 48.6501 102.42 48.4201 102.44 48.1401C102.46 47.8601 102.41 47.5801 102.29 47.3001C102.27 47.2001 102.12 46.7401 101.84 45.9201C101.58 45.0801 101.25 44.1101 100.85 43.0101C100.77 42.8101 100.69 42.6901 100.61 42.6501C100.55 42.6101 100.45 42.5901 100.31 42.5901H92.87C92.67 42.5901 92.55 42.6801 92.51 42.8601C92.39 43.2801 92.24 43.7801 92.06 44.3601C91.88 44.9201 91.72 45.4601 91.58 45.9801C91.44 46.5001 91.37 46.9301 91.37 47.2701C91.37 47.9501 91.55 48.4301 91.91 48.7101C92.27 48.9701 92.76 49.1001 93.38 49.1001C93.64 49.1001 93.77 49.2601 93.77 49.5801C93.77 49.8601 93.64 50.0001 93.38 50.0001C93.18 50.0001 92.81 49.9901 92.27 49.9701C91.75 49.9501 91.05 49.9401 90.17 49.9401C89.39 49.9401 88.71 49.9501 88.13 49.9701C87.55 49.9901 87.16 50.0001 86.96 50.0001ZM93.35 41.5701H99.89C99.99 41.5701 100.08 41.5501 100.16 41.5101C100.24 41.4701 100.25 41.3601 100.19 41.1801C99.95 40.4801 99.67 39.6601 99.35 38.7201C99.03 37.7801 98.7 36.8401 98.36 35.9001C98.02 34.9601 97.72 34.1401 97.46 33.4401C97.22 32.7201 97.06 32.2501 96.98 32.0301C96.92 31.8901 96.85 31.8201 96.77 31.8201C96.69 31.8201 96.63 31.8701 96.59 31.9701C96.53 32.1101 96.39 32.4601 96.17 33.0201C95.97 33.5601 95.72 34.2201 95.42 35.0001C95.12 35.7601 94.81 36.5501 94.49 37.3701C94.17 38.1701 93.88 38.9101 93.62 39.5901C93.38 40.2701 93.21 40.7801 93.11 41.1201C93.03 41.4201 93.11 41.5701 93.35 41.5701Z" fill="#3E0014"/>
<path d="M194.733 73.9999C194.583 73.9999 194.509 73.9252 194.509 73.7759C194.509 73.6052 194.583 73.5199 194.733 73.5199C195.085 73.5199 195.367 73.4506 195.581 73.3119C195.794 73.1626 195.986 72.9066 196.157 72.5439C196.231 72.3839 196.349 72.1012 196.509 71.6959C196.679 71.2906 196.871 70.8052 197.085 70.2399C197.309 69.6746 197.538 69.0719 197.773 68.4319C198.018 67.7812 198.258 67.1412 198.493 66.5119C198.738 65.8719 198.962 65.2746 199.165 64.7199C199.378 64.1652 199.554 63.6959 199.693 63.3119C199.842 62.9172 199.938 62.6559 199.981 62.5279C200.034 62.3892 200.098 62.2986 200.173 62.2559C200.247 62.2132 200.37 62.1919 200.541 62.1919C200.711 62.1919 200.834 62.2186 200.909 62.2719C200.994 62.3146 201.058 62.3946 201.101 62.5119C201.175 62.7039 201.298 63.0346 201.469 63.5039C201.65 63.9732 201.858 64.5279 202.093 65.1679C202.338 65.7972 202.589 66.4586 202.845 67.1519C203.111 67.8452 203.367 68.5279 203.613 69.1999C203.858 69.8612 204.082 70.4532 204.285 70.9759C204.487 71.4986 204.642 71.9039 204.749 72.1919C205.101 73.0772 205.527 73.5199 206.029 73.5199C206.167 73.5199 206.237 73.6052 206.237 73.7759C206.237 73.9252 206.167 73.9999 206.029 73.9999C205.922 73.9999 205.709 73.9946 205.389 73.9839C205.079 73.9732 204.647 73.9679 204.093 73.9679C203.634 73.9679 203.213 73.9732 202.829 73.9839C202.445 73.9946 202.194 73.9999 202.077 73.9999C201.938 73.9999 201.869 73.9252 201.869 73.7759C201.869 73.6052 201.938 73.5199 202.077 73.5199C202.407 73.5199 202.637 73.4719 202.765 73.3759C202.903 73.2799 202.978 73.1572 202.989 73.0079C202.999 72.8586 202.973 72.7092 202.909 72.5599C202.898 72.5066 202.818 72.2612 202.669 71.8239C202.53 71.3759 202.354 70.8586 202.141 70.2719C202.098 70.1652 202.055 70.1012 202.013 70.0799C201.981 70.0586 201.927 70.0479 201.853 70.0479H197.885C197.778 70.0479 197.714 70.0959 197.693 70.1919C197.629 70.4159 197.549 70.6826 197.453 70.9919C197.357 71.2906 197.271 71.5786 197.197 71.8559C197.122 72.1332 197.085 72.3626 197.085 72.5439C197.085 72.9066 197.181 73.1626 197.373 73.3119C197.565 73.4506 197.826 73.5199 198.157 73.5199C198.295 73.5199 198.365 73.6052 198.365 73.7759C198.365 73.9252 198.295 73.9999 198.157 73.9999C198.05 73.9999 197.853 73.9946 197.565 73.9839C197.287 73.9732 196.914 73.9679 196.445 73.9679C196.029 73.9679 195.666 73.9732 195.357 73.9839C195.047 73.9946 194.839 73.9999 194.733 73.9999ZM198.141 69.5039H201.629C201.682 69.5039 201.73 69.4932 201.773 69.4719C201.815 69.4506 201.821 69.3919 201.789 69.2959C201.661 68.9226 201.511 68.4852 201.341 67.9839C201.17 67.4826 200.994 66.9812 200.813 66.4799C200.631 65.9786 200.471 65.5412 200.333 65.1679C200.205 64.7839 200.119 64.5332 200.077 64.4159C200.045 64.3412 200.007 64.3039 199.965 64.3039C199.922 64.3039 199.89 64.3306 199.869 64.3839C199.837 64.4586 199.762 64.6452 199.645 64.9439C199.538 65.2319 199.405 65.5839 199.245 65.9999C199.085 66.4052 198.919 66.8266 198.749 67.2639C198.578 67.6906 198.423 68.0852 198.285 68.4479C198.157 68.8106 198.066 69.0826 198.013 69.2639C197.97 69.4239 198.013 69.5039 198.141 69.5039Z" fill="#3E0014"/>
<path d="M185.606 74.192C185.499 74.192 185.419 74.1654 185.366 74.112C185.312 74.0587 185.27 73.968 185.238 73.84C185.216 73.7547 185.152 73.536 185.046 73.184C184.95 72.8214 184.827 72.3734 184.678 71.84C184.539 71.296 184.379 70.7094 184.198 70.08C184.027 69.4507 183.851 68.816 183.67 68.176C183.488 67.536 183.318 66.9334 183.158 66.368C183.008 65.792 182.875 65.3014 182.758 64.896C182.64 64.48 182.56 64.1867 182.518 64.016C182.39 63.5467 182.214 63.2427 181.99 63.104C181.776 62.9547 181.536 62.88 181.27 62.88C181.131 62.88 181.062 62.8 181.062 62.64C181.062 62.4694 181.131 62.384 181.27 62.384C181.387 62.384 181.584 62.3947 181.862 62.416C182.139 62.4267 182.48 62.432 182.886 62.432C183.355 62.432 183.798 62.4267 184.214 62.416C184.63 62.3947 184.891 62.384 184.998 62.384C185.083 62.384 185.142 62.4107 185.174 62.464C185.216 62.5174 185.238 62.576 185.238 62.64C185.238 62.8 185.158 62.88 184.998 62.88C184.742 62.88 184.544 62.976 184.406 63.168C184.278 63.36 184.267 63.6747 184.374 64.112C184.406 64.2614 184.464 64.5174 184.55 64.88C184.646 65.2427 184.752 65.6694 184.87 66.16C184.987 66.64 185.11 67.1414 185.238 67.664C185.376 68.176 185.504 68.6667 185.622 69.136C185.739 69.6054 185.84 70.0054 185.926 70.336C186.022 70.656 186.086 70.864 186.118 70.96C186.15 71.0347 186.182 71.0774 186.214 71.088C186.256 71.088 186.283 71.056 186.294 70.992C186.315 70.9067 186.363 70.7147 186.438 70.416C186.523 70.1174 186.619 69.7547 186.726 69.328C186.843 68.8907 186.96 68.432 187.078 67.952C187.206 67.472 187.328 67.0027 187.446 66.544C187.563 66.0747 187.67 65.664 187.766 65.312C187.862 64.9494 187.931 64.6827 187.974 64.512C188.091 64.032 188.032 63.6427 187.798 63.344C187.574 63.0347 187.254 62.88 186.838 62.88C186.688 62.88 186.614 62.8 186.614 62.64C186.614 62.4694 186.688 62.384 186.838 62.384C186.912 62.384 187.051 62.3894 187.254 62.4C187.467 62.4107 187.712 62.4214 187.99 62.432C188.278 62.432 188.56 62.432 188.838 62.432C189.307 62.432 189.744 62.4267 190.15 62.416C190.566 62.3947 190.811 62.384 190.886 62.384C191.035 62.384 191.11 62.4694 191.11 62.64C191.11 62.8 191.035 62.88 190.886 62.88C190.459 62.88 190.171 62.9654 190.022 63.136C189.883 63.3067 189.867 63.6267 189.974 64.096C190.006 64.224 190.064 64.48 190.15 64.864C190.246 65.2374 190.358 65.6747 190.486 66.176C190.614 66.6774 190.747 67.2 190.886 67.744C191.024 68.288 191.152 68.7947 191.27 69.264C191.398 69.7334 191.504 70.1227 191.59 70.432C191.675 70.7414 191.723 70.9174 191.734 70.96C191.744 71.024 191.771 71.0614 191.814 71.072C191.856 71.0827 191.883 71.056 191.894 70.992C191.915 70.8854 191.963 70.6774 192.038 70.368C192.112 70.048 192.203 69.6747 192.31 69.248C192.416 68.8107 192.528 68.352 192.646 67.872C192.774 67.392 192.891 66.928 192.998 66.48C193.115 66.0214 193.216 65.6214 193.302 65.28C193.398 64.9387 193.462 64.688 193.494 64.528C193.654 63.8667 193.643 63.4294 193.462 63.216C193.28 62.992 193.014 62.88 192.662 62.88C192.502 62.88 192.422 62.8 192.422 62.64C192.422 62.4694 192.502 62.384 192.662 62.384C192.768 62.384 192.976 62.3947 193.286 62.416C193.595 62.4267 193.899 62.432 194.198 62.432C194.731 62.432 195.115 62.4267 195.35 62.416C195.584 62.3947 195.755 62.384 195.862 62.384C195.936 62.384 195.99 62.4107 196.022 62.464C196.064 62.5174 196.086 62.576 196.086 62.64C196.086 62.8 196.011 62.88 195.862 62.88C195.403 62.88 195.046 63.0027 194.79 63.248C194.544 63.4827 194.347 63.8454 194.198 64.336C194.166 64.4427 194.096 64.688 193.99 65.072C193.883 65.4454 193.755 65.9094 193.606 66.464C193.456 67.008 193.296 67.6 193.126 68.24C192.955 68.8694 192.784 69.4987 192.614 70.128C192.454 70.7574 192.299 71.3387 192.15 71.872C192.011 72.4054 191.894 72.848 191.798 73.2C191.712 73.552 191.659 73.7654 191.638 73.84C191.606 73.9467 191.563 74.032 191.51 74.096C191.456 74.16 191.355 74.192 191.206 74.192C191.099 74.192 191.024 74.1654 190.982 74.112C190.939 74.0587 190.891 73.9627 190.838 73.824C190.816 73.7494 190.763 73.5574 190.678 73.248C190.592 72.928 190.48 72.5334 190.342 72.064C190.214 71.584 190.075 71.0667 189.926 70.512C189.776 69.9574 189.622 69.3974 189.462 68.832C189.312 68.2667 189.168 67.7387 189.03 67.248C188.891 66.7574 188.768 66.3414 188.662 66C188.566 65.648 188.502 65.4187 188.47 65.312C188.459 65.2907 188.438 65.28 188.406 65.28C188.374 65.28 188.347 65.3014 188.326 65.344C188.315 65.3974 188.267 65.584 188.182 65.904C188.096 66.2134 187.984 66.6134 187.846 67.104C187.718 67.584 187.574 68.112 187.414 68.688C187.264 69.264 187.11 69.84 186.95 70.416C186.8 70.992 186.656 71.5254 186.518 72.016C186.39 72.5067 186.278 72.9227 186.182 73.264C186.096 73.5947 186.043 73.7974 186.022 73.872C185.99 73.968 185.947 74.0427 185.894 74.096C185.851 74.16 185.755 74.192 185.606 74.192Z" fill="#3E0014"/>
<path d="M169.746 73.9999C169.597 73.9999 169.522 73.9252 169.522 73.7759C169.522 73.6052 169.597 73.5199 169.746 73.5199C170.098 73.5199 170.381 73.4506 170.594 73.3119C170.808 73.1626 171 72.9066 171.17 72.5439C171.245 72.3839 171.362 72.1012 171.522 71.6959C171.693 71.2906 171.885 70.8052 172.098 70.2399C172.322 69.6746 172.552 69.0719 172.786 68.4319C173.032 67.7812 173.272 67.1412 173.506 66.5119C173.752 65.8719 173.976 65.2746 174.178 64.7199C174.392 64.1652 174.568 63.6959 174.706 63.3119C174.856 62.9172 174.952 62.6559 174.994 62.5279C175.048 62.3892 175.112 62.2986 175.186 62.2559C175.261 62.2132 175.384 62.1919 175.554 62.1919C175.725 62.1919 175.848 62.2186 175.922 62.2719C176.008 62.3146 176.072 62.3946 176.114 62.5119C176.189 62.7039 176.312 63.0346 176.482 63.5039C176.664 63.9732 176.872 64.5279 177.106 65.1679C177.352 65.7972 177.602 66.4586 177.858 67.1519C178.125 67.8452 178.381 68.5279 178.626 69.1999C178.872 69.8612 179.096 70.4532 179.298 70.9759C179.501 71.4986 179.656 71.9039 179.762 72.1919C180.114 73.0772 180.541 73.5199 181.042 73.5199C181.181 73.5199 181.25 73.6052 181.25 73.7759C181.25 73.9252 181.181 73.9999 181.042 73.9999C180.936 73.9999 180.722 73.9946 180.402 73.9839C180.093 73.9732 179.661 73.9679 179.106 73.9679C178.648 73.9679 178.226 73.9732 177.842 73.9839C177.458 73.9946 177.208 73.9999 177.09 73.9999C176.952 73.9999 176.882 73.9252 176.882 73.7759C176.882 73.6052 176.952 73.5199 177.09 73.5199C177.421 73.5199 177.65 73.4719 177.778 73.3759C177.917 73.2799 177.992 73.1572 178.002 73.0079C178.013 72.8586 177.986 72.7092 177.922 72.5599C177.912 72.5066 177.832 72.2612 177.682 71.8239C177.544 71.3759 177.368 70.8586 177.154 70.2719C177.112 70.1652 177.069 70.1012 177.026 70.0799C176.994 70.0586 176.941 70.0479 176.866 70.0479H172.898C172.792 70.0479 172.728 70.0959 172.706 70.1919C172.642 70.4159 172.562 70.6826 172.466 70.9919C172.37 71.2906 172.285 71.5786 172.21 71.8559C172.136 72.1332 172.098 72.3626 172.098 72.5439C172.098 72.9066 172.194 73.1626 172.386 73.3119C172.578 73.4506 172.84 73.5199 173.17 73.5199C173.309 73.5199 173.378 73.6052 173.378 73.7759C173.378 73.9252 173.309 73.9999 173.17 73.9999C173.064 73.9999 172.866 73.9946 172.578 73.9839C172.301 73.9732 171.928 73.9679 171.458 73.9679C171.042 73.9679 170.68 73.9732 170.37 73.9839C170.061 73.9946 169.853 73.9999 169.746 73.9999ZM173.154 69.5039H176.642C176.696 69.5039 176.744 69.4932 176.786 69.4719C176.829 69.4506 176.834 69.3919 176.802 69.2959C176.674 68.9226 176.525 68.4852 176.354 67.9839C176.184 67.4826 176.008 66.9812 175.826 66.4799C175.645 65.9786 175.485 65.5412 175.346 65.1679C175.218 64.7839 175.133 64.5332 175.09 64.4159C175.058 64.3412 175.021 64.3039 174.978 64.3039C174.936 64.3039 174.904 64.3306 174.882 64.3839C174.85 64.4586 174.776 64.6452 174.658 64.9439C174.552 65.2319 174.418 65.5839 174.258 65.9999C174.098 66.4052 173.933 66.8266 173.762 67.2639C173.592 67.6906 173.437 68.0852 173.298 68.4479C173.17 68.8106 173.08 69.0826 173.026 69.2639C172.984 69.4239 173.026 69.5039 173.154 69.5039Z" fill="#3E0014"/>
<path d="M166.592 74.032C166.57 74.032 166.533 74.032 166.48 74.032C166.277 74.0427 166.122 74.0374 166.016 74.016C165.92 73.9947 165.829 73.9094 165.744 73.76C165.616 73.536 165.418 73.2054 165.152 72.768C164.885 72.32 164.57 71.808 164.208 71.232C163.845 70.6454 163.461 70.0374 163.056 69.408C162.65 68.768 162.25 68.1387 161.856 67.52C161.472 66.9014 161.109 66.3307 160.768 65.808C160.437 65.2854 160.16 64.8534 159.936 64.512C159.712 64.1707 159.573 63.9574 159.52 63.872C159.509 63.84 159.482 63.8294 159.44 63.84C159.397 63.84 159.376 63.8667 159.376 63.92V71.36C159.376 72.1707 159.525 72.736 159.824 73.056C160.133 73.3654 160.49 73.52 160.896 73.52C161.045 73.52 161.12 73.6 161.12 73.76C161.12 73.92 161.045 74 160.896 74C160.789 74 160.581 73.9947 160.272 73.984C159.973 73.9627 159.584 73.952 159.104 73.952C158.549 73.952 158.144 73.9627 157.888 73.984C157.632 73.9947 157.445 74 157.328 74C157.189 74 157.12 73.92 157.12 73.76C157.12 73.6 157.189 73.52 157.328 73.52C157.754 73.52 158.101 73.36 158.368 73.04C158.634 72.72 158.768 72.1654 158.768 71.376V63.952C158.768 63.5467 158.672 63.264 158.48 63.104C158.298 62.9334 158.005 62.848 157.6 62.848C157.461 62.848 157.392 62.768 157.392 62.608C157.392 62.5547 157.408 62.5067 157.44 62.464C157.472 62.4107 157.525 62.384 157.6 62.384C157.685 62.384 157.946 62.3894 158.384 62.4C158.821 62.4107 159.434 62.416 160.224 62.416C160.405 62.416 160.538 62.4427 160.624 62.496C160.709 62.5494 160.789 62.64 160.864 62.768C160.906 62.8427 161.034 63.0454 161.248 63.376C161.461 63.7067 161.728 64.1227 162.048 64.624C162.368 65.1147 162.714 65.6534 163.088 66.24C163.472 66.816 163.85 67.392 164.224 67.968C164.597 68.544 164.944 69.0774 165.264 69.568C165.584 70.048 165.845 70.448 166.048 70.768C166.261 71.088 166.389 71.28 166.432 71.344C166.485 71.4187 166.538 71.4454 166.592 71.424C166.645 71.392 166.672 71.3387 166.672 71.264V65.024C166.672 64.2454 166.533 63.6907 166.256 63.36C165.978 63.0187 165.605 62.848 165.136 62.848C164.997 62.848 164.928 62.768 164.928 62.608C164.928 62.5547 164.949 62.5067 164.992 62.464C165.034 62.4107 165.082 62.384 165.136 62.384C165.253 62.384 165.461 62.3947 165.76 62.416C166.069 62.4267 166.458 62.432 166.928 62.432C167.386 62.432 167.765 62.4267 168.064 62.416C168.362 62.3947 168.565 62.384 168.672 62.384C168.746 62.384 168.8 62.4107 168.832 62.464C168.874 62.5067 168.896 62.5547 168.896 62.608C168.896 62.768 168.821 62.848 168.672 62.848C168.309 62.848 167.984 63.0134 167.696 63.344C167.418 63.664 167.28 64.2294 167.28 65.04V71.088C167.28 71.6534 167.296 72.1227 167.328 72.496C167.36 72.8587 167.386 73.2267 167.408 73.6C167.418 73.7174 167.37 73.8187 167.264 73.904C167.157 73.9894 166.933 74.032 166.592 74.032Z" fill="#3E0014"/>
<path d="M150.893 74C150.755 74 150.685 73.9147 150.685 73.744C150.685 73.5947 150.755 73.52 150.893 73.52C151.405 73.52 151.795 73.4667 152.061 73.36C152.328 73.2427 152.461 72.9867 152.461 72.592V63.76C152.461 63.3867 152.333 63.1414 152.077 63.024C151.821 62.9067 151.427 62.848 150.893 62.848C150.755 62.848 150.685 62.7734 150.685 62.624C150.685 62.464 150.755 62.384 150.893 62.384C151.075 62.384 151.304 62.3894 151.581 62.4C151.869 62.4107 152.173 62.4214 152.493 62.432C152.813 62.432 153.107 62.432 153.373 62.432C153.64 62.432 153.933 62.432 154.253 62.432C154.584 62.4214 154.893 62.4107 155.181 62.4C155.48 62.3894 155.715 62.384 155.885 62.384C156.045 62.384 156.125 62.464 156.125 62.624C156.125 62.7734 156.045 62.848 155.885 62.848C155.363 62.848 154.968 62.9067 154.701 63.024C154.445 63.1414 154.317 63.3867 154.317 63.76V72.592C154.317 72.9867 154.451 73.2427 154.717 73.36C154.995 73.4667 155.384 73.52 155.885 73.52C156.045 73.52 156.125 73.5947 156.125 73.744C156.125 73.9147 156.045 74 155.885 74C155.715 74 155.48 73.9947 155.181 73.984C154.893 73.9734 154.584 73.9627 154.253 73.952C153.933 73.9414 153.64 73.936 153.373 73.936C153.107 73.936 152.813 73.9414 152.493 73.952C152.173 73.9627 151.869 73.9734 151.581 73.984C151.304 73.9947 151.075 74 150.893 74Z" fill="#3E0014"/>
<path d="M139.312 74C139.173 74 139.104 73.9147 139.104 73.744C139.104 73.5947 139.173 73.52 139.312 73.52C139.739 73.52 140.043 73.456 140.224 73.328C140.416 73.1894 140.512 72.928 140.512 72.544V63.808C140.512 63.4667 140.432 63.2214 140.272 63.072C140.123 62.9227 139.835 62.848 139.408 62.848C139.248 62.848 139.168 62.7734 139.168 62.624C139.168 62.464 139.248 62.384 139.408 62.384C139.461 62.384 139.616 62.3894 139.872 62.4C140.128 62.4 140.405 62.4054 140.704 62.416C141.003 62.416 141.237 62.416 141.408 62.416C141.579 62.416 141.813 62.416 142.112 62.416C142.411 62.4054 142.688 62.4 142.944 62.4C143.2 62.3894 143.355 62.384 143.408 62.384C143.557 62.384 143.632 62.464 143.632 62.624C143.632 62.7734 143.557 62.848 143.408 62.848C142.981 62.848 142.688 62.9227 142.528 63.072C142.379 63.2214 142.304 63.4667 142.304 63.808V67.76C142.304 68.0054 142.389 68.032 142.56 67.84C142.635 67.7654 142.779 67.6214 142.992 67.408C143.216 67.184 143.472 66.928 143.76 66.64C144.059 66.3414 144.352 66.0374 144.64 65.728C144.939 65.4187 145.205 65.136 145.44 64.88C145.675 64.624 145.845 64.432 145.952 64.304C146.08 64.1334 146.181 63.9787 146.256 63.84C146.331 63.7014 146.368 63.568 146.368 63.44C146.368 63.2907 146.293 63.1574 146.144 63.04C145.995 62.912 145.781 62.848 145.504 62.848C145.365 62.848 145.296 62.7734 145.296 62.624C145.296 62.464 145.365 62.384 145.504 62.384C145.621 62.384 145.835 62.3894 146.144 62.4C146.453 62.4107 146.885 62.416 147.44 62.416C147.984 62.416 148.405 62.4107 148.704 62.4C149.013 62.3894 149.221 62.384 149.328 62.384C149.488 62.384 149.568 62.464 149.568 62.624C149.568 62.7734 149.488 62.848 149.328 62.848C149.093 62.848 148.805 62.9387 148.464 63.12C148.133 63.3014 147.787 63.5307 147.424 63.808C147.072 64.0854 146.741 64.3734 146.432 64.672C146.293 64.8107 146.08 65.024 145.792 65.312C145.515 65.6 145.173 65.9467 144.768 66.352C144.619 66.5014 144.603 66.6614 144.72 66.832C144.795 66.9387 144.939 67.168 145.152 67.52C145.365 67.872 145.611 68.288 145.888 68.768C146.176 69.2374 146.469 69.7174 146.768 70.208C147.067 70.688 147.339 71.1307 147.584 71.536C147.829 71.9414 148.016 72.2454 148.144 72.448C148.421 72.8747 148.651 73.1627 148.832 73.312C149.013 73.4507 149.269 73.52 149.6 73.52C149.749 73.52 149.824 73.5947 149.824 73.744C149.824 73.9147 149.749 74 149.6 74C149.493 74 149.28 73.9947 148.96 73.984C148.651 73.9627 148.224 73.952 147.68 73.952C147.221 73.952 146.789 73.9627 146.384 73.984C145.979 73.9947 145.723 74 145.616 74C145.467 74 145.392 73.9147 145.392 73.744C145.392 73.5947 145.467 73.52 145.616 73.52C146.139 73.52 146.4 73.4187 146.4 73.216C146.4 73.1734 146.368 73.0934 146.304 72.976C146.251 72.8587 146.181 72.72 146.096 72.56C146.021 72.432 145.899 72.224 145.728 71.936C145.557 71.6374 145.36 71.3014 145.136 70.928C144.923 70.5547 144.704 70.1867 144.48 69.824C144.267 69.4507 144.075 69.12 143.904 68.832C143.744 68.5334 143.627 68.32 143.552 68.192C143.467 68.0214 143.381 67.936 143.296 67.936C143.211 67.936 143.12 67.9894 143.024 68.096C142.864 68.256 142.757 68.368 142.704 68.432C142.651 68.4854 142.587 68.5547 142.512 68.64C142.427 68.7147 142.368 68.8054 142.336 68.912C142.315 69.008 142.304 69.104 142.304 69.2V72.544C142.304 72.9067 142.389 73.1627 142.56 73.312C142.741 73.4507 143.051 73.52 143.488 73.52C143.563 73.52 143.616 73.5467 143.648 73.6C143.691 73.6427 143.712 73.6907 143.712 73.744C143.712 73.9147 143.637 74 143.488 74C143.424 74 143.253 73.9947 142.976 73.984C142.709 73.9734 142.421 73.968 142.112 73.968C141.813 73.9574 141.579 73.952 141.408 73.952C141.237 73.952 140.997 73.9574 140.688 73.968C140.389 73.968 140.101 73.9734 139.824 73.984C139.557 73.9947 139.387 74 139.312 74Z" fill="#3E0014"/>
<path d="M132.627 74.1919C131.625 74.1919 130.729 73.9466 129.939 73.4559C129.161 72.9546 128.542 72.2559 128.083 71.3599C127.635 70.4532 127.411 69.3972 127.411 68.1919C127.411 67.2852 127.545 66.4639 127.811 65.7279C128.089 64.9919 128.462 64.3626 128.931 63.8399C129.411 63.3066 129.966 62.9012 130.595 62.6239C131.235 62.3359 131.913 62.1919 132.627 62.1919C133.353 62.1919 134.03 62.3359 134.659 62.6239C135.289 62.9012 135.838 63.3066 136.307 63.8399C136.787 64.3626 137.161 64.9919 137.427 65.7279C137.705 66.4639 137.843 67.2852 137.843 68.1919C137.843 69.3972 137.614 70.4532 137.155 71.3599C136.707 72.2559 136.089 72.9546 135.299 73.4559C134.521 73.9466 133.63 74.1919 132.627 74.1919ZM132.627 73.6159C133.203 73.6159 133.726 73.4506 134.195 73.1199C134.675 72.7786 135.054 72.2132 135.331 71.4239C135.619 70.6239 135.763 69.5466 135.763 68.1919C135.763 66.8266 135.619 65.7492 135.331 64.9599C135.054 64.1706 134.675 63.6052 134.195 63.2639C133.726 62.9226 133.203 62.7519 132.627 62.7519C132.051 62.7519 131.529 62.9226 131.059 63.2639C130.59 63.6052 130.211 64.1706 129.923 64.9599C129.646 65.7492 129.507 66.8266 129.507 68.1919C129.507 69.5466 129.646 70.6239 129.923 71.4239C130.211 72.2132 130.59 72.7786 131.059 73.1199C131.529 73.4506 132.051 73.6159 132.627 73.6159Z" fill="#3E0014"/>
<path d="M109.565 74C109.415 74 109.341 73.9093 109.341 73.728C109.341 73.5573 109.415 73.472 109.565 73.472C109.917 73.472 110.151 73.4027 110.269 73.264C110.397 73.1147 110.461 72.8587 110.461 72.496V67.984C110.461 67.7707 110.445 67.6053 110.413 67.488C110.381 67.36 110.295 67.2907 110.157 67.28C110.082 67.2587 109.975 67.2427 109.837 67.232C109.709 67.2107 109.607 67.1947 109.533 67.184C109.394 67.1733 109.325 67.088 109.325 66.928C109.325 66.7573 109.399 66.672 109.549 66.672C109.581 66.672 109.693 66.672 109.885 66.672C110.077 66.6613 110.29 66.656 110.525 66.656C110.77 66.656 110.994 66.656 111.197 66.656C111.399 66.6453 111.533 66.64 111.597 66.64C111.853 66.64 111.981 66.7733 111.981 67.04V67.616C111.981 67.648 111.997 67.6693 112.029 67.68C112.061 67.6907 112.093 67.6747 112.125 67.632C112.317 67.3547 112.567 67.088 112.877 66.832C113.197 66.576 113.607 66.448 114.109 66.448C114.546 66.448 114.967 66.544 115.373 66.736C115.789 66.9173 116.071 67.2587 116.221 67.76C116.242 67.8133 116.269 67.84 116.301 67.84C116.343 67.84 116.375 67.8187 116.397 67.776C116.493 67.5947 116.626 67.4027 116.797 67.2C116.978 66.9867 117.207 66.8107 117.485 66.672C117.773 66.5227 118.114 66.448 118.509 66.448C119.181 66.448 119.714 66.6293 120.109 66.992C120.514 67.3547 120.717 67.9627 120.717 68.816V72.464C120.717 72.8373 120.77 73.0987 120.877 73.248C120.983 73.3973 121.138 73.472 121.341 73.472C121.501 73.472 121.581 73.5573 121.581 73.728C121.581 73.9093 121.501 74 121.341 74C121.223 74 121.026 73.9947 120.749 73.984C120.471 73.9627 120.194 73.952 119.917 73.952C119.65 73.952 119.351 73.9627 119.021 73.984C118.701 73.9947 118.482 74 118.365 74C118.205 74 118.125 73.9093 118.125 73.728C118.125 73.5573 118.205 73.472 118.365 73.472C118.642 73.472 118.834 73.4027 118.941 73.264C119.058 73.1147 119.117 72.8587 119.117 72.496V69.072C119.117 68.464 119.021 68.0427 118.829 67.808C118.637 67.5627 118.343 67.44 117.949 67.44C117.661 67.44 117.399 67.5413 117.165 67.744C116.93 67.936 116.738 68.1973 116.589 68.528C116.45 68.8587 116.381 69.2213 116.381 69.616V72.464C116.381 72.8373 116.439 73.0987 116.557 73.248C116.685 73.3973 116.877 73.472 117.133 73.472C117.293 73.472 117.373 73.5573 117.373 73.728C117.373 73.9093 117.293 74 117.133 74C117.026 74 116.807 73.9947 116.477 73.984C116.146 73.9627 115.842 73.952 115.565 73.952C115.394 73.952 115.197 73.9573 114.973 73.968C114.749 73.968 114.541 73.9733 114.349 73.984C114.157 73.9947 114.018 74 113.933 74C113.783 74 113.709 73.9093 113.709 73.728C113.709 73.5573 113.783 73.472 113.933 73.472C114.274 73.472 114.498 73.4027 114.605 73.264C114.722 73.1147 114.781 72.8587 114.781 72.496V69.072C114.781 68.4853 114.674 68.064 114.461 67.808C114.247 67.5413 113.943 67.408 113.549 67.408C113.111 67.408 112.754 67.5893 112.477 67.952C112.199 68.3147 112.061 68.7627 112.061 69.296V72.464C112.061 72.8373 112.125 73.0987 112.253 73.248C112.381 73.3973 112.589 73.472 112.877 73.472C113.026 73.472 113.101 73.5573 113.101 73.728C113.101 73.9093 113.026 74 112.877 74C112.802 74 112.669 73.9947 112.477 73.984C112.285 73.9733 112.077 73.968 111.853 73.968C111.639 73.9573 111.442 73.952 111.261 73.952C111.079 73.952 110.871 73.9573 110.637 73.968C110.402 73.968 110.183 73.9733 109.981 73.984C109.789 73.9947 109.65 74 109.565 74Z" fill="#3E0014"/>
<path d="M104.601 74.192C103.886 74.192 103.252 74.0213 102.697 73.68C102.153 73.3387 101.726 72.8747 101.417 72.288C101.108 71.7013 100.953 71.04 100.953 70.304C100.953 69.568 101.108 68.912 101.417 68.336C101.726 67.7493 102.153 67.2907 102.697 66.96C103.252 66.6187 103.886 66.448 104.601 66.448C105.326 66.448 105.961 66.6187 106.505 66.96C107.049 67.2907 107.476 67.7493 107.785 68.336C108.094 68.912 108.249 69.568 108.249 70.304C108.249 71.04 108.094 71.7013 107.785 72.288C107.476 72.8747 107.049 73.3387 106.505 73.68C105.961 74.0213 105.326 74.192 104.601 74.192ZM104.601 73.664C105.241 73.664 105.71 73.3547 106.009 72.736C106.308 72.1173 106.457 71.3067 106.457 70.304C106.457 69.312 106.308 68.512 106.009 67.904C105.71 67.2853 105.241 66.976 104.601 66.976C103.961 66.976 103.492 67.2853 103.193 67.904C102.894 68.512 102.745 69.312 102.745 70.304C102.745 71.3067 102.894 72.1173 103.193 72.736C103.492 73.3547 103.961 73.664 104.601 73.664Z" fill="#3E0014"/>
<path d="M93.05 74C92.9006 74 92.826 73.9093 92.826 73.728C92.826 73.5573 92.9006 73.472 93.05 73.472C93.4873 73.472 93.802 73.4027 93.994 73.264C94.1966 73.1147 94.298 72.8587 94.298 72.496V68.016C94.298 67.792 94.2713 67.6213 94.218 67.504C94.1753 67.376 94.0793 67.3067 93.93 67.296C93.8766 67.2853 93.7806 67.2747 93.642 67.264C93.5033 67.2427 93.3646 67.2267 93.226 67.216C93.098 67.2053 93.0073 67.1947 92.954 67.184C92.8046 67.1627 92.73 67.0773 92.73 66.928C92.73 66.768 92.81 66.6773 92.97 66.656C93.002 66.656 93.13 66.656 93.354 66.656C93.5886 66.656 93.85 66.656 94.138 66.656C94.4366 66.6453 94.7086 66.64 94.954 66.64C95.1993 66.64 95.354 66.64 95.418 66.64C95.674 66.64 95.802 66.7733 95.802 67.04V67.92C95.802 67.952 95.818 67.9733 95.85 67.984C95.882 67.9947 95.914 67.9787 95.946 67.936C96.1166 67.7013 96.314 67.472 96.538 67.248C96.7726 67.024 97.034 66.8373 97.322 66.688C97.6206 66.528 97.946 66.448 98.298 66.448C98.874 66.448 99.306 66.5707 99.594 66.816C99.882 67.0613 100.026 67.376 100.026 67.76C100.026 67.9733 99.9406 68.1973 99.77 68.432C99.61 68.656 99.3593 68.768 99.018 68.768C98.6446 68.768 98.3886 68.672 98.25 68.48C98.1113 68.2773 98.042 68.0853 98.042 67.904C98.042 67.6907 98.0153 67.536 97.962 67.44C97.9193 67.344 97.818 67.296 97.658 67.296C97.3806 67.296 97.1033 67.4347 96.826 67.712C96.5486 67.9787 96.3193 68.3253 96.138 68.752C95.9673 69.168 95.882 69.6053 95.882 70.064V72.464C95.882 72.8373 95.9993 73.0987 96.234 73.248C96.4793 73.3973 96.7833 73.472 97.146 73.472C97.3166 73.472 97.402 73.5573 97.402 73.728C97.402 73.9093 97.3166 74 97.146 74C97.0393 74 96.81 73.9947 96.458 73.984C96.106 73.9627 95.6473 73.952 95.082 73.952C94.6126 73.952 94.186 73.9627 93.802 73.984C93.418 73.9947 93.1673 74 93.05 74Z" fill="#3E0014"/>
<path d="M86.8159 74C86.6559 74 86.5759 73.9093 86.5759 73.728C86.5759 73.5573 86.6559 73.472 86.8159 73.472C87.2533 73.472 87.5626 73.4027 87.7439 73.264C87.9359 73.1147 88.0319 72.8587 88.0319 72.496V67.376C88.0319 67.2907 87.9839 67.248 87.8879 67.248H86.7839C86.6239 67.248 86.5439 67.168 86.5439 67.008V66.864C86.5439 66.8107 86.5653 66.7627 86.6079 66.72C86.6506 66.6667 86.7093 66.64 86.7839 66.64H87.8879C87.9839 66.64 88.0319 66.592 88.0319 66.496V65.696C88.0319 64.896 88.1599 64.2453 88.4159 63.744C88.6826 63.232 89.0133 62.8533 89.4079 62.608C89.8133 62.3627 90.2133 62.24 90.6079 62.24C91.0879 62.24 91.4986 62.3573 91.8399 62.592C92.1919 62.816 92.3679 63.136 92.3679 63.552C92.3679 63.84 92.2826 64.0693 92.1119 64.24C91.9413 64.4107 91.7013 64.496 91.3919 64.496C91.1466 64.496 90.9493 64.4267 90.7999 64.288C90.6613 64.1387 90.6079 63.9147 90.6399 63.616C90.6506 63.4347 90.6186 63.2853 90.5439 63.168C90.4693 63.04 90.3466 62.992 90.1759 63.024C90.0159 63.056 89.8826 63.2213 89.7759 63.52C89.6799 63.8187 89.6319 64.3413 89.6319 65.088V66.496C89.6319 66.592 89.6746 66.64 89.7599 66.64H91.4879C91.5519 66.64 91.6053 66.6667 91.6479 66.72C91.7013 66.7627 91.7279 66.8107 91.7279 66.864V67.008C91.7279 67.168 91.6479 67.248 91.4879 67.248H89.7599C89.6746 67.248 89.6319 67.2907 89.6319 67.376V72.496C89.6319 72.8587 89.7386 73.1147 89.9519 73.264C90.1653 73.4027 90.5493 73.472 91.1039 73.472C91.2639 73.472 91.3439 73.5573 91.3439 73.728C91.3439 73.9093 91.2639 74 91.1039 74C91.0293 74 90.8639 73.9947 90.6079 73.984C90.3519 73.9733 90.0639 73.968 89.7439 73.968C89.4239 73.9573 89.1199 73.952 88.8319 73.952C88.5759 73.952 88.3039 73.9573 88.0159 73.968C87.7386 73.968 87.4879 73.9733 87.2639 73.984C87.0399 73.9947 86.8906 74 86.8159 74Z" fill="#3E0014"/>
<path d="M37.5866 2.76855C28.6322 2.76855 20.5916 6.66096 15.0453 12.8376C13.4372 13.4316 11.9022 13.4133 11.0798 11.8782C10.8971 11.2569 10.0199 9.08229 8.40266 11.4397C7.58946 12.8102 6.84935 13.9889 8.15596 19.7727C8.68591 21.1067 8.76814 22.5595 8.63109 24.2225C7.79047 27.0093 7.33362 29.9606 7.33362 33.0124C7.33362 49.7241 20.8839 63.2745 37.5957 63.2745C54.3075 63.2745 67.8578 49.7241 67.8578 33.0124C67.8578 16.3006 54.2983 2.76855 37.5866 2.76855Z" fill="white"/>
<path d="M37.5866 66.0521C19.3763 66.0521 4.56506 51.2409 4.56506 33.0306C4.56506 29.8783 5.01278 26.7534 5.89908 23.7382C5.98131 22.459 5.88994 21.5453 5.58842 20.8052C5.5336 20.6681 5.49705 20.5311 5.4605 20.394C4.03511 14.0803 4.78435 12.1432 5.99959 10.0782C6.027 10.0234 6.09096 9.93203 6.12751 9.87721C7.60772 7.72085 9.22499 7.46501 10.3306 7.63862C11.7194 7.85791 12.8433 8.85385 13.492 10.4072C13.5012 10.4072 13.5194 10.4072 13.5286 10.4072C19.7601 3.78276 28.486 0 37.5866 0C55.7968 0 70.6172 14.8112 70.6172 33.0306C70.6172 51.25 55.8059 66.0521 37.5866 66.0521Z" fill="white"/>
<path d="M37.5866 2.76855C28.6322 2.76855 20.5916 6.66096 15.0453 12.8376C13.4372 13.4316 11.9022 13.4133 11.0798 11.8782C10.8971 11.2569 10.0199 9.08229 8.40266 11.4397C7.58946 12.8102 6.84935 13.9889 8.15596 19.7727C8.68591 21.1067 8.76814 22.5595 8.63109 24.2225C7.79047 27.0093 7.33362 29.9606 7.33362 33.0124C7.33362 49.7241 20.8839 63.2745 37.5957 63.2745C54.3075 63.2745 67.8578 49.7241 67.8578 33.0124C67.8578 16.3006 54.2983 2.76855 37.5866 2.76855Z" fill="#E60012"/>
<path d="M9.53575 17.7535C9.76418 21.3443 12.3865 22.5413 12.8434 24.5332C12.8434 24.5332 11.4728 22.7697 10.7327 22.7149C10.5043 25.054 13.7571 27.1647 13.6931 27.5667L12.3774 27.1098V27.85L11.6373 27.3383C11.5825 30.3627 14.2048 31.2124 14.7713 32.8114C14.086 32.1261 12.2677 31.2764 11.9205 30.9292C11.6281 31.6693 12.9439 33.8987 14.4241 34.8672C14.1408 35.1505 12.8251 34.9221 12.8251 34.9221C14.1957 37.316 18.2434 38.0561 18.4718 38.5678C19.2119 40.1668 19.2759 45.8683 26.5125 48.8287C24.5115 47.3485 21.7795 45.4663 19.3216 38.7322C18.8647 37.0236 22.0627 35.9363 21.2038 32.5738C21.2038 32.5738 19.55 33.7708 19.148 34.2277C18.5815 34.2825 21.9988 31.3769 19.7236 25.6753C19.1023 25.785 18.8099 27.5576 17.7866 27.8408C18.7003 25.9586 19.2119 22.9982 16.7084 20.8875C16.7084 20.8875 15.9043 22.2032 15.3926 22.4316C15.9043 20.4946 14.4241 17.8722 13.0535 17.2418C13.0535 17.2418 12.6515 18.8956 12.5967 19.2337C12.3683 19.5169 12.4231 16.8397 11.9114 16.0996C11.3997 15.3595 10.3124 14.6103 9.97433 14.2722C9.97433 14.2722 9.12458 16.2732 11.1713 18.2651C12.0302 18.9504 12.1398 19.8002 12.2038 20.257C11.6281 19.1697 10.6048 18.2651 9.52661 17.7443L9.53575 17.7535Z" fill="white"/>
<path d="M24.1551 21.2803C24.2282 20.3118 26.9054 20.2935 27.6181 18.5483L26.5399 18.658C28.0749 17.2143 28.1297 16.0722 28.1297 16.0722C27.7917 16.2001 26.3663 17.2965 26.3663 17.2965C26.4028 16.9493 28.4313 15.3047 28.0841 13.8427L27.6363 14.1534L27.6089 13.6965C27.5176 13.9889 26.8962 14.1351 26.8962 14.1351C26.9876 13.7331 28.8607 12.1615 28.6231 10.9097C28.2851 11.0376 27.2526 12.1158 27.2526 12.1158C27.2526 11.1473 29.4729 9.7767 29.1531 7.85791C29.1531 7.85791 28.1023 8.65284 27.682 9.30158C27.4901 8.79903 29.5825 7.27314 28.815 5.71069C28.7145 6.0579 28.0475 6.3777 27.7368 6.78887C27.1429 7.72999 27.8008 8.21426 27.3805 8.91782C27.1886 8.69853 27.0333 7.62035 27.0333 7.62035L25.6536 10.9463L24.8587 9.95945C23.6617 10.9919 23.415 13.0569 24.3378 14.3818C23.6891 14.1808 23.1135 12.8925 23.1135 12.8925C22.1358 16.1361 23.415 18.0184 23.7805 18.3382C23.3236 18.2468 22.483 17.3696 22.483 17.3696C21.9348 19.1057 23.6891 20.1108 23.7348 20.7961C22.6658 25.7575 20.2627 26.79 20.2627 26.79C21.9348 27.1098 24.0363 23.3544 24.1551 21.2895V21.2803Z" fill="white"/>
<path d="M20.8841 47.6864C15.8678 42.6701 18.2069 43.529 15.5297 40.2762C13.5287 37.9919 10.285 37.3706 10.285 37.3706C12.1673 39.6001 12.2221 41.8204 13.2546 45.128C15.2465 51.6245 20.0435 53.5067 22.3826 53.5067C24.0912 53.5067 26.2567 52.5382 27.1064 49.861C24.3105 50.1443 23.0587 49.6326 20.8932 47.6955L20.8841 47.6864Z" fill="white"/>
<path d="M23.4515 24.3595C28.4678 20.8234 37.8242 24.4143 45.2344 24.4143C50.3603 24.4143 55.7786 25.0996 60.8588 24.1311C47.1166 24.1311 39.7613 19.6265 31.0353 19.6265C24.6485 19.6265 23.4515 24.3595 23.4515 24.3595Z" fill="white"/>
<path d="M30.7429 29.5219C32.7439 29.4945 35.5125 29.33 35.7044 30.2712C35.9419 32.3727 31.0262 30.5453 31.4008 33.3869C31.5653 34.5747 31.8028 35.5615 33.4658 35.5615C35.0191 35.5615 37.2577 33.5605 37.2577 30.1067C37.2577 28.2062 37.2577 26.1412 33.0546 25.8762C30.3135 25.6752 26.284 25.9767 25.4708 26.1138C24.3835 26.2143 22.9307 26.8265 23.1683 28.4163C23.1683 28.4163 23.3693 30.2072 25.2332 30.2072C26.5216 30.2072 27.0058 29.6955 29.1622 29.5676C29.6008 30.3991 29.281 31.6965 28.9246 32.6833C28.3764 34.0356 26.7866 34.1361 26.0739 34.1361C25.9094 34.1361 23.2322 33.7981 23.2322 36.2011C23.2322 36.5757 23.1683 39.1159 25.9094 39.1159C29.8018 39.1159 30.8891 35.7625 30.8891 33.0854C30.8891 32.0255 30.7886 30.2529 30.7429 29.5219Z" fill="white"/>
<path d="M49.8943 34.7118C50.9817 32.2722 50.7075 29.193 50.7441 29.0194C50.671 27.5301 49.6202 26.3148 46.9796 26.3148C45.1156 26.2783 41.7989 26.3148 41.7989 26.3148C40.3461 26.3148 38.3816 26.8905 38.3816 28.7818V32.0712C38.3816 32.9484 39.5968 33.8347 39.9349 32.0347C39.9989 31.4864 39.8618 29.9331 41.1593 29.7595C41.9725 29.659 46.5776 29.5585 48.1309 29.659C49.0172 29.6225 49.5197 29.86 49.4558 31.0478C49.3553 32.8479 48.4781 34.5017 43.7999 34.5017C41.6984 34.5017 39.3319 33.9991 39.3319 36.6672C39.3319 38.056 39.8709 38.7322 40.9948 38.7322C43.1603 38.7322 48.0395 39.6824 49.9035 34.7027L49.8943 34.7118Z" fill="white"/>
<path d="M62.1654 35.4063H55.2395C54.9837 35.4063 54.2162 35.2601 54.2162 34.2915V31.0844C56.939 30.8194 61.4893 30.2073 61.4893 31.4133C61.4893 32.3819 60.0365 32.3271 59.4974 32.3271C58.6659 32.3271 57.1309 31.9342 57.1309 33.6702C57.1309 34.8946 58.2456 34.8123 58.7847 34.8123C61.0416 34.8123 63.2071 34.4743 63.4903 32.391C63.6639 30.993 63.4629 29.2296 62.4396 28.7179C61.2152 27.9138 56.939 27.722 54.2253 28.0509V27.4661C54.2253 27.4661 54.3715 26.3879 53.3664 26.3879C52.4801 26.3879 52.5075 27.4113 52.5075 27.4113C52.5075 27.4661 52.5075 27.8499 52.5075 28.4072C52.4801 28.4164 52.4436 28.4255 52.4162 28.4347C52.4162 28.4347 51.5664 28.9555 51.5664 30.1798C51.5664 31.0113 52.0689 31.2032 52.4801 31.2306C52.4618 33.2499 52.4344 35.4885 52.4527 36.3657C52.5349 37.9646 53.1928 38.6773 54.7918 38.6773H62.0923C62.0923 38.6773 63.6913 38.2753 63.6913 37.1332C63.6913 36.1098 63.2345 35.4245 62.1837 35.4245L62.1654 35.4063Z" fill="white"/>
<path d="M41.0131 44.4977H39.4872L40.3917 43.7302C41.1958 43.0997 41.3329 42.8165 41.3329 42.2226C41.3329 41.5099 40.9034 40.2855 35.7227 40.1941C33.2465 40.1119 32.0952 40.0845 31.876 41.7657C31.876 41.7657 31.7937 43.2459 33.1826 43.2459C34.4069 43.3282 37.742 42.9901 37.7968 43.5292C37.8242 43.7119 37.5592 44.0591 37.1481 44.4977H31.6384C30.3501 44.4977 29.4729 44.781 29.4729 45.8957C29.4729 45.8957 29.4729 47.7231 30.9805 47.7231H34.0415C33.9227 47.8693 33.813 48.0155 33.7217 48.1526C32.8354 49.3221 32.2689 51.4602 34.5166 52.6023C36.0882 53.2602 38.3085 53.4338 38.7379 53.4338C40.0445 53.4338 41.8445 53.2602 41.8445 51.378C41.8445 50.0074 40.4192 50.0714 39.9897 50.0714C37.3125 50.1536 34.6536 50.2998 34.6262 49.3861C34.608 48.9018 35.3755 48.0795 35.7318 47.7323H40.5288C41.7532 47.7323 42.411 46.9373 42.411 46.1059C42.411 45.2744 41.8994 44.5069 41.0131 44.5069V44.4977Z" fill="white"/>
<path d="M43.4984 41.2448V52.4195C43.4984 53.3058 45.1796 53.6165 45.1796 52.2733V41.1535C45.1796 40.2124 43.4984 39.8926 43.4984 41.2357V41.2448Z" fill="white"/>
<path d="M56.3268 45.2926C57.1217 45.2926 57.2953 44.0957 57.2953 43.7302C57.2953 43.2185 57.14 42.7525 56.3908 42.5058C56.3908 42.3779 56.3725 42.2317 56.2903 42.0215C56.0892 41.455 55.7512 40.7332 55.0659 41.0256C54.6364 41.254 54.81 41.7109 54.8923 41.8571L55.1938 42.3505C55.1298 42.3505 55.075 42.3505 55.0019 42.3505H54.2618V41.6378C54.2618 40.2946 52.7268 40.121 52.7268 41.6104V42.3505H47.7927C47.1714 42.3505 46.2303 42.6063 46.2303 43.8855C46.2303 43.8855 46.1663 45.3109 47.3998 45.3109H52.7359V46.983C52.5715 46.9464 52.407 46.9007 52.2242 46.8825C49.8029 46.6266 45.8374 46.0875 45.8374 49.7332C45.8374 51.78 46.9521 53.0957 49.9126 53.0957C52.3796 53.0957 53.9055 52.3373 54.207 50.519C54.5816 50.8663 54.9288 51.2774 55.2121 51.8074C55.6415 52.8673 56.409 53.2876 56.7837 52.4652C56.9847 51.8256 56.5187 49.0023 54.2801 47.6043V45.3109H56.3359L56.3268 45.2926ZM49.7389 50.6561C47.6831 50.6561 47.3724 50.2815 47.3724 49.7972C47.3724 49.2307 48.9166 49.0845 49.9948 49.0845C50.7623 49.0845 51.7217 49.1759 52.6354 49.5322C52.4253 50.2267 51.7491 50.6561 49.7298 50.6561H49.7389Z" fill="white"/>
<path d="M57.204 40.2217C56.9756 39.9659 55.9522 39.71 56.2903 41.0166L56.6283 41.5283C56.6283 41.5283 56.8842 41.9852 57.4507 41.7293C57.9349 41.5557 57.6243 40.9892 57.5969 40.907L57.1948 40.2217H57.204Z" fill="white"/>
<path d="M5.77118 77.4005L4.88488 79.9132H3.65137L7.16915 69.9446H8.60368L12.1123 79.9132H10.8605L9.98338 77.4005H5.77118ZM7.88185 71.37L6.13666 76.3497H9.6179L7.88185 71.37Z" fill="white"/>
<path d="M16.2788 74.3395L14.8626 79.9131H13.9123L11.9296 73.0603H13.0169L14.3874 78.0309L14.3966 78.6796L14.4057 78.0309L15.6301 73.0603H16.9458L18.1702 78.0309L18.1793 78.6796L18.2068 78.0309L19.5682 73.0603H20.6555L18.6545 79.9131H17.7134L16.3062 74.3395L16.288 73.7913L16.2788 74.3395Z" fill="white"/>
<path d="M21.8251 75.3355C21.8617 73.6634 22.8485 72.9507 24.4201 72.9507C26.9145 72.9507 26.9145 74.3487 26.9145 75.436V78.6705C26.9145 79.1456 26.9693 79.3832 27.3165 79.9132H26.3206C26.0922 79.6299 25.9825 79.438 25.9277 79.1274C25.4617 79.6299 24.8312 80.0228 23.7896 80.0228C22.1632 80.0228 21.6698 79.1731 21.6698 78.1862C21.6698 76.6055 22.8668 76.2766 24.1916 75.9385C25.2698 75.6735 25.882 75.5182 25.882 74.9791C25.882 73.8827 24.6759 73.8827 24.4475 73.8827C23.5703 73.8827 22.8668 74.038 22.8119 75.3446H21.816L21.8251 75.3355ZM25.9094 76.24C25.5348 76.5142 25.1693 76.5964 23.8718 76.9345C23.1043 77.1263 22.6932 77.3913 22.6932 78.1131C22.6932 78.6157 22.8576 79.0908 23.7531 79.0908C25.4434 79.0908 25.9186 77.8939 25.9186 77.2999V76.24H25.9094Z" fill="white"/>
<path d="M29.9023 77.4644C29.9388 78.3142 30.1033 79.1 31.5378 79.1C31.8302 79.1 32.9632 79.1 32.9632 77.9852C32.9632 77.4005 32.7074 77.1629 31.218 76.8065C30.0211 76.505 28.952 76.2492 28.952 74.97C28.952 74.1568 29.4911 72.9507 31.3368 72.9507C32.3327 72.9507 33.7581 73.1883 33.8221 75.1527H32.817C32.7896 74.7324 32.7348 73.8827 31.3825 73.8827C31.0627 73.8827 29.9571 73.9192 29.9571 74.8786C29.9571 75.4177 30.1855 75.5456 31.6749 75.8837C33.1368 76.2218 33.9866 76.5873 33.9866 77.8208C33.9866 78.369 33.9317 80.0319 31.5195 80.0319C29.2627 80.0319 28.9703 78.5152 28.8881 77.4736H29.9114L29.9023 77.4644Z" fill="white"/>
<path d="M41.3146 77.5832C40.9491 79.5385 39.6333 80.0228 38.4181 80.0228C36.1886 80.0228 35.412 78.2411 35.412 76.569C35.412 74.0563 36.9562 72.9507 38.3907 72.9507C39.6516 72.9507 40.6019 73.6908 40.9948 74.8238C41.2323 75.5273 41.2323 76.2766 41.2506 76.7152H36.4262C36.4628 77.3091 36.6181 79.1 38.409 79.1C39.8892 79.1 40.1816 77.9304 40.2729 77.5832H41.3054H41.3146ZM40.0902 75.7741C39.9805 74.5314 39.1765 73.8735 38.3176 73.8735C37.4587 73.8735 36.682 74.4674 36.481 75.7741H40.0902Z" fill="white"/>
<path d="M43.7632 77.4644C43.7998 78.3142 43.9643 79.1 45.3988 79.1C45.6912 79.1 46.8242 79.1 46.8242 77.9852C46.8242 77.4005 46.5683 77.1629 45.079 76.8065C43.882 76.505 42.813 76.2492 42.813 74.97C42.813 74.1568 43.3521 72.9507 45.1978 72.9507C46.1937 72.9507 47.6191 73.1883 47.6831 75.1527H46.678C46.6506 74.7324 46.5957 73.8827 45.2435 73.8827C44.9237 73.8827 43.8181 73.9192 43.8181 74.8786C43.8181 75.4177 44.0465 75.5456 45.5358 75.8837C46.9978 76.2218 47.8475 76.5873 47.8475 77.8208C47.8475 78.369 47.7927 80.0319 45.3805 80.0319C43.1236 80.0319 42.8313 78.5152 42.749 77.4736H43.7724L43.7632 77.4644Z" fill="white"/>
<path d="M52.2242 80.0318C50.5339 80.0318 49.3369 78.643 49.3369 76.5414C49.3369 74.4399 50.4242 72.9414 52.2242 72.9414C53.3938 72.9414 55.1116 73.7089 55.1116 76.4866C55.1116 78.9353 53.677 80.0227 52.2242 80.0227M52.2242 73.8734C51.1004 73.8734 50.3877 74.915 50.3877 76.4866C50.3877 78.0582 51.1552 79.0907 52.2242 79.0907C53.2933 79.0907 54.0608 78.1496 54.0608 76.4866C54.0608 74.8236 53.3116 73.8734 52.2242 73.8734Z" fill="white"/>
<path d="M57.6792 79.9132H56.6741V69.9446H57.6792V73.7182C57.8528 73.5263 58.4193 72.9415 59.4883 72.9415C60.9228 72.9415 62.3117 74.0289 62.3117 76.4776C62.3117 78.6065 61.2152 80.0137 59.4883 80.0137C58.4649 80.0137 57.9624 79.5385 57.6792 79.237V79.904V79.9132ZM57.6792 77.4096C57.6792 77.8756 58.2457 79.0908 59.3969 79.0908C60.4477 79.0908 61.2609 78.1314 61.2609 76.4867C61.2609 74.2847 60.1096 73.8735 59.4518 73.8735C58.0446 73.8735 57.6792 75.3537 57.6792 75.4908V77.4096Z" fill="white"/>
<path d="M63.8193 75.3355C63.8558 73.6634 64.8426 72.9507 66.4142 72.9507C68.9086 72.9507 68.9086 74.3487 68.9086 75.436V78.6705C68.9086 79.1456 68.9635 79.3832 69.3107 79.9132H68.3147C68.0863 79.6299 67.9766 79.438 67.9218 79.1274C67.4558 79.6299 66.8162 80.0228 65.7837 80.0228C64.1573 80.0228 63.6639 79.1731 63.6639 78.1862C63.6639 76.6055 64.8609 76.2766 66.1858 75.9385C67.264 75.6735 67.8761 75.5182 67.8761 74.9791C67.8761 73.8827 66.67 73.8827 66.4416 73.8827C65.5645 73.8827 64.8609 74.038 64.8061 75.3446H63.8101L63.8193 75.3355ZM67.9036 76.24C67.5289 76.5142 67.1634 76.5964 65.866 76.9345C65.0985 77.1263 64.6873 77.3913 64.6873 78.1131C64.6873 78.6157 64.8426 79.0908 65.7472 79.0908C67.4376 79.0908 67.9127 77.8939 67.9127 77.2999V76.24H67.9036Z" fill="white"/>
<path d="M72.5634 78.2594V75.4269C72.5634 73.9832 72.1157 69.2868 66.4142 69.2868C65.0345 69.2868 63.8101 69.634 62.8233 70.2553C62.3482 69.9538 61.8456 69.7162 61.3157 69.5517C61.1238 67.7152 59.5705 66.2898 57.6791 66.2898H56.674C54.8557 66.2898 53.3664 67.6147 53.0831 69.3507C52.7999 69.3142 52.5166 69.2868 52.2334 69.2868C50.9542 69.2868 49.8029 69.6431 48.8252 70.2644C47.8476 69.634 46.6232 69.2868 45.2069 69.2868C43.7907 69.2868 42.676 69.6522 41.7531 70.2462C40.7755 69.6431 39.6242 69.2868 38.3907 69.2868C37.2211 69.2868 36.0333 69.6248 34.9825 70.2827C33.9957 69.6431 32.7622 69.2868 31.3368 69.2868C30.0119 69.2868 28.8972 69.6248 27.9926 70.1731C27.1246 69.6431 25.9733 69.2868 24.42 69.2868C23.5429 69.2868 22.7297 69.4238 22.0078 69.6888C21.5784 69.5152 21.1307 69.4055 20.6556 69.4055H19.5682C19.1114 69.4055 18.6637 69.4878 18.2616 69.6522C17.8505 69.4969 17.4119 69.4055 16.955 69.4055H15.6393C15.1824 69.4055 14.7438 69.4878 14.3327 69.6431C13.9215 69.4878 13.4829 69.4055 13.0261 69.4055H12.3042L12.0667 68.7294C11.555 67.2675 10.1662 66.2898 8.62199 66.2898H7.18746C5.63415 66.2898 4.25445 67.2675 3.74277 68.7294L0.206715 78.6888C-0.186181 79.8036 -0.0125758 81.0462 0.672707 82.0147C1.35799 82.9833 2.47272 83.5589 3.66054 83.5589H4.89405C6.10015 83.5589 7.20574 82.965 7.88188 82.0147C8.55803 82.965 9.66362 83.5589 10.8697 83.5589H12.1215C12.4322 83.5589 12.7428 83.5132 13.0443 83.4401C13.3276 83.5132 13.62 83.5589 13.9306 83.5589H14.8809C15.3834 83.5589 15.8677 83.4584 16.3063 83.2665C16.7449 83.4493 17.2291 83.5589 17.7317 83.5589H18.6728C19.4312 83.5589 20.1439 83.3214 20.7378 82.9102C21.6058 83.3944 22.6566 83.6686 23.8261 83.6686C24.4109 83.6686 24.9774 83.5955 25.5165 83.4675C25.7906 83.5315 26.0647 83.5681 26.3571 83.5681H27.3531C27.9104 83.5681 28.4495 83.431 28.9338 83.1843C29.7744 83.5224 30.6698 83.6686 31.547 83.6686C32.8901 83.6686 34.0688 83.3488 35.0282 82.7731C36.0059 83.3488 37.1663 83.6686 38.4546 83.6686C39.743 83.6686 40.9582 83.3396 41.9541 82.7549C43.014 83.3944 44.2384 83.6686 45.4171 83.6686C46.7877 83.6686 47.9846 83.3396 48.944 82.7457C49.9034 83.3396 51.0364 83.6777 52.2608 83.6777C53.1745 83.6777 54.0973 83.4767 54.9471 83.0838C55.4679 83.3762 56.071 83.5589 56.7106 83.5589H57.7156C57.871 83.5589 58.0263 83.5498 58.1816 83.5315C58.6111 83.6229 59.0588 83.6686 59.5339 83.6686C60.6852 83.6686 61.7451 83.3762 62.6588 82.8645C63.5451 83.3762 64.6233 83.6686 65.8385 83.6686C66.4233 83.6686 66.9898 83.5955 67.5289 83.4675C67.803 83.5315 68.0771 83.5681 68.3695 83.5681H69.3655C70.7086 83.5681 71.933 82.8005 72.5726 81.6127C73.1299 80.5711 73.1391 79.3102 72.6183 78.2594H72.5634ZM31.3916 76.5873C31.3277 76.569 31.2637 76.5508 31.1906 76.5233C31.3003 76.4503 31.4099 76.4046 31.5196 76.3772C31.5835 76.3954 31.6566 76.4228 31.7206 76.4594C31.5927 76.5325 31.4739 76.5782 31.3825 76.5964L31.3916 76.5873ZM45.2526 76.5873C45.1887 76.569 45.1247 76.5508 45.0516 76.5233C45.1613 76.4503 45.2709 76.4046 45.3806 76.3772C45.4445 76.3954 45.5176 76.4228 45.5816 76.4594C45.4536 76.5325 45.3349 76.5782 45.2435 76.5964L45.2526 76.5873Z" fill="white"/>
<path d="M5.77118 77.4005L4.88488 79.9132H3.65137L7.16915 69.9446H8.60368L12.1123 79.9132H10.8605L9.98338 77.4005H5.77118ZM7.88185 71.37L6.13666 76.3497H9.6179L7.88185 71.37Z" fill="#E60012"/>
<path d="M16.2788 74.3395L14.8626 79.9131H13.9123L11.9296 73.0603H13.0169L14.3874 78.0309L14.3966 78.6796L14.4057 78.0309L15.6301 73.0603H16.9458L18.1702 78.0309L18.1793 78.6796L18.2068 78.0309L19.5682 73.0603H20.6555L18.6545 79.9131H17.7134L16.3062 74.3395L16.288 73.7913L16.2788 74.3395Z" fill="#E60012"/>
<path d="M21.8251 75.3355C21.8617 73.6634 22.8485 72.9507 24.4201 72.9507C26.9145 72.9507 26.9145 74.3487 26.9145 75.436V78.6705C26.9145 79.1456 26.9693 79.3832 27.3165 79.9132H26.3206C26.0922 79.6299 25.9825 79.438 25.9277 79.1274C25.4617 79.6299 24.8312 80.0228 23.7896 80.0228C22.1632 80.0228 21.6698 79.1731 21.6698 78.1862C21.6698 76.6055 22.8668 76.2766 24.1916 75.9385C25.2698 75.6735 25.882 75.5182 25.882 74.9791C25.882 73.8827 24.6759 73.8827 24.4475 73.8827C23.5703 73.8827 22.8668 74.038 22.8119 75.3446H21.816L21.8251 75.3355ZM25.9094 76.24C25.5348 76.5142 25.1693 76.5964 23.8718 76.9345C23.1043 77.1263 22.6932 77.3913 22.6932 78.1131C22.6932 78.6157 22.8576 79.0908 23.7531 79.0908C25.4434 79.0908 25.9186 77.8939 25.9186 77.2999V76.24H25.9094Z" fill="#E60012"/>
<path d="M29.9023 77.4644C29.9388 78.3142 30.1033 79.1 31.5378 79.1C31.8302 79.1 32.9632 79.1 32.9632 77.9852C32.9632 77.4005 32.7074 77.1629 31.218 76.8065C30.0211 76.505 28.952 76.2492 28.952 74.97C28.952 74.1568 29.4911 72.9507 31.3368 72.9507C32.3327 72.9507 33.7581 73.1883 33.8221 75.1527H32.817C32.7896 74.7324 32.7348 73.8827 31.3825 73.8827C31.0627 73.8827 29.9571 73.9192 29.9571 74.8786C29.9571 75.4177 30.1855 75.5456 31.6749 75.8837C33.1368 76.2218 33.9866 76.5873 33.9866 77.8208C33.9866 78.369 33.9317 80.0319 31.5195 80.0319C29.2627 80.0319 28.9703 78.5152 28.8881 77.4736H29.9114L29.9023 77.4644Z" fill="#E60012"/>
<path d="M41.3146 77.5832C40.9491 79.5385 39.6333 80.0228 38.4181 80.0228C36.1886 80.0228 35.412 78.2411 35.412 76.569C35.412 74.0563 36.9562 72.9507 38.3907 72.9507C39.6516 72.9507 40.6019 73.6908 40.9948 74.8238C41.2323 75.5273 41.2323 76.2766 41.2506 76.7152H36.4262C36.4628 77.3091 36.6181 79.1 38.409 79.1C39.8892 79.1 40.1816 77.9304 40.2729 77.5832H41.3054H41.3146ZM40.0902 75.7741C39.9805 74.5314 39.1765 73.8735 38.3176 73.8735C37.4587 73.8735 36.682 74.4674 36.481 75.7741H40.0902Z" fill="#E60012"/>
<path d="M43.7632 77.4644C43.7998 78.3142 43.9643 79.1 45.3988 79.1C45.6912 79.1 46.8242 79.1 46.8242 77.9852C46.8242 77.4005 46.5683 77.1629 45.079 76.8065C43.882 76.505 42.813 76.2492 42.813 74.97C42.813 74.1568 43.3521 72.9507 45.1978 72.9507C46.1937 72.9507 47.6191 73.1883 47.6831 75.1527H46.678C46.6506 74.7324 46.5957 73.8827 45.2435 73.8827C44.9237 73.8827 43.8181 73.9192 43.8181 74.8786C43.8181 75.4177 44.0465 75.5456 45.5358 75.8837C46.9978 76.2218 47.8475 76.5873 47.8475 77.8208C47.8475 78.369 47.7927 80.0319 45.3805 80.0319C43.1236 80.0319 42.8313 78.5152 42.749 77.4736H43.7724L43.7632 77.4644Z" fill="#E60012"/>
<path d="M52.2242 80.0318C50.5339 80.0318 49.3369 78.643 49.3369 76.5414C49.3369 74.4399 50.4242 72.9414 52.2242 72.9414C53.3938 72.9414 55.1116 73.7089 55.1116 76.4866C55.1116 78.9353 53.677 80.0227 52.2242 80.0227M52.2242 73.8734C51.1004 73.8734 50.3877 74.915 50.3877 76.4866C50.3877 78.0582 51.1552 79.0907 52.2242 79.0907C53.2933 79.0907 54.0608 78.1496 54.0608 76.4866C54.0608 74.8236 53.3116 73.8734 52.2242 73.8734Z" fill="#E60012"/>
<path d="M57.6792 79.9132H56.6741V69.9446H57.6792V73.7182C57.8528 73.5263 58.4193 72.9415 59.4883 72.9415C60.9228 72.9415 62.3117 74.0289 62.3117 76.4776C62.3117 78.6065 61.2152 80.0137 59.4883 80.0137C58.4649 80.0137 57.9624 79.5385 57.6792 79.237V79.904V79.9132ZM57.6792 77.4096C57.6792 77.8756 58.2457 79.0908 59.3969 79.0908C60.4477 79.0908 61.2609 78.1314 61.2609 76.4867C61.2609 74.2847 60.1096 73.8735 59.4518 73.8735C58.0446 73.8735 57.6792 75.3537 57.6792 75.4908V77.4096Z" fill="#E60012"/>
<path d="M63.8193 75.3355C63.8558 73.6634 64.8426 72.9507 66.4142 72.9507C68.9086 72.9507 68.9086 74.3487 68.9086 75.436V78.6705C68.9086 79.1456 68.9635 79.3832 69.3107 79.9132H68.3147C68.0863 79.6299 67.9766 79.438 67.9218 79.1274C67.4558 79.6299 66.8162 80.0228 65.7837 80.0228C64.1573 80.0228 63.6639 79.1731 63.6639 78.1862C63.6639 76.6055 64.8609 76.2766 66.1858 75.9385C67.264 75.6735 67.8761 75.5182 67.8761 74.9791C67.8761 73.8827 66.67 73.8827 66.4416 73.8827C65.5645 73.8827 64.8609 74.038 64.8061 75.3446H63.8101L63.8193 75.3355ZM67.9036 76.24C67.5289 76.5142 67.1634 76.5964 65.866 76.9345C65.0985 77.1263 64.6873 77.3913 64.6873 78.1131C64.6873 78.6157 64.8426 79.0908 65.7472 79.0908C67.4376 79.0908 67.9127 77.8939 67.9127 77.2999V76.24H67.9036Z" fill="#E60012"/>
</svg>
