<svg width="426" height="84" viewBox="0 0 426 84" fill="none" xmlns="http://www.w3.org/2000/svg">
<path d="M267.785 50C267.505 50 267.365 49.86 267.365 49.58C267.365 49.26 267.505 49.1 267.785 49.1C268.445 49.1 268.975 48.97 269.375 48.71C269.775 48.43 270.135 47.95 270.455 47.27C270.595 46.97 270.815 46.44 271.115 45.68C271.435 44.92 271.795 44.01 272.195 42.95C272.615 41.89 273.045 40.76 273.485 39.56C273.945 38.34 274.395 37.14 274.835 35.96C275.295 34.76 275.715 33.64 276.095 32.6C276.495 31.56 276.825 30.68 277.085 29.96C277.365 29.22 277.545 28.73 277.625 28.49C277.725 28.23 277.845 28.06 277.985 27.98C278.125 27.9 278.355 27.86 278.675 27.86C278.995 27.86 279.225 27.91 279.365 28.01C279.525 28.09 279.645 28.24 279.725 28.46C279.865 28.82 280.095 29.44 280.415 30.32C280.755 31.2 281.145 32.24 281.585 33.44C282.045 34.62 282.515 35.86 282.995 37.16C283.495 38.46 283.975 39.74 284.435 41C284.895 42.24 285.315 43.35 285.695 44.33C286.075 45.31 286.365 46.07 286.565 46.61C287.225 48.27 288.025 49.1 288.965 49.1C289.225 49.1 289.355 49.26 289.355 49.58C289.355 49.86 289.225 50 288.965 50C288.765 50 288.365 49.99 287.765 49.97C287.185 49.95 286.375 49.94 285.335 49.94C284.475 49.94 283.685 49.95 282.965 49.97C282.245 49.99 281.775 50 281.555 50C281.295 50 281.165 49.86 281.165 49.58C281.165 49.26 281.295 49.1 281.555 49.1C282.175 49.1 282.605 49.01 282.845 48.83C283.105 48.65 283.245 48.42 283.265 48.14C283.285 47.86 283.235 47.58 283.115 47.3C283.095 47.2 282.945 46.74 282.665 45.92C282.405 45.08 282.075 44.11 281.675 43.01C281.595 42.81 281.515 42.69 281.435 42.65C281.375 42.61 281.275 42.59 281.135 42.59H273.695C273.495 42.59 273.375 42.68 273.335 42.86C273.215 43.28 273.065 43.78 272.885 44.36C272.705 44.92 272.545 45.46 272.405 45.98C272.265 46.5 272.195 46.93 272.195 47.27C272.195 47.95 272.375 48.43 272.735 48.71C273.095 48.97 273.585 49.1 274.205 49.1C274.465 49.1 274.595 49.26 274.595 49.58C274.595 49.86 274.465 50 274.205 50C274.005 50 273.635 49.99 273.095 49.97C272.575 49.95 271.875 49.94 270.995 49.94C270.215 49.94 269.535 49.95 268.955 49.97C268.375 49.99 267.985 50 267.785 50ZM274.175 41.57H280.715C280.815 41.57 280.905 41.55 280.985 41.51C281.065 41.47 281.075 41.36 281.015 41.18C280.775 40.48 280.495 39.66 280.175 38.72C279.855 37.78 279.525 36.84 279.185 35.9C278.845 34.96 278.545 34.14 278.285 33.44C278.045 32.72 277.885 32.25 277.805 32.03C277.745 31.89 277.675 31.82 277.595 31.82C277.515 31.82 277.455 31.87 277.415 31.97C277.355 32.11 277.215 32.46 276.995 33.02C276.795 33.56 276.545 34.22 276.245 35C275.945 35.76 275.635 36.55 275.315 37.37C274.995 38.17 274.705 38.91 274.445 39.59C274.205 40.27 274.035 40.78 273.935 41.12C273.855 41.42 273.935 41.57 274.175 41.57Z" fill="#3E0014"/>
<path d="M247.064 50C246.784 50 246.644 49.85 246.644 49.55C246.644 49.27 246.784 49.13 247.064 49.13C248.064 49.13 248.754 48.98 249.134 48.68C249.534 48.38 249.734 47.92 249.734 47.3V30.89C249.734 30.25 249.534 29.79 249.134 29.51C248.754 29.23 248.054 29.09 247.034 29.09C246.754 29.09 246.614 28.95 246.614 28.67C246.614 28.37 246.754 28.22 247.034 28.22C247.194 28.22 247.674 28.24 248.474 28.28C249.294 28.3 250.274 28.31 251.414 28.31C253.534 28.31 255.254 28.3 256.574 28.28C257.894 28.24 258.764 28.22 259.184 28.22C260.344 28.22 261.354 28.43 262.214 28.85C263.094 29.27 263.784 29.85 264.284 30.59C264.784 31.31 265.034 32.14 265.034 33.08C265.034 34.12 264.804 34.99 264.344 35.69C263.884 36.37 263.324 36.92 262.664 37.34C262.004 37.74 261.364 38.05 260.744 38.27C260.544 38.35 260.444 38.44 260.444 38.54C260.464 38.64 260.564 38.71 260.744 38.75C261.244 38.83 261.784 38.98 262.364 39.2C262.964 39.42 263.534 39.74 264.074 40.16C264.614 40.56 265.054 41.08 265.394 41.72C265.754 42.34 265.934 43.1 265.934 44C265.934 45.34 265.584 46.46 264.884 47.36C264.184 48.24 263.234 48.9 262.034 49.34C260.854 49.78 259.534 50 258.074 50C257.854 50 257.604 50 257.324 50C257.064 49.98 256.704 49.97 256.244 49.97C255.804 49.97 255.194 49.97 254.414 49.97C253.634 49.95 252.614 49.94 251.354 49.94C250.194 49.94 249.234 49.95 248.474 49.97C247.734 49.99 247.264 50 247.064 50ZM253.754 49.04H257.384C258.984 49.04 260.154 48.57 260.894 47.63C261.654 46.69 262.034 45.48 262.034 44C262.034 42.62 261.614 41.47 260.774 40.55C259.954 39.61 258.714 39.14 257.054 39.14H253.484C253.224 39.14 253.094 39.27 253.094 39.53V48.44C253.094 48.62 253.134 48.77 253.214 48.89C253.314 48.99 253.494 49.04 253.754 49.04ZM253.484 38.06H257.114C258.414 38.06 259.434 37.66 260.174 36.86C260.914 36.04 261.284 34.81 261.284 33.17C261.284 32.01 261.004 31.06 260.444 30.32C259.884 29.56 258.894 29.18 257.474 29.18H253.724C253.544 29.18 253.394 29.22 253.274 29.3C253.154 29.38 253.094 29.55 253.094 29.81V37.67C253.094 37.75 253.134 37.84 253.214 37.94C253.294 38.02 253.384 38.06 253.484 38.06Z" fill="#3E0014"/>
<path d="M234.47 50.36C232.59 50.36 230.91 49.9 229.43 48.98C227.97 48.04 226.81 46.73 225.95 45.05C225.11 43.35 224.69 41.37 224.69 39.11C224.69 37.41 224.94 35.87 225.44 34.49C225.96 33.11 226.66 31.93 227.54 30.95C228.44 29.95 229.48 29.19 230.66 28.67C231.86 28.13 233.13 27.86 234.47 27.86C235.83 27.86 237.1 28.13 238.28 28.67C239.46 29.19 240.49 29.95 241.37 30.95C242.27 31.93 242.97 33.11 243.47 34.49C243.99 35.87 244.25 37.41 244.25 39.11C244.25 41.37 243.82 43.35 242.96 45.05C242.12 46.73 240.96 48.04 239.48 48.98C238.02 49.9 236.35 50.36 234.47 50.36ZM234.47 49.28C235.55 49.28 236.53 48.97 237.41 48.35C238.31 47.71 239.02 46.65 239.54 45.17C240.08 43.67 240.35 41.65 240.35 39.11C240.35 36.55 240.08 34.53 239.54 33.05C239.02 31.57 238.31 30.51 237.41 29.87C236.53 29.23 235.55 28.91 234.47 28.91C233.39 28.91 232.41 29.23 231.53 29.87C230.65 30.51 229.94 31.57 229.4 33.05C228.88 34.53 228.62 36.55 228.62 39.11C228.62 41.65 228.88 43.67 229.4 45.17C229.94 46.65 230.65 47.71 231.53 48.35C232.41 48.97 233.39 49.28 234.47 49.28Z" fill="#3E0014"/>
<path d="M213.998 50.36C213.118 50.36 212.268 50.25 211.448 50.03C210.628 49.81 209.918 49.57 209.318 49.31C208.718 49.03 208.288 48.84 208.028 48.74C207.828 48.64 207.618 48.6 207.398 48.62C207.178 48.64 206.988 48.74 206.828 48.92C206.748 48.98 206.678 49.04 206.618 49.1C206.558 49.14 206.348 49.33 205.988 49.67C205.788 49.85 205.598 49.9 205.418 49.82C205.238 49.74 205.148 49.58 205.148 49.34V43.61C205.148 43.37 205.278 43.23 205.538 43.19C205.818 43.15 205.988 43.23 206.048 43.43C206.408 44.53 206.988 45.51 207.788 46.37C208.588 47.23 209.538 47.9 210.638 48.38C211.738 48.86 212.908 49.1 214.148 49.1C215.188 49.1 216.048 48.89 216.728 48.47C217.408 48.03 217.918 47.49 218.258 46.85C218.618 46.19 218.798 45.54 218.798 44.9C218.798 44 218.558 43.28 218.078 42.74C217.598 42.2 216.958 41.77 216.158 41.45C215.358 41.11 214.478 40.83 213.518 40.61C212.578 40.37 211.628 40.12 210.668 39.86C209.728 39.58 208.858 39.22 208.058 38.78C207.258 38.32 206.618 37.72 206.138 36.98C205.658 36.24 205.418 35.27 205.418 34.07C205.418 32.75 205.738 31.63 206.378 30.71C207.018 29.79 207.878 29.09 208.958 28.61C210.038 28.11 211.248 27.86 212.588 27.86C213.228 27.86 213.888 27.94 214.568 28.1C215.268 28.26 215.898 28.45 216.458 28.67C217.038 28.87 217.478 29.06 217.778 29.24C218.258 29.5 218.638 29.5 218.918 29.24C219.078 29.08 219.218 28.96 219.338 28.88C219.458 28.8 219.528 28.75 219.548 28.73C219.708 28.57 219.878 28.54 220.058 28.64C220.238 28.72 220.328 28.89 220.328 29.15V34.19C220.328 34.45 220.198 34.61 219.938 34.67C219.698 34.71 219.528 34.61 219.428 34.37C219.008 33.39 218.458 32.49 217.778 31.67C217.118 30.83 216.348 30.16 215.468 29.66C214.608 29.16 213.648 28.91 212.588 28.91C211.728 28.91 210.958 29.09 210.278 29.45C209.598 29.81 209.058 30.29 208.658 30.89C208.278 31.49 208.088 32.17 208.088 32.93C208.088 33.81 208.328 34.51 208.808 35.03C209.308 35.53 209.958 35.93 210.758 36.23C211.578 36.51 212.468 36.76 213.428 36.98C214.408 37.2 215.378 37.45 216.338 37.73C217.318 37.99 218.208 38.35 219.008 38.81C219.828 39.27 220.478 39.9 220.958 40.7C221.458 41.48 221.708 42.5 221.708 43.76C221.708 45.14 221.358 46.33 220.658 47.33C219.958 48.31 219.018 49.06 217.838 49.58C216.678 50.1 215.398 50.36 213.998 50.36Z" fill="#3E0014"/>
<path d="M176.019 50C175.739 50 175.599 49.84 175.599 49.52C175.599 49.24 175.739 49.1 176.019 49.1C177.059 49.1 177.789 48.97 178.209 48.71C178.649 48.45 178.869 47.97 178.869 47.27V30.89C178.869 30.25 178.669 29.79 178.269 29.51C177.869 29.23 177.159 29.09 176.139 29.09C175.879 29.09 175.749 28.94 175.749 28.64C175.749 28.54 175.779 28.45 175.839 28.37C175.899 28.27 175.999 28.22 176.139 28.22C176.299 28.22 177.069 28.23 178.449 28.25C179.849 28.27 181.879 28.28 184.539 28.28C187.079 28.28 189.009 28.27 190.329 28.25C191.669 28.23 192.419 28.22 192.579 28.22C193.059 28.22 193.309 28.45 193.329 28.91C193.349 29.09 193.369 29.39 193.389 29.81C193.429 30.21 193.459 30.64 193.479 31.1C193.499 31.54 193.509 31.94 193.509 32.3C193.529 32.64 193.539 32.86 193.539 32.96C193.539 33.04 193.519 33.12 193.479 33.2C193.439 33.28 193.339 33.33 193.179 33.35C193.059 33.35 192.959 33.34 192.879 33.32C192.799 33.28 192.729 33.19 192.669 33.05C192.429 32.53 192.119 31.97 191.739 31.37C191.359 30.77 190.859 30.26 190.239 29.84C189.639 29.4 188.849 29.18 187.869 29.18H182.829C182.649 29.18 182.499 29.23 182.379 29.33C182.259 29.41 182.199 29.57 182.199 29.81V37.97C182.199 38.23 182.329 38.36 182.589 38.36H184.359C185.199 38.36 185.839 38.19 186.279 37.85C186.719 37.51 187.049 37.11 187.269 36.65C187.489 36.17 187.669 35.76 187.809 35.42C187.849 35.28 187.899 35.18 187.959 35.12C188.019 35.04 188.129 35 188.289 35C188.429 35 188.519 35.05 188.559 35.15C188.619 35.23 188.649 35.32 188.649 35.42C188.649 35.58 188.649 35.86 188.649 36.26C188.649 36.66 188.639 37.1 188.619 37.58C188.619 38.04 188.619 38.47 188.619 38.87C188.619 39.25 188.619 39.7 188.619 40.22C188.639 40.72 188.649 41.19 188.649 41.63C188.649 42.05 188.649 42.33 188.649 42.47C188.649 42.77 188.529 42.92 188.289 42.92C188.049 42.92 187.889 42.79 187.809 42.53C187.669 42.17 187.489 41.74 187.269 41.24C187.049 40.74 186.719 40.3 186.279 39.92C185.839 39.54 185.199 39.35 184.359 39.35H182.589C182.329 39.35 182.199 39.5 182.199 39.8V48.41C182.199 48.79 182.409 48.98 182.829 48.98H187.299C188.259 48.98 189.069 48.81 189.729 48.47C190.409 48.13 190.959 47.7 191.379 47.18C191.799 46.66 192.129 46.14 192.369 45.62C192.629 45.1 192.819 44.66 192.939 44.3C192.999 44.14 193.069 44.05 193.149 44.03C193.229 43.99 193.339 43.98 193.479 44C193.639 44.02 193.729 44.07 193.749 44.15C193.789 44.23 193.809 44.32 193.809 44.42C193.809 44.5 193.799 44.75 193.779 45.17C193.779 45.59 193.779 46.07 193.779 46.61C193.779 47.13 193.769 47.63 193.749 48.11C193.749 48.57 193.749 48.89 193.749 49.07C193.729 49.33 193.639 49.55 193.479 49.73C193.339 49.91 193.129 50 192.849 50C192.709 50 192.379 49.99 191.859 49.97C191.359 49.95 190.549 49.94 189.429 49.94C188.309 49.92 186.759 49.91 184.779 49.91C182.319 49.91 180.289 49.93 178.689 49.97C177.109 49.99 176.219 50 176.019 50Z" fill="#3E0014"/>
<path d="M165.117 50.36C164.237 50.36 163.387 50.25 162.567 50.03C161.747 49.81 161.037 49.57 160.437 49.31C159.837 49.03 159.407 48.84 159.147 48.74C158.947 48.64 158.737 48.6 158.517 48.62C158.297 48.64 158.107 48.74 157.947 48.92C157.867 48.98 157.797 49.04 157.737 49.1C157.677 49.14 157.467 49.33 157.107 49.67C156.907 49.85 156.717 49.9 156.537 49.82C156.357 49.74 156.267 49.58 156.267 49.34V43.61C156.267 43.37 156.397 43.23 156.657 43.19C156.937 43.15 157.107 43.23 157.167 43.43C157.527 44.53 158.107 45.51 158.907 46.37C159.707 47.23 160.657 47.9 161.757 48.38C162.857 48.86 164.027 49.1 165.267 49.1C166.307 49.1 167.167 48.89 167.847 48.47C168.527 48.03 169.037 47.49 169.377 46.85C169.737 46.19 169.917 45.54 169.917 44.9C169.917 44 169.677 43.28 169.197 42.74C168.717 42.2 168.077 41.77 167.277 41.45C166.477 41.11 165.597 40.83 164.637 40.61C163.697 40.37 162.747 40.12 161.787 39.86C160.847 39.58 159.977 39.22 159.177 38.78C158.377 38.32 157.737 37.72 157.257 36.98C156.777 36.24 156.537 35.27 156.537 34.07C156.537 32.75 156.857 31.63 157.497 30.71C158.137 29.79 158.997 29.09 160.077 28.61C161.157 28.11 162.367 27.86 163.707 27.86C164.347 27.86 165.007 27.94 165.687 28.1C166.387 28.26 167.017 28.45 167.577 28.67C168.157 28.87 168.597 29.06 168.897 29.24C169.377 29.5 169.757 29.5 170.037 29.24C170.197 29.08 170.337 28.96 170.457 28.88C170.577 28.8 170.647 28.75 170.667 28.73C170.827 28.57 170.997 28.54 171.177 28.64C171.357 28.72 171.447 28.89 171.447 29.15V34.19C171.447 34.45 171.317 34.61 171.057 34.67C170.817 34.71 170.647 34.61 170.547 34.37C170.127 33.39 169.577 32.49 168.897 31.67C168.237 30.83 167.467 30.16 166.587 29.66C165.727 29.16 164.767 28.91 163.707 28.91C162.847 28.91 162.077 29.09 161.397 29.45C160.717 29.81 160.177 30.29 159.777 30.89C159.397 31.49 159.207 32.17 159.207 32.93C159.207 33.81 159.447 34.51 159.927 35.03C160.427 35.53 161.077 35.93 161.877 36.23C162.697 36.51 163.587 36.76 164.547 36.98C165.527 37.2 166.497 37.45 167.457 37.73C168.437 37.99 169.327 38.35 170.127 38.81C170.947 39.27 171.597 39.9 172.077 40.7C172.577 41.48 172.827 42.5 172.827 43.76C172.827 45.14 172.477 46.33 171.777 47.33C171.077 48.31 170.137 49.06 168.957 49.58C167.797 50.1 166.517 50.36 165.117 50.36Z" fill="#3E0014"/>
<path d="M132.609 50C132.329 50 132.189 49.86 132.189 49.58C132.189 49.26 132.329 49.1 132.609 49.1C133.269 49.1 133.799 48.97 134.199 48.71C134.599 48.43 134.959 47.95 135.279 47.27C135.419 46.97 135.639 46.44 135.939 45.68C136.259 44.92 136.619 44.01 137.019 42.95C137.439 41.89 137.869 40.76 138.309 39.56C138.769 38.34 139.219 37.14 139.659 35.96C140.119 34.76 140.539 33.64 140.919 32.6C141.319 31.56 141.649 30.68 141.909 29.96C142.189 29.22 142.369 28.73 142.449 28.49C142.549 28.23 142.669 28.06 142.809 27.98C142.949 27.9 143.179 27.86 143.499 27.86C143.819 27.86 144.049 27.91 144.189 28.01C144.349 28.09 144.469 28.24 144.549 28.46C144.689 28.82 144.919 29.44 145.239 30.32C145.579 31.2 145.969 32.24 146.409 33.44C146.869 34.62 147.339 35.86 147.819 37.16C148.319 38.46 148.799 39.74 149.259 41C149.719 42.24 150.139 43.35 150.519 44.33C150.899 45.31 151.189 46.07 151.389 46.61C152.049 48.27 152.849 49.1 153.789 49.1C154.049 49.1 154.179 49.26 154.179 49.58C154.179 49.86 154.049 50 153.789 50C153.589 50 153.189 49.99 152.589 49.97C152.009 49.95 151.199 49.94 150.159 49.94C149.299 49.94 148.509 49.95 147.789 49.97C147.069 49.99 146.599 50 146.379 50C146.119 50 145.989 49.86 145.989 49.58C145.989 49.26 146.119 49.1 146.379 49.1C146.999 49.1 147.429 49.01 147.669 48.83C147.929 48.65 148.069 48.42 148.089 48.14C148.109 47.86 148.059 47.58 147.939 47.3C147.919 47.2 147.769 46.74 147.489 45.92C147.229 45.08 146.899 44.11 146.499 43.01C146.419 42.81 146.339 42.69 146.259 42.65C146.199 42.61 146.099 42.59 145.959 42.59H138.519C138.319 42.59 138.199 42.68 138.159 42.86C138.039 43.28 137.889 43.78 137.709 44.36C137.529 44.92 137.369 45.46 137.229 45.98C137.089 46.5 137.019 46.93 137.019 47.27C137.019 47.95 137.199 48.43 137.559 48.71C137.919 48.97 138.409 49.1 139.029 49.1C139.289 49.1 139.419 49.26 139.419 49.58C139.419 49.86 139.289 50 139.029 50C138.829 50 138.459 49.99 137.919 49.97C137.399 49.95 136.699 49.94 135.819 49.94C135.039 49.94 134.359 49.95 133.779 49.97C133.199 49.99 132.809 50 132.609 50ZM138.999 41.57H145.539C145.639 41.57 145.729 41.55 145.809 41.51C145.889 41.47 145.899 41.36 145.839 41.18C145.599 40.48 145.319 39.66 144.999 38.72C144.679 37.78 144.349 36.84 144.009 35.9C143.669 34.96 143.369 34.14 143.109 33.44C142.869 32.72 142.709 32.25 142.629 32.03C142.569 31.89 142.499 31.82 142.419 31.82C142.339 31.82 142.279 31.87 142.239 31.97C142.179 32.11 142.039 32.46 141.819 33.02C141.619 33.56 141.369 34.22 141.069 35C140.769 35.76 140.459 36.55 140.139 37.37C139.819 38.17 139.529 38.91 139.269 39.59C139.029 40.27 138.859 40.78 138.759 41.12C138.679 41.42 138.759 41.57 138.999 41.57Z" fill="#3E0014"/>
<path d="M115.196 50.36C114.996 50.36 114.846 50.31 114.746 50.21C114.646 50.11 114.566 49.94 114.506 49.7C114.466 49.54 114.346 49.13 114.146 48.47C113.966 47.79 113.736 46.95 113.456 45.95C113.196 44.93 112.896 43.83 112.556 42.65C112.236 41.47 111.906 40.28 111.566 39.08C111.226 37.88 110.906 36.75 110.606 35.69C110.326 34.61 110.076 33.69 109.856 32.93C109.636 32.15 109.486 31.6 109.406 31.28C109.166 30.4 108.836 29.83 108.416 29.57C108.016 29.29 107.566 29.15 107.066 29.15C106.806 29.15 106.676 29 106.676 28.7C106.676 28.38 106.806 28.22 107.066 28.22C107.286 28.22 107.656 28.24 108.176 28.28C108.696 28.3 109.336 28.31 110.096 28.31C110.976 28.31 111.806 28.3 112.586 28.28C113.366 28.24 113.856 28.22 114.056 28.22C114.216 28.22 114.326 28.27 114.386 28.37C114.466 28.47 114.506 28.58 114.506 28.7C114.506 29 114.356 29.15 114.056 29.15C113.576 29.15 113.206 29.33 112.946 29.69C112.706 30.05 112.686 30.64 112.886 31.46C112.946 31.74 113.056 32.22 113.216 32.9C113.396 33.58 113.596 34.38 113.816 35.3C114.036 36.2 114.266 37.14 114.506 38.12C114.766 39.08 115.006 40 115.226 40.88C115.446 41.76 115.636 42.51 115.796 43.13C115.976 43.73 116.096 44.12 116.156 44.3C116.216 44.44 116.276 44.52 116.336 44.54C116.416 44.54 116.466 44.48 116.486 44.36C116.526 44.2 116.616 43.84 116.756 43.28C116.916 42.72 117.096 42.04 117.296 41.24C117.516 40.42 117.736 39.56 117.956 38.66C118.196 37.76 118.426 36.88 118.646 36.02C118.866 35.14 119.066 34.37 119.246 33.71C119.426 33.03 119.556 32.53 119.636 32.21C119.856 31.31 119.746 30.58 119.306 30.02C118.886 29.44 118.286 29.15 117.506 29.15C117.226 29.15 117.086 29 117.086 28.7C117.086 28.38 117.226 28.22 117.506 28.22C117.646 28.22 117.906 28.23 118.286 28.25C118.686 28.27 119.146 28.29 119.666 28.31C120.206 28.31 120.736 28.31 121.256 28.31C122.136 28.31 122.956 28.3 123.716 28.28C124.496 28.24 124.956 28.22 125.096 28.22C125.376 28.22 125.516 28.38 125.516 28.7C125.516 29 125.376 29.15 125.096 29.15C124.296 29.15 123.756 29.31 123.476 29.63C123.216 29.95 123.186 30.55 123.386 31.43C123.446 31.67 123.556 32.15 123.716 32.87C123.896 33.57 124.106 34.39 124.346 35.33C124.586 36.27 124.836 37.25 125.096 38.27C125.356 39.29 125.596 40.24 125.816 41.12C126.056 42 126.256 42.73 126.416 43.31C126.576 43.89 126.666 44.22 126.686 44.3C126.706 44.42 126.756 44.49 126.836 44.51C126.916 44.53 126.966 44.48 126.986 44.36C127.026 44.16 127.116 43.77 127.256 43.19C127.396 42.59 127.566 41.89 127.766 41.09C127.966 40.27 128.176 39.41 128.396 38.51C128.636 37.61 128.856 36.74 129.056 35.9C129.276 35.04 129.466 34.29 129.626 33.65C129.806 33.01 129.926 32.54 129.986 32.24C130.286 31 130.266 30.18 129.926 29.78C129.586 29.36 129.086 29.15 128.426 29.15C128.126 29.15 127.976 29 127.976 28.7C127.976 28.38 128.126 28.22 128.426 28.22C128.626 28.22 129.016 28.24 129.596 28.28C130.176 28.3 130.746 28.31 131.306 28.31C132.306 28.31 133.026 28.3 133.466 28.28C133.906 28.24 134.226 28.22 134.426 28.22C134.566 28.22 134.666 28.27 134.726 28.37C134.806 28.47 134.846 28.58 134.846 28.7C134.846 29 134.706 29.15 134.426 29.15C133.566 29.15 132.896 29.38 132.416 29.84C131.956 30.28 131.586 30.96 131.306 31.88C131.246 32.08 131.116 32.54 130.916 33.26C130.716 33.96 130.476 34.83 130.196 35.87C129.916 36.89 129.616 38 129.296 39.2C128.976 40.38 128.656 41.56 128.336 42.74C128.036 43.92 127.746 45.01 127.466 46.01C127.206 47.01 126.986 47.84 126.806 48.5C126.646 49.16 126.546 49.56 126.506 49.7C126.446 49.9 126.366 50.06 126.266 50.18C126.166 50.3 125.976 50.36 125.696 50.36C125.496 50.36 125.356 50.31 125.276 50.21C125.196 50.11 125.106 49.93 125.006 49.67C124.966 49.53 124.866 49.17 124.706 48.59C124.546 47.99 124.336 47.25 124.076 46.37C123.836 45.47 123.576 44.5 123.296 43.46C123.016 42.42 122.726 41.37 122.426 40.31C122.146 39.25 121.876 38.26 121.616 37.34C121.356 36.42 121.126 35.64 120.926 35C120.746 34.34 120.626 33.91 120.566 33.71C120.546 33.67 120.506 33.65 120.446 33.65C120.386 33.65 120.336 33.69 120.296 33.77C120.276 33.87 120.186 34.22 120.026 34.82C119.866 35.4 119.656 36.15 119.396 37.07C119.156 37.97 118.886 38.96 118.586 40.04C118.306 41.12 118.016 42.2 117.716 43.28C117.436 44.36 117.166 45.36 116.906 46.28C116.666 47.2 116.456 47.98 116.276 48.62C116.116 49.24 116.016 49.62 115.976 49.76C115.916 49.94 115.836 50.08 115.736 50.18C115.656 50.3 115.476 50.36 115.196 50.36Z" fill="#3E0014"/>
<path d="M86.96 50C86.68 50 86.54 49.86 86.54 49.58C86.54 49.26 86.68 49.1 86.96 49.1C87.62 49.1 88.15 48.97 88.55 48.71C88.95 48.43 89.31 47.95 89.63 47.27C89.77 46.97 89.99 46.44 90.29 45.68C90.61 44.92 90.97 44.01 91.37 42.95C91.79 41.89 92.22 40.76 92.66 39.56C93.12 38.34 93.57 37.14 94.01 35.96C94.47 34.76 94.89 33.64 95.27 32.6C95.67 31.56 96 30.68 96.26 29.96C96.54 29.22 96.72 28.73 96.8 28.49C96.9 28.23 97.02 28.06 97.16 27.98C97.3 27.9 97.53 27.86 97.85 27.86C98.17 27.86 98.4 27.91 98.54 28.01C98.7 28.09 98.82 28.24 98.9 28.46C99.04 28.82 99.27 29.44 99.59 30.32C99.93 31.2 100.32 32.24 100.76 33.44C101.22 34.62 101.69 35.86 102.17 37.16C102.67 38.46 103.15 39.74 103.61 41C104.07 42.24 104.49 43.35 104.87 44.33C105.25 45.31 105.54 46.07 105.74 46.61C106.4 48.27 107.2 49.1 108.14 49.1C108.4 49.1 108.53 49.26 108.53 49.58C108.53 49.86 108.4 50 108.14 50C107.94 50 107.54 49.99 106.94 49.97C106.36 49.95 105.55 49.94 104.51 49.94C103.65 49.94 102.86 49.95 102.14 49.97C101.42 49.99 100.95 50 100.73 50C100.47 50 100.34 49.86 100.34 49.58C100.34 49.26 100.47 49.1 100.73 49.1C101.35 49.1 101.78 49.01 102.02 48.83C102.28 48.65 102.42 48.42 102.44 48.14C102.46 47.86 102.41 47.58 102.29 47.3C102.27 47.2 102.12 46.74 101.84 45.92C101.58 45.08 101.25 44.11 100.85 43.01C100.77 42.81 100.69 42.69 100.61 42.65C100.55 42.61 100.45 42.59 100.31 42.59H92.87C92.67 42.59 92.55 42.68 92.51 42.86C92.39 43.28 92.24 43.78 92.06 44.36C91.88 44.92 91.72 45.46 91.58 45.98C91.44 46.5 91.37 46.93 91.37 47.27C91.37 47.95 91.55 48.43 91.91 48.71C92.27 48.97 92.76 49.1 93.38 49.1C93.64 49.1 93.77 49.26 93.77 49.58C93.77 49.86 93.64 50 93.38 50C93.18 50 92.81 49.99 92.27 49.97C91.75 49.95 91.05 49.94 90.17 49.94C89.39 49.94 88.71 49.95 88.13 49.97C87.55 49.99 87.16 50 86.96 50ZM93.35 41.57H99.89C99.99 41.57 100.08 41.55 100.16 41.51C100.24 41.47 100.25 41.36 100.19 41.18C99.95 40.48 99.67 39.66 99.35 38.72C99.03 37.78 98.7 36.84 98.36 35.9C98.02 34.96 97.72 34.14 97.46 33.44C97.22 32.72 97.06 32.25 96.98 32.03C96.92 31.89 96.85 31.82 96.77 31.82C96.69 31.82 96.63 31.87 96.59 31.97C96.53 32.11 96.39 32.46 96.17 33.02C95.97 33.56 95.72 34.22 95.42 35C95.12 35.76 94.81 36.55 94.49 37.37C94.17 38.17 93.88 38.91 93.62 39.59C93.38 40.27 93.21 40.78 93.11 41.12C93.03 41.42 93.11 41.57 93.35 41.57Z" fill="#3E0014"/>
<path d="M413.733 49C413.583 49 413.509 48.9253 413.509 48.776C413.509 48.6053 413.583 48.52 413.733 48.52C414.085 48.52 414.367 48.4507 414.581 48.312C414.794 48.1627 414.986 47.9067 415.157 47.544C415.231 47.384 415.349 47.1014 415.509 46.696C415.679 46.2907 415.871 45.8054 416.085 45.24C416.309 44.6747 416.538 44.072 416.773 43.432C417.018 42.7813 417.258 42.1413 417.493 41.512C417.738 40.872 417.962 40.2747 418.165 39.72C418.378 39.1653 418.554 38.696 418.693 38.312C418.842 37.9173 418.938 37.656 418.981 37.528C419.034 37.3894 419.098 37.2987 419.173 37.256C419.247 37.2133 419.37 37.192 419.541 37.192C419.711 37.192 419.834 37.2187 419.909 37.272C419.994 37.3147 420.058 37.3947 420.101 37.512C420.175 37.704 420.298 38.0347 420.469 38.504C420.65 38.9733 420.858 39.528 421.093 40.168C421.338 40.7973 421.589 41.4587 421.845 42.152C422.111 42.8454 422.367 43.528 422.613 44.2C422.858 44.8614 423.082 45.4534 423.285 45.976C423.487 46.4987 423.642 46.904 423.749 47.192C424.101 48.0773 424.527 48.52 425.029 48.52C425.167 48.52 425.237 48.6053 425.237 48.776C425.237 48.9253 425.167 49 425.029 49C424.922 49 424.709 48.9947 424.389 48.984C424.079 48.9733 423.647 48.968 423.093 48.968C422.634 48.968 422.213 48.9733 421.829 48.984C421.445 48.9947 421.194 49 421.077 49C420.938 49 420.869 48.9253 420.869 48.776C420.869 48.6053 420.938 48.52 421.077 48.52C421.407 48.52 421.637 48.472 421.765 48.376C421.903 48.28 421.978 48.1573 421.989 48.008C421.999 47.8587 421.973 47.7093 421.909 47.56C421.898 47.5067 421.818 47.2613 421.669 46.824C421.53 46.376 421.354 45.8587 421.141 45.272C421.098 45.1653 421.055 45.1014 421.013 45.08C420.981 45.0587 420.927 45.048 420.853 45.048H416.885C416.778 45.048 416.714 45.096 416.693 45.192C416.629 45.416 416.549 45.6827 416.453 45.992C416.357 46.2907 416.271 46.5787 416.197 46.856C416.122 47.1334 416.085 47.3627 416.085 47.544C416.085 47.9067 416.181 48.1627 416.373 48.312C416.565 48.4507 416.826 48.52 417.157 48.52C417.295 48.52 417.365 48.6053 417.365 48.776C417.365 48.9253 417.295 49 417.157 49C417.05 49 416.853 48.9947 416.565 48.984C416.287 48.9733 415.914 48.968 415.445 48.968C415.029 48.968 414.666 48.9733 414.357 48.984C414.047 48.9947 413.839 49 413.733 49ZM417.141 44.504H420.629C420.682 44.504 420.73 44.4934 420.773 44.472C420.815 44.4507 420.821 44.392 420.789 44.296C420.661 43.9227 420.511 43.4853 420.341 42.984C420.17 42.4827 419.994 41.9814 419.813 41.48C419.631 40.9787 419.471 40.5414 419.333 40.168C419.205 39.784 419.119 39.5334 419.077 39.416C419.045 39.3414 419.007 39.304 418.965 39.304C418.922 39.304 418.89 39.3307 418.869 39.384C418.837 39.4587 418.762 39.6453 418.645 39.944C418.538 40.232 418.405 40.584 418.245 41C418.085 41.4054 417.919 41.8267 417.749 42.264C417.578 42.6907 417.423 43.0854 417.285 43.448C417.157 43.8107 417.066 44.0827 417.013 44.264C416.97 44.424 417.013 44.504 417.141 44.504Z" fill="#3E0014"/>
<path d="M404.606 49.192C404.499 49.192 404.419 49.1654 404.366 49.112C404.312 49.0587 404.27 48.968 404.238 48.84C404.216 48.7547 404.152 48.536 404.046 48.184C403.95 47.8214 403.827 47.3734 403.678 46.84C403.539 46.296 403.379 45.7094 403.198 45.08C403.027 44.4507 402.851 43.816 402.67 43.176C402.488 42.536 402.318 41.9334 402.158 41.368C402.008 40.792 401.875 40.3014 401.758 39.896C401.64 39.48 401.56 39.1867 401.518 39.016C401.39 38.5467 401.214 38.2427 400.99 38.104C400.776 37.9547 400.536 37.88 400.27 37.88C400.131 37.88 400.062 37.8 400.062 37.64C400.062 37.4694 400.131 37.384 400.27 37.384C400.387 37.384 400.584 37.3947 400.862 37.416C401.139 37.4267 401.48 37.432 401.886 37.432C402.355 37.432 402.798 37.4267 403.214 37.416C403.63 37.3947 403.891 37.384 403.998 37.384C404.083 37.384 404.142 37.4107 404.174 37.464C404.216 37.5174 404.238 37.576 404.238 37.64C404.238 37.8 404.158 37.88 403.998 37.88C403.742 37.88 403.544 37.976 403.406 38.168C403.278 38.36 403.267 38.6747 403.374 39.112C403.406 39.2614 403.464 39.5174 403.55 39.88C403.646 40.2427 403.752 40.6694 403.87 41.16C403.987 41.64 404.11 42.1414 404.238 42.664C404.376 43.176 404.504 43.6667 404.622 44.136C404.739 44.6054 404.84 45.0054 404.926 45.336C405.022 45.656 405.086 45.864 405.118 45.96C405.15 46.0347 405.182 46.0774 405.214 46.088C405.256 46.088 405.283 46.056 405.294 45.992C405.315 45.9067 405.363 45.7147 405.438 45.416C405.523 45.1174 405.619 44.7547 405.726 44.328C405.843 43.8907 405.96 43.432 406.078 42.952C406.206 42.472 406.328 42.0027 406.446 41.544C406.563 41.0747 406.67 40.664 406.766 40.312C406.862 39.9494 406.931 39.6827 406.974 39.512C407.091 39.032 407.032 38.6427 406.798 38.344C406.574 38.0347 406.254 37.88 405.838 37.88C405.688 37.88 405.614 37.8 405.614 37.64C405.614 37.4694 405.688 37.384 405.838 37.384C405.912 37.384 406.051 37.3894 406.254 37.4C406.467 37.4107 406.712 37.4214 406.99 37.432C407.278 37.432 407.56 37.432 407.838 37.432C408.307 37.432 408.744 37.4267 409.15 37.416C409.566 37.3947 409.811 37.384 409.886 37.384C410.035 37.384 410.11 37.4694 410.11 37.64C410.11 37.8 410.035 37.88 409.886 37.88C409.459 37.88 409.171 37.9654 409.022 38.136C408.883 38.3067 408.867 38.6267 408.974 39.096C409.006 39.224 409.064 39.48 409.15 39.864C409.246 40.2374 409.358 40.6747 409.486 41.176C409.614 41.6774 409.747 42.2 409.886 42.744C410.024 43.288 410.152 43.7947 410.27 44.264C410.398 44.7334 410.504 45.1227 410.59 45.432C410.675 45.7414 410.723 45.9174 410.734 45.96C410.744 46.024 410.771 46.0614 410.814 46.072C410.856 46.0827 410.883 46.056 410.894 45.992C410.915 45.8854 410.963 45.6774 411.038 45.368C411.112 45.048 411.203 44.6747 411.31 44.248C411.416 43.8107 411.528 43.352 411.646 42.872C411.774 42.392 411.891 41.928 411.998 41.48C412.115 41.0214 412.216 40.6214 412.302 40.28C412.398 39.9387 412.462 39.688 412.494 39.528C412.654 38.8667 412.643 38.4294 412.462 38.216C412.28 37.992 412.014 37.88 411.662 37.88C411.502 37.88 411.422 37.8 411.422 37.64C411.422 37.4694 411.502 37.384 411.662 37.384C411.768 37.384 411.976 37.3947 412.286 37.416C412.595 37.4267 412.899 37.432 413.198 37.432C413.731 37.432 414.115 37.4267 414.35 37.416C414.584 37.3947 414.755 37.384 414.862 37.384C414.936 37.384 414.99 37.4107 415.022 37.464C415.064 37.5174 415.086 37.576 415.086 37.64C415.086 37.8 415.011 37.88 414.862 37.88C414.403 37.88 414.046 38.0027 413.79 38.248C413.544 38.4827 413.347 38.8454 413.198 39.336C413.166 39.4427 413.096 39.688 412.99 40.072C412.883 40.4454 412.755 40.9094 412.606 41.464C412.456 42.008 412.296 42.6 412.126 43.24C411.955 43.8694 411.784 44.4987 411.614 45.128C411.454 45.7574 411.299 46.3387 411.15 46.872C411.011 47.4054 410.894 47.848 410.798 48.2C410.712 48.552 410.659 48.7654 410.638 48.84C410.606 48.9467 410.563 49.032 410.51 49.096C410.456 49.16 410.355 49.192 410.206 49.192C410.099 49.192 410.024 49.1654 409.982 49.112C409.939 49.0587 409.891 48.9627 409.838 48.824C409.816 48.7494 409.763 48.5574 409.678 48.248C409.592 47.928 409.48 47.5334 409.342 47.064C409.214 46.584 409.075 46.0667 408.926 45.512C408.776 44.9574 408.622 44.3974 408.462 43.832C408.312 43.2667 408.168 42.7387 408.03 42.248C407.891 41.7574 407.768 41.3414 407.662 41C407.566 40.648 407.502 40.4187 407.47 40.312C407.459 40.2907 407.438 40.28 407.406 40.28C407.374 40.28 407.347 40.3014 407.326 40.344C407.315 40.3974 407.267 40.584 407.182 40.904C407.096 41.2134 406.984 41.6134 406.846 42.104C406.718 42.584 406.574 43.112 406.414 43.688C406.264 44.264 406.11 44.84 405.95 45.416C405.8 45.992 405.656 46.5254 405.518 47.016C405.39 47.5067 405.278 47.9227 405.182 48.264C405.096 48.5947 405.043 48.7974 405.022 48.872C404.99 48.968 404.947 49.0427 404.894 49.096C404.851 49.16 404.755 49.192 404.606 49.192Z" fill="#3E0014"/>
<path d="M388.746 49C388.597 49 388.522 48.9253 388.522 48.776C388.522 48.6053 388.597 48.52 388.746 48.52C389.098 48.52 389.381 48.4507 389.594 48.312C389.808 48.1627 390 47.9067 390.17 47.544C390.245 47.384 390.362 47.1014 390.522 46.696C390.693 46.2907 390.885 45.8054 391.098 45.24C391.322 44.6747 391.552 44.072 391.786 43.432C392.032 42.7813 392.272 42.1413 392.506 41.512C392.752 40.872 392.976 40.2747 393.178 39.72C393.392 39.1653 393.568 38.696 393.706 38.312C393.856 37.9173 393.952 37.656 393.994 37.528C394.048 37.3894 394.112 37.2987 394.186 37.256C394.261 37.2133 394.384 37.192 394.554 37.192C394.725 37.192 394.848 37.2187 394.922 37.272C395.008 37.3147 395.072 37.3947 395.114 37.512C395.189 37.704 395.312 38.0347 395.482 38.504C395.664 38.9733 395.872 39.528 396.106 40.168C396.352 40.7973 396.602 41.4587 396.858 42.152C397.125 42.8454 397.381 43.528 397.626 44.2C397.872 44.8614 398.096 45.4534 398.298 45.976C398.501 46.4987 398.656 46.904 398.762 47.192C399.114 48.0773 399.541 48.52 400.042 48.52C400.181 48.52 400.25 48.6053 400.25 48.776C400.25 48.9253 400.181 49 400.042 49C399.936 49 399.722 48.9947 399.402 48.984C399.093 48.9733 398.661 48.968 398.106 48.968C397.648 48.968 397.226 48.9733 396.842 48.984C396.458 48.9947 396.208 49 396.09 49C395.952 49 395.882 48.9253 395.882 48.776C395.882 48.6053 395.952 48.52 396.09 48.52C396.421 48.52 396.65 48.472 396.778 48.376C396.917 48.28 396.992 48.1573 397.002 48.008C397.013 47.8587 396.986 47.7093 396.922 47.56C396.912 47.5067 396.832 47.2613 396.682 46.824C396.544 46.376 396.368 45.8587 396.154 45.272C396.112 45.1653 396.069 45.1014 396.026 45.08C395.994 45.0587 395.941 45.048 395.866 45.048H391.898C391.792 45.048 391.728 45.096 391.706 45.192C391.642 45.416 391.562 45.6827 391.466 45.992C391.37 46.2907 391.285 46.5787 391.21 46.856C391.136 47.1334 391.098 47.3627 391.098 47.544C391.098 47.9067 391.194 48.1627 391.386 48.312C391.578 48.4507 391.84 48.52 392.17 48.52C392.309 48.52 392.378 48.6053 392.378 48.776C392.378 48.9253 392.309 49 392.17 49C392.064 49 391.866 48.9947 391.578 48.984C391.301 48.9733 390.928 48.968 390.458 48.968C390.042 48.968 389.68 48.9733 389.37 48.984C389.061 48.9947 388.853 49 388.746 49ZM392.154 44.504H395.642C395.696 44.504 395.744 44.4934 395.786 44.472C395.829 44.4507 395.834 44.392 395.802 44.296C395.674 43.9227 395.525 43.4853 395.354 42.984C395.184 42.4827 395.008 41.9814 394.826 41.48C394.645 40.9787 394.485 40.5414 394.346 40.168C394.218 39.784 394.133 39.5334 394.09 39.416C394.058 39.3414 394.021 39.304 393.978 39.304C393.936 39.304 393.904 39.3307 393.882 39.384C393.85 39.4587 393.776 39.6453 393.658 39.944C393.552 40.232 393.418 40.584 393.258 41C393.098 41.4054 392.933 41.8267 392.762 42.264C392.592 42.6907 392.437 43.0854 392.298 43.448C392.17 43.8107 392.08 44.0827 392.026 44.264C391.984 44.424 392.026 44.504 392.154 44.504Z" fill="#3E0014"/>
<path d="M385.592 49.032C385.57 49.032 385.533 49.032 385.48 49.032C385.277 49.0427 385.122 49.0374 385.016 49.016C384.92 48.9947 384.829 48.9094 384.744 48.76C384.616 48.536 384.418 48.2054 384.152 47.768C383.885 47.32 383.57 46.808 383.208 46.232C382.845 45.6454 382.461 45.0374 382.056 44.408C381.65 43.768 381.25 43.1387 380.856 42.52C380.472 41.9014 380.109 41.3307 379.768 40.808C379.437 40.2854 379.16 39.8534 378.936 39.512C378.712 39.1707 378.573 38.9574 378.52 38.872C378.509 38.84 378.482 38.8294 378.44 38.84C378.397 38.84 378.376 38.8667 378.376 38.92V46.36C378.376 47.1707 378.525 47.736 378.824 48.056C379.133 48.3654 379.49 48.52 379.896 48.52C380.045 48.52 380.12 48.6 380.12 48.76C380.12 48.92 380.045 49 379.896 49C379.789 49 379.581 48.9947 379.272 48.984C378.973 48.9627 378.584 48.952 378.104 48.952C377.549 48.952 377.144 48.9627 376.888 48.984C376.632 48.9947 376.445 49 376.328 49C376.189 49 376.12 48.92 376.12 48.76C376.12 48.6 376.189 48.52 376.328 48.52C376.754 48.52 377.101 48.36 377.368 48.04C377.634 47.72 377.768 47.1654 377.768 46.376V38.952C377.768 38.5467 377.672 38.264 377.48 38.104C377.298 37.9334 377.005 37.848 376.6 37.848C376.461 37.848 376.392 37.768 376.392 37.608C376.392 37.5547 376.408 37.5067 376.44 37.464C376.472 37.4107 376.525 37.384 376.6 37.384C376.685 37.384 376.946 37.3894 377.384 37.4C377.821 37.4107 378.434 37.416 379.224 37.416C379.405 37.416 379.538 37.4427 379.624 37.496C379.709 37.5494 379.789 37.64 379.864 37.768C379.906 37.8427 380.034 38.0454 380.248 38.376C380.461 38.7067 380.728 39.1227 381.048 39.624C381.368 40.1147 381.714 40.6534 382.088 41.24C382.472 41.816 382.85 42.392 383.224 42.968C383.597 43.544 383.944 44.0774 384.264 44.568C384.584 45.048 384.845 45.448 385.048 45.768C385.261 46.088 385.389 46.28 385.432 46.344C385.485 46.4187 385.538 46.4454 385.592 46.424C385.645 46.392 385.672 46.3387 385.672 46.264V40.024C385.672 39.2454 385.533 38.6907 385.256 38.36C384.978 38.0187 384.605 37.848 384.136 37.848C383.997 37.848 383.928 37.768 383.928 37.608C383.928 37.5547 383.949 37.5067 383.992 37.464C384.034 37.4107 384.082 37.384 384.136 37.384C384.253 37.384 384.461 37.3947 384.76 37.416C385.069 37.4267 385.458 37.432 385.928 37.432C386.386 37.432 386.765 37.4267 387.064 37.416C387.362 37.3947 387.565 37.384 387.672 37.384C387.746 37.384 387.8 37.4107 387.832 37.464C387.874 37.5067 387.896 37.5547 387.896 37.608C387.896 37.768 387.821 37.848 387.672 37.848C387.309 37.848 386.984 38.0134 386.696 38.344C386.418 38.664 386.28 39.2294 386.28 40.04V46.088C386.28 46.6534 386.296 47.1227 386.328 47.496C386.36 47.8587 386.386 48.2267 386.408 48.6C386.418 48.7174 386.37 48.8187 386.264 48.904C386.157 48.9894 385.933 49.032 385.592 49.032Z" fill="#3E0014"/>
<path d="M369.893 49C369.755 49 369.685 48.9147 369.685 48.744C369.685 48.5947 369.755 48.52 369.893 48.52C370.405 48.52 370.795 48.4667 371.061 48.36C371.328 48.2427 371.461 47.9867 371.461 47.592V38.76C371.461 38.3867 371.333 38.1414 371.077 38.024C370.821 37.9067 370.427 37.848 369.893 37.848C369.755 37.848 369.685 37.7734 369.685 37.624C369.685 37.464 369.755 37.384 369.893 37.384C370.075 37.384 370.304 37.3894 370.581 37.4C370.869 37.4107 371.173 37.4214 371.493 37.432C371.813 37.432 372.107 37.432 372.373 37.432C372.64 37.432 372.933 37.432 373.253 37.432C373.584 37.4214 373.893 37.4107 374.181 37.4C374.48 37.3894 374.715 37.384 374.885 37.384C375.045 37.384 375.125 37.464 375.125 37.624C375.125 37.7734 375.045 37.848 374.885 37.848C374.363 37.848 373.968 37.9067 373.701 38.024C373.445 38.1414 373.317 38.3867 373.317 38.76V47.592C373.317 47.9867 373.451 48.2427 373.717 48.36C373.995 48.4667 374.384 48.52 374.885 48.52C375.045 48.52 375.125 48.5947 375.125 48.744C375.125 48.9147 375.045 49 374.885 49C374.715 49 374.48 48.9947 374.181 48.984C373.893 48.9734 373.584 48.9627 373.253 48.952C372.933 48.9414 372.64 48.936 372.373 48.936C372.107 48.936 371.813 48.9414 371.493 48.952C371.173 48.9627 370.869 48.9734 370.581 48.984C370.304 48.9947 370.075 49 369.893 49Z" fill="#3E0014"/>
<path d="M358.312 49C358.173 49 358.104 48.9147 358.104 48.744C358.104 48.5947 358.173 48.52 358.312 48.52C358.739 48.52 359.043 48.456 359.224 48.328C359.416 48.1894 359.512 47.928 359.512 47.544V38.808C359.512 38.4667 359.432 38.2214 359.272 38.072C359.123 37.9227 358.835 37.848 358.408 37.848C358.248 37.848 358.168 37.7734 358.168 37.624C358.168 37.464 358.248 37.384 358.408 37.384C358.461 37.384 358.616 37.3894 358.872 37.4C359.128 37.4 359.405 37.4054 359.704 37.416C360.003 37.416 360.237 37.416 360.408 37.416C360.579 37.416 360.813 37.416 361.112 37.416C361.411 37.4054 361.688 37.4 361.944 37.4C362.2 37.3894 362.355 37.384 362.408 37.384C362.557 37.384 362.632 37.464 362.632 37.624C362.632 37.7734 362.557 37.848 362.408 37.848C361.981 37.848 361.688 37.9227 361.528 38.072C361.379 38.2214 361.304 38.4667 361.304 38.808V42.76C361.304 43.0054 361.389 43.032 361.56 42.84C361.635 42.7654 361.779 42.6214 361.992 42.408C362.216 42.184 362.472 41.928 362.76 41.64C363.059 41.3414 363.352 41.0374 363.64 40.728C363.939 40.4187 364.205 40.136 364.44 39.88C364.675 39.624 364.845 39.432 364.952 39.304C365.08 39.1334 365.181 38.9787 365.256 38.84C365.331 38.7014 365.368 38.568 365.368 38.44C365.368 38.2907 365.293 38.1574 365.144 38.04C364.995 37.912 364.781 37.848 364.504 37.848C364.365 37.848 364.296 37.7734 364.296 37.624C364.296 37.464 364.365 37.384 364.504 37.384C364.621 37.384 364.835 37.3894 365.144 37.4C365.453 37.4107 365.885 37.416 366.44 37.416C366.984 37.416 367.405 37.4107 367.704 37.4C368.013 37.3894 368.221 37.384 368.328 37.384C368.488 37.384 368.568 37.464 368.568 37.624C368.568 37.7734 368.488 37.848 368.328 37.848C368.093 37.848 367.805 37.9387 367.464 38.12C367.133 38.3014 366.787 38.5307 366.424 38.808C366.072 39.0854 365.741 39.3734 365.432 39.672C365.293 39.8107 365.08 40.024 364.792 40.312C364.515 40.6 364.173 40.9467 363.768 41.352C363.619 41.5014 363.603 41.6614 363.72 41.832C363.795 41.9387 363.939 42.168 364.152 42.52C364.365 42.872 364.611 43.288 364.888 43.768C365.176 44.2374 365.469 44.7174 365.768 45.208C366.067 45.688 366.339 46.1307 366.584 46.536C366.829 46.9414 367.016 47.2454 367.144 47.448C367.421 47.8747 367.651 48.1627 367.832 48.312C368.013 48.4507 368.269 48.52 368.6 48.52C368.749 48.52 368.824 48.5947 368.824 48.744C368.824 48.9147 368.749 49 368.6 49C368.493 49 368.28 48.9947 367.96 48.984C367.651 48.9627 367.224 48.952 366.68 48.952C366.221 48.952 365.789 48.9627 365.384 48.984C364.979 48.9947 364.723 49 364.616 49C364.467 49 364.392 48.9147 364.392 48.744C364.392 48.5947 364.467 48.52 364.616 48.52C365.139 48.52 365.4 48.4187 365.4 48.216C365.4 48.1734 365.368 48.0934 365.304 47.976C365.251 47.8587 365.181 47.72 365.096 47.56C365.021 47.432 364.899 47.224 364.728 46.936C364.557 46.6374 364.36 46.3014 364.136 45.928C363.923 45.5547 363.704 45.1867 363.48 44.824C363.267 44.4507 363.075 44.12 362.904 43.832C362.744 43.5334 362.627 43.32 362.552 43.192C362.467 43.0214 362.381 42.936 362.296 42.936C362.211 42.936 362.12 42.9894 362.024 43.096C361.864 43.256 361.757 43.368 361.704 43.432C361.651 43.4854 361.587 43.5547 361.512 43.64C361.427 43.7147 361.368 43.8054 361.336 43.912C361.315 44.008 361.304 44.104 361.304 44.2V47.544C361.304 47.9067 361.389 48.1627 361.56 48.312C361.741 48.4507 362.051 48.52 362.488 48.52C362.563 48.52 362.616 48.5467 362.648 48.6C362.691 48.6427 362.712 48.6907 362.712 48.744C362.712 48.9147 362.637 49 362.488 49C362.424 49 362.253 48.9947 361.976 48.984C361.709 48.9734 361.421 48.968 361.112 48.968C360.813 48.9574 360.579 48.952 360.408 48.952C360.237 48.952 359.997 48.9574 359.688 48.968C359.389 48.968 359.101 48.9734 358.824 48.984C358.557 48.9947 358.387 49 358.312 49Z" fill="#3E0014"/>
<path d="M351.627 49.192C350.625 49.192 349.729 48.9467 348.939 48.456C348.161 47.9547 347.542 47.256 347.083 46.36C346.635 45.4534 346.411 44.3973 346.411 43.192C346.411 42.2853 346.545 41.464 346.811 40.728C347.089 39.992 347.462 39.3627 347.931 38.84C348.411 38.3067 348.966 37.9013 349.595 37.624C350.235 37.336 350.913 37.192 351.627 37.192C352.353 37.192 353.03 37.336 353.659 37.624C354.289 37.9013 354.838 38.3067 355.307 38.84C355.787 39.3627 356.161 39.992 356.427 40.728C356.705 41.464 356.843 42.2853 356.843 43.192C356.843 44.3973 356.614 45.4534 356.155 46.36C355.707 47.256 355.089 47.9547 354.299 48.456C353.521 48.9467 352.63 49.192 351.627 49.192ZM351.627 48.616C352.203 48.616 352.726 48.4507 353.195 48.12C353.675 47.7787 354.054 47.2134 354.331 46.424C354.619 45.624 354.763 44.5467 354.763 43.192C354.763 41.8267 354.619 40.7494 354.331 39.96C354.054 39.1707 353.675 38.6053 353.195 38.264C352.726 37.9227 352.203 37.752 351.627 37.752C351.051 37.752 350.529 37.9227 350.059 38.264C349.59 38.6053 349.211 39.1707 348.923 39.96C348.646 40.7494 348.507 41.8267 348.507 43.192C348.507 44.5467 348.646 45.624 348.923 46.424C349.211 47.2134 349.59 47.7787 350.059 48.12C350.529 48.4507 351.051 48.616 351.627 48.616Z" fill="#3E0014"/>
<path d="M328.565 49C328.415 49 328.341 48.9093 328.341 48.728C328.341 48.5573 328.415 48.472 328.565 48.472C328.917 48.472 329.151 48.4027 329.269 48.264C329.397 48.1147 329.461 47.8587 329.461 47.496V42.984C329.461 42.7707 329.445 42.6053 329.413 42.488C329.381 42.36 329.295 42.2907 329.157 42.28C329.082 42.2587 328.975 42.2427 328.837 42.232C328.709 42.2107 328.607 42.1947 328.533 42.184C328.394 42.1733 328.325 42.088 328.325 41.928C328.325 41.7573 328.399 41.672 328.549 41.672C328.581 41.672 328.693 41.672 328.885 41.672C329.077 41.6613 329.29 41.656 329.525 41.656C329.77 41.656 329.994 41.656 330.197 41.656C330.399 41.6453 330.533 41.64 330.597 41.64C330.853 41.64 330.981 41.7733 330.981 42.04V42.616C330.981 42.648 330.997 42.6693 331.029 42.68C331.061 42.6907 331.093 42.6747 331.125 42.632C331.317 42.3547 331.567 42.088 331.877 41.832C332.197 41.576 332.607 41.448 333.109 41.448C333.546 41.448 333.967 41.544 334.373 41.736C334.789 41.9173 335.071 42.2587 335.221 42.76C335.242 42.8133 335.269 42.84 335.301 42.84C335.343 42.84 335.375 42.8187 335.397 42.776C335.493 42.5947 335.626 42.4027 335.797 42.2C335.978 41.9867 336.207 41.8107 336.485 41.672C336.773 41.5227 337.114 41.448 337.509 41.448C338.181 41.448 338.714 41.6293 339.109 41.992C339.514 42.3547 339.717 42.9627 339.717 43.816V47.464C339.717 47.8373 339.77 48.0987 339.877 48.248C339.983 48.3973 340.138 48.472 340.341 48.472C340.501 48.472 340.581 48.5573 340.581 48.728C340.581 48.9093 340.501 49 340.341 49C340.223 49 340.026 48.9947 339.749 48.984C339.471 48.9627 339.194 48.952 338.917 48.952C338.65 48.952 338.351 48.9627 338.021 48.984C337.701 48.9947 337.482 49 337.365 49C337.205 49 337.125 48.9093 337.125 48.728C337.125 48.5573 337.205 48.472 337.365 48.472C337.642 48.472 337.834 48.4027 337.941 48.264C338.058 48.1147 338.117 47.8587 338.117 47.496V44.072C338.117 43.464 338.021 43.0427 337.829 42.808C337.637 42.5627 337.343 42.44 336.949 42.44C336.661 42.44 336.399 42.5413 336.165 42.744C335.93 42.936 335.738 43.1973 335.589 43.528C335.45 43.8587 335.381 44.2213 335.381 44.616V47.464C335.381 47.8373 335.439 48.0987 335.557 48.248C335.685 48.3973 335.877 48.472 336.133 48.472C336.293 48.472 336.373 48.5573 336.373 48.728C336.373 48.9093 336.293 49 336.133 49C336.026 49 335.807 48.9947 335.477 48.984C335.146 48.9627 334.842 48.952 334.565 48.952C334.394 48.952 334.197 48.9573 333.973 48.968C333.749 48.968 333.541 48.9733 333.349 48.984C333.157 48.9947 333.018 49 332.933 49C332.783 49 332.709 48.9093 332.709 48.728C332.709 48.5573 332.783 48.472 332.933 48.472C333.274 48.472 333.498 48.4027 333.605 48.264C333.722 48.1147 333.781 47.8587 333.781 47.496V44.072C333.781 43.4853 333.674 43.064 333.461 42.808C333.247 42.5413 332.943 42.408 332.549 42.408C332.111 42.408 331.754 42.5893 331.477 42.952C331.199 43.3147 331.061 43.7627 331.061 44.296V47.464C331.061 47.8373 331.125 48.0987 331.253 48.248C331.381 48.3973 331.589 48.472 331.877 48.472C332.026 48.472 332.101 48.5573 332.101 48.728C332.101 48.9093 332.026 49 331.877 49C331.802 49 331.669 48.9947 331.477 48.984C331.285 48.9733 331.077 48.968 330.853 48.968C330.639 48.9573 330.442 48.952 330.261 48.952C330.079 48.952 329.871 48.9573 329.637 48.968C329.402 48.968 329.183 48.9733 328.981 48.984C328.789 48.9947 328.65 49 328.565 49Z" fill="#3E0014"/>
<path d="M323.601 49.192C322.886 49.192 322.252 49.0213 321.697 48.68C321.153 48.3387 320.726 47.8747 320.417 47.288C320.108 46.7013 319.953 46.04 319.953 45.304C319.953 44.568 320.108 43.912 320.417 43.336C320.726 42.7493 321.153 42.2907 321.697 41.96C322.252 41.6187 322.886 41.448 323.601 41.448C324.326 41.448 324.961 41.6187 325.505 41.96C326.049 42.2907 326.476 42.7493 326.785 43.336C327.094 43.912 327.249 44.568 327.249 45.304C327.249 46.04 327.094 46.7013 326.785 47.288C326.476 47.8747 326.049 48.3387 325.505 48.68C324.961 49.0213 324.326 49.192 323.601 49.192ZM323.601 48.664C324.241 48.664 324.71 48.3547 325.009 47.736C325.308 47.1173 325.457 46.3067 325.457 45.304C325.457 44.312 325.308 43.512 325.009 42.904C324.71 42.2853 324.241 41.976 323.601 41.976C322.961 41.976 322.492 42.2853 322.193 42.904C321.894 43.512 321.745 44.312 321.745 45.304C321.745 46.3067 321.894 47.1173 322.193 47.736C322.492 48.3547 322.961 48.664 323.601 48.664Z" fill="#3E0014"/>
<path d="M312.05 49C311.901 49 311.826 48.9093 311.826 48.728C311.826 48.5573 311.901 48.472 312.05 48.472C312.487 48.472 312.802 48.4027 312.994 48.264C313.197 48.1147 313.298 47.8587 313.298 47.496V43.016C313.298 42.792 313.271 42.6213 313.218 42.504C313.175 42.376 313.079 42.3067 312.93 42.296C312.877 42.2853 312.781 42.2747 312.642 42.264C312.503 42.2427 312.365 42.2267 312.226 42.216C312.098 42.2053 312.007 42.1947 311.954 42.184C311.805 42.1627 311.73 42.0773 311.73 41.928C311.73 41.768 311.81 41.6773 311.97 41.656C312.002 41.656 312.13 41.656 312.354 41.656C312.589 41.656 312.85 41.656 313.138 41.656C313.437 41.6453 313.709 41.64 313.954 41.64C314.199 41.64 314.354 41.64 314.418 41.64C314.674 41.64 314.802 41.7733 314.802 42.04V42.92C314.802 42.952 314.818 42.9733 314.85 42.984C314.882 42.9947 314.914 42.9787 314.946 42.936C315.117 42.7013 315.314 42.472 315.538 42.248C315.773 42.024 316.034 41.8373 316.322 41.688C316.621 41.528 316.946 41.448 317.298 41.448C317.874 41.448 318.306 41.5707 318.594 41.816C318.882 42.0613 319.026 42.376 319.026 42.76C319.026 42.9733 318.941 43.1973 318.77 43.432C318.61 43.656 318.359 43.768 318.018 43.768C317.645 43.768 317.389 43.672 317.25 43.48C317.111 43.2773 317.042 43.0853 317.042 42.904C317.042 42.6907 317.015 42.536 316.962 42.44C316.919 42.344 316.818 42.296 316.658 42.296C316.381 42.296 316.103 42.4347 315.826 42.712C315.549 42.9787 315.319 43.3253 315.138 43.752C314.967 44.168 314.882 44.6053 314.882 45.064V47.464C314.882 47.8373 314.999 48.0987 315.234 48.248C315.479 48.3973 315.783 48.472 316.146 48.472C316.317 48.472 316.402 48.5573 316.402 48.728C316.402 48.9093 316.317 49 316.146 49C316.039 49 315.81 48.9947 315.458 48.984C315.106 48.9627 314.647 48.952 314.082 48.952C313.613 48.952 313.186 48.9627 312.802 48.984C312.418 48.9947 312.167 49 312.05 49Z" fill="#3E0014"/>
<path d="M305.816 49C305.656 49 305.576 48.9093 305.576 48.728C305.576 48.5573 305.656 48.472 305.816 48.472C306.253 48.472 306.563 48.4027 306.744 48.264C306.936 48.1147 307.032 47.8587 307.032 47.496V42.376C307.032 42.2907 306.984 42.248 306.888 42.248H305.784C305.624 42.248 305.544 42.168 305.544 42.008V41.864C305.544 41.8107 305.565 41.7627 305.608 41.72C305.651 41.6667 305.709 41.64 305.784 41.64H306.888C306.984 41.64 307.032 41.592 307.032 41.496V40.696C307.032 39.896 307.16 39.2453 307.416 38.744C307.683 38.232 308.013 37.8533 308.408 37.608C308.813 37.3627 309.213 37.24 309.608 37.24C310.088 37.24 310.499 37.3573 310.84 37.592C311.192 37.816 311.368 38.136 311.368 38.552C311.368 38.84 311.283 39.0693 311.112 39.24C310.941 39.4107 310.701 39.496 310.392 39.496C310.147 39.496 309.949 39.4267 309.8 39.288C309.661 39.1387 309.608 38.9147 309.64 38.616C309.651 38.4347 309.619 38.2853 309.544 38.168C309.469 38.04 309.347 37.992 309.176 38.024C309.016 38.056 308.883 38.2213 308.776 38.52C308.68 38.8187 308.632 39.3413 308.632 40.088V41.496C308.632 41.592 308.675 41.64 308.76 41.64H310.488C310.552 41.64 310.605 41.6667 310.648 41.72C310.701 41.7627 310.728 41.8107 310.728 41.864V42.008C310.728 42.168 310.648 42.248 310.488 42.248H308.76C308.675 42.248 308.632 42.2907 308.632 42.376V47.496C308.632 47.8587 308.739 48.1147 308.952 48.264C309.165 48.4027 309.549 48.472 310.104 48.472C310.264 48.472 310.344 48.5573 310.344 48.728C310.344 48.9093 310.264 49 310.104 49C310.029 49 309.864 48.9947 309.608 48.984C309.352 48.9733 309.064 48.968 308.744 48.968C308.424 48.9573 308.12 48.952 307.832 48.952C307.576 48.952 307.304 48.9573 307.016 48.968C306.739 48.968 306.488 48.9733 306.264 48.984C306.04 48.9947 305.891 49 305.816 49Z" fill="#3E0014"/>
<path d="M37.5866 2.76855C28.6323 2.76855 20.5916 6.66096 15.0454 12.8376C13.4373 13.4316 11.9022 13.4133 11.0799 11.8782C10.8971 11.2569 10.02 9.08229 8.40272 11.4397C7.58952 12.8102 6.84941 13.9889 8.15602 19.7727C8.68597 21.1067 8.7682 22.5595 8.63115 24.2225C7.79053 27.0093 7.33368 29.9606 7.33368 33.0124C7.33368 49.7241 20.884 63.2745 37.5958 63.2745C54.3075 63.2745 67.8578 49.7241 67.8578 33.0124C67.8578 16.3006 54.2984 2.76855 37.5866 2.76855Z" fill="white"/>
<path d="M37.5866 66.0521C19.3764 66.0521 4.56512 51.2409 4.56512 33.0306C4.56512 29.8783 5.01284 26.7534 5.89914 23.7382C5.98138 22.459 5.89 21.5453 5.58848 20.8052C5.53366 20.6681 5.49711 20.5311 5.46056 20.394C4.03517 14.0803 4.78442 12.1432 5.99965 10.0782C6.02706 10.0234 6.09102 9.93203 6.12757 9.87721C7.60778 7.72085 9.22505 7.46501 10.3306 7.63862C11.7195 7.85791 12.8433 8.85385 13.4921 10.4072C13.5012 10.4072 13.5195 10.4072 13.5286 10.4072C19.7601 3.78276 28.4861 0 37.5866 0C55.7969 0 70.6172 14.8112 70.6172 33.0306C70.6172 51.25 55.806 66.0521 37.5866 66.0521Z" fill="white"/>
<path d="M37.5866 2.76855C28.6323 2.76855 20.5916 6.66096 15.0454 12.8376C13.4373 13.4316 11.9022 13.4133 11.0799 11.8782C10.8971 11.2569 10.02 9.08229 8.40272 11.4397C7.58952 12.8102 6.84941 13.9889 8.15602 19.7727C8.68597 21.1067 8.7682 22.5595 8.63115 24.2225C7.79053 27.0093 7.33368 29.9606 7.33368 33.0124C7.33368 49.7241 20.884 63.2745 37.5958 63.2745C54.3075 63.2745 67.8578 49.7241 67.8578 33.0124C67.8578 16.3006 54.2984 2.76855 37.5866 2.76855Z" fill="#E60012"/>
<path d="M9.53569 17.7535C9.76411 21.3443 12.3865 22.5413 12.8433 24.5332C12.8433 24.5332 11.4728 22.7697 10.7326 22.7149C10.5042 25.054 13.757 27.1647 13.6931 27.5667L12.3773 27.1098V27.85L11.6372 27.3383C11.5824 30.3627 14.2047 31.2124 14.7712 32.8114C14.086 32.1261 12.2677 31.2764 11.9205 30.9292C11.6281 31.6693 12.9438 33.8987 14.424 34.8672C14.1408 35.1505 12.825 34.9221 12.825 34.9221C14.1956 37.316 18.2433 38.0561 18.4718 38.5678C19.2119 40.1668 19.2758 45.8683 26.5124 48.8287C24.5114 47.3485 21.7794 45.4663 19.3215 38.7322C18.8647 37.0236 22.0627 35.9363 21.2038 32.5738C21.2038 32.5738 19.55 33.7708 19.1479 34.2277C18.5814 34.2825 21.9987 31.3769 19.7236 25.6753C19.1022 25.785 18.8098 27.5576 17.7865 27.8408C18.7002 25.9586 19.2119 22.9982 16.7083 20.8875C16.7083 20.8875 15.9042 22.2032 15.3926 22.4316C15.9042 20.4946 14.424 17.8722 13.0535 17.2418C13.0535 17.2418 12.6514 18.8956 12.5966 19.2337C12.3682 19.5169 12.423 16.8397 11.9113 16.0996C11.3997 15.3595 10.3123 14.6103 9.97427 14.2722C9.97427 14.2722 9.12452 16.2732 11.1712 18.2651C12.0301 18.9504 12.1398 19.8002 12.2037 20.257C11.6281 19.1697 10.6047 18.2651 9.52655 17.7443L9.53569 17.7535Z" fill="white"/>
<path d="M24.155 21.2803C24.2281 20.3118 26.9053 20.2935 27.618 18.5483L26.5398 18.658C28.0749 17.2143 28.1297 16.0722 28.1297 16.0722C27.7916 16.2001 26.3662 17.2965 26.3662 17.2965C26.4028 16.9493 28.4312 15.3047 28.084 13.8427L27.6363 14.1534L27.6089 13.6965C27.5175 13.9889 26.8962 14.1351 26.8962 14.1351C26.9875 13.7331 28.8606 12.1615 28.6231 10.9097C28.285 11.0376 27.2525 12.1158 27.2525 12.1158C27.2525 11.1473 29.4728 9.7767 29.153 7.85791C29.153 7.85791 28.1023 8.65284 27.682 9.30158C27.4901 8.79903 29.5825 7.27314 28.815 5.71069C28.7145 6.0579 28.0474 6.3777 27.7368 6.78887C27.1429 7.72999 27.8007 8.21426 27.3804 8.91782C27.1886 8.69853 27.0332 7.62035 27.0332 7.62035L25.6535 10.9463L24.8586 9.95945C23.6616 10.9919 23.4149 13.0569 24.3378 14.3818C23.689 14.1808 23.1134 12.8925 23.1134 12.8925C22.1357 16.1361 23.4149 18.0184 23.7804 18.3382C23.3236 18.2468 22.483 17.3696 22.483 17.3696C21.9347 19.1057 23.689 20.1108 23.7347 20.7961C22.6657 25.7575 20.2626 26.79 20.2626 26.79C21.9347 27.1098 24.0363 23.3544 24.155 21.2895V21.2803Z" fill="white"/>
<path d="M20.884 47.6865C15.8677 42.6702 18.2068 43.5291 15.5296 40.2763C13.5286 37.9921 10.2849 37.3707 10.2849 37.3707C12.1672 39.6002 12.222 41.8205 13.2545 45.1281C15.2464 51.6246 20.0433 53.5069 22.3824 53.5069C24.0911 53.5069 26.2566 52.5383 27.1063 49.8611C24.3104 50.1444 23.0586 49.6327 20.8931 47.6957L20.884 47.6865Z" fill="white"/>
<path d="M23.4515 24.3595C28.4677 20.8234 37.8241 24.4143 45.2343 24.4143C50.3602 24.4143 55.7785 25.0996 60.8588 24.1311C47.1166 24.1311 39.7612 19.6265 31.0353 19.6265C24.6484 19.6265 23.4515 24.3595 23.4515 24.3595Z" fill="white"/>
<path d="M30.7429 29.522C32.7439 29.4946 35.5125 29.3302 35.7044 30.2713C35.9419 32.3728 31.0262 30.5454 31.4008 33.387C31.5653 34.5748 31.8028 35.5617 33.4658 35.5617C35.0191 35.5617 37.2577 33.5606 37.2577 30.1068C37.2577 28.2063 37.2577 26.1413 33.0546 25.8763C30.3135 25.6753 26.284 25.9768 25.4708 26.1139C24.3835 26.2144 22.9307 26.8266 23.1683 28.4164C23.1683 28.4164 23.3693 30.2073 25.2332 30.2073C26.5216 30.2073 27.0058 29.6956 29.1622 29.5677C29.6008 30.3992 29.281 31.6967 28.9246 32.6835C28.3764 34.0358 26.7866 34.1363 26.0739 34.1363C25.9094 34.1363 23.2322 33.7982 23.2322 36.2013C23.2322 36.5759 23.1683 39.116 25.9094 39.116C29.8018 39.116 30.8891 35.7627 30.8891 33.0855C30.8891 32.0256 30.7886 30.253 30.7429 29.522Z" fill="white"/>
<path d="M49.8943 34.7118C50.9816 32.2722 50.7075 29.193 50.744 29.0194C50.6709 27.5301 49.6202 26.3148 46.9795 26.3148C45.1156 26.2783 41.7988 26.3148 41.7988 26.3148C40.346 26.3148 38.3815 26.8905 38.3815 28.7818V32.0712C38.3815 32.9484 39.5968 33.8347 39.9348 32.0347C39.9988 31.4864 39.8617 29.9331 41.1592 29.7595C41.9724 29.659 46.5775 29.5585 48.1308 29.659C49.0171 29.6225 49.5197 29.86 49.4557 31.0478C49.3552 32.8479 48.478 34.5017 43.7998 34.5017C41.6983 34.5017 39.3318 33.9991 39.3318 36.6672C39.3318 38.056 39.8709 38.7322 40.9947 38.7322C43.1602 38.7322 48.0394 39.6824 49.9034 34.7027L49.8943 34.7118Z" fill="white"/>
<path d="M62.1654 35.4063H55.2395C54.9836 35.4063 54.2161 35.2601 54.2161 34.2915V31.0844C56.939 30.8194 61.4892 30.2073 61.4892 31.4133C61.4892 32.3819 60.0364 32.3271 59.4974 32.3271C58.6659 32.3271 57.1308 31.9342 57.1308 33.6702C57.1308 34.8946 58.2456 34.8123 58.7847 34.8123C61.0415 34.8123 63.207 34.4743 63.4903 32.391C63.6639 30.993 63.4629 29.2296 62.4395 28.7179C61.2151 27.9138 56.939 27.722 54.2252 28.0509V27.4661C54.2252 27.4661 54.3714 26.3879 53.3664 26.3879C52.4801 26.3879 52.5075 27.4113 52.5075 27.4113C52.5075 27.4661 52.5075 27.8499 52.5075 28.4072C52.4801 28.4164 52.4435 28.4255 52.4161 28.4347C52.4161 28.4347 51.5663 28.9555 51.5663 30.1798C51.5663 31.0113 52.0689 31.2032 52.4801 31.2306C52.4618 33.2499 52.4344 35.4885 52.4526 36.3657C52.5349 37.9646 53.1928 38.6773 54.7917 38.6773H62.0923C62.0923 38.6773 63.6913 38.2753 63.6913 37.1332C63.6913 36.1098 63.2344 35.4245 62.1837 35.4245L62.1654 35.4063Z" fill="white"/>
<path d="M41.013 44.4977H39.4871L40.3917 43.7302C41.1957 43.0997 41.3328 42.8165 41.3328 42.2226C41.3328 41.5099 40.9034 40.2855 35.7226 40.1941C33.2465 40.1119 32.0952 40.0845 31.8759 41.7657C31.8759 41.7657 31.7937 43.2459 33.1825 43.2459C34.4069 43.3282 37.7419 42.9901 37.7967 43.5292C37.8242 43.7119 37.5592 44.0591 37.148 44.4977H31.6383C30.35 44.4977 29.4728 44.781 29.4728 45.8957C29.4728 45.8957 29.4728 47.7231 30.9805 47.7231H34.0414C33.9226 47.8693 33.813 48.0155 33.7216 48.1526C32.8353 49.3221 32.2688 51.4602 34.5165 52.6023C36.0881 53.2602 38.3084 53.4338 38.7379 53.4338C40.0445 53.4338 41.8445 53.2602 41.8445 51.378C41.8445 50.0074 40.4191 50.0714 39.9896 50.0714C37.3125 50.1536 34.6536 50.2998 34.6262 49.3861C34.6079 48.9018 35.3754 48.0795 35.7318 47.7323H40.5287C41.7531 47.7323 42.411 46.9373 42.411 46.1059C42.411 45.2744 41.8993 44.5069 41.013 44.5069V44.4977Z" fill="white"/>
<path d="M43.4983 41.2448V52.4195C43.4983 53.3058 45.1795 53.6165 45.1795 52.2733V41.1535C45.1795 40.2124 43.4983 39.8926 43.4983 41.2357V41.2448Z" fill="white"/>
<path d="M56.3268 45.2926C57.1217 45.2926 57.2953 44.0957 57.2953 43.7302C57.2953 43.2185 57.14 42.7525 56.3908 42.5058C56.3908 42.3779 56.3725 42.2317 56.2903 42.0215C56.0892 41.455 55.7512 40.7332 55.0659 41.0256C54.6364 41.254 54.81 41.7109 54.8923 41.8571L55.1938 42.3505C55.1298 42.3505 55.075 42.3505 55.0019 42.3505H54.2618V41.6378C54.2618 40.2946 52.7268 40.121 52.7268 41.6104V42.3505H47.7927C47.1714 42.3505 46.2303 42.6063 46.2303 43.8855C46.2303 43.8855 46.1663 45.3109 47.3998 45.3109H52.7359V46.983C52.5715 46.9464 52.407 46.9007 52.2242 46.8825C49.8029 46.6266 45.8374 46.0875 45.8374 49.7332C45.8374 51.78 46.9521 53.0957 49.9126 53.0957C52.3796 53.0957 53.9055 52.3373 54.207 50.519C54.5816 50.8663 54.9288 51.2774 55.2121 51.8074C55.6415 52.8673 56.409 53.2876 56.7837 52.4652C56.9847 51.8256 56.5187 49.0023 54.2801 47.6043V45.3109H56.3359L56.3268 45.2926ZM49.7389 50.6561C47.6831 50.6561 47.3724 50.2815 47.3724 49.7972C47.3724 49.2307 48.9166 49.0845 49.9948 49.0845C50.7623 49.0845 51.7217 49.1759 52.6354 49.5322C52.4253 50.2267 51.7491 50.6561 49.7298 50.6561H49.7389Z" fill="white"/>
<path d="M57.204 40.2216C56.9756 39.9657 55.9522 39.7099 56.2903 41.0165L56.6283 41.5282C56.6283 41.5282 56.8842 41.985 57.4507 41.7292C57.9349 41.5556 57.6243 40.9891 57.5969 40.9069L57.1948 40.2216H57.204Z" fill="white"/>
<path d="M5.77124 77.4005L4.88494 79.9132H3.65143L7.16921 69.9446H8.60374L12.1124 79.9132H10.8606L9.98344 77.4005H5.77124ZM7.88191 71.37L6.13672 76.3497H9.61796L7.88191 71.37Z" fill="white"/>
<path d="M16.2789 74.3395L14.8626 79.9131H13.9124L11.9296 73.0603H13.0169L14.3875 78.0309L14.3966 78.6796L14.4058 78.0309L15.6302 73.0603H16.9459L18.1703 78.0309L18.1794 78.6796L18.2068 78.0309L19.5682 73.0603H20.6556L18.6545 79.9131H17.7134L16.3063 74.3395L16.288 73.7913L16.2789 74.3395Z" fill="white"/>
<path d="M21.8251 75.3355C21.8617 73.6634 22.8485 72.9507 24.4201 72.9507C26.9145 72.9507 26.9145 74.3487 26.9145 75.436V78.6705C26.9145 79.1456 26.9693 79.3832 27.3165 79.9132H26.3206C26.0922 79.6299 25.9825 79.438 25.9277 79.1274C25.4617 79.6299 24.8312 80.0228 23.7896 80.0228C22.1632 80.0228 21.6698 79.1731 21.6698 78.1862C21.6698 76.6055 22.8668 76.2766 24.1916 75.9385C25.2698 75.6735 25.882 75.5182 25.882 74.9791C25.882 73.8827 24.6759 73.8827 24.4475 73.8827C23.5703 73.8827 22.8668 74.038 22.8119 75.3446H21.816L21.8251 75.3355ZM25.9094 76.24C25.5348 76.5142 25.1693 76.5964 23.8718 76.9345C23.1043 77.1263 22.6932 77.3913 22.6932 78.1131C22.6932 78.6157 22.8576 79.0908 23.7531 79.0908C25.4434 79.0908 25.9186 77.8939 25.9186 77.2999V76.24H25.9094Z" fill="white"/>
<path d="M29.9023 77.4644C29.9388 78.3142 30.1033 79.1 31.5378 79.1C31.8302 79.1 32.9632 79.1 32.9632 77.9852C32.9632 77.4005 32.7074 77.1629 31.218 76.8065C30.0211 76.505 28.952 76.2492 28.952 74.97C28.952 74.1568 29.4911 72.9507 31.3368 72.9507C32.3327 72.9507 33.7581 73.1883 33.8221 75.1527H32.817C32.7896 74.7324 32.7348 73.8827 31.3825 73.8827C31.0627 73.8827 29.9571 73.9192 29.9571 74.8786C29.9571 75.4177 30.1855 75.5456 31.6749 75.8837C33.1368 76.2218 33.9866 76.5873 33.9866 77.8208C33.9866 78.369 33.9317 80.0319 31.5195 80.0319C29.2627 80.0319 28.9703 78.5152 28.8881 77.4736H29.9114L29.9023 77.4644Z" fill="white"/>
<path d="M41.3146 77.5832C40.9491 79.5385 39.6333 80.0228 38.4181 80.0228C36.1886 80.0228 35.412 78.2411 35.412 76.569C35.412 74.0563 36.9562 72.9507 38.3907 72.9507C39.6516 72.9507 40.6019 73.6908 40.9948 74.8238C41.2323 75.5273 41.2323 76.2766 41.2506 76.7152H36.4262C36.4628 77.3091 36.6181 79.1 38.409 79.1C39.8892 79.1 40.1816 77.9304 40.2729 77.5832H41.3054H41.3146ZM40.0902 75.7741C39.9805 74.5314 39.1765 73.8735 38.3176 73.8735C37.4587 73.8735 36.682 74.4674 36.481 75.7741H40.0902Z" fill="white"/>
<path d="M43.7633 77.4644C43.7999 78.3142 43.9643 79.1 45.3988 79.1C45.6912 79.1 46.8242 79.1 46.8242 77.9852C46.8242 77.4005 46.5684 77.1629 45.079 76.8065C43.8821 76.505 42.813 76.2492 42.813 74.97C42.813 74.1568 43.3521 72.9507 45.1978 72.9507C46.1938 72.9507 47.6192 73.1883 47.6831 75.1527H46.678C46.6506 74.7324 46.5958 73.8827 45.2435 73.8827C44.9237 73.8827 43.8181 73.9192 43.8181 74.8786C43.8181 75.4177 44.0466 75.5456 45.5359 75.8837C46.9978 76.2218 47.8476 76.5873 47.8476 77.8208C47.8476 78.369 47.7928 80.0319 45.3806 80.0319C43.1237 80.0319 42.8313 78.5152 42.7491 77.4736H43.7724L43.7633 77.4644Z" fill="white"/>
<path d="M52.2242 80.0319C50.5339 80.0319 49.3369 78.6431 49.3369 76.5415C49.3369 74.44 50.4242 72.9415 52.2242 72.9415C53.3938 72.9415 55.1116 73.709 55.1116 76.4867C55.1116 78.9355 53.677 80.0228 52.2242 80.0228M52.2242 73.8735C51.1004 73.8735 50.3877 74.9151 50.3877 76.4867C50.3877 78.0583 51.1552 79.0908 52.2242 79.0908C53.2933 79.0908 54.0608 78.1497 54.0608 76.4867C54.0608 74.8238 53.3116 73.8735 52.2242 73.8735Z" fill="white"/>
<path d="M57.6791 79.9132H56.674V69.9446H57.6791V73.7182C57.8527 73.5263 58.4192 72.9415 59.4882 72.9415C60.9228 72.9415 62.3116 74.0289 62.3116 76.4776C62.3116 78.6065 61.2152 80.0137 59.4882 80.0137C58.4649 80.0137 57.9623 79.5385 57.6791 79.237V79.904V79.9132ZM57.6791 77.4096C57.6791 77.8756 58.2456 79.0908 59.3969 79.0908C60.4476 79.0908 61.2608 78.1314 61.2608 76.4867C61.2608 74.2847 60.1096 73.8735 59.4517 73.8735C58.0446 73.8735 57.6791 75.3537 57.6791 75.4908V77.4096Z" fill="white"/>
<path d="M63.8193 75.3355C63.8558 73.6634 64.8426 72.9507 66.4142 72.9507C68.9086 72.9507 68.9086 74.3487 68.9086 75.436V78.6705C68.9086 79.1456 68.9635 79.3832 69.3107 79.9132H68.3147C68.0863 79.6299 67.9766 79.438 67.9218 79.1274C67.4558 79.6299 66.8162 80.0228 65.7837 80.0228C64.1573 80.0228 63.6639 79.1731 63.6639 78.1862C63.6639 76.6055 64.8609 76.2766 66.1858 75.9385C67.264 75.6735 67.8761 75.5182 67.8761 74.9791C67.8761 73.8827 66.67 73.8827 66.4416 73.8827C65.5645 73.8827 64.8609 74.038 64.8061 75.3446H63.8101L63.8193 75.3355ZM67.9036 76.24C67.5289 76.5142 67.1634 76.5964 65.866 76.9345C65.0985 77.1263 64.6873 77.3913 64.6873 78.1131C64.6873 78.6157 64.8426 79.0908 65.7472 79.0908C67.4376 79.0908 67.9127 77.8939 67.9127 77.2999V76.24H67.9036Z" fill="white"/>
<path d="M72.5634 78.2593V75.4268C72.5634 73.9831 72.1157 69.2866 66.4142 69.2866C65.0345 69.2866 63.8101 69.6338 62.8233 70.2552C62.3482 69.9536 61.8456 69.7161 61.3157 69.5516C61.1238 67.7151 59.5705 66.2897 57.6791 66.2897H56.674C54.8557 66.2897 53.3664 67.6146 53.0831 69.3506C52.7999 69.3141 52.5166 69.2866 52.2334 69.2866C50.9542 69.2866 49.8029 69.643 48.8252 70.2643C47.8476 69.6339 46.6232 69.2866 45.2069 69.2866C43.7907 69.2866 42.676 69.6521 41.7531 70.246C40.7755 69.643 39.6242 69.2866 38.3907 69.2866C37.2211 69.2866 36.0333 69.6247 34.9825 70.2826C33.9957 69.643 32.7622 69.2866 31.3368 69.2866C30.0119 69.2866 28.8972 69.6247 27.9926 70.1729C27.1246 69.643 25.9733 69.2866 24.42 69.2866C23.5429 69.2866 22.7297 69.4237 22.0078 69.6887C21.5784 69.5151 21.1307 69.4054 20.6556 69.4054H19.5682C19.1114 69.4054 18.6637 69.4877 18.2616 69.6521C17.8505 69.4968 17.4119 69.4054 16.955 69.4054H15.6393C15.1824 69.4054 14.7438 69.4877 14.3327 69.643C13.9215 69.4877 13.4829 69.4054 13.0261 69.4054H12.3042L12.0667 68.7293C11.555 67.2673 10.1662 66.2897 8.62199 66.2897H7.18746C5.63415 66.2897 4.25445 67.2673 3.74277 68.7293L0.206715 78.6887C-0.186181 79.8034 -0.0125758 81.0461 0.672707 82.0146C1.35799 82.9832 2.47272 83.5588 3.66054 83.5588H4.89405C6.10015 83.5588 7.20574 82.9649 7.88188 82.0146C8.55803 82.9649 9.66362 83.5588 10.8697 83.5588H12.1215C12.4322 83.5588 12.7428 83.5131 13.0443 83.44C13.3276 83.5131 13.62 83.5588 13.9306 83.5588H14.8809C15.3834 83.5588 15.8677 83.4583 16.3063 83.2664C16.7449 83.4491 17.2291 83.5588 17.7317 83.5588H18.6728C19.4312 83.5588 20.1439 83.3212 20.7378 82.9101C21.6058 83.3943 22.6566 83.6684 23.8261 83.6684C24.4109 83.6684 24.9774 83.5953 25.5165 83.4674C25.7906 83.5314 26.0647 83.5679 26.3571 83.5679H27.3531C27.9104 83.5679 28.4495 83.4309 28.9338 83.1842C29.7744 83.5222 30.6698 83.6684 31.547 83.6684C32.8901 83.6684 34.0688 83.3486 35.0282 82.773C36.0059 83.3486 37.1663 83.6684 38.4546 83.6684C39.743 83.6684 40.9582 83.3395 41.9541 82.7547C43.014 83.3943 44.2384 83.6684 45.4171 83.6684C46.7877 83.6684 47.9846 83.3395 48.944 82.7456C49.9034 83.3395 51.0364 83.6776 52.2608 83.6776C53.1745 83.6776 54.0973 83.4766 54.9471 83.0837C55.4679 83.3761 56.071 83.5588 56.7106 83.5588H57.7156C57.871 83.5588 58.0263 83.5497 58.1816 83.5314C58.6111 83.6228 59.0588 83.6684 59.5339 83.6684C60.6852 83.6684 61.7451 83.3761 62.6588 82.8644C63.5451 83.3761 64.6233 83.6684 65.8385 83.6684C66.4233 83.6684 66.9898 83.5953 67.5289 83.4674C67.803 83.5314 68.0771 83.5679 68.3695 83.5679H69.3655C70.7086 83.5679 71.933 82.8004 72.5726 81.6126C73.1299 80.571 73.1391 79.31 72.6183 78.2593H72.5634ZM31.3916 76.5872C31.3277 76.5689 31.2637 76.5506 31.1906 76.5232C31.3003 76.4501 31.4099 76.4044 31.5196 76.377C31.5835 76.3953 31.6566 76.4227 31.7206 76.4593C31.5927 76.5324 31.4739 76.5781 31.3825 76.5963L31.3916 76.5872ZM45.2526 76.5872C45.1887 76.5689 45.1247 76.5506 45.0516 76.5232C45.1613 76.4501 45.2709 76.4044 45.3806 76.377C45.4445 76.3953 45.5176 76.4227 45.5816 76.4593C45.4536 76.5324 45.3349 76.5781 45.2435 76.5963L45.2526 76.5872Z" fill="white"/>
<path d="M5.77124 77.4005L4.88494 79.9132H3.65143L7.16921 69.9446H8.60374L12.1124 79.9132H10.8606L9.98344 77.4005H5.77124ZM7.88191 71.37L6.13672 76.3497H9.61796L7.88191 71.37Z" fill="#E60012"/>
<path d="M16.2789 74.3395L14.8626 79.9131H13.9124L11.9296 73.0603H13.0169L14.3875 78.0309L14.3966 78.6796L14.4058 78.0309L15.6302 73.0603H16.9459L18.1703 78.0309L18.1794 78.6796L18.2068 78.0309L19.5682 73.0603H20.6556L18.6545 79.9131H17.7134L16.3063 74.3395L16.288 73.7913L16.2789 74.3395Z" fill="#E60012"/>
<path d="M21.8251 75.3355C21.8617 73.6634 22.8485 72.9507 24.4201 72.9507C26.9145 72.9507 26.9145 74.3487 26.9145 75.436V78.6705C26.9145 79.1456 26.9693 79.3832 27.3165 79.9132H26.3206C26.0922 79.6299 25.9825 79.438 25.9277 79.1274C25.4617 79.6299 24.8312 80.0228 23.7896 80.0228C22.1632 80.0228 21.6698 79.1731 21.6698 78.1862C21.6698 76.6055 22.8668 76.2766 24.1916 75.9385C25.2698 75.6735 25.882 75.5182 25.882 74.9791C25.882 73.8827 24.6759 73.8827 24.4475 73.8827C23.5703 73.8827 22.8668 74.038 22.8119 75.3446H21.816L21.8251 75.3355ZM25.9094 76.24C25.5348 76.5142 25.1693 76.5964 23.8718 76.9345C23.1043 77.1263 22.6932 77.3913 22.6932 78.1131C22.6932 78.6157 22.8576 79.0908 23.7531 79.0908C25.4434 79.0908 25.9186 77.8939 25.9186 77.2999V76.24H25.9094Z" fill="#E60012"/>
<path d="M29.9023 77.4644C29.9388 78.3142 30.1033 79.1 31.5378 79.1C31.8302 79.1 32.9632 79.1 32.9632 77.9852C32.9632 77.4005 32.7074 77.1629 31.218 76.8065C30.0211 76.505 28.952 76.2492 28.952 74.97C28.952 74.1568 29.4911 72.9507 31.3368 72.9507C32.3327 72.9507 33.7581 73.1883 33.8221 75.1527H32.817C32.7896 74.7324 32.7348 73.8827 31.3825 73.8827C31.0627 73.8827 29.9571 73.9192 29.9571 74.8786C29.9571 75.4177 30.1855 75.5456 31.6749 75.8837C33.1368 76.2218 33.9866 76.5873 33.9866 77.8208C33.9866 78.369 33.9317 80.0319 31.5195 80.0319C29.2627 80.0319 28.9703 78.5152 28.8881 77.4736H29.9114L29.9023 77.4644Z" fill="#E60012"/>
<path d="M41.3146 77.5832C40.9491 79.5385 39.6333 80.0228 38.4181 80.0228C36.1886 80.0228 35.412 78.2411 35.412 76.569C35.412 74.0563 36.9562 72.9507 38.3907 72.9507C39.6516 72.9507 40.6019 73.6908 40.9948 74.8238C41.2323 75.5273 41.2323 76.2766 41.2506 76.7152H36.4262C36.4628 77.3091 36.6181 79.1 38.409 79.1C39.8892 79.1 40.1816 77.9304 40.2729 77.5832H41.3054H41.3146ZM40.0902 75.7741C39.9805 74.5314 39.1765 73.8735 38.3176 73.8735C37.4587 73.8735 36.682 74.4674 36.481 75.7741H40.0902Z" fill="#E60012"/>
<path d="M43.7633 77.4644C43.7999 78.3142 43.9643 79.1 45.3988 79.1C45.6912 79.1 46.8242 79.1 46.8242 77.9852C46.8242 77.4005 46.5684 77.1629 45.079 76.8065C43.8821 76.505 42.813 76.2492 42.813 74.97C42.813 74.1568 43.3521 72.9507 45.1978 72.9507C46.1938 72.9507 47.6192 73.1883 47.6831 75.1527H46.678C46.6506 74.7324 46.5958 73.8827 45.2435 73.8827C44.9237 73.8827 43.8181 73.9192 43.8181 74.8786C43.8181 75.4177 44.0466 75.5456 45.5359 75.8837C46.9978 76.2218 47.8476 76.5873 47.8476 77.8208C47.8476 78.369 47.7928 80.0319 45.3806 80.0319C43.1237 80.0319 42.8313 78.5152 42.7491 77.4736H43.7724L43.7633 77.4644Z" fill="#E60012"/>
<path d="M52.2242 80.0319C50.5339 80.0319 49.3369 78.6431 49.3369 76.5415C49.3369 74.44 50.4242 72.9415 52.2242 72.9415C53.3938 72.9415 55.1116 73.709 55.1116 76.4867C55.1116 78.9355 53.677 80.0228 52.2242 80.0228M52.2242 73.8735C51.1004 73.8735 50.3877 74.9151 50.3877 76.4867C50.3877 78.0583 51.1552 79.0908 52.2242 79.0908C53.2933 79.0908 54.0608 78.1497 54.0608 76.4867C54.0608 74.8238 53.3116 73.8735 52.2242 73.8735Z" fill="#E60012"/>
<path d="M57.6791 79.9132H56.674V69.9446H57.6791V73.7182C57.8527 73.5263 58.4192 72.9415 59.4882 72.9415C60.9228 72.9415 62.3116 74.0289 62.3116 76.4776C62.3116 78.6065 61.2152 80.0137 59.4882 80.0137C58.4649 80.0137 57.9623 79.5385 57.6791 79.237V79.904V79.9132ZM57.6791 77.4096C57.6791 77.8756 58.2456 79.0908 59.3969 79.0908C60.4476 79.0908 61.2608 78.1314 61.2608 76.4867C61.2608 74.2847 60.1096 73.8735 59.4517 73.8735C58.0446 73.8735 57.6791 75.3537 57.6791 75.4908V77.4096Z" fill="#E60012"/>
<path d="M63.8193 75.3355C63.8558 73.6634 64.8426 72.9507 66.4142 72.9507C68.9086 72.9507 68.9086 74.3487 68.9086 75.436V78.6705C68.9086 79.1456 68.9635 79.3832 69.3107 79.9132H68.3147C68.0863 79.6299 67.9766 79.438 67.9218 79.1274C67.4558 79.6299 66.8162 80.0228 65.7837 80.0228C64.1573 80.0228 63.6639 79.1731 63.6639 78.1862C63.6639 76.6055 64.8609 76.2766 66.1858 75.9385C67.264 75.6735 67.8761 75.5182 67.8761 74.9791C67.8761 73.8827 66.67 73.8827 66.4416 73.8827C65.5645 73.8827 64.8609 74.038 64.8061 75.3446H63.8101L63.8193 75.3355ZM67.9036 76.24C67.5289 76.5142 67.1634 76.5964 65.866 76.9345C65.0985 77.1263 64.6873 77.3913 64.6873 78.1131C64.6873 78.6157 64.8426 79.0908 65.7472 79.0908C67.4376 79.0908 67.9127 77.8939 67.9127 77.2999V76.24H67.9036Z" fill="#E60012"/>
</svg>
