<svg width="272" height="47" viewBox="0 0 272 47" fill="none" xmlns="http://www.w3.org/2000/svg">
<g clip-path="url(#clip0_9_1090)">
<path d="M43.5698 33.6243C42.7989 33.6243 42.1858 34.2587 42.1858 35.0165C42.1858 35.7743 42.8164 36.4087 43.5698 36.4087C44.3231 36.4087 44.9538 35.7743 44.9538 35.0165C44.9538 34.2587 44.3231 33.6243 43.5698 33.6243ZM54.7469 34.8755C54.0812 34.8755 53.5381 35.4218 53.5381 36.0915C53.5381 36.7612 54.0812 37.3075 54.7469 37.3075C55.4126 37.3075 55.9557 36.7612 55.9557 36.0915C55.9557 35.4218 55.4126 34.8755 54.7469 34.8755ZM54.4841 39.9509C53.6957 39.9509 53.0651 40.5853 53.0651 41.3783C53.0651 42.1714 53.6957 42.8058 54.4841 42.8058C55.2724 42.8058 55.9031 42.1714 55.9031 41.3783C55.9031 40.5853 55.2724 39.9509 54.4841 39.9509ZM80.9378 24.249C80.202 24.249 79.5888 24.8481 79.5888 25.6059C79.5888 26.3637 80.1845 26.9629 80.9378 26.9629C81.6911 26.9629 82.2867 26.3637 82.2867 25.6059C82.2867 24.8481 81.6911 24.249 80.9378 24.249ZM48.7028 36.5144C47.932 36.5144 47.2838 37.1489 47.2838 37.9419C47.2838 38.7349 47.9145 39.3693 48.7028 39.3693C49.4912 39.3693 50.1043 38.7349 50.1043 37.9419C50.1043 37.1489 49.4737 36.5144 48.7028 36.5144ZM41.8529 25.9936C41.8529 25.1477 41.1697 24.4604 40.3287 24.4604C39.4878 24.4604 38.8046 25.1477 38.8046 25.9936C38.8046 26.8395 39.4878 27.5268 40.3287 27.5268C41.1697 27.5268 41.8529 26.8395 41.8529 25.9936ZM37.0001 33.8358C36.422 33.8358 35.949 34.3116 35.949 34.8931C35.949 35.4747 36.422 35.9681 37.0001 35.9681C37.5783 35.9681 38.0513 35.4923 38.0513 34.8931C38.0513 34.294 37.5783 33.8358 37.0001 33.8358ZM41.993 44.4623C41.2923 44.4623 40.7317 45.0262 40.7317 45.7312C40.7317 46.4361 41.2923 47 41.993 47C42.6938 47 43.2544 46.4361 43.2544 45.7312C43.2544 45.0262 42.6938 44.4623 41.993 44.4623ZM42.0982 36.8316C42.0982 36.0739 41.485 35.4571 40.7317 35.4571C39.9784 35.4571 39.3652 36.0739 39.3652 36.8316C39.3652 37.5894 39.9784 38.2062 40.7317 38.2062C41.485 38.2062 42.0982 37.5894 42.0982 36.8316ZM67.1328 26.5399C66.3445 26.5399 65.6963 27.192 65.6963 27.985C65.6963 28.778 66.3445 29.4301 67.1328 29.4301C67.9212 29.4301 68.5694 28.778 68.5694 27.985C68.5694 27.192 67.9212 26.5399 67.1328 26.5399ZM57.3747 44.1451C56.6389 44.1451 56.0608 44.7443 56.0608 45.4668C56.0608 46.1894 56.6564 46.7885 57.3747 46.7885C58.093 46.7885 58.6887 46.1894 58.6887 45.4668C58.6887 44.7443 58.093 44.1451 57.3747 44.1451ZM78.1698 28.9895C77.4165 28.9895 76.8033 29.6063 76.8033 30.3641C76.8033 31.1219 77.4165 31.7387 78.1698 31.7387C78.9231 31.7387 79.5363 31.1219 79.5363 30.3641C79.5363 29.6063 78.9231 28.9895 78.1698 28.9895ZM66.6072 30.9809C65.9941 30.9809 65.5035 31.4743 65.5035 32.0911C65.5035 32.7079 65.9941 33.2014 66.6072 33.2014C67.2204 33.2014 67.7109 32.7079 67.7109 32.0911C67.7109 31.4743 67.2204 30.9809 66.6072 30.9809ZM74.228 24.1785C73.3696 24.1785 72.6863 24.8658 72.6863 25.7293C72.6863 26.5928 73.3696 27.2801 74.228 27.2801C75.0864 27.2801 75.7697 26.5928 75.7697 25.7293C75.7697 24.8658 75.0864 24.1785 74.228 24.1785ZM59.1266 32.3907C58.4959 32.3907 57.9879 32.9018 57.9879 33.5362C57.9879 34.1706 58.4959 34.6817 59.1266 34.6817C59.7573 34.6817 60.2654 34.1706 60.2654 33.5362C60.2654 32.9018 59.7573 32.3907 59.1266 32.3907ZM63.8743 29.6944C63.8743 28.7957 63.156 28.0907 62.28 28.0907C61.4041 28.0907 60.6858 28.8133 60.6858 29.6944C60.6858 30.5756 61.4041 31.2981 62.28 31.2981C63.156 31.2981 63.8743 30.5756 63.8743 29.6944ZM63.9444 37.4308C63.2261 37.4308 62.6479 38.0124 62.6479 38.7349C62.6479 39.4574 63.2261 40.039 63.9444 40.039C64.6626 40.039 65.2408 39.4574 65.2408 38.7349C65.2408 38.0124 64.6626 37.4308 63.9444 37.4308ZM49.6664 26.7338C48.843 26.7338 48.1597 27.4211 48.1597 28.2493C48.1597 29.0776 48.8255 29.7649 49.6664 29.7649C50.5073 29.7649 51.173 29.0776 51.173 28.2493C51.173 27.4211 50.5073 26.7338 49.6664 26.7338ZM60.9661 26.769C61.7545 26.769 62.4027 26.117 62.4027 25.324C62.4027 24.5309 61.7545 23.8789 60.9661 23.8789C60.1778 23.8789 59.5296 24.5309 59.5296 25.324C59.5296 26.117 60.1778 26.769 60.9661 26.769ZM102.749 12.6355C103.467 12.6355 104.045 12.054 104.045 11.3315C104.045 10.6089 103.467 10.0274 102.749 10.0274C102.031 10.0274 101.453 10.6089 101.453 11.3315C101.453 12.054 102.031 12.6355 102.749 12.6355ZM78.3099 22.5219C78.9406 22.5219 79.4487 22.0109 79.4487 21.3765C79.4487 20.742 78.9406 20.231 78.3099 20.231C77.6793 20.231 77.1712 20.742 77.1712 21.3765C77.1712 22.0109 77.6793 22.5219 78.3099 22.5219ZM56.0958 29.9235C56.8667 29.9235 57.4974 29.2891 57.4974 28.5137C57.4974 27.7383 56.8667 27.1039 56.0958 27.1039C55.325 27.1039 54.6943 27.7383 54.6943 28.5137C54.6943 29.2891 55.325 29.9235 56.0958 29.9235ZM122.037 24.6719C122.037 25.3416 122.58 25.8879 123.246 25.8879C123.912 25.8879 124.455 25.3416 124.455 24.6719C124.455 24.0023 123.912 23.4559 123.246 23.4559C122.58 23.4559 122.037 24.0023 122.037 24.6719ZM128.239 1.19835C128.239 1.86802 128.765 2.3967 129.43 2.3967C130.096 2.3967 130.622 1.86802 130.622 1.19835C130.622 0.528684 130.096 0 129.43 0C128.765 0 128.239 0.528684 128.239 1.19835ZM43.7449 31.4391C44.3406 31.4391 44.8136 30.9633 44.8136 30.3641C44.8136 29.7649 44.3406 29.2891 43.7449 29.2891C43.1493 29.2891 42.6763 29.7649 42.6763 30.3641C42.6763 30.9633 43.1493 31.4391 43.7449 31.4391ZM131.988 22.3986C132.759 22.3986 133.39 21.7642 133.39 20.9888C133.39 20.2133 132.759 19.5789 131.988 19.5789C131.217 19.5789 130.587 20.2133 130.587 20.9888C130.587 21.7642 131.217 22.3986 131.988 22.3986ZM26.9267 21.8699C26.1734 21.8699 25.5777 22.4867 25.5777 23.2268C25.5777 23.967 26.1909 24.5838 26.9267 24.5838C27.6625 24.5838 28.2757 23.967 28.2757 23.2268C28.2757 22.4867 27.6625 21.8699 26.9267 21.8699ZM36.6147 41.1845C35.8614 41.1845 35.2307 41.8013 35.2307 42.5767C35.2307 43.3521 35.8439 43.9689 36.6147 43.9689C37.3855 43.9689 37.9987 43.3521 37.9987 42.5767C37.9987 41.8013 37.3855 41.1845 36.6147 41.1845ZM29.6947 27.4563C28.9064 27.4563 28.2581 28.1084 28.2581 28.9014C28.2581 29.6944 28.9064 30.3465 29.6947 30.3465C30.4831 30.3465 31.1313 29.6944 31.1313 28.9014C31.1313 28.1084 30.4831 27.4563 29.6947 27.4563ZM24.1762 30.135C23.4755 30.135 22.9149 30.6989 22.9149 31.4038C22.9149 32.1087 23.4755 32.6727 24.1762 32.6727C24.877 32.6727 25.4376 32.1087 25.4376 31.4038C25.4376 30.6989 24.877 30.135 24.1762 30.135ZM37.0352 28.5137C37.0352 27.8616 36.5096 27.3506 35.8789 27.3506C35.2482 27.3506 34.7227 27.8793 34.7227 28.5137C34.7227 29.1481 35.2482 29.6768 35.8789 29.6768C36.5096 29.6768 37.0352 29.1481 37.0352 28.5137ZM16.0299 21.5527C15.3291 21.5527 14.7685 22.1166 14.7685 22.8215C14.7685 23.5264 15.3291 24.0904 16.0299 24.0904C16.7306 24.0904 17.2913 23.5264 17.2913 22.8215C17.2913 22.1166 16.7306 21.5527 16.0299 21.5527ZM10.3712 27.333C9.58289 27.333 8.93469 27.985 8.93469 28.778C8.93469 29.5711 9.58289 30.2231 10.3712 30.2231C11.1596 30.2231 11.8078 29.5711 11.8078 28.778C11.8078 27.985 11.1596 27.333 10.3712 27.333ZM1.43656 19.2617C0.648203 19.2617 0 19.9138 0 20.7068C0 21.4998 0.648203 22.1519 1.43656 22.1519C2.22491 22.1519 2.87312 21.4998 2.87312 20.7068C2.87312 19.9138 2.22491 19.2617 1.43656 19.2617ZM24.1937 25.4649C24.1937 24.6543 23.528 23.9846 22.7221 23.9846C21.9163 23.9846 21.2505 24.6543 21.2505 25.4649C21.2505 26.2756 21.9163 26.9453 22.7221 26.9453C23.528 26.9453 24.1937 26.2756 24.1937 25.4649ZM122.721 21.4822C123.369 21.4822 123.877 20.9535 123.877 20.3191C123.877 19.6847 123.351 19.156 122.721 19.156C122.09 19.156 121.564 19.6847 121.564 20.3191C121.564 20.9535 122.09 21.4822 122.721 21.4822ZM140.888 35.7743C140.187 35.7743 139.609 36.3558 139.609 37.0607C139.609 37.7657 140.187 38.3472 140.888 38.3472C141.589 38.3472 142.167 37.7657 142.167 37.0607C142.167 36.3558 141.589 35.7743 140.888 35.7743ZM128.677 25.5002C128.029 25.5002 127.503 26.0289 127.503 26.6809C127.503 27.333 128.029 27.8616 128.677 27.8616C129.325 27.8616 129.851 27.333 129.851 26.6809C129.851 26.0289 129.325 25.5002 128.677 25.5002ZM140.625 32.0382C140.625 31.1571 139.924 30.4522 139.048 30.4522C138.172 30.4522 137.472 31.1571 137.472 32.0382C137.472 32.9194 138.172 33.6243 139.048 33.6243C139.924 33.6243 140.625 32.9194 140.625 32.0382ZM135.667 24.2666C135.001 24.2666 134.476 24.8129 134.476 25.4649C134.476 26.117 135.019 26.6633 135.667 26.6633C136.315 26.6633 136.858 26.117 136.858 25.4649C136.858 24.8129 136.315 24.2666 135.667 24.2666ZM146.459 29.4653C145.723 29.4653 145.127 30.0645 145.127 30.8046C145.127 31.5448 145.723 32.144 146.459 32.144C147.195 32.144 147.79 31.5448 147.79 30.8046C147.79 30.0645 147.195 29.4653 146.459 29.4653ZM120.618 31.5977C119.847 31.5977 119.217 32.2321 119.217 33.0075C119.217 33.7829 119.847 34.4173 120.618 34.4173C121.389 34.4173 122.02 33.7829 122.02 33.0075C122.02 32.2321 121.389 31.5977 120.618 31.5977ZM119.883 25.7293C119.883 25.1125 119.392 24.619 118.779 24.619C118.166 24.619 117.675 25.1125 117.675 25.7293C117.675 26.3461 118.166 26.8395 118.779 26.8395C119.392 26.8395 119.883 26.3461 119.883 25.7293ZM119.795 20.7068C119.795 20.0019 119.217 19.4203 118.516 19.4203C117.815 19.4203 117.237 20.0019 117.237 20.7068C117.237 21.4117 117.815 21.9933 118.516 21.9933C119.217 21.9933 119.795 21.4117 119.795 20.7068ZM123.106 37.8361C122.353 37.8361 121.722 38.4529 121.722 39.2283C121.722 40.0038 122.335 40.6205 123.106 40.6205C123.877 40.6205 124.49 40.0038 124.49 39.2283C124.49 38.4529 123.877 37.8361 123.106 37.8361ZM84.5117 18.9974C84.5117 18.2396 83.8985 17.6404 83.1627 17.6404C82.4269 17.6404 81.8137 18.2572 81.8137 18.9974C81.8137 19.7375 82.4269 20.3543 83.1627 20.3543C83.8985 20.3543 84.5117 19.7375 84.5117 18.9974ZM153.519 7.31346C152.853 7.31346 152.328 7.85977 152.328 8.51181C152.328 9.16385 152.871 9.71016 153.519 9.71016C154.167 9.71016 154.71 9.16385 154.71 8.51181C154.71 7.85977 154.167 7.31346 153.519 7.31346ZM104.851 3.89464C104.238 3.89464 103.73 4.4057 103.73 5.0225C103.73 5.6393 104.238 6.15036 104.851 6.15036C105.464 6.15036 105.972 5.6393 105.972 5.0225C105.972 4.4057 105.464 3.89464 104.851 3.89464ZM110.895 2.02662C110.195 2.02662 109.634 2.59055 109.634 3.29546C109.634 4.00038 110.195 4.5643 110.895 4.5643C111.596 4.5643 112.157 4.00038 112.157 3.29546C112.157 2.59055 111.596 2.02662 110.895 2.02662ZM154.115 5.21635C154.115 4.45857 153.501 3.84177 152.748 3.84177C151.995 3.84177 151.382 4.45857 151.382 5.21635C151.382 5.97413 151.995 6.59093 152.748 6.59093C153.501 6.59093 154.115 5.97413 154.115 5.21635ZM144.234 25.7469C144.234 24.8481 143.516 24.1256 142.622 24.1256C141.729 24.1256 141.01 24.8481 141.01 25.7469C141.01 26.6457 141.729 27.3682 142.622 27.3682C143.516 27.3682 144.234 26.6457 144.234 25.7469ZM149.052 8.74091C148.298 8.74091 147.685 9.35771 147.685 10.1155C147.685 10.8733 148.298 11.4901 149.052 11.4901C149.805 11.4901 150.418 10.8733 150.418 10.1155C150.418 9.35771 149.805 8.74091 149.052 8.74091ZM129.168 4.47619C128.362 4.47619 127.696 5.12823 127.696 5.95651C127.696 6.78478 128.344 7.43682 129.168 7.43682C129.991 7.43682 130.639 6.78478 130.639 5.95651C130.639 5.12823 129.991 4.47619 129.168 4.47619ZM133.635 2.69629C132.864 2.69629 132.233 3.33071 132.233 4.10611C132.233 4.88151 132.864 5.51594 133.635 5.51594C134.406 5.51594 135.036 4.88151 135.036 4.10611C135.036 3.33071 134.406 2.69629 133.635 2.69629ZM128.922 32.6022C128.922 31.7034 128.204 30.9985 127.328 30.9985C126.452 30.9985 125.734 31.721 125.734 32.6022C125.734 33.4833 126.452 34.2058 127.328 34.2058C128.204 34.2058 128.922 33.4833 128.922 32.6022ZM89.4695 14.8736C88.7337 14.8736 88.1381 15.4728 88.1381 16.213C88.1381 16.9531 88.7337 17.5523 89.4695 17.5523C90.2053 17.5523 90.801 16.9531 90.801 16.213C90.801 15.4728 90.2053 14.8736 89.4695 14.8736ZM100.226 23.7555C100.226 23.033 99.6481 22.4514 98.9298 22.4514C98.2115 22.4514 97.6334 23.033 97.6334 23.7555C97.6334 24.4781 98.2115 25.0596 98.9298 25.0596C99.6481 25.0596 100.226 24.4781 100.226 23.7555ZM92.0974 23.5617C91.4141 23.5617 90.8535 24.1256 90.8535 24.8129C90.8535 25.5002 91.4141 26.0641 92.0974 26.0641C92.7806 26.0641 93.3412 25.5002 93.3412 24.8129C93.3412 24.1256 92.7806 23.5617 92.0974 23.5617ZM95.6537 15.931C94.9179 15.931 94.3048 16.5302 94.3048 17.288C94.3048 18.0457 94.9004 18.6449 95.6537 18.6449C96.4071 18.6449 97.0027 18.0457 97.0027 17.288C97.0027 16.5302 96.4071 15.931 95.6537 15.931ZM114.171 27.192C113.383 27.192 112.735 27.844 112.735 28.637C112.735 29.4301 113.383 30.0821 114.171 30.0821C114.96 30.0821 115.608 29.4301 115.608 28.637C115.608 27.844 114.96 27.192 114.171 27.192ZM86.6139 23.2268C86.6139 22.4691 86.0008 21.8699 85.265 21.8699C84.5292 21.8699 83.916 22.4867 83.916 23.2268C83.916 23.967 84.5292 24.5838 85.265 24.5838C86.0008 24.5838 86.6139 23.967 86.6139 23.2268ZM88.6812 19.4908C88.0155 19.4908 87.4548 20.0371 87.4548 20.7244C87.4548 21.4117 87.9979 21.958 88.6812 21.958C89.3644 21.958 89.9075 21.4117 89.9075 20.7244C89.9075 20.0371 89.3644 19.4908 88.6812 19.4908ZM86.9818 26.3637C86.1584 26.3637 85.5102 27.0334 85.5102 27.844C85.5102 28.6547 86.176 29.3243 86.9818 29.3243C87.7877 29.3243 88.4534 28.6547 88.4534 27.844C88.4534 27.0334 87.7877 26.3637 86.9818 26.3637ZM93.8142 19.3675C93.0784 19.3675 92.4828 19.9666 92.4828 20.7068C92.4828 21.4469 93.0784 22.0461 93.8142 22.0461C94.55 22.0461 95.1457 21.4469 95.1457 20.7068C95.1457 19.9666 94.55 19.3675 93.8142 19.3675ZM110.107 16.5654C109.494 16.5654 109.003 17.0589 109.003 17.6757C109.003 18.2925 109.494 18.7859 110.107 18.7859C110.72 18.7859 111.211 18.2925 111.211 17.6757C111.211 17.0589 110.72 16.5654 110.107 16.5654ZM106.953 27.5268C106.27 27.5268 105.727 28.0907 105.727 28.7604C105.727 29.4301 106.288 30.0116 106.953 30.0116C107.619 30.0116 108.197 29.4477 108.197 28.7604C108.197 28.0731 107.637 27.5268 106.953 27.5268ZM107.216 13.27C106.463 13.27 105.867 13.8868 105.867 14.6269C105.867 15.3671 106.48 15.9839 107.216 15.9839C107.952 15.9839 108.565 15.3671 108.565 14.6269C108.565 13.8868 107.952 13.27 107.216 13.27ZM113.909 25.694C114.749 25.694 115.45 25.0067 115.45 24.1432C115.45 23.2797 114.767 22.5924 113.909 22.5924C113.05 22.5924 112.367 23.2797 112.367 24.1432C112.367 25.0067 113.05 25.694 113.909 25.694ZM107.935 23.4912C107.935 22.5748 107.199 21.8346 106.288 21.8346C105.377 21.8346 104.641 22.5748 104.641 23.4912C104.641 24.4076 105.377 25.1477 106.288 25.1477C107.199 25.1477 107.935 24.4076 107.935 23.4912ZM101.172 13.3581C100.261 13.3581 99.5079 14.0982 99.5079 15.0322C99.5079 15.9663 100.244 16.7064 101.172 16.7064C102.101 16.7064 102.837 15.9663 102.837 15.0322C102.837 14.0982 102.101 13.3581 101.172 13.3581ZM99.5955 27.2625C98.8422 27.2625 98.229 27.8793 98.229 28.637C98.229 29.3948 98.8422 30.0116 99.5955 30.0116C100.349 30.0116 100.962 29.3948 100.962 28.637C100.962 27.8793 100.349 27.2625 99.5955 27.2625ZM106.34 18.9974C106.34 18.2396 105.727 17.6228 104.974 17.6228C104.221 17.6228 103.607 18.2396 103.607 18.9974C103.607 19.7552 104.221 20.372 104.974 20.372C105.727 20.372 106.34 19.7552 106.34 18.9974Z" fill="white" fill-opacity="0.8"/>
<path d="M158.915 21.7993C158.144 21.7993 157.531 22.4338 157.531 23.1915C157.531 23.9493 158.162 24.5837 158.915 24.5837C159.668 24.5837 160.299 23.9493 160.299 23.1915C160.299 22.4338 159.668 21.7993 158.915 21.7993ZM170.075 23.0329C169.409 23.0329 168.866 23.5793 168.866 24.2489C168.866 24.9186 169.409 25.4649 170.075 25.4649C170.74 25.4649 171.283 24.9186 171.283 24.2489C171.283 23.5793 170.74 23.0329 170.075 23.0329ZM169.812 28.1083C169.023 28.1083 168.393 28.7427 168.393 29.5358C168.393 30.3288 169.023 30.9632 169.812 30.9632C170.6 30.9632 171.231 30.3288 171.231 29.5358C171.231 28.7427 170.6 28.1083 169.812 28.1083ZM196.265 12.424C195.53 12.424 194.917 13.0232 194.917 13.781C194.917 14.5388 195.512 15.1379 196.265 15.1379C197.019 15.1379 197.614 14.5388 197.614 13.781C197.614 13.0232 197.019 12.424 196.265 12.424ZM164.031 24.6895C163.26 24.6895 162.611 25.3239 162.611 26.1169C162.611 26.91 163.242 27.5444 164.031 27.5444C164.819 27.5444 165.432 26.91 165.432 26.1169C165.432 25.3239 164.801 24.6895 164.031 24.6895ZM157.181 14.1687C157.181 13.3228 156.497 12.6355 155.656 12.6355C154.816 12.6355 154.132 13.3228 154.132 14.1687C154.132 15.0146 154.816 15.7019 155.656 15.7019C156.497 15.7019 157.181 15.0146 157.181 14.1687ZM152.345 21.9932C151.767 21.9932 151.294 22.469 151.294 23.0506C151.294 23.6321 151.767 24.1079 152.345 24.1079C152.923 24.1079 153.396 23.6321 153.396 23.0506C153.396 22.469 152.923 21.9932 152.345 21.9932ZM157.338 32.6374C156.638 32.6374 156.077 33.2013 156.077 33.9062C156.077 34.6111 156.638 35.1751 157.338 35.1751C158.039 35.1751 158.6 34.6111 158.6 33.9062C158.6 33.2013 158.039 32.6374 157.338 32.6374ZM157.443 25.0067C157.443 24.2489 156.83 23.6321 156.077 23.6321C155.324 23.6321 154.71 24.2489 154.71 25.0067C154.71 25.7645 155.324 26.3813 156.077 26.3813C156.83 26.3813 157.443 25.7645 157.443 25.0067ZM182.478 14.6974C181.69 14.6974 181.041 15.3494 181.041 16.1424C181.041 16.9355 181.69 17.5875 182.478 17.5875C183.266 17.5875 183.915 16.9355 183.915 16.1424C183.915 15.3494 183.266 14.6974 182.478 14.6974ZM172.702 32.3025C171.967 32.3025 171.389 32.9017 171.389 33.6242C171.389 34.3468 171.984 34.946 172.702 34.946C173.421 34.946 174.016 34.3468 174.016 33.6242C174.016 32.9017 173.421 32.3025 172.702 32.3025ZM193.515 17.1469C192.762 17.1469 192.149 17.7637 192.149 18.5215C192.149 19.2793 192.762 19.8961 193.515 19.8961C194.268 19.8961 194.881 19.2793 194.881 18.5215C194.881 17.7637 194.268 17.1469 193.515 17.1469ZM181.952 19.1383C181.339 19.1383 180.849 19.6317 180.849 20.2485C180.849 20.8653 181.339 21.3588 181.952 21.3588C182.566 21.3588 183.056 20.8653 183.056 20.2485C183.056 19.6317 182.566 19.1383 181.952 19.1383ZM189.573 12.3535C188.715 12.3535 188.032 13.0408 188.032 13.9043C188.032 14.7679 188.715 15.4551 189.573 15.4551C190.432 15.4551 191.115 14.7679 191.115 13.9043C191.115 13.0408 190.432 12.3535 189.573 12.3535ZM174.454 20.5481C173.824 20.5481 173.316 21.0592 173.316 21.6936C173.316 22.328 173.824 22.8391 174.454 22.8391C175.085 22.8391 175.593 22.328 175.593 21.6936C175.593 21.0592 175.085 20.5481 174.454 20.5481ZM179.22 17.8695C179.22 16.9707 178.501 16.2658 177.625 16.2658C176.749 16.2658 176.031 16.9883 176.031 17.8695C176.031 18.7506 176.749 19.4731 177.625 19.4731C178.501 19.4731 179.22 18.7506 179.22 17.8695ZM179.272 25.5883C178.554 25.5883 177.976 26.1698 177.976 26.8923C177.976 27.6149 178.554 28.1964 179.272 28.1964C179.99 28.1964 180.568 27.6149 180.568 26.8923C180.568 26.1698 179.99 25.5883 179.272 25.5883ZM164.994 14.8912C164.171 14.8912 163.487 15.5609 163.487 16.4068C163.487 17.2527 164.153 17.9223 164.994 17.9223C165.835 17.9223 166.501 17.2527 166.501 16.4068C166.501 15.5609 165.835 14.8912 164.994 14.8912ZM176.294 14.9441C177.082 14.9441 177.73 14.292 177.73 13.499C177.73 12.706 177.082 12.0539 176.294 12.0539C175.505 12.0539 174.857 12.706 174.857 13.499C174.857 14.292 175.505 14.9441 176.294 14.9441ZM223.262 35.5451C223.981 35.5451 224.559 34.9636 224.559 34.241C224.559 33.5185 223.981 32.937 223.262 32.937C222.544 32.937 221.966 33.5185 221.966 34.241C221.966 34.9636 222.544 35.5451 223.262 35.5451ZM233.248 25.2005C233.879 25.2005 234.387 24.6895 234.387 24.0551C234.387 23.4206 233.879 22.9096 233.248 22.9096C232.617 22.9096 232.109 23.4206 232.109 24.0551C232.109 24.6895 232.617 25.2005 233.248 25.2005ZM171.441 18.0986C172.212 18.0986 172.843 17.4641 172.843 16.6887C172.843 15.9133 172.212 15.2789 171.441 15.2789C170.67 15.2789 170.04 15.9133 170.04 16.6887C170.04 17.4641 170.67 18.0986 171.441 18.0986ZM227.292 23.0153C227.292 23.685 227.835 24.2313 228.5 24.2313C229.166 24.2313 229.709 23.685 229.709 23.0153C229.709 22.3457 229.166 21.7993 228.5 21.7993C227.835 21.7993 227.292 22.3457 227.292 23.0153ZM210.561 28.9013C210.561 29.571 211.087 30.0997 211.752 30.0997C212.418 30.0997 212.944 29.571 212.944 28.9013C212.944 28.2317 212.418 27.703 211.752 27.703C211.087 27.703 210.561 28.2317 210.561 28.9013ZM159.09 19.6141C159.686 19.6141 160.159 19.1383 160.159 18.5391C160.159 17.94 159.686 17.4641 159.09 17.4641C158.495 17.4641 158.022 17.94 158.022 18.5391C158.022 19.1383 158.495 19.6141 159.09 19.6141ZM197.614 31.4214C198.385 31.4214 199.016 30.787 199.016 30.0116C199.016 29.2362 198.385 28.6017 197.614 28.6017C196.844 28.6017 196.213 29.2362 196.213 30.0116C196.213 30.787 196.844 31.4214 197.614 31.4214ZM142.272 10.0273C141.519 10.0273 140.923 10.6441 140.923 11.3843C140.923 12.1244 141.536 12.7412 142.272 12.7412C143.008 12.7412 143.621 12.1244 143.621 11.3843C143.621 10.6441 143.008 10.0273 142.272 10.0273ZM151.942 29.3419C151.189 29.3419 150.558 29.9587 150.558 30.7341C150.558 31.5095 151.172 32.1263 151.942 32.1263C152.713 32.1263 153.326 31.5095 153.326 30.7341C153.326 29.9587 152.713 29.3419 151.942 29.3419ZM145.022 15.6314C144.234 15.6314 143.586 16.2834 143.586 17.0764C143.586 17.8695 144.234 18.5215 145.022 18.5215C145.811 18.5215 146.459 17.8695 146.459 17.0764C146.459 16.2834 145.811 15.6314 145.022 15.6314ZM139.504 18.31C138.803 18.31 138.243 18.874 138.243 19.5789C138.243 20.2838 138.803 20.8477 139.504 20.8477C140.205 20.8477 140.765 20.2838 140.765 19.5789C140.765 18.874 140.205 18.31 139.504 18.31ZM152.363 16.6711C152.363 16.0191 151.837 15.508 151.207 15.508C150.576 15.508 150.05 16.0367 150.05 16.6711C150.05 17.3055 150.576 17.8342 151.207 17.8342C151.837 17.8342 152.363 17.3055 152.363 16.6711ZM131.358 9.71011C130.657 9.71011 130.096 10.274 130.096 10.979C130.096 11.6839 130.657 12.2478 131.358 12.2478C132.058 12.2478 132.619 11.6839 132.619 10.979C132.619 10.274 132.058 9.71011 131.358 9.71011ZM125.716 15.508C124.928 15.508 124.28 16.1601 124.28 16.9531C124.28 17.7461 124.928 18.3981 125.716 18.3981C126.505 18.3981 127.153 17.7461 127.153 16.9531C127.153 16.1601 126.505 15.508 125.716 15.508ZM116.782 7.43677C115.993 7.43677 115.345 8.08881 115.345 8.88184C115.345 9.67486 115.993 10.3269 116.782 10.3269C117.57 10.3269 118.218 9.67486 118.218 8.88184C118.218 8.08881 117.57 7.43677 116.782 7.43677ZM139.539 13.64C139.539 12.8293 138.873 12.1597 138.067 12.1597C137.261 12.1597 136.596 12.8293 136.596 13.64C136.596 14.4506 137.261 15.1203 138.067 15.1203C138.873 15.1203 139.539 14.4506 139.539 13.64ZM167.131 34.1177C167.78 34.1177 168.288 33.589 168.288 32.9546C168.288 32.3202 167.762 31.7915 167.131 31.7915C166.501 31.7915 165.975 32.3202 165.975 32.9546C165.975 33.589 166.501 34.1177 167.131 34.1177ZM203.08 40.7439C202.38 40.7439 201.802 41.3254 201.802 42.0303C201.802 42.7352 202.38 43.3168 203.08 43.3168C203.781 43.3168 204.359 42.7352 204.359 42.0303C204.359 41.3254 203.781 40.7439 203.08 40.7439ZM195.337 36.6201C194.689 36.6201 194.163 37.1488 194.163 37.8009C194.163 38.4529 194.689 38.9816 195.337 38.9816C195.985 38.9816 196.511 38.4529 196.511 37.8009C196.511 37.1488 195.985 36.6201 195.337 36.6201ZM204.377 30.3993C204.377 29.5181 203.676 28.8132 202.8 28.8132C201.924 28.8132 201.223 29.5181 201.223 30.3993C201.223 31.2804 201.924 31.9853 202.8 31.9853C203.676 31.9853 204.377 31.2804 204.377 30.3993ZM200.61 21.9932C199.944 21.9932 199.419 22.5395 199.419 23.2092C199.419 23.8788 199.962 24.4075 200.61 24.4075C201.258 24.4075 201.802 23.8612 201.802 23.2092C201.802 22.5571 201.258 21.9932 200.61 21.9932ZM204.815 23.2444C204.079 23.2444 203.483 23.8436 203.483 24.5837C203.483 25.3239 204.079 25.9231 204.815 25.9231C205.551 25.9231 206.146 25.3239 206.146 24.5837C206.146 23.8436 205.551 23.2444 204.815 23.2444ZM187.278 23.6145C186.507 23.6145 185.877 24.2489 185.877 25.0243C185.877 25.7997 186.507 26.4341 187.278 26.4341C188.049 26.4341 188.68 25.7997 188.68 25.0243C188.68 24.2489 188.049 23.6145 187.278 23.6145ZM254.937 30.8222C254.937 30.2054 254.446 29.712 253.833 29.712C253.22 29.712 252.729 30.2054 252.729 30.8222C252.729 31.439 253.22 31.9325 253.833 31.9325C254.446 31.9325 254.937 31.439 254.937 30.8222ZM235.123 8.88184C235.123 8.17693 234.545 7.59537 233.844 7.59537C233.143 7.59537 232.565 8.17693 232.565 8.88184C232.565 9.58675 233.143 10.1683 233.844 10.1683C234.545 10.1683 235.123 9.58675 235.123 8.88184ZM189.766 29.853C189.013 29.853 188.382 30.4698 188.382 31.2452C188.382 32.0206 188.995 32.6374 189.766 32.6374C190.537 32.6374 191.15 32.0206 191.15 31.2452C191.15 30.4698 190.537 29.853 189.766 29.853ZM239.467 21.6936C239.467 20.9358 238.854 20.3367 238.118 20.3367C237.383 20.3367 236.769 20.9535 236.769 21.6936C236.769 22.4338 237.383 23.0506 238.118 23.0506C238.854 23.0506 239.467 22.4338 239.467 21.6936ZM220.81 22.4161C220.144 22.4161 219.618 22.9625 219.618 23.6145C219.618 24.2665 220.161 24.8128 220.81 24.8128C221.458 24.8128 222.001 24.2665 222.001 23.6145C222.001 22.9625 221.458 22.4161 220.81 22.4161ZM223.7 28.9718C223.087 28.9718 222.579 29.4829 222.579 30.0997C222.579 30.7165 223.087 31.2275 223.7 31.2275C224.313 31.2275 224.821 30.7165 224.821 30.0997C224.821 29.4829 224.313 28.9718 223.7 28.9718ZM229.744 27.1038C229.044 27.1038 228.483 27.6677 228.483 28.3727C228.483 29.0776 229.044 29.6415 229.744 29.6415C230.445 29.6415 231.006 29.0776 231.006 28.3727C231.006 27.6677 230.445 27.1038 229.744 27.1038ZM272 30.7694C272 30.0116 271.387 29.3948 270.634 29.3948C269.88 29.3948 269.267 30.0116 269.267 30.7694C269.267 31.5271 269.88 32.1439 270.634 32.1439C271.387 32.1439 272 31.5271 272 30.7694ZM211.682 20.2662C211.682 19.3674 210.964 18.6449 210.07 18.6449C209.177 18.6449 208.459 19.3674 208.459 20.2662C208.459 21.1649 209.177 21.8875 210.07 21.8875C210.964 21.8875 211.682 21.1649 211.682 20.2662ZM216.342 23.8436C215.589 23.8436 214.976 24.4604 214.976 25.2182C214.976 25.976 215.589 26.5927 216.342 26.5927C217.096 26.5927 217.709 25.976 217.709 25.2182C217.709 24.4604 217.096 23.8436 216.342 23.8436ZM211.49 32.1968C210.684 32.1968 210.018 32.8488 210.018 33.6771C210.018 34.5054 210.666 35.1574 211.49 35.1574C212.313 35.1574 212.961 34.5054 212.961 33.6771C212.961 32.8488 212.313 32.1968 211.49 32.1968ZM215.957 30.3993C215.186 30.3993 214.555 31.0337 214.555 31.8091C214.555 32.5845 215.186 33.2189 215.957 33.2189C216.728 33.2189 217.358 32.5845 217.358 31.8091C217.358 31.0337 216.728 30.3993 215.957 30.3993ZM195.582 24.6366C195.582 23.7379 194.864 23.0329 193.988 23.0329C193.112 23.0329 192.394 23.7555 192.394 24.6366C192.394 25.5178 193.112 26.2403 193.988 26.2403C194.864 26.2403 195.582 25.5178 195.582 24.6366ZM244.425 17.5699C243.689 17.5699 243.094 18.1691 243.094 18.9092C243.094 19.6494 243.689 20.2485 244.425 20.2485C245.161 20.2485 245.757 19.6494 245.757 18.9092C245.757 18.1691 245.161 17.5699 244.425 17.5699ZM255.217 24.1079C255.217 23.3854 254.639 22.8038 253.921 22.8038C253.202 22.8038 252.624 23.3854 252.624 24.1079C252.624 24.8305 253.202 25.412 253.921 25.412C254.639 25.412 255.217 24.8305 255.217 24.1079ZM207.443 11.7191C206.759 11.7191 206.199 12.283 206.199 12.9703C206.199 13.6576 206.759 14.2215 207.443 14.2215C208.126 14.2215 208.686 13.6576 208.686 12.9703C208.686 12.283 208.126 11.7191 207.443 11.7191ZM250.592 18.6096C249.856 18.6096 249.243 19.2088 249.243 19.9666C249.243 20.7244 249.839 21.3235 250.592 21.3235C251.345 21.3235 251.941 20.7244 251.941 19.9666C251.941 19.2088 251.345 18.6096 250.592 18.6096ZM249.225 32.2849C248.437 32.2849 247.789 32.937 247.789 33.73C247.789 34.523 248.437 35.1751 249.225 35.1751C250.014 35.1751 250.662 34.523 250.662 33.73C250.662 32.937 250.014 32.2849 249.225 32.2849ZM241.57 25.9231C241.57 25.1653 240.956 24.5661 240.221 24.5661C239.485 24.5661 238.872 25.1829 238.872 25.9231C238.872 26.6632 239.485 27.28 240.221 27.28C240.956 27.28 241.57 26.6632 241.57 25.9231ZM243.637 22.1694C242.971 22.1694 242.411 22.7157 242.411 23.403C242.411 24.0903 242.954 24.6366 243.637 24.6366C244.32 24.6366 244.863 24.0903 244.863 23.403C244.863 22.7157 244.32 22.1694 243.637 22.1694ZM202.31 14.5388C201.486 14.5388 200.838 15.2084 200.838 16.0191C200.838 16.8297 201.504 17.4994 202.31 17.4994C203.115 17.4994 203.781 16.8297 203.781 16.0191C203.781 15.2084 203.115 14.5388 202.31 14.5388ZM248.752 22.0637C248.017 22.0637 247.421 22.6629 247.421 23.403C247.421 24.1432 248.017 24.7424 248.752 24.7424C249.488 24.7424 250.084 24.1432 250.084 23.403C250.084 22.6629 249.488 22.0637 248.752 22.0637ZM239.467 30.7165C238.854 30.7165 238.364 31.2099 238.364 31.8267C238.364 32.4435 238.854 32.937 239.467 32.937C240.081 32.937 240.571 32.4435 240.571 31.8267C240.571 31.2099 240.081 30.7165 239.467 30.7165ZM262.925 31.3861C262.242 31.3861 261.699 31.9501 261.699 32.6197C261.699 33.2894 262.26 33.8533 262.925 33.8533C263.591 33.8533 264.152 33.2894 264.152 32.6197C264.152 31.9501 263.591 31.3861 262.925 31.3861ZM236.577 27.421C235.823 27.421 235.228 28.0378 235.228 28.778C235.228 29.5181 235.841 30.1349 236.577 30.1349C237.313 30.1349 237.926 29.5181 237.926 28.778C237.926 28.0378 237.313 27.421 236.577 27.421ZM248.963 30.7694C249.804 30.7694 250.504 30.0821 250.504 29.2185C250.504 28.355 249.821 27.6677 248.963 27.6677C248.104 27.6677 247.421 28.355 247.421 29.2185C247.421 30.0821 248.104 30.7694 248.963 30.7694ZM262.925 23.8436C262.925 22.9272 262.189 22.1871 261.279 22.1871C260.368 22.1871 259.632 22.9272 259.632 23.8436C259.632 24.76 260.368 25.5001 261.279 25.5001C262.189 25.5001 262.925 24.76 262.925 23.8436ZM221.686 36.2853C220.775 36.2853 220.021 37.0254 220.021 37.9595C220.021 38.8935 220.757 39.6336 221.686 39.6336C222.614 39.6336 223.35 38.8935 223.35 37.9595C223.35 37.0254 222.614 36.2853 221.686 36.2853ZM214.923 15.4375C214.17 15.4375 213.557 16.0543 213.557 16.8121C213.557 17.5699 214.17 18.1867 214.923 18.1867C215.677 18.1867 216.29 17.5699 216.29 16.8121C216.29 16.0543 215.677 15.4375 214.923 15.4375ZM235.701 33.1484C235.701 32.3906 235.088 31.7739 234.334 31.7739C233.581 31.7739 232.968 32.3906 232.968 33.1484C232.968 33.9062 233.581 34.523 234.334 34.523C235.088 34.523 235.701 33.9062 235.701 33.1484Z" fill="white" fill-opacity="0.8"/>
</g>
<defs>
<clipPath id="clip0_9_1090">
<rect width="272" height="47" fill="white"/>
</clipPath>
</defs>
</svg>
