<svg width="45" height="36" viewBox="0 0 45 36" fill="none" xmlns="http://www.w3.org/2000/svg">
<path d="M24.1406 6.28125C25.0312 5.73438 25.625 4.74219 25.625 3.625C25.625 1.89844 24.2266 0.5 22.5 0.5C20.7734 0.5 19.375 1.89844 19.375 3.625C19.375 4.75 19.9688 5.73438 20.8594 6.28125L16.3828 15.2344C15.6719 16.6563 13.8281 17.0625 12.5859 16.0703L5.625 10.5C6.01562 9.97656 6.25 9.32812 6.25 8.625C6.25 6.89844 4.85156 5.5 3.125 5.5C1.39844 5.5 0 6.89844 0 8.625C0 10.3516 1.39844 11.75 3.125 11.75H3.17969L6.75 31.3906C7.17969 33.7656 9.25 35.5 11.6719 35.5H33.3281C35.7422 35.5 37.8125 33.7734 38.25 31.3906L41.8203 11.75H41.875C43.6016 11.75 45 10.3516 45 8.625C45 6.89844 43.6016 5.5 41.875 5.5C40.1484 5.5 38.75 6.89844 38.75 8.625C38.75 9.32812 38.9844 9.97656 39.375 10.5L32.4141 16.0703C31.1719 17.0625 29.3281 16.6563 28.6172 15.2344L24.1406 6.28125Z" fill="#392110"/>
<path d="M22.4189 30.8706C21.3536 30.8706 20.4923 30.644 19.8349 30.1906C19.1889 29.7373 18.8659 29.148 18.8659 28.4226C18.8659 28.0033 18.9849 27.686 19.2229 27.4706C19.4609 27.2553 19.7386 27.1646 20.0559 27.1986C20.3506 27.2326 20.5659 27.38 20.7019 27.6406C20.8379 27.9013 20.8776 28.2073 20.8209 28.5586C20.7303 29.0913 20.8266 29.4936 21.1099 29.7656C21.3933 30.0376 21.8126 30.1736 22.3679 30.1736C22.8213 30.1736 23.2293 30.0716 23.5919 29.8676C23.9659 29.6523 24.2606 29.2896 24.4759 28.7796C24.7026 28.2696 24.8159 27.567 24.8159 26.6716C24.8159 25.8103 24.7139 25.1586 24.5099 24.7166C24.3173 24.2746 24.0566 23.9743 23.7279 23.8156C23.4106 23.6456 23.0593 23.5606 22.6739 23.5606C22.3226 23.5606 21.9486 23.6456 21.5519 23.8156C21.1666 23.9856 20.8039 24.2803 20.4639 24.6996C20.4186 24.7676 20.3449 24.8016 20.2429 24.8016H19.7839C19.7499 24.8016 19.7103 24.796 19.6649 24.7846C19.6309 24.762 19.6139 24.7223 19.6139 24.6656V18.4266C19.6139 18.3473 19.6366 18.285 19.6819 18.2396C19.7273 18.1943 19.8293 18.183 19.9879 18.2056C20.3506 18.251 20.8039 18.285 21.3479 18.3076C21.9033 18.3303 22.4756 18.3416 23.0649 18.3416C23.6656 18.3303 24.2153 18.3133 24.7139 18.2906C25.2126 18.2566 25.5923 18.2056 25.8529 18.1376C26.0003 18.1036 26.0966 18.1093 26.1419 18.1546C26.1646 18.1773 26.1703 18.2056 26.1589 18.2396C26.1589 18.2736 26.1533 18.302 26.1419 18.3246C26.1419 18.336 26.1419 18.3416 26.1419 18.3416C26.1306 18.353 26.0966 18.4493 26.0399 18.6306C25.9833 18.812 25.9209 19.0046 25.8529 19.2086C25.7963 19.4013 25.7396 19.5486 25.6829 19.6506C25.6149 19.7753 25.5186 19.866 25.3939 19.9226C25.2693 19.968 25.0993 20.0076 24.8839 20.0416C24.6799 20.0756 24.3966 20.104 24.0339 20.1266C23.6713 20.138 23.2803 20.1436 22.8609 20.1436C22.4416 20.1436 22.0393 20.138 21.6539 20.1266C21.2799 20.104 20.9626 20.0756 20.7019 20.0416C20.5319 20.019 20.4469 20.087 20.4469 20.2456V23.6456C20.4469 23.691 20.4639 23.725 20.4979 23.7476C20.5319 23.759 20.5716 23.742 20.6169 23.6966C20.8776 23.47 21.2119 23.2716 21.6199 23.1016C22.0393 22.9203 22.4926 22.8296 22.9799 22.8296C23.7053 22.8296 24.3683 22.9713 24.9689 23.2546C25.5696 23.5266 26.0513 23.946 26.4139 24.5126C26.7766 25.068 26.9579 25.765 26.9579 26.6036C26.9579 27.363 26.7879 28.0656 26.4479 28.7116C26.1193 29.3576 25.6206 29.879 24.9519 30.2756C24.2833 30.6723 23.4389 30.8706 22.4189 30.8706Z" fill="white"/>
</svg>
