<svg width="45" height="36" viewBox="0 0 45 36" fill="none" xmlns="http://www.w3.org/2000/svg">
<path d="M24.1406 6.28125C25.0312 5.73438 25.625 4.74219 25.625 3.625C25.625 1.89844 24.2266 0.5 22.5 0.5C20.7734 0.5 19.375 1.89844 19.375 3.625C19.375 4.75 19.9688 5.73438 20.8594 6.28125L16.3828 15.2344C15.6719 16.6563 13.8281 17.0625 12.5859 16.0703L5.625 10.5C6.01562 9.97656 6.25 9.32812 6.25 8.625C6.25 6.89844 4.85156 5.5 3.125 5.5C1.39844 5.5 0 6.89844 0 8.625C0 10.3516 1.39844 11.75 3.125 11.75H3.17969L6.75 31.3906C7.17969 33.7656 9.25 35.5 11.6719 35.5H33.3281C35.7422 35.5 37.8125 33.7734 38.25 31.3906L41.8203 11.75H41.875C43.6016 11.75 45 10.3516 45 8.625C45 6.89844 43.6016 5.5 41.875 5.5C40.1484 5.5 38.75 6.89844 38.75 8.625C38.75 9.32812 38.9844 9.97656 39.375 10.5L32.4141 16.0703C31.1719 17.0625 29.3281 16.6563 28.6172 15.2344L24.1406 6.28125Z" fill="#392110"/>
<path d="M21.7089 30.6666C21.4709 30.4853 21.4709 30.3153 21.7089 30.1566C22.2189 30.1 22.5986 30.032 22.8479 29.9526C23.0973 29.862 23.2616 29.7486 23.3409 29.6126C23.4316 29.4653 23.4769 29.2896 23.4769 29.0856V27.2326H18.8189C18.7056 27.2326 18.6206 27.193 18.5639 27.1136C18.5186 27.0343 18.4959 26.955 18.4959 26.8756V26.5866C18.4959 26.5186 18.5243 26.428 18.5809 26.3146C18.5809 26.3146 18.6773 26.173 18.8699 25.8896C19.0626 25.6063 19.3176 25.2323 19.6349 24.7676C19.9523 24.303 20.2979 23.793 20.6719 23.2376C21.0573 22.6823 21.4426 22.127 21.8279 21.5716C22.2133 21.0163 22.5646 20.5063 22.8819 20.0416C23.1993 19.5656 23.4543 19.1803 23.6469 18.8856C23.8509 18.591 23.9586 18.438 23.9699 18.4266C24.0379 18.3246 24.1739 18.2736 24.3779 18.2736H25.1259C25.2959 18.2736 25.3809 18.3643 25.3809 18.5456V26.4336H27.2509C27.3416 26.4336 27.4039 26.5016 27.4379 26.6376C27.4719 26.7623 27.4719 26.8926 27.4379 27.0286C27.4153 27.1646 27.3586 27.2326 27.2679 27.2326H25.3809V29.0856C25.3809 29.3236 25.4149 29.5106 25.4829 29.6466C25.5509 29.7826 25.6926 29.8903 25.9079 29.9696C26.1346 30.0376 26.4746 30.1 26.9279 30.1566C27.0526 30.2246 27.1093 30.304 27.0979 30.3946C27.0979 30.4853 27.0413 30.576 26.9279 30.6666H21.7089ZM19.9069 26.4336H23.4769V20.7726C23.4769 20.7386 23.4599 20.716 23.4259 20.7046C23.3919 20.6933 23.3636 20.7046 23.3409 20.7386L19.6859 26.0766C19.6293 26.1673 19.6179 26.2523 19.6519 26.3316C19.6973 26.3996 19.7823 26.4336 19.9069 26.4336Z" fill="white"/>
</svg>
