<svg width="45" height="36" viewBox="0 0 45 36" fill="none" xmlns="http://www.w3.org/2000/svg">
<path d="M24.1406 6.28125C25.0312 5.73438 25.625 4.74219 25.625 3.625C25.625 1.89844 24.2266 0.5 22.5 0.5C20.7734 0.5 19.375 1.89844 19.375 3.625C19.375 4.75 19.9688 5.73438 20.8594 6.28125L16.3828 15.2344C15.6719 16.6562 13.8281 17.0625 12.5859 16.0703L5.625 10.5C6.01562 9.97656 6.25 9.32812 6.25 8.625C6.25 6.89844 4.85156 5.5 3.125 5.5C1.39844 5.5 0 6.89844 0 8.625C0 10.3516 1.39844 11.75 3.125 11.75H3.17969L6.75 31.3906C7.17969 33.7656 9.25 35.5 11.6719 35.5H33.3281C35.7422 35.5 37.8125 33.7734 38.25 31.3906L41.8203 11.75H41.875C43.6016 11.75 45 10.3516 45 8.625C45 6.89844 43.6016 5.5 41.875 5.5C40.1484 5.5 38.75 6.89844 38.75 8.625C38.75 9.32812 38.9844 9.97656 39.375 10.5L32.4141 16.0703C31.1719 17.0625 29.3281 16.6562 28.6172 15.2344L24.1406 6.28125Z" fill="#F6C31F"/>
<path d="M19.889 30.6666C19.821 30.6666 19.77 30.6213 19.736 30.5306C19.702 30.44 19.6963 30.3493 19.719 30.2586C19.753 30.168 19.8153 30.1226 19.906 30.1226C20.5747 30.0886 21.096 30.0093 21.47 29.8846C21.844 29.7486 22.031 29.4653 22.031 29.0346V20.3306C22.031 20.0586 21.98 19.8603 21.878 19.7356C21.776 19.611 21.5323 19.5486 21.147 19.5486H19.974C19.8947 19.5486 19.838 19.5033 19.804 19.4126C19.7813 19.3106 19.7813 19.2143 19.804 19.1236C19.8267 19.0216 19.8833 18.9706 19.974 18.9706C20.552 18.948 21.1187 18.863 21.674 18.7156C22.2293 18.5683 22.6997 18.404 23.085 18.2226C23.2437 18.1546 23.4307 18.1206 23.646 18.1206C23.9067 18.1206 24.037 18.2113 24.037 18.3926V29.0346C24.037 29.488 24.241 29.777 24.649 29.9016C25.057 30.0263 25.567 30.1 26.179 30.1226C26.2583 30.1226 26.3093 30.168 26.332 30.2586C26.3547 30.3493 26.3547 30.44 26.332 30.5306C26.3093 30.6213 26.2583 30.6666 26.179 30.6666H19.889Z" fill="white"/>
</svg>
