<svg width="45" height="36" viewBox="0 0 45 36" fill="none" xmlns="http://www.w3.org/2000/svg">
<path d="M24.1406 6.28125C25.0312 5.73438 25.625 4.74219 25.625 3.625C25.625 1.89844 24.2266 0.5 22.5 0.5C20.7734 0.5 19.375 1.89844 19.375 3.625C19.375 4.75 19.9688 5.73438 20.8594 6.28125L16.3828 15.2344C15.6719 16.6563 13.8281 17.0625 12.5859 16.0703L5.625 10.5C6.01562 9.97656 6.25 9.32812 6.25 8.625C6.25 6.89844 4.85156 5.5 3.125 5.5C1.39844 5.5 0 6.89844 0 8.625C0 10.3516 1.39844 11.75 3.125 11.75H3.17969L6.75 31.3906C7.17969 33.7656 9.25 35.5 11.6719 35.5H33.3281C35.7422 35.5 37.8125 33.7734 38.25 31.3906L41.8203 11.75H41.875C43.6016 11.75 45 10.3516 45 8.625C45 6.89844 43.6016 5.5 41.875 5.5C40.1484 5.5 38.75 6.89844 38.75 8.625C38.75 9.32812 38.9844 9.97656 39.375 10.5L32.4141 16.0703C31.1719 17.0625 29.3281 16.6563 28.6172 15.2344L24.1406 6.28125Z" fill="#949494"/>
<path d="M19.3162 30.6666C19.2369 30.6666 19.1632 30.661 19.0952 30.6496C19.0272 30.627 18.9932 30.5646 18.9932 30.4626V29.3066C18.9932 29.0006 19.1292 28.6606 19.4012 28.2866C19.6846 27.9013 20.0416 27.4933 20.4722 27.0626C20.9142 26.6206 21.3789 26.156 21.8662 25.6686C22.3536 25.1813 22.8126 24.677 23.2432 24.1556C23.6852 23.623 24.0422 23.079 24.3142 22.5236C24.5976 21.9683 24.7392 21.4016 24.7392 20.8236C24.7392 20.189 24.5749 19.7016 24.2462 19.3616C23.9289 19.0103 23.4302 18.8346 22.7502 18.8346C22.3989 18.8346 22.0589 18.88 21.7302 18.9706C21.4016 19.0613 21.1296 19.1973 20.9142 19.3786C20.7102 19.5486 20.6082 19.764 20.6082 20.0246C20.6082 20.172 20.6479 20.3136 20.7272 20.4496C20.8179 20.5856 20.9766 20.7386 21.2032 20.9086C21.4412 21.0786 21.5602 21.3166 21.5602 21.6226C21.5602 21.8946 21.4639 22.127 21.2712 22.3196C21.0786 22.5123 20.8519 22.6086 20.5912 22.6086C20.1719 22.6086 19.8206 22.4273 19.5372 22.0646C19.2539 21.702 19.1122 21.2883 19.1122 20.8236C19.1122 20.3023 19.2766 19.8376 19.6052 19.4296C19.9452 19.0216 20.4042 18.7043 20.9822 18.4776C21.5602 18.2396 22.2176 18.1206 22.9542 18.1206C23.7136 18.1206 24.3822 18.2453 24.9602 18.4946C25.5496 18.7326 26.0142 19.067 26.3542 19.4976C26.6942 19.9283 26.8642 20.4383 26.8642 21.0276C26.8642 21.549 26.7282 22.059 26.4562 22.5576C26.1842 23.0563 25.8272 23.5323 25.3852 23.9856C24.9432 24.439 24.4616 24.881 23.9402 25.3116C23.4302 25.731 22.9316 26.1333 22.4442 26.5186C21.9569 26.904 21.5262 27.2723 21.1522 27.6236C20.7782 27.9636 20.5119 28.2866 20.3532 28.5926C20.2852 28.7173 20.2626 28.791 20.2852 28.8136C20.3192 28.8363 20.3929 28.8476 20.5062 28.8476C20.5289 28.8476 20.5459 28.8476 20.5572 28.8476H25.2832C25.2946 28.8476 25.3116 28.8476 25.3342 28.8476C25.4816 28.8476 25.5892 28.8363 25.6572 28.8136C25.7366 28.791 25.8102 28.7116 25.8782 28.5756C25.9349 28.451 26.0086 28.281 26.0992 28.0656C26.2012 27.8503 26.2749 27.686 26.3202 27.5726C26.3656 27.482 26.4392 27.431 26.5412 27.4196C26.6432 27.4083 26.7339 27.431 26.8132 27.4876C26.8926 27.533 26.9152 27.618 26.8812 27.7426L26.3542 30.4966C26.3316 30.5873 26.2749 30.6383 26.1842 30.6496C26.1049 30.661 26.0086 30.6666 25.8952 30.6666C25.8726 30.6666 25.8556 30.6666 25.8442 30.6666H19.3162Z" fill="white"/>
</svg>
