<svg width="45" height="36" viewBox="0 0 45 36" fill="none" xmlns="http://www.w3.org/2000/svg">
<path d="M24.1406 6.28125C25.0312 5.73438 25.625 4.74219 25.625 3.625C25.625 1.89844 24.2266 0.5 22.5 0.5C20.7734 0.5 19.375 1.89844 19.375 3.625C19.375 4.75 19.9688 5.73438 20.8594 6.28125L16.3828 15.2344C15.6719 16.6563 13.8281 17.0625 12.5859 16.0703L5.625 10.5C6.01562 9.97656 6.25 9.32812 6.25 8.625C6.25 6.89844 4.85156 5.5 3.125 5.5C1.39844 5.5 0 6.89844 0 8.625C0 10.3516 1.39844 11.75 3.125 11.75H3.17969L6.75 31.3906C7.17969 33.7656 9.25 35.5 11.6719 35.5H33.3281C35.7422 35.5 37.8125 33.7734 38.25 31.3906L41.8203 11.75H41.875C43.6016 11.75 45 10.3516 45 8.625C45 6.89844 43.6016 5.5 41.875 5.5C40.1484 5.5 38.75 6.89844 38.75 8.625C38.75 9.32812 38.9844 9.97656 39.375 10.5L32.4141 16.0703C31.1719 17.0625 29.3281 16.6563 28.6172 15.2344L24.1406 6.28125Z" fill="#AF6105"/>
<path d="M22.4106 30.8706C21.7193 30.8706 21.1073 30.7743 20.5746 30.5816C20.042 30.3776 19.6226 30.0943 19.3166 29.7316C19.0106 29.3576 18.8576 28.9213 18.8576 28.4226C18.8576 28.0373 18.9596 27.7313 19.1636 27.5046C19.379 27.2666 19.634 27.1476 19.9286 27.1476C20.2233 27.1476 20.45 27.2496 20.6086 27.4536C20.7673 27.6576 20.8466 27.9126 20.8466 28.2186C20.8466 28.3206 20.8353 28.434 20.8126 28.5586C20.79 28.672 20.7786 28.791 20.7786 28.9156C20.7786 29.3576 20.9373 29.6806 21.2546 29.8846C21.5833 30.0773 21.9573 30.1736 22.3766 30.1736C23.0113 30.1736 23.5043 30.0376 23.8556 29.7656C24.2183 29.4936 24.4733 29.1366 24.6206 28.6946C24.768 28.2526 24.8416 27.7766 24.8416 27.2666C24.8416 26.7226 24.768 26.2806 24.6206 25.9406C24.4846 25.5893 24.309 25.323 24.0936 25.1416C23.8783 24.9603 23.6516 24.8356 23.4136 24.7676C23.1756 24.6883 22.9603 24.6486 22.7676 24.6486C22.5183 24.6486 22.2406 24.66 21.9346 24.6826C21.64 24.694 21.436 24.6996 21.3226 24.6996C21.198 24.6996 21.096 24.643 21.0166 24.5296C20.9373 24.405 20.8976 24.286 20.8976 24.1726C20.8976 24.0593 20.9373 23.9516 21.0166 23.8496C21.096 23.7476 21.2036 23.6966 21.3396 23.6966C21.4756 23.6966 21.6456 23.7023 21.8496 23.7136C22.0536 23.7136 22.2406 23.7136 22.4106 23.7136C22.5693 23.7136 22.7563 23.657 22.9716 23.5436C23.1983 23.4303 23.425 23.2603 23.6516 23.0336C23.8783 22.7956 24.0653 22.501 24.2126 22.1496C24.36 21.787 24.4336 21.362 24.4336 20.8746C24.4336 20.172 24.2523 19.6563 23.8896 19.3276C23.527 18.999 23.0453 18.8346 22.4446 18.8346C21.9233 18.8346 21.504 18.948 21.1866 19.1746C20.8693 19.4013 20.6823 19.662 20.6256 19.9566C20.603 20.0926 20.6143 20.206 20.6596 20.2966C20.705 20.376 20.7616 20.461 20.8296 20.5516C20.8976 20.631 20.96 20.716 21.0166 20.8066C21.0733 20.8973 21.1016 21.0106 21.1016 21.1466C21.1016 21.4073 21.011 21.6283 20.8296 21.8096C20.6483 21.991 20.416 22.0816 20.1326 22.0816C19.8493 22.0816 19.6056 21.991 19.4016 21.8096C19.209 21.617 19.0786 21.3733 19.0106 21.0786C18.954 20.784 18.971 20.4893 19.0616 20.1946C19.1863 19.798 19.43 19.4466 19.7926 19.1406C20.1553 18.8233 20.5973 18.574 21.1186 18.3926C21.64 18.2113 22.201 18.1206 22.8016 18.1206C23.5496 18.1206 24.1956 18.251 24.7396 18.5116C25.2836 18.761 25.703 19.101 25.9976 19.5316C26.2923 19.951 26.4396 20.4156 26.4396 20.9256C26.4396 21.4016 26.3206 21.855 26.0826 22.2856C25.8446 22.705 25.516 23.0676 25.0966 23.3736C24.6773 23.6796 24.1956 23.9006 23.6516 24.0366C23.595 24.048 23.561 24.0763 23.5496 24.1216C23.5496 24.1556 23.5836 24.1726 23.6516 24.1726C24.275 24.1726 24.836 24.3143 25.3346 24.5976C25.8333 24.8696 26.23 25.2323 26.5246 25.6856C26.8193 26.139 26.9666 26.632 26.9666 27.1646C26.9666 27.9693 26.7513 28.6493 26.3206 29.2046C25.9013 29.76 25.346 30.1793 24.6546 30.4626C23.9633 30.7346 23.2153 30.8706 22.4106 30.8706Z" fill="white"/>
</svg>
